<svg id="Layer_4" data-name="Layer 4" xmlns="http://www.w3.org/2000/svg" viewBox="0 0 303.23 246.35"><defs><style>.cls-1{fill:#9191e9;}.cls-2{opacity:0.3;}.cls-3{fill:#080842;}.cls-4{fill:#4d5a6a;}.cls-5{opacity:0.55;}.cls-6{fill:#fff;}.cls-7{opacity:0.4;}.cls-8{fill:#ffd5b8;}.cls-9{fill:#02021e;}.cls-10{fill:#151328;}.cls-11{opacity:0.2;}.cls-12{fill:#fefefe;}.cls-13{fill:#8e8fb3;}.cls-14{opacity:0.15;}.cls-15{opacity:0.5;}.cls-16{fill:#f27e80;}.cls-17{fill:#ff5c64;}.cls-18{fill:#e8e8e8;}.cls-19{fill:#686868;}.cls-20{fill:#61619b;}.cls-21{fill:#c6d3e3;}.cls-22{opacity:0.75;}.cls-23{fill:none;stroke:#080842;stroke-linecap:round;stroke-linejoin:round;}</style></defs><rect class="cls-1" y="19.84" width="303.23" height="213.3"/><g class="cls-2"><path class="cls-3" d="M53.88,240c40.6,10.49,201.26,10.49,241.86,0,3.76-1,2.84-5.32-1.11-5.32H55C51,234.72,50.12,239.07,53.88,240Z" transform="translate(-23.05 -1.56)"/></g><path class="cls-3" d="M65.24,234.14a79.3,79.3,0,0,1,13.7-1.23c4.56-.12,9.13-.06,13.69,0s9.13.07,13.7.06h157.5c2.29,0,4.57-.08,6.85-.12,4.57,0,9.13,0,13.7,1.28a.59.59,0,0,1,.42.73.63.63,0,0,1-.42.43c-4.57,1.24-9.13,1.29-13.7,1.27-2.28,0-4.56-.11-6.85-.11H106.33q-6.85,0-13.7,0c-4.56.07-9.13.14-13.69,0a79.28,79.28,0,0,1-13.7-1.22.59.59,0,0,1-.46-.7A.56.56,0,0,1,65.24,234.14Z" transform="translate(-23.05 -1.56)"/><path class="cls-4" d="M231.28,222.34l.72-.09a34.59,34.59,0,0,0,29.81-41.31l-7.55-36.83a36.13,36.13,0,0,0-35.4-28.87h-86.7a36.13,36.13,0,0,0-35.4,28.87l-7.55,36.83A34.59,34.59,0,0,0,119,222.25l.72.09Z" transform="translate(-23.05 -1.56)"/><path class="cls-3" d="M231.3,222.61H119.74l-.75-.08a34.88,34.88,0,0,1-30-41.65l7.55-36.83A36.54,36.54,0,0,1,132.16,115h86.7a36.54,36.54,0,0,1,35.67,29.09l7.55,36.83a34.88,34.88,0,0,1-30,41.65Zm-99.14-107.1A36,36,0,0,0,97,144.16L89.48,181a34.33,34.33,0,0,0,29.57,41l.72.08H231.26L232,222a34.33,34.33,0,0,0,29.57-41L254,144.16a36,36,0,0,0-35.12-28.65Z" transform="translate(-23.05 -1.56)"/><g class="cls-2"><path class="cls-3" d="M232,222.25l-.72.09H119.74l-.72-.09a34.57,34.57,0,0,1-27.81-20.91,34.52,34.52,0,0,0,19,8.6l.72.08H222.5l.71-.08A34.6,34.6,0,0,0,253,168.62l-7.55-36.83a36.57,36.57,0,0,0-2.23-7.09,36,36,0,0,1,11,19.41l7.56,36.82A34.61,34.61,0,0,1,232,222.25Z" transform="translate(-23.05 -1.56)"/></g><g class="cls-5"><path class="cls-6" d="M236.69,119.94a36.12,36.12,0,0,0-13.24-2.5H136.76a36.13,36.13,0,0,0-35.4,28.87L93.8,183.13a34.63,34.63,0,0,0,16.72,37A34.65,34.65,0,0,1,89.2,180.93l7.56-36.82a36.13,36.13,0,0,1,35.4-28.87h86.7A36,36,0,0,1,236.69,119.94Z" transform="translate(-23.05 -1.56)"/></g><path class="cls-3" d="M231.28,224.14H119.74l-.21,0-.72-.08a36.39,36.39,0,0,1-31.36-43.47L95,143.75a38.07,38.07,0,0,1,37.16-30.31h86.7A38.07,38.07,0,0,1,256,143.75l7.55,36.82A36.39,36.39,0,0,1,232.21,224l-.72.08Zm-111.43-3.6H231.17l.62-.07a32.8,32.8,0,0,0,28.26-39.17l-7.56-36.83A34.45,34.45,0,0,0,218.86,117h-86.7a34.45,34.45,0,0,0-33.63,27.44L91,181.3a32.8,32.8,0,0,0,28.26,39.17Z" transform="translate(-23.05 -1.56)"/><path class="cls-4" d="M239.55,88c-.11.42-.22.85-.34,1.26l-.27.94c0,.12-.06.24-.1.36l-.24.76c-.1.33-.21.66-.32,1,0,.15-.09.29-.14.43-.16.47-.32.93-.49,1.38s-.37,1-.57,1.49-.4,1-.61,1.49-.42,1-.64,1.45-.42.93-.64,1.39l-.09.18c-.21.43-.42.86-.65,1.29v0c-.24.47-.49.94-.74,1.4s-.61,1.1-.92,1.64l-.66,1.12a0,0,0,0,0,0,0c-.28.46-.56.91-.85,1.36-.48.75-1,1.49-1.48,2.23l-.68,1-.58.8c-.29.4-.59.8-.89,1.19s-.59.76-.89,1.13l-.5.63-.32.39-.61.72c-.55.65-1.11,1.29-1.69,1.93l-.85.92-.63.67c-.3.31-.59.62-.9.92s-.87.87-1.32,1.31l-1.08,1c-.06,0-.11.11-.17.15-.37.35-.74.7-1.13,1-.7.63-1.41,1.24-2.14,1.84l-.54.46-1.12.9c-1.31,1-2.64,2-4,3l-.08.06a60.85,60.85,0,0,1-23.48,9.93,60.81,60.81,0,0,1-28.52-1.41,60.11,60.11,0,0,1-17.74-8.58l-1.3-.93-.13-.09-1.27-1c-.44-.33-.87-.67-1.31-1h0l-1.28-1-1.27-1.08L132.09,123c-.42-.37-.82-.74-1.22-1.12s-.8-.75-1.2-1.13l-1.17-1.15-1.14-1.18c-.38-.4-.76-.8-1.13-1.21s-.72-.79-1.07-1.2-.55-.63-.82-.94c-.79-.93-1.56-1.88-2.3-2.84l-.89-1.2-.12-.15c-.2-.27-.4-.54-.59-.82-.44-.62-.87-1.25-1.29-1.88-.24-.35-.47-.7-.69-1.06-.35-.53-.68-1.06-1-1.61l-.69-1.16c-.31-.55-.62-1.1-.92-1.66s-.45-.84-.66-1.26-.44-.86-.64-1.29a.76.76,0,0,1-.09-.18c-.46-.93-.88-1.87-1.28-2.82a.43.43,0,0,1,0-.12c-.2-.46-.39-.93-.58-1.41s-.39-1-.57-1.49-.36-1-.53-1.5-.25-.75-.37-1.13-.19-.6-.28-.9l-.12-.4c-.09-.29-.17-.58-.25-.88s-.24-.86-.35-1.3c-4.48-31.65,24.3-66.75,53.05-81.8a25.22,25.22,0,0,1,23.38,0c.65.34,1.29.7,1.94,1.07h0C216.54,23.45,243.93,57.1,239.55,88Z" transform="translate(-23.05 -1.56)"/><g class="cls-7"><path class="cls-3" d="M185.87,139.15c.81-.22,1.63-.44,2.43-.68a60.23,60.23,0,0,0,17.15-8.37l.08-.06q2-1.44,4-3l1.11-.9.55-.45c.72-.61,1.43-1.22,2.14-1.85.38-.34.76-.68,1.13-1a1.1,1.1,0,0,0,.16-.15c.37-.33.73-.68,1.09-1s.88-.87,1.31-1.31.6-.61.9-.92l.63-.67c.29-.3.58-.61.85-.92.58-.64,1.14-1.28,1.69-1.93l.61-.72.32-.39.51-.62c.3-.38.59-.75.88-1.14l.9-1.19.58-.8.68-1c.51-.74,1-1.48,1.48-2.23.28-.45.57-.9.84-1.36l0,0,.66-1.12c.32-.54.62-1.08.92-1.63s.5-.93.74-1.41l0,0c.22-.43.44-.85.64-1.29l.09-.18c.22-.46.44-.92.65-1.39s.43-1,.64-1.45.41-1,.6-1.48.39-1,.57-1.5.34-.91.49-1.38l.15-.43c.11-.32.21-.64.32-1s.16-.51.23-.77l.11-.35.27-1c.11-.41.23-.83.33-1.25C239.68,58.3,213,25.1,185.28,8.73c19.5,17.74,34.26,42.6,31,65.92-.1.42-.22.85-.33,1.26l-.27.94c0,.12-.07.24-.11.36s-.16.51-.23.77-.21.65-.32,1l-.15.43c-.15.47-.31.93-.49,1.38s-.37,1-.57,1.5-.39,1-.6,1.48-.42,1-.64,1.45-.43.93-.65,1.39l-.09.18c-.2.43-.42.86-.64,1.29l0,0c-.24.48-.49.94-.74,1.41s-.6,1.09-.92,1.63l-.66,1.12,0,0c-.27.46-.56.91-.84,1.36-.48.75-1,1.49-1.48,2.23l-.68,1-.58.8-.9,1.19c-.29.39-.58.76-.88,1.14l-.51.62-.32.39-.61.72c-.55.65-1.11,1.29-1.69,1.93-.27.31-.56.62-.85.92l-.63.67c-.3.31-.59.62-.9.92s-.87.87-1.31,1.31-.72.69-1.09,1a1.1,1.1,0,0,1-.16.15l-1.13,1c-.71.63-1.42,1.24-2.14,1.84l-.55.46-1.11.9q-2,1.56-4,3l-.07.06a61,61,0,0,1-23.48,9.93,60.61,60.61,0,0,1-10.74,1.06,60.61,60.61,0,0,0,10.74-1.06l.3-.06c-1.29.33-2.59.63-3.9.88a60.64,60.64,0,0,1-23.67-.2l-.28-.21,1.29,1,1.27,1,.13.09,1.3.93A60.11,60.11,0,0,0,157,137.8a60.81,60.81,0,0,0,28.52,1.41c1.12-.21,2.23-.46,3.33-.74C187.89,138.72,186.88,139,185.87,139.15Z" transform="translate(-23.05 -1.56)"/></g><g class="cls-5"><path class="cls-6" d="M198.72,14.38c-2.21-1.49-4.45-2.89-6.68-4.18h0c-.65-.37-1.29-.73-1.93-1.06a25.22,25.22,0,0,0-23.38,0c-28.76,15.05-57.54,50.15-53,81.8.11.44.22.87.34,1.3s.17.59.26.88a3,3,0,0,0,.12.4l.27.9c.12.38.25.75.37,1.13s.35,1,.54,1.5.37,1,.57,1.49.37.94.57,1.41a.34.34,0,0,0,.06.12c.39,1,.82,1.89,1.27,2.82l.09.18c.21.43.42.86.64,1.29l.66,1.26.93,1.66c.22.39.46.78.69,1.16.33.55.66,1.08,1,1.61l.69,1.06c.42.63.85,1.26,1.3,1.88.19.28.39.55.59.82l.11.15c.29.4.6.8.9,1.19.74,1,1.51,1.92,2.29,2.85l.83.94c.35.41.7.81,1.06,1.2l1.13,1.21c.38.4.77.79,1.15,1.18s.77.77,1.17,1.15l1.19,1.13c.4.38.81.74,1.22,1.12l1.25,1.08c.41.36.83.72,1.27,1.07l1.28,1.05h0l1.32,1L142,131c-.5-.32-1-.66-1.48-1l-1.3-.93-.13-.09-1.27-1c-.44-.33-.87-.67-1.31-1h0l-1.28-1-1.27-1.08c-.42-.36-.84-.72-1.24-1.08s-.82-.74-1.23-1.12l-1.19-1.13-1.17-1.15L128,119.24,126.82,118c-.35-.39-.71-.79-1.06-1.2s-.55-.62-.82-.94c-.79-.93-1.56-1.88-2.3-2.84l-.89-1.2s-.08-.1-.12-.15c-.2-.27-.4-.54-.59-.82-.44-.62-.87-1.24-1.29-1.88q-.36-.52-.69-1c-.35-.54-.68-1.07-1-1.62l-.69-1.16c-.31-.55-.62-1.1-.92-1.66s-.45-.84-.66-1.26-.44-.86-.64-1.29a.76.76,0,0,1-.09-.18c-.46-.93-.89-1.87-1.28-2.82a.43.43,0,0,1,0-.12c-.2-.46-.39-.93-.58-1.4s-.39-1-.57-1.5-.37-1-.53-1.5-.26-.75-.37-1.13-.19-.6-.28-.9l-.12-.4c-.09-.29-.17-.58-.25-.87s-.24-.87-.35-1.31C106.19,57.18,135,22.08,163.72,7A25.22,25.22,0,0,1,187.1,7c.65.34,1.29.69,1.93,1.07h0A109.84,109.84,0,0,1,198.72,14.38Z" transform="translate(-23.05 -1.56)"/></g><path class="cls-3" d="M174.81,142.06a62.25,62.25,0,0,1-35.95-11.37l-1.31-.94-.07-.05-.08-.06-1.28-1c-.43-.33-.85-.65-1.26-1l-.11-.07-1.25-1-1.34-1.13c-.43-.37-.86-.74-1.27-1.11l-.06-.06c-.41-.36-.8-.72-1.2-1.09s-.8-.76-1.21-1.15-.8-.78-1.2-1.18-.79-.8-1.16-1.2l-1.15-1.22c-.38-.42-.75-.83-1.11-1.25s-.56-.63-.83-1c-.83-1-1.62-2-2.35-2.91l-.2-.26-.7-.93-.12-.16c-.22-.29-.43-.59-.64-.88-.48-.68-.91-1.31-1.31-1.92-.24-.35-.49-.72-.72-1.09-.34-.53-.68-1.08-1-1.64l-.21-.35-.49-.83c-.31-.55-.61-1.08-.9-1.62l0-.09-.68-1.3c-.22-.42-.43-.85-.64-1.28,0-.09-.09-.18-.13-.27-.49-1-.9-1.91-1.27-2.79l-.11-.25c-.19-.46-.38-.92-.56-1.39s-.41-1-.59-1.54-.37-1-.55-1.54-.26-.77-.38-1.16-.19-.61-.28-.92c0-.13-.09-.29-.13-.44s-.18-.58-.26-.9-.23-.86-.35-1.3a1.77,1.77,0,0,1,0-.2c-2.72-19.17,6.31-36.91,14.37-48.41,10.17-14.54,24.62-27.39,39.63-35.24a27,27,0,0,1,25,0c15,7.85,29.46,20.7,39.63,35.24,8.06,11.5,17.09,29.24,14.37,48.41a1.29,1.29,0,0,1,0,.19c-.11.43-.23.87-.34,1.29l-.31,1.07a2.29,2.29,0,0,1-.09.28c-.05.19-.11.38-.17.57l-.06.2-.3.94,0,.07-.15.45c-.16.47-.33,1-.51,1.43s-.38,1-.58,1.53-.4,1-.62,1.51-.43,1-.67,1.51-.42.94-.65,1.41l-.11.21c-.19.41-.42.86-.65,1.31s-.51,1-.77,1.46-.63,1.14-.95,1.69c-.21.37-.44.75-.67,1.13v0l-.87,1.4c-.53.82-1,1.57-1.52,2.28-.22.33-.46.66-.69,1l-.6.82-.91,1.22c-.3.4-.6.78-.91,1.16l-.52.65-1,1.14c-.56.66-1.14,1.32-1.73,2-.26.3-.55.62-.85.93l-.66.7c-.32.34-.63.65-.94,1s-.87.87-1.32,1.31-.73.7-1.1,1l-.21.19c-.37.36-.75.7-1.13,1-.75.66-1.48,1.3-2.19,1.88l-.54.46-1.15.93c-1.32,1.05-2.7,2.08-4.09,3.06l-.07.05h0A62.33,62.33,0,0,1,174.81,142.06ZM139.7,126.87l1.24.88a58.89,58.89,0,0,0,67.67,0h0l.08,0c1.33-.94,2.65-1.93,3.92-2.94l1.1-.88.53-.45c.67-.56,1.38-1.17,2.1-1.81.36-.32.73-.65,1.08-1l.1-.09,0,0,.06,0c.36-.33.7-.66,1-1l1.29-1.27.87-.89.63-.67c.29-.31.56-.59.81-.88.58-.64,1.13-1.27,1.67-1.9l.9-1.09.5-.61c.29-.36.58-.73.86-1.1l.87-1.16.57-.79.66-.93c.47-.68.94-1.4,1.45-2.18.28-.44.55-.88.82-1.32v0h0c.22-.36.43-.72.64-1.09.32-.54.62-1.07.91-1.6s.48-.9.71-1.36c0,0,0-.05,0-.06.21-.4.42-.8.61-1.21l.11-.23c.2-.41.41-.86.61-1.31s.43-1,.63-1.42.4-1,.58-1.43.38-1,.55-1.45.34-.91.48-1.35l.17-.5c.1-.28.19-.57.28-.87l.07-.21c.05-.17.11-.34.15-.5s0-.08,0-.12a.83.83,0,0,0,0-.15l.3-1c.1-.36.2-.74.3-1.12,2-14-2.93-30.26-13.76-45.74-9.86-14.08-23.84-26.52-38.36-34.12a23.38,23.38,0,0,0-21.7,0c-14.52,7.6-28.5,20-38.36,34.12-10.83,15.48-15.72,31.72-13.76,45.74.1.39.2.78.31,1.17s.16.56.24.84.08.27.11.38l.28.89.36,1.1c.16.49.34,1,.52,1.45s.36,1,.55,1.45.37.93.56,1.38v0l0,.1c.35.85.76,1.74,1.24,2.73l0,.07.06.12c.2.41.4.82.61,1.23l.66,1.25,0,.06c.29.52.57,1,.86,1.55l.47.78.21.35c.31.52.64,1,1,1.56.22.36.44.69.67,1,.39.58.8,1.18,1.27,1.84.19.27.37.53.56.78l0,.07,0,0,.11.15c.22.3.44.6.67.89l.19.26c.7.9,1.45,1.84,2.24,2.77l.8.91c.35.41.7.8,1,1.18l1.11,1.19c.35.37.72.75,1.09,1.12l1.15,1.14,1.18,1.11c.38.36.76.7,1.14,1l.06.05,1.21,1.06c.41.35.82.7,1.24,1l1.19,1,.08.06,1.29,1,1.2.9A1.49,1.49,0,0,1,139.7,126.87Zm-2.26,2.79Zm80.12-9.1h0Zm-102.71-24h0Zm-.11-.27ZM239.55,88Z" transform="translate(-23.05 -1.56)"/><path class="cls-8" d="M225.18,97.12l-.35,1c-3.33,8.53-9.87,13.08-13.83,7.93l2.36-11.59L215,86.6C221.14,82.39,229.38,84.28,225.18,97.12Z" transform="translate(-23.05 -1.56)"/><path class="cls-9" d="M215,108.47a5.15,5.15,0,0,1-4.13-2.26l-.06-.07,4-19.66.07,0c3.37-2.31,7.16-2.7,9.44-1,1.48,1.11,3.59,4.12,1.1,11.75h0c-.11.34-.23.69-.36,1-2.23,5.71-5.9,9.71-9.36,10.2A5.78,5.78,0,0,1,215,108.47ZM211.23,106a4.63,4.63,0,0,0,4.38,2c3.31-.48,6.85-4.37,9-9.93.12-.34.24-.68.35-1h0c1.79-5.47,1.45-9.47-.95-11.27-2.11-1.59-5.67-1.2-8.87,1Z" transform="translate(-23.05 -1.56)"/><g class="cls-2"><path class="cls-9" d="M225.18,97.12l-.35,1c-3.33,8.53-9.87,13.08-13.83,7.93l2.36-11.59.89-.07q3.6,11.27,10.46,2Z" transform="translate(-23.05 -1.56)"/></g><path class="cls-9" d="M215,109.7a6.39,6.39,0,0,1-5.11-2.74,1.38,1.38,0,0,1-.27-1.16l4-19.48a1.47,1.47,0,0,1,.6-.91c3.86-2.63,8.26-3,10.95-.9,1.81,1.4,4.35,5.1,1.09,14.13-2.44,6.23-6.4,10.43-10.35,11A5.1,5.1,0,0,1,215,109.7Zm-2.42-4a3.21,3.21,0,0,0,2.89,1.1c2.83-.41,6.06-4.09,8-9.16,1.92-5.3,1.87-9.27-.15-10.83-1.58-1.23-4.43-.93-7.07.69Z" transform="translate(-23.05 -1.56)"/><path class="cls-8" d="M124.45,97.12l.35,1c3.34,8.53,9.87,13.08,13.83,7.93l-2.36-11.59-1.61-7.89C128.49,82.39,120.25,84.28,124.45,97.12Z" transform="translate(-23.05 -1.56)"/><path class="cls-9" d="M134.67,108.56a4.46,4.46,0,0,1-.72-.06c-3.49-.49-7.19-4.52-9.43-10.24-.12-.37-.25-.71-.36-1.05h0c-2.51-7.69-.37-10.72,1.13-11.85,2.31-1.73,6.14-1.33,9.54,1l.1.07,4,19.73-.08.11A5.27,5.27,0,0,1,134.67,108.56ZM124.73,97c.11.34.23.68.36,1,2.15,5.52,5.67,9.39,8.94,9.86a4.46,4.46,0,0,0,4.28-1.9l-3.92-19.23c-3.16-2.12-6.66-2.5-8.74-.94-2.37,1.78-2.69,5.75-.92,11.18Z" transform="translate(-23.05 -1.56)"/><g class="cls-5"><path class="cls-6" d="M133.3,108.12c-3.06-1-6.21-4.71-8.21-9.83-.12-.35-.24-.69-.35-1-4.2-12.84,4-14.73,10.21-10.51l0,.14c-5.58-2.11-11.21.82-7.6,11.89.11.34.23.68.36,1A20.36,20.36,0,0,0,133.3,108.12Z" transform="translate(-23.05 -1.56)"/></g><path class="cls-9" d="M134.66,109.7a5.1,5.1,0,0,1-.87-.07c-3.95-.56-7.91-4.76-10.33-11-3.28-9.06-.74-12.76,1.07-14.16,2.7-2.09,7.09-1.73,10.95.9a1.47,1.47,0,0,1,.6.91l4,19.48a1.46,1.46,0,0,1-.27,1.16A6.42,6.42,0,0,1,134.66,109.7ZM128.8,86a4,4,0,0,0-2.5.75c-2,1.56-2.07,5.53-.14,10.87,2,5,5.2,8.71,8,9.12a3.2,3.2,0,0,0,2.88-1.1l-3.71-18.2A9,9,0,0,0,128.8,86Z" transform="translate(-23.05 -1.56)"/><path class="cls-8" d="M214.1,94.78v6.67a34.92,34.92,0,0,1-14.94,28.83l-.4.27a42.9,42.9,0,0,1-47.7,0l-.4-.28a34.89,34.89,0,0,1-14.95-28.83V94.78s0-.43.08-1.2c.35-6.08,2-33.38,2.22-34.08C146.59,36.41,232.38,42.07,214.1,94.78Z" transform="translate(-23.05 -1.56)"/><path class="cls-9" d="M174.9,138.13a43,43,0,0,1-24-7.33l-.36-.24a35.18,35.18,0,0,1-15.12-29.11V94.78s0-.45.08-1.22c.58-10,2-33.45,2.24-34.16,2.25-6.07,9.89-10.56,21-12.33A70.25,70.25,0,0,1,192,50.17c10.14,3.64,32.61,15.28,22.45,44.66v6.62a35.18,35.18,0,0,1-15.07,29.08l-.16.1-.24.17A43.1,43.1,0,0,1,174.9,138.13ZM168.8,46.9a63,63,0,0,0-10,.77c-10.85,1.73-18.31,6.08-20.49,11.94-.2.76-1.32,18.79-2.2,34-.05.77-.08,1.2-.08,1.2v6.65A34.53,34.53,0,0,0,150.83,130l.4.28a42.39,42.39,0,0,0,47.36,0l.25-.17.15-.1a34.56,34.56,0,0,0,14.81-28.58V94.68c10-28.91-12.09-40.36-22.06-44A69.56,69.56,0,0,0,168.8,46.9Z" transform="translate(-23.05 -1.56)"/><g class="cls-2"><path class="cls-9" d="M214.1,94.78v6.67a34.92,34.92,0,0,1-14.94,28.83l-.4.27a42.9,42.9,0,0,1-47.7,0l-.4-.28-.89-.63a42.88,42.88,0,0,0,42.58-3l.4-.27A34.91,34.91,0,0,0,207.69,97.6l.57-8.4c6.2-17.89-.15-28.62-10.83-36.38C212,60,221.45,73.57,214.1,94.78Z" transform="translate(-23.05 -1.56)"/></g><g class="cls-2"><path class="cls-9" d="M214.1,94.78v2.71C209.79,91.14,209,73.82,209,73.82c-3.77,4.09-24.93,8.8-39.78.92A.93.93,0,0,0,167.9,76c.18.37.25.49.25.49-2,1.21-11.15,0-16.14-2.87a2.3,2.3,0,0,0-3.41,1.65c-1.12,7.14-4.67,12.11-12.27,19.54q-.29-.6-.54-1.2c.35-6.08,2-33.38,2.22-34.08C146.59,36.41,232.38,42.07,214.1,94.78Z" transform="translate(-23.05 -1.56)"/></g><g class="cls-5"><path class="cls-6" d="M191.17,134.6a42.92,42.92,0,0,1-40.11-4l-.4-.28a34.89,34.89,0,0,1-14.95-28.83V94.78s2-34.49,2.3-35.28c1.81-4.85,7-8.43,14-10.58-5.22,2.18-9.06,5.33-10.55,9.35-.29.79-2.3,35.28-2.3,35.28v6.67a34.91,34.91,0,0,0,14.94,28.83,2.9,2.9,0,0,1,.41.27C163.83,137.8,179,138.43,191.17,134.6Z" transform="translate(-23.05 -1.56)"/></g><path class="cls-9" d="M174.91,139.28a44.16,44.16,0,0,1-24.65-7.53l-.42-.28a36.28,36.28,0,0,1-15.57-30V94.7c2-34.69,2.3-35.46,2.39-35.7h0c5.28-14.21,35-17.32,55.68-9.91,9.84,3.54,17.28,9.14,21.54,16.21,5,8.32,5.56,18.31,1.66,29.72v6.43a36.29,36.29,0,0,1-15.57,30l-.41.28A44.21,44.21,0,0,1,174.91,139.28ZM137.16,94.82v6.63a33.38,33.38,0,0,0,14.32,27.64l.38.27a41.24,41.24,0,0,0,46.09,0l.39-.26a33.41,33.41,0,0,0,14.31-27.64V94.78a1.5,1.5,0,0,1,.08-.47c9.7-27.95-11.71-39-21.37-42.5-20.92-7.52-47.55-3.35-52,8.09C139.14,61.76,137.92,81.67,137.16,94.82ZM139.37,60Zm0,0v0ZM138,59.5h0Z" transform="translate(-23.05 -1.56)"/><path class="cls-10" d="M213.65,45.36c10.82,13.83,9.47,37.89.36,50.5-7-3.85-7.44-22-7.44-22-16.51,4.49-33.21,1.75-48.36-11.3-.32,5.12,4,9.88,4,9.88a20.52,20.52,0,0,1-5.27-.81C151.45,70,148.19,66,146.19,61c-1.92,17.32-2,21.17-10.48,33.79-8.41-18-10-40.28,4.07-46.93-19.56-6.74-12.35-20.37,4.49-8.26-8.26-11.87,2.16-16.44,4.32-3.37C160.77,14,214.25,21.79,221.5,47l-7.84-1.67Z" transform="translate(-23.05 -1.56)"/><path class="cls-9" d="M214.09,96.25l-.23-.12c-6.56-3.63-7.47-19.21-7.58-21.93-17.53,4.66-33.6,1-47.78-11.05,0,4.71,3.87,9,3.91,9.05l.47.52-.7,0a20.88,20.88,0,0,1-5.34-.82c-4.74-1.42-8.18-4.61-10.48-9.72l-.1,1C144.55,78.62,144.09,82.78,136,95l-.29.44-.23-.48c-8.47-18.17-9.88-40,3.57-47-7.9-2.86-11-6.73-11.26-9.43a3.26,3.26,0,0,1,1.71-3.3c2.32-1.33,7.09-1.09,13.72,3.31-2.78-4.54-2.7-7.83-1.7-9.34A2.33,2.33,0,0,1,144,28.08c1.69.36,3.77,2.48,4.74,7.28,6.7-11.12,22.85-13.58,35.93-12.12C200.25,25,217.77,33,221.78,47l.14.48-7.54-1.62c10.5,14.21,8.67,38-.13,50.22Zm-7.23-22.82v.38c0,.18.53,17.66,7,21.66,8.68-12.26,10.31-36.09-.51-49.92l-.38-.49.73,0,7.3,1.57c-4.2-13.43-21.26-21.13-36.46-22.82-13.16-1.46-29.46,1.06-35.74,12.54l-.42.76-.14-.86c-.84-5.09-2.91-7.28-4.43-7.6a1.71,1.71,0,0,0-1.89.79c-1,1.49-.92,5,2.53,10l1,1.43-1.42-1C137,34.75,132,34.42,129.76,35.68a2.71,2.71,0,0,0-1.42,2.72c.24,2.48,3.4,6.36,11.54,9.16l.69.24-.66.32c-13.66,6.47-12.43,28-4.15,46.05,7.76-11.7,8.22-15.92,9.9-31.12l.36-3.28.45,1.11c2.22,5.55,5.67,9,10.54,10.42a19.4,19.4,0,0,0,4.51.77c-1.11-1.39-3.87-5.32-3.61-9.57l0-.6.46.39c14.23,12.26,30.41,16.05,48.08,11.24Z" transform="translate(-23.05 -1.56)"/><g class="cls-2"><path class="cls-9" d="M144.19,58a20.45,20.45,0,0,1,1.8,4.79c-1.74,15.82-2.14,19.83-10.28,32-1-2-1.81-4.14-2.57-6.26,6.67-10.36,7.46-16.21,9-30.16A1.09,1.09,0,0,1,144.19,58Z" transform="translate(-23.05 -1.56)"/></g><g class="cls-5"><path class="cls-6" d="M141.09,37.54c-10.59-4.49-14.43,3.27-4.11,9.22C122.09,40.27,127.4,29.7,141.09,37.54Z" transform="translate(-23.05 -1.56)"/></g><g class="cls-5"><path class="cls-6" d="M139.44,48h0A1.93,1.93,0,0,1,140,51.3c-9.58,7.94-9.21,25.82-2.89,41.41-.42.66-.87,1.35-1.36,2.07C127.36,76.89,125.77,54.86,139.44,48Z" transform="translate(-23.05 -1.56)"/></g><g class="cls-5"><path class="cls-6" d="M143.61,39.4l0,0c-5.58-8.61-.5-13.56,2.9-9.59-1.88.27-3,3.17-.91,7.76A1.43,1.43,0,0,1,143.61,39.4Z" transform="translate(-23.05 -1.56)"/></g><g class="cls-5"><path class="cls-6" d="M210.88,34.06a83.62,83.62,0,0,0-32.76-7.15c-1.73,3.31-7.55,3.15-10,.79-6.3,1.13-11.64,3.52-15,7.5A2.2,2.2,0,0,1,149.6,35l-.12-.22C159.92,21.45,195.13,20.35,210.88,34.06Z" transform="translate(-23.05 -1.56)"/></g><path class="cls-9" d="M214,97.31a1.46,1.46,0,0,1-.7-.18c-6.36-3.51-7.79-16.48-8.1-21.48-16.43,4-31.57.72-45.09-9.72a17.5,17.5,0,0,0,3.14,5.51,1.44,1.44,0,0,1,.23,1.57,1.42,1.42,0,0,1-1.3.83h-.05c-6.62-.2-11.66-2.88-15-8-1.52,13.6-2.39,18-10.19,29.7a1.43,1.43,0,0,1-2.5-.19c-8.27-17.72-9.87-38.86,2.06-47.28-6.82-3-9.6-6.77-9.86-9.55a4.39,4.39,0,0,1,2.28-4.39c2.18-1.26,6.2-1.35,11.58,1.39-1.19-3.23-.88-5.66.06-7.06A3.47,3.47,0,0,1,144.24,27c2.12.46,3.88,2.52,5,5.72,7.63-9.8,23-12,35.59-10.58,16,1.77,33.93,10,38.09,24.55a1.43,1.43,0,0,1-.33,1.38,1.47,1.47,0,0,1-1.36.43l-4.29-.93c3.91,6.41,6,14.63,5.85,23.56-.13,9.8-2.89,19.14-7.57,25.62A1.44,1.44,0,0,1,214,97.31Zm-7.44-24.94A1.45,1.45,0,0,1,208,73.78c.12,4.48,1.37,16.13,5.64,20,7.86-12.18,9.1-34.49-1.14-47.58A1.44,1.44,0,0,1,214,44l5.32,1.14c-5-11.76-20.71-18.56-34.8-20.12-16.07-1.79-29.66,2.9-34.61,12a1.45,1.45,0,0,1-2.69-.46c-.8-4.85-2.66-6.49-3.54-6.67a.6.6,0,0,0-.7.3c-.59.9-.83,3.86,2.52,8.67a1.44,1.44,0,0,1-2,2c-6.2-4.46-11-5.27-13.09-4.09a1.56,1.56,0,0,0-.85,1.62c.22,2.31,3.64,5.74,10.77,8.19a1.45,1.45,0,0,1,.15,2.67c-7.55,3.58-9.4,11.74-9.63,17.95-.27,7.36,1.61,16.23,5.19,24.68,6.5-10.14,7-14.31,8.56-28.86l.24-2.09a1.44,1.44,0,0,1,2.77-.37c2.32,5.81,6.14,9.16,11.61,10.18a14.64,14.64,0,0,1-2.37-8.21,1.45,1.45,0,0,1,2.39-1c13.93,12,29.75,15.71,47,11A1.65,1.65,0,0,1,206.57,72.37Z" transform="translate(-23.05 -1.56)"/><path class="cls-9" d="M206.57,75.26a1.44,1.44,0,0,1-.37-2.84c1.79-.48,3.6-1.06,5.38-1.72a1.44,1.44,0,1,1,1,2.71c-1.86.69-3.76,1.29-5.63,1.8A1.73,1.73,0,0,1,206.57,75.26Z" transform="translate(-23.05 -1.56)"/><g class="cls-2"><path class="cls-9" d="M214,95.86c-7-3.85-7.44-22-7.44-22-16.51,4.49-33.21,1.75-48.36-11.3-.32,5.12,4,9.88,4,9.88a20.52,20.52,0,0,1-5.27-.81c-7.89-13-4.53-16.09,6.83-12.08,31.51,10.16,54.45,11.76,49.9-14.15C224.47,59.19,223.12,83.25,214,95.86Z" transform="translate(-23.05 -1.56)"/></g><g class="cls-11"><path class="cls-12" d="M206,57.39c0,2.18-4.28,4-9.56,4s-9.56-1.77-9.56-4,4.28-2.25,9.56-2.25S206,55.2,206,57.39Z" transform="translate(-23.05 -1.56)"/></g><path class="cls-9" d="M180,121.46s-2.07,1.32-7.46,1.32c-1.17.09-4.52-.1-8.75-4a9,9,0,0,0,8.62,5.63A10.91,10.91,0,0,0,180,121.46Z" transform="translate(-23.05 -1.56)"/><path class="cls-9" d="M149.34,96.42a6.59,6.59,0,0,1,2.87-3.53,8.53,8.53,0,0,1,4.55-1.24,8.67,8.67,0,0,1,4.51,1.3,6.87,6.87,0,0,1,2.92,3.47,31.59,31.59,0,0,0-3.91-1.15,18.25,18.25,0,0,0-3.55-.41,15.83,15.83,0,0,0-3.53.35A24.71,24.71,0,0,0,149.34,96.42Z" transform="translate(-23.05 -1.56)"/><path class="cls-9" d="M201.05,96.42a24.71,24.71,0,0,0-3.86-1.21,15.83,15.83,0,0,0-3.53-.35,18.25,18.25,0,0,0-3.55.41,32.1,32.1,0,0,0-3.91,1.15A6.92,6.92,0,0,1,189.12,93a8.67,8.67,0,0,1,4.51-1.3,8.51,8.51,0,0,1,4.55,1.24A6.59,6.59,0,0,1,201.05,96.42Z" transform="translate(-23.05 -1.56)"/><ellipse class="cls-9" cx="135.16" cy="103.65" rx="4.96" ry="6.54"/><ellipse class="cls-6" cx="136.43" cy="102.14" rx="1.5" ry="2.2"/><path class="cls-9" d="M159.48,106.19c-1,0-1.8-1.1-1.8-2.5s.79-2.49,1.8-2.49,1.8,1.09,1.8,2.49S160.49,106.19,159.48,106.19Zm0-4.39c-.65,0-1.2.87-1.2,1.89s.55,1.9,1.2,1.9,1.2-.87,1.2-1.9S160.13,101.8,159.48,101.8Z" transform="translate(-23.05 -1.56)"/><ellipse class="cls-9" cx="169.46" cy="103.65" rx="4.96" ry="6.54"/><ellipse class="cls-6" cx="168.19" cy="102.14" rx="1.5" ry="2.2"/><path class="cls-9" d="M191.24,106.19c-1,0-1.79-1.1-1.79-2.5s.78-2.49,1.79-2.49,1.8,1.09,1.8,2.49S192.25,106.19,191.24,106.19Zm0-4.39c-.65,0-1.2.87-1.2,1.89s.55,1.9,1.2,1.9,1.2-.87,1.2-1.9S191.89,101.8,191.24,101.8Z" transform="translate(-23.05 -1.56)"/><path class="cls-13" d="M108.13,173.79c-8.19,4.69-16,.41-17.14-6.08a9.79,9.79,0,0,1,.12-4,11.32,11.32,0,0,1,.89-2.47c.36-.74.73-1.47,1.09-2.21a22.68,22.68,0,0,0,2.57-7.53,7.26,7.26,0,0,0-.43-3.28,3.71,3.71,0,0,0-1-1.4,3.86,3.86,0,0,0-1.77-.89,3.53,3.53,0,0,0-.86-.08c-1.84.08-3.51,1.75-2.84,5.91.95,5.84-5.4,7.67-7.74,2.66-.1-.22-.19-.46-.28-.7l-.09-.26c-1.45-4.67.31-12.75,7.52-14.44a10.47,10.47,0,0,1,1-.19,11.65,11.65,0,0,1,1.43-.12,10.87,10.87,0,0,1,2.51.2C99,140,102.68,145.8,100.83,153c-1,3.88-5,11.2-3.3,14.73.53,1.12,2.18,2,4.14,1.9h.15a7,7,0,0,0,4.37-2.07Z" transform="translate(-23.05 -1.56)"/><g class="cls-14"><path class="cls-3" d="M108.13,173.79c-8.19,4.69-16,.41-17.14-6.08,1,3.28,6.34,5.39,10.68,1.95h.15a7,7,0,0,0,4.37-2.07Z" transform="translate(-23.05 -1.56)"/></g><path class="cls-13" d="M152.82,132.28c-1.28,12.78-16.48,14.41-23.64,15.83h-9c-4.63-.92-12.62-1.93-18-6a14.5,14.5,0,0,1-3.39-3.51,13,13,0,0,1-1.59-3.28,14.38,14.38,0,0,1-.58-2.66c-.05-.36-.08-.72-.1-1.1a20.76,20.76,0,0,1,.11-3.57,67.77,67.77,0,0,1,2.13-8.57c.39-1.26.82-2.51,1.26-3.64-1.63-7.26-2.3-16.4.16-19.54,1.6-2,5.92,0,12.48,5.62,4.68-2.06,11.09-2.18,12.08-2.18s7.4.12,12.08,2.18c6.55-5.62,10.88-7.67,12.47-5.62,2.46,3.14,1.79,12.28.16,19.54A71.15,71.15,0,0,1,152.76,128,19.76,19.76,0,0,1,152.82,132.28Z" transform="translate(-23.05 -1.56)"/><g class="cls-15"><path class="cls-6" d="M150.82,104.75c-.08-2.9-.56-5.32-1.61-6.66-1.59-2-5.92,0-12.47,5.62-4.68-2.06-11.1-2.18-12.08-2.18s-7.4.12-12.08,2.18C106,98.1,101.7,96,100.1,98.09c-1,1.34-1.52,3.76-1.61,6.66-.09-3.69.35-6.87,1.61-8.48,1.6-2,5.92,0,12.48,5.62,4.68-2.06,11.09-2.18,12.08-2.18s7.4.12,12.08,2.18c6.55-5.62,10.88-7.67,12.47-5.62C150.47,97.88,150.91,101.06,150.82,104.75Z" transform="translate(-23.05 -1.56)"/></g><path class="cls-6" d="M152.82,132.28c-1.28,12.78-16.48,14.41-23.64,15.83h-9c-4.63-.92-12.62-1.93-18-6a14.5,14.5,0,0,1-3.39-3.51,13,13,0,0,1-1.59-3.28,14.38,14.38,0,0,1-.58-2.66c11.07,9.51,19.06,5.25,22.63-2a6.07,6.07,0,0,1,10.55,0C133.34,138,141.51,142.32,152.82,132.28Z" transform="translate(-23.05 -1.56)"/><g class="cls-14"><path class="cls-3" d="M151.57,136.93c-4,8.57-16.21,9.95-22.39,11.18h-9c-4.63-.92-12.62-1.93-18-6a14.5,14.5,0,0,1-3.39-3.51,13.39,13.39,0,0,1-1-1.7,18,18,0,0,0,1.88,1.61c4.12,3.09,18.46,4.63,25,4.63S147.35,141.13,151.57,136.93Z" transform="translate(-23.05 -1.56)"/></g><path class="cls-3" d="M108.14,114.66c-.34-.52,1.87-5.15,6-3.78,1.49.49,1.63,2,.47,2.26a21.28,21.28,0,0,0-3.31.66C110.35,114.14,108.47,115.18,108.14,114.66Z" transform="translate(-23.05 -1.56)"/><path class="cls-3" d="M141.18,114.66c.33-.52-1.87-5.15-6-3.78-1.5.49-1.64,2-.48,2.26a21.28,21.28,0,0,1,3.31.66C139,114.14,140.84,115.18,141.18,114.66Z" transform="translate(-23.05 -1.56)"/><path class="cls-16" d="M105.82,107.36c-2,2.15-3.28,5.16-3.46,4.81l-.06-.12a33.22,33.22,0,0,1-1-8.37c0-.56,0-1.06,0-1.49a7.92,7.92,0,0,1,.45-2.42,1,1,0,0,1,1.34-.57,22.51,22.51,0,0,1,6.42,4.67C109.79,104.16,107.84,105.21,105.82,107.36Z" transform="translate(-23.05 -1.56)"/><path class="cls-17" d="M105.82,107.36c-2,2.15-3.28,5.16-3.46,4.81l-.06-.12a33.11,33.11,0,0,1,2.64-6.17,3.57,3.57,0,0,0-2-5.06c-.53-.21-1.16.66-1.57,1.37a7.92,7.92,0,0,1,.45-2.42,1,1,0,0,1,1.34-.57,22.51,22.51,0,0,1,6.42,4.67C109.79,104.16,107.84,105.21,105.82,107.36Z" transform="translate(-23.05 -1.56)"/><path class="cls-3" d="M102.41,112.87h0a.68.68,0,0,1-.61-.39c-.45-.89-1.14-5.18-1.13-8.79h0a11.42,11.42,0,0,1,.56-4.17,1.67,1.67,0,0,1,2.19-.94,23.19,23.19,0,0,1,6.72,4.89c.16.22.34.66-.26,1.24-.19.18-.46.4-.81.68a23.65,23.65,0,0,0-2.72,2.44,22,22,0,0,0-2.59,3.65C103.1,112.5,102.88,112.87,102.41,112.87Zm.54-1Zm-1-8.18a38.25,38.25,0,0,0,.67,7,22.4,22.4,0,0,1,2.69-3.76,25.53,25.53,0,0,1,2.87-2.58l.52-.42a23.87,23.87,0,0,0-5.83-4.09.34.34,0,0,0-.47.21,10.15,10.15,0,0,0-.45,3.65Z" transform="translate(-23.05 -1.56)"/><path class="cls-16" d="M143.56,107.36c2,2.15,3.29,5.16,3.47,4.81a.61.61,0,0,1,.05-.12,33.22,33.22,0,0,0,1-8.37c0-.56,0-1.06-.05-1.49a7.35,7.35,0,0,0-.45-2.42,1,1,0,0,0-1.34-.57,22.51,22.51,0,0,0-6.42,4.67C139.6,104.16,141.54,105.21,143.56,107.36Z" transform="translate(-23.05 -1.56)"/><path class="cls-17" d="M143.56,107.36c2,2.15,3.29,5.16,3.47,4.81a.61.61,0,0,1,.05-.12,32.45,32.45,0,0,0-2.64-6.17,3.57,3.57,0,0,1,2-5.06c.53-.21,1.17.66,1.57,1.37a7.35,7.35,0,0,0-.45-2.42,1,1,0,0,0-1.34-.57,22.51,22.51,0,0,0-6.42,4.67C139.6,104.16,141.54,105.21,143.56,107.36Z" transform="translate(-23.05 -1.56)"/><path class="cls-3" d="M147,112.87c-.48,0-.7-.37-1.32-1.4a20.86,20.86,0,0,0-2.59-3.65,23.65,23.65,0,0,0-2.72-2.44c-.35-.28-.62-.5-.81-.68-.6-.58-.42-1-.25-1.24A23,23,0,0,1,146,98.57a1.67,1.67,0,0,1,2.19.93,11.3,11.3,0,0,1,.56,4.18h0c0,3.61-.68,7.9-1.13,8.79a.68.68,0,0,1-.61.39Zm-6.31-9,.52.42a25.59,25.59,0,0,1,2.86,2.58,21.3,21.3,0,0,1,2.69,3.76,38.25,38.25,0,0,0,.67-7h0A9.68,9.68,0,0,0,147,100a.34.34,0,0,0-.47-.21A23.66,23.66,0,0,0,140.67,103.91Z" transform="translate(-23.05 -1.56)"/><path class="cls-3" d="M129.12,147.83c1.94-.53,3.89-.91,5.81-1.37a57,57,0,0,0,5.69-1.6c.46-.17.92-.33,1.37-.52s.9-.39,1.34-.59l.65-.32c.22-.11.44-.21.65-.34l.63-.36.62-.38.3-.2.29-.21.59-.42.55-.46.28-.23.26-.25a12.84,12.84,0,0,0,1.87-2.16l.39-.6s.07-.09.1-.15l.08-.15.17-.32.17-.31a.8.8,0,0,1,.08-.16l.07-.16.28-.66.07-.17,0-.16.11-.34c.07-.23.16-.46.21-.69l.16-.7.09-.34,0-.36.1-.71a1.1,1.1,0,0,0,0-.18v-.18l0-.36,0-.72c0-.24,0-.48,0-.72v-.73l-.06-.72-.06-.73,0-.34-.06-.36c-.18-1-.41-1.92-.64-2.88s-.49-1.92-.76-2.87c-.54-1.9-1.14-3.79-1.85-5.61l-.07-.18,0-.19a61.8,61.8,0,0,0,1.29-8.45,40.31,40.31,0,0,0,.13-4.25,19,19,0,0,0-.51-4.15,6.82,6.82,0,0,0-.74-1.82,1.22,1.22,0,0,0-.12-.19l-.07-.1-.06-.08a1.79,1.79,0,0,0-.13-.14l-.07-.06-.07-.05a1.58,1.58,0,0,0-.71-.24,3,3,0,0,0-.89.06,5.92,5.92,0,0,0-.95.27,13,13,0,0,0-1.86.87,32.17,32.17,0,0,0-3.52,2.35c-1.14.86-2.24,1.76-3.33,2.69l-.31.27-.38-.17a20.34,20.34,0,0,0-2.82-1,29.76,29.76,0,0,0-3-.63c-1-.16-2-.29-3-.37s-2-.14-3-.15-2,.06-3,.15-2,.21-3,.37-2,.37-3,.63a21.32,21.32,0,0,0-2.82,1l-.38.16-.31-.26c-1.09-.93-2.19-1.84-3.33-2.7a33.06,33.06,0,0,0-3.52-2.34,13.09,13.09,0,0,0-1.86-.88,6.71,6.71,0,0,0-1-.26,2.73,2.73,0,0,0-.89-.06,1.33,1.33,0,0,0-.7.24l-.08,0-.06.06a.8.8,0,0,0-.13.13l-.06.09-.07.09c0,.06-.09.12-.13.19a7.07,7.07,0,0,0-.73,1.83,18.84,18.84,0,0,0-.51,4.14,40.31,40.31,0,0,0,.13,4.25,61.8,61.8,0,0,0,1.29,8.45l0,.19-.07.18c-.71,1.82-1.31,3.71-1.85,5.61-.27,1-.52,1.91-.76,2.87s-.45,1.93-.63,2.89q-.07.36-.12.69c0,.25,0,.49-.07.73,0,.48-.07,1-.07,1.45a16.23,16.23,0,0,0,.2,2.87,12.71,12.71,0,0,0,2.08,5.27,14.48,14.48,0,0,0,4.14,3.92,25.64,25.64,0,0,0,5.26,2.5,52,52,0,0,0,5.69,1.58l.72.17.72.17,1.46.33c1,.23,1.94.46,2.9.74a.29.29,0,0,1,.2.36.29.29,0,0,1-.31.2h0c-2-.21-4-.47-5.93-.86a42.68,42.68,0,0,1-5.84-1.57,26.81,26.81,0,0,1-5.52-2.62,15.77,15.77,0,0,1-4.49-4.24A13.88,13.88,0,0,1,96,133.35a17.86,17.86,0,0,1-.23-3.09c0-.51,0-1,.08-1.53,0-.26,0-.51.07-.77s.08-.52.13-.78c.18-1,.41-2,.65-3s.49-2,.76-2.91c.55-1.93,1.14-3.85,1.88-5.74l0,.37A64.24,64.24,0,0,1,98,107.32a40.16,40.16,0,0,1-.14-4.39,20.4,20.4,0,0,1,.54-4.43,8.18,8.18,0,0,1,.88-2.17c0-.09.11-.17.17-.26l.09-.12a.64.64,0,0,1,.1-.13,2,2,0,0,1,.24-.26l.14-.12.15-.11a2.7,2.7,0,0,1,1.31-.47,4.37,4.37,0,0,1,1.26.08,8.18,8.18,0,0,1,1.13.32,15.47,15.47,0,0,1,2.06.95,34.37,34.37,0,0,1,3.67,2.44c1.17.88,2.3,1.8,3.4,2.74l-.69-.1a21.86,21.86,0,0,1,3-1,30.18,30.18,0,0,1,3.08-.66q1.56-.25,3.12-.39c1-.09,2.08-.15,3.14-.16s2.09.07,3.14.16,2.08.22,3.11.39,2.06.38,3.08.66a23.28,23.28,0,0,1,3,1l-.69.1c1.11-.94,2.23-1.86,3.4-2.74a33,33,0,0,1,3.68-2.43,14.82,14.82,0,0,1,2.05-1,7.94,7.94,0,0,1,1.14-.32,4.66,4.66,0,0,1,1.25-.07,2.7,2.7,0,0,1,1.31.47l.15.1.13.12a2,2,0,0,1,.25.26l.1.13.09.13.17.25a8.15,8.15,0,0,1,.87,2.17,20.42,20.42,0,0,1,.55,4.43c0,1.47,0,2.93-.14,4.39a62.55,62.55,0,0,1-1.34,8.62l0-.36c.73,1.89,1.34,3.81,1.88,5.74.27,1,.53,1.94.76,2.91s.47,2,.65,3l.07.38.06.39.06.77.06.76v.77c0,.26,0,.52,0,.77l-.05.77,0,.39v.19l0,.19-.11.77-.06.39-.08.37-.18.76c-.06.25-.16.5-.23.75l-.12.37-.07.18-.07.18-.31.72-.07.18-.1.17-.18.35-.18.34-.1.17-.1.17-.43.65a14.28,14.28,0,0,1-2,2.35l-.28.26-.3.25-.6.49-.62.45-.32.23-.32.21-.65.4-.67.38c-.22.13-.45.24-.68.36l-.69.33c-.46.21-.92.43-1.4.61s-.94.36-1.42.53c-1,.33-1.92.64-2.9.89l-1.47.36c-.49.11-1,.22-1.47.31-2,.38-3.95.65-5.93.89h0a.29.29,0,0,1-.11-.56Z" transform="translate(-23.05 -1.56)"/><path class="cls-18" d="M129.56,132.7s0,3-2.67,2.83a2.41,2.41,0,0,1-2.32-1.79,2.41,2.41,0,0,1-2.31,1.79c-2.68.16-2.67-2.83-2.67-2.83l5-3.87h0Z" transform="translate(-23.05 -1.56)"/><path class="cls-6" d="M129.53,132.72s-.87,2.27-2.9,1.75c-2.31-.61-2-3.36-2-3.36h-.08s.27,2.75-2,3.35c-2,.52-2.89-1.76-2.89-1.76s-.57-5.1,5-5.1A4.56,4.56,0,0,1,129.53,132.72Z" transform="translate(-23.05 -1.56)"/><path class="cls-18" d="M129.27,133.23a2.34,2.34,0,0,1-2.64,1.23c-2.31-.6-2-3.35-2-3.35h-.08s.27,2.75-2,3.35a2.34,2.34,0,0,1-2.63-1.25,3.55,3.55,0,0,0,1.27-.11,4.37,4.37,0,0,0,3.37-4.72h.14a4.36,4.36,0,0,0,3.35,4.73A3.66,3.66,0,0,0,129.27,133.23Z" transform="translate(-23.05 -1.56)"/><path class="cls-3" d="M119.9,132.58c.07.12.16.25.24.37s.19.24.29.35a2.66,2.66,0,0,0,.65.52,1.85,1.85,0,0,0,.72.2,1.67,1.67,0,0,0,.38,0l.2,0,.19-.06a2.06,2.06,0,0,0,1.18-1,3.23,3.23,0,0,0,.31-.82c0-.15.06-.3.08-.45a3.75,3.75,0,0,0,0-.45v0a.32.32,0,0,1,.35-.32.31.31,0,0,1,.31.28,3.41,3.41,0,0,1,.05.55,3.25,3.25,0,0,1,0,.54,4,4,0,0,1-.28,1.09,2.89,2.89,0,0,1-1.68,1.59l-.28.09c-.09,0-.2,0-.29.06a3.13,3.13,0,0,1-.61,0,2.52,2.52,0,0,1-1.17-.4,3.16,3.16,0,0,1-.82-.81,4.76,4.76,0,0,1-.28-.49,3.13,3.13,0,0,1-.2-.52.33.33,0,0,1,.23-.41.33.33,0,0,1,.38.14Z" transform="translate(-23.05 -1.56)"/><path class="cls-3" d="M129.84,132.84a3.65,3.65,0,0,1-.2.53,4.48,4.48,0,0,1-.28.47,3,3,0,0,1-.83.82,2.58,2.58,0,0,1-1.16.39,2.44,2.44,0,0,1-.61,0,2.47,2.47,0,0,1-.29-.06l-.28-.1a2.89,2.89,0,0,1-1.68-1.59,4,4,0,0,1-.27-1.09,3.25,3.25,0,0,1,0-.54,3.64,3.64,0,0,1,0-.56.33.33,0,0,1,.39-.27.34.34,0,0,1,.28.32v0a3.58,3.58,0,0,0,0,.45,3.54,3.54,0,0,0,.08.45,3.64,3.64,0,0,0,.3.82,2.11,2.11,0,0,0,1.18,1l.19.06.2,0a1.67,1.67,0,0,0,.38,0,1.56,1.56,0,0,0,.72-.2,2.3,2.3,0,0,0,.66-.52c.09-.11.19-.22.28-.34s.18-.26.25-.37l0,0a.33.33,0,0,1,.46-.11A.34.34,0,0,1,129.84,132.84Z" transform="translate(-23.05 -1.56)"/><path class="cls-3" d="M127.35,129.67c0,.65-.86,1.23-1.64,1.62a2.81,2.81,0,0,1-2.54,0c-.78-.39-1.63-1-1.63-1.62C121.54,127.69,127.35,127.7,127.35,129.67Z" transform="translate(-23.05 -1.56)"/><g class="cls-15"><path class="cls-6" d="M125.59,129.28c0,.19-.33.35-.64.47a1.52,1.52,0,0,1-1,0c-.31-.11-.65-.28-.65-.46C123.29,128.71,125.6,128.71,125.59,129.28Z" transform="translate(-23.05 -1.56)"/></g><path class="cls-3" d="M99.93,131.3l-.37-.19-.37-.19-.39-.18-.38-.17c-.53-.21-1-.42-1.59-.59a21.88,21.88,0,0,0-3.29-.79c-.28-.06-.56-.07-.84-.12l-.42,0-.43,0-.85-.06h-.85c-.56,0-1.13.05-1.7.06h-.21L88,129l-.43.05-.85.09h0a.29.29,0,0,1-.32-.26.29.29,0,0,1,.24-.32l.86-.16.43-.08.22,0,.22,0,.88-.09c.15,0,.29,0,.44,0h.44l.88,0,.89,0,.44,0,.44,0c.29,0,.59.06.88.11l.87.15c.29.05.58.13.87.19s.57.16.85.24.57.18.85.28a12.61,12.61,0,0,1,3.15,1.64.29.29,0,0,1,.07.41.3.3,0,0,1-.39.08Z" transform="translate(-23.05 -1.56)"/><path class="cls-3" d="M100.67,135.71c-.48-.06-1-.09-1.48-.11s-1,0-1.5,0a17.16,17.16,0,0,0-3,.29,13.77,13.77,0,0,0-1.44.36l-.7.23c-.23.1-.46.18-.68.29a10.74,10.74,0,0,0-2.51,1.56h0a.31.31,0,0,1-.42,0,.32.32,0,0,1,0-.4A10,10,0,0,1,91.57,136a9.79,9.79,0,0,1,1.46-.61,11.5,11.5,0,0,1,1.53-.41,14.3,14.3,0,0,1,3.13-.28,13.14,13.14,0,0,1,3.11.41.29.29,0,0,1-.11.57Z" transform="translate(-23.05 -1.56)"/><path class="cls-3" d="M149.05,130.82a12.5,12.5,0,0,1,3.16-1.64c.28-.1.55-.2.84-.28s.56-.17.85-.24.58-.14.87-.19l.87-.15c.29,0,.59-.07.88-.11l.44,0,.44,0,.89,0,.88,0h.44c.15,0,.3,0,.44,0l.88.09.22,0,.22,0,.43.08.87.16a.29.29,0,0,1,.23.34.28.28,0,0,1-.32.24h0l-.85-.09-.42-.05-.22,0h-.21c-.57,0-1.13-.08-1.7-.06h-.85c-.28,0-.57,0-.85.06l-.42,0-.42,0c-.28.05-.57.06-.84.12a22,22,0,0,0-3.3.79c-.53.17-1.06.38-1.58.59l-.39.17c-.13.06-.26.11-.38.18s-.26.12-.38.19l-.36.19h0a.29.29,0,0,1-.4-.11A.28.28,0,0,1,149.05,130.82Z" transform="translate(-23.05 -1.56)"/><path class="cls-3" d="M148.51,135.14a13.14,13.14,0,0,1,3.11-.41,14.3,14.3,0,0,1,3.13.28,11.5,11.5,0,0,1,1.53.41,10.37,10.37,0,0,1,1.47.61,9.76,9.76,0,0,1,2.56,1.84.29.29,0,0,1-.39.44h0a10.53,10.53,0,0,0-2.51-1.56c-.22-.11-.45-.19-.68-.29l-.7-.23a13.77,13.77,0,0,0-1.44-.36,17.16,17.16,0,0,0-3-.29c-.5,0-1,0-1.49,0s-1,.05-1.49.11h0a.29.29,0,0,1-.33-.25A.3.3,0,0,1,148.51,135.14Z" transform="translate(-23.05 -1.56)"/><g class="cls-14"><path class="cls-3" d="M97.8,149.51c-.36,4.35-3.36,8-4.71,9.5a22.68,22.68,0,0,0,2.57-7.53,7.26,7.26,0,0,0-.43-3.28,3.71,3.71,0,0,0-1-1.4,3.79,3.79,0,0,0-2.63-1c-1.84.08-3.51,1.75-2.84,5.91.95,5.84-5.4,7.67-7.74,2.66a7.29,7.29,0,0,1-.28-.7c1.17.88,4.11,2.39,5.73.58,2.29-2.54-.83-6.79,2.18-9.92C90.94,142,98.26,143.87,97.8,149.51Z" transform="translate(-23.05 -1.56)"/></g><path class="cls-19" d="M93.2,143.77c-.06.06-.8-.13-.78-.05a5.14,5.14,0,0,1,0,2.19h0l-.16,0-.15,0H91.6c-1.84.08-3.51,1.75-2.84,5.91.95,5.84-5.4,7.67-7.74,2.66-.1-.22-.19-.46-.28-.7,1.17.88,4.11,2.39,5.73.58,2.29-2.54-.83-6.79,2.18-9.92,1-1,2.79-1.25,4.56-.79C93.24,143.66,93.24,143.73,93.2,143.77Z" transform="translate(-23.05 -1.56)"/><path class="cls-6" d="M92.46,145.91a3.53,3.53,0,0,0-.86-.08c-1.84.08-3.51,1.75-2.84,5.91.95,5.84-5.4,7.67-7.74,2.66-.1-.22-.19-.46-.28-.7l-.09-.26c-1.45-4.67.31-12.75,7.52-14.44a10.47,10.47,0,0,1,1-.19,11.65,11.65,0,0,1,1.43-.12,5.5,5.5,0,0,1,2,2.66c0,.15-.72-.14-.66,0,.2.54,1.47,2.14,1.23,2.4-.06.06-.8-.13-.78-.05A5,5,0,0,1,92.46,145.91Z" transform="translate(-23.05 -1.56)"/><g class="cls-14"><path class="cls-3" d="M93.2,143.77c-.06.06-.8-.13-.78-.05a5.14,5.14,0,0,1,0,2.19h0l-.16,0-.15,0H91.6c-1.84.08-3.51,1.75-2.84,5.91.95,5.84-5.4,7.67-7.74,2.66-.1-.22-.19-.46-.28-.7,1.17.88,4.11,2.39,5.73.58,2.29-2.54-.83-6.79,2.18-9.92,1-1,2.79-1.25,4.56-.79C93.24,143.66,93.24,143.73,93.2,143.77Z" transform="translate(-23.05 -1.56)"/></g><path class="cls-3" d="M101.14,176.35a11,11,0,0,1-7.67-2.95,10.4,10.4,0,0,1-2-12.44c.14-.28.27-.56.41-.83,2-4.1,4.12-8.33,2.8-11.71a3.2,3.2,0,0,0-3.59-1.92c-1.55.43-2.2,2.35-1.75,5.14.55,3.37-1.15,5.48-3.08,6.07s-4.41-.14-5.77-3.06c-1.43-3.07-1.15-7.58.69-11a10.36,10.36,0,0,1,7.94-5.47,11.05,11.05,0,0,1,10,3.37c2.61,2.91,3.45,7.13,2.31,11.58a39.49,39.49,0,0,1-1.41,4.08c-1.35,3.54-3,8-1.93,10.25a3.31,3.31,0,0,0,2.42,1.5,6.12,6.12,0,0,0,5.3-1.84.59.59,0,1,1,.82.84,7.26,7.26,0,0,1-6.32,2.16A4.45,4.45,0,0,1,97,168c-1.32-2.75.39-7.23,1.9-11.19.56-1.47,1.09-2.86,1.37-3.94,1-4.06.29-7.89-2.05-10.5a9.85,9.85,0,0,0-8.93-3,9.19,9.19,0,0,0-7.06,4.87,11.81,11.81,0,0,0-.66,9.89c1.06,2.28,3,2.87,4.35,2.44s2.73-1.91,2.27-4.76c-.83-5.11,1.78-6.24,2.6-6.46a4.36,4.36,0,0,1,5,2.62c1.51,3.86-.7,8.33-2.84,12.66-.14.28-.28.55-.41.83a9.14,9.14,0,0,0,1.74,11.06c3.42,3.21,8.75,3.5,13.56.74a.59.59,0,1,1,.59,1A14.72,14.72,0,0,1,101.14,176.35Z" transform="translate(-23.05 -1.56)"/><g class="cls-15"><path class="cls-6" d="M146.86,168.57a3.14,3.14,0,0,0-2.88-1.95c-1.07.13-.54.78.28,1C145.51,168,147,169.33,146.86,168.57Z" transform="translate(-23.05 -1.56)"/></g><path class="cls-13" d="M109.65,160.89c-9.41-.18-11.84-6.41-12.09-11.61a20.2,20.2,0,0,1,.38-5l11-1.72a6.81,6.81,0,0,0,.47,1.07c2,3.7,7.36,5.81,7.36,5.81S122.58,161.14,109.65,160.89Z" transform="translate(-23.05 -1.56)"/><g class="cls-14"><path class="cls-3" d="M109.65,160.89c-7.9-.15-10.88-4.57-11.78-9.06,1.74,2.59,4.81,4.53,10,4.63,7.7.15,8.75-4,8.34-7.3l.54.24S122.58,161.14,109.65,160.89Z" transform="translate(-23.05 -1.56)"/></g><path class="cls-6" d="M109.39,143.59a10.28,10.28,0,0,1-4.56,4.57,11.13,11.13,0,0,1-7.27,1.12,20.2,20.2,0,0,1,.38-5l11-1.72a7,7,0,0,0,.31.75A3.18,3.18,0,0,0,109.39,143.59Z" transform="translate(-23.05 -1.56)"/><g class="cls-14"><path class="cls-3" d="M109.39,143.59a10.28,10.28,0,0,1-4.56,4.57h0c-1.31.58-3.42.57-4-.66-.46-1,5.64-3.25,8.43-4.24A3.18,3.18,0,0,0,109.39,143.59Z" transform="translate(-23.05 -1.56)"/></g><path class="cls-3" d="M110,161.48h-.41c-4.46-.09-7.81-1.51-10-4.22-3.78-4.74-2.57-11.78-2.29-13.14a.59.59,0,1,1,1.16.24c-.27,1.27-1.4,7.84,2,12.17,1.94,2.42,5,3.69,9.09,3.77,3.56.07,5.94-.79,7-2.55,1.68-2.65.14-6.66-.35-7.78a8.79,8.79,0,0,1-8-7.33.59.59,0,1,1,1.15-.24,7.54,7.54,0,0,0,7.25,6.41h.37l.16.33c.11.22,2.73,5.6.43,9.24C116.4,160.44,113.82,161.48,110,161.48Z" transform="translate(-23.05 -1.56)"/><path class="cls-6" d="M110.45,143.8c-1.19.89-3,.93-4.25-1.28.33,1.2.17,5-4.86,5h-.54l-3.26.48c-.23-8.92,5.87-12.15,11-9.45a5.35,5.35,0,0,1,2.15,2.6C111.12,142.19,111.16,143.26,110.45,143.8Z" transform="translate(-23.05 -1.56)"/><g class="cls-14"><path class="cls-3" d="M110.45,143.8c-1.19.89-3,.93-4.25-1.28.33,1.2.17,5-4.86,5a7.54,7.54,0,0,0,3.44-2.8c.7-1.17.78-2.39,1-2.52.45-.27,4.39,1.4,4.93-1.06C111.12,142.19,111.16,143.26,110.45,143.8Z" transform="translate(-23.05 -1.56)"/></g><path class="cls-3" d="M108.05,143.6a2.19,2.19,0,0,0,.33.12,1.77,1.77,0,0,0,.69.05,2.29,2.29,0,0,0,.67-.22l.17-.09.15-.11,0,0,0,0,0,0,.08-.09a1,1,0,0,0,.16-.56,2.45,2.45,0,0,0-.09-.74,4.86,4.86,0,0,0-.69-1.48,4.44,4.44,0,0,0-1.11-1.17l-.15-.1-.18-.09-.38-.19-.4-.17-.4-.14a6.75,6.75,0,0,0-1.67-.31,6,6,0,0,0-3.23.7,6.61,6.61,0,0,0-2.42,2.31,9.9,9.9,0,0,0-1.27,3.22,16,16,0,0,0-.29,3.53h0a.6.6,0,0,1-.58.6A.59.59,0,0,1,97,148h0a16.73,16.73,0,0,1,.32-3.8,11.11,11.11,0,0,1,1.42-3.61,7.94,7.94,0,0,1,2.86-2.72,7.23,7.23,0,0,1,3.87-.84,7.93,7.93,0,0,1,1.94.37l.47.16.46.19.44.22.23.12.23.15a5.69,5.69,0,0,1,1.42,1.48,6.24,6.24,0,0,1,.85,1.85,3.81,3.81,0,0,1,.13,1.08,2.17,2.17,0,0,1-.38,1.18,1.33,1.33,0,0,1-.21.26l-.13.11-.06,0-.06,0-.22.16-.24.13a3.27,3.27,0,0,1-1.07.34" transform="translate(-23.05 -1.56)"/><path class="cls-13" d="M141.08,174.63c1.82-4.59.41-12.65-.82-21.25H108.7c-1.23,8.6-2.63,16.66-.82,21.25" transform="translate(-23.05 -1.56)"/><g class="cls-14"><path class="cls-3" d="M140.88,174.63c1.81-4.59.4-12.65-.82-21.25H108.5c-1.23,8.6-2.64,16.66-.83,21.25" transform="translate(-23.05 -1.56)"/></g><path class="cls-3" d="M140.81,174.52a20.29,20.29,0,0,0,.56-5.17l0-1.31c0-.44,0-.88-.06-1.32s-.06-.88-.1-1.32l-.13-1.33c-.19-1.76-.42-3.52-.66-5.29l-.36-2.66c-.12-.88-.24-1.77-.35-2.66h0l.58.51H108.7l.59-.51h0c-.11.89-.23,1.78-.35,2.66l-.36,2.66c-.24,1.77-.49,3.53-.67,5.29a52.33,52.33,0,0,0-.33,5.28,19,19,0,0,0,.57,5.17v0a.31.31,0,0,1-.2.37.29.29,0,0,1-.35-.17c-.09-.21-.19-.42-.28-.64s-.09-.21-.12-.32l-.1-.33c-.07-.22-.14-.45-.2-.67l-.14-.68-.07-.34,0-.34-.09-.68c0-.45-.07-.91-.1-1.36s0-.91,0-1.37,0-.91,0-1.36,0-.9.08-1.35.06-.9.11-1.35c.16-1.8.39-3.58.64-5.35.13-.89.26-1.77.4-2.66s.27-1.76.42-2.64h0l.07-.51h32.58l.08.51h0l.42,2.64c.14.89.27,1.77.4,2.66.25,1.77.48,3.55.64,5.35l.11,1.35c0,.45.05.9.08,1.35s0,.91,0,1.36,0,.91,0,1.37-.05.91-.1,1.36l-.09.69-.05.34-.07.34c0,.22-.09.45-.14.67s-.13.45-.2.67l-.1.33c0,.11-.09.22-.13.32s-.19.43-.28.64a.3.3,0,0,1-.39.15.32.32,0,0,1-.17-.35Z" transform="translate(-23.05 -1.56)"/><path class="cls-13" d="M140.39,148.43s13.84,16.9-.86,19.24Z" transform="translate(-23.05 -1.56)"/><path class="cls-3" d="M138.9,168.36l1-21.5,1,1.19c.32.4,7.88,9.74,5.6,15.74-.91,2.38-3.21,3.88-6.83,4.46Zm2-18.27L140.15,167c2.76-.57,4.51-1.77,5.2-3.58C146.93,159.22,142.86,152.81,140.9,150.09Z" transform="translate(-23.05 -1.56)"/><g class="cls-7"><path class="cls-6" d="M142.91,151.55v.12a5.3,5.3,0,0,0-5.25-4.62H135.2a1.62,1.62,0,0,0-1.62,1.62v3h-4.82v-3a1.63,1.63,0,0,0-1.62-1.62h-9.86a1.67,1.67,0,0,0-1.67,1.67v2.95H113v-2.95a1.67,1.67,0,0,0-1.67-1.67h0a5.31,5.31,0,0,0-5.26,4.62v-.14a5.29,5.29,0,0,1,5.27-5.83h26.33A5.29,5.29,0,0,1,142.91,151.55Z" transform="translate(-23.05 -1.56)"/></g><g class="cls-14"><path class="cls-3" d="M141.74,159.62l-1.35,7.78-.54,3.16-1.1,6.31a5.87,5.87,0,0,1-5.78,4.87H116a5.86,5.86,0,0,1-5.78-4.87l-1.64-9.43c2.09,4.42,6.52,9.35,15.88,9.35h0c7.1,0,11.36-2.83,13.91-6.12-3.07-.07-5-2.21-4.11-8.27C134.77,158.91,140.15,159.4,141.74,159.62Z" transform="translate(-23.05 -1.56)"/></g><g class="cls-7"><path class="cls-6" d="M142.55,155l-.26,1.54-32.36,18.6-.42-2.4,33.07-19.25A4.28,4.28,0,0,1,142.55,155Z" transform="translate(-23.05 -1.56)"/></g><path class="cls-6" d="M143.06,165.09a4.57,4.57,0,0,1-3.53,2.58c-3.72.43-5.83-1.68-4.48-6.95a4.59,4.59,0,0,1,2.58-3,11.35,11.35,0,0,1,4.58-1A8,8,0,0,1,143.06,165.09Z" transform="translate(-23.05 -1.56)"/><g class="cls-14"><path class="cls-3" d="M143.06,165.09a4.57,4.57,0,0,1-3.53,2.58c-3.72.43-5.83-1.68-4.48-6.95a4.59,4.59,0,0,1,2.58-3c-.77,1.81-1.52,4.59-.31,6.88C138.4,166.68,141.26,166.55,143.06,165.09Z" transform="translate(-23.05 -1.56)"/></g><path class="cls-3" d="M142.2,157.33a10.07,10.07,0,0,0-4.89,1.32,3.91,3.91,0,0,0-1.51,1.77c0,.09-.07.18-.09.27a2.63,2.63,0,0,0-.08.3c0,.21-.11.43-.15.64a9.65,9.65,0,0,0-.19,1.28,5.57,5.57,0,0,0,.25,2.43,2.64,2.64,0,0,0,.59.93,2.7,2.7,0,0,0,.94.6,5.69,5.69,0,0,0,2.42.25,5.58,5.58,0,0,0,.63-.11l.65-.13.65-.16.31-.08.27-.09,0,0a.47.47,0,0,1,.61.27.47.47,0,0,1-.22.59,2.24,2.24,0,0,1-.38.16,2.3,2.3,0,0,1-.34.12l-.68.2c-.22.07-.45.13-.67.18s-.46.11-.72.15a8.07,8.07,0,0,1-1.48.09,5.4,5.4,0,0,1-1.51-.3,3.8,3.8,0,0,1-2.24-2.2,6.86,6.86,0,0,1-.35-3,13.68,13.68,0,0,1,.21-1.43c0-.23.1-.46.15-.69s.06-.24.1-.37.09-.25.14-.37a4.55,4.55,0,0,1,.82-1.33,5.22,5.22,0,0,1,1.16-1,8.34,8.34,0,0,1,2.72-1.12,13.89,13.89,0,0,1,1.41-.25l.72-.07a5.82,5.82,0,0,1,.73,0,.59.59,0,0,1,0,1.17Z" transform="translate(-23.05 -1.56)"/><path class="cls-3" d="M138.3,160.89a6.25,6.25,0,0,0-1,.27,4.77,4.77,0,0,0-.94.44,2.82,2.82,0,0,0-.73.63,2.14,2.14,0,0,0-.23.38,2.07,2.07,0,0,0-.13.4h0a.59.59,0,0,1-1.16-.26.19.19,0,0,0,0-.07,3.35,3.35,0,0,1,.31-.63,3.26,3.26,0,0,1,.44-.53,3.7,3.7,0,0,1,1.07-.71,5.32,5.32,0,0,1,1.15-.37,6.56,6.56,0,0,1,1.18-.14.29.29,0,0,1,.06.58Z" transform="translate(-23.05 -1.56)"/><path class="cls-3" d="M138.69,165.93a6,6,0,0,1-1.17.25,4.64,4.64,0,0,1-1.23,0,3.26,3.26,0,0,1-1.22-.49,3,3,0,0,1-.91-1h0a.59.59,0,0,1,.22-.81.58.58,0,0,1,.8.21.25.25,0,0,1,0,.07,1.85,1.85,0,0,0,.49.71,2.16,2.16,0,0,0,.8.45,3.54,3.54,0,0,0,1,.16,5.15,5.15,0,0,0,1-.08h0a.3.3,0,0,1,.15.57Z" transform="translate(-23.05 -1.56)"/><path class="cls-3" d="M109,155l.54,3a2,2,0,0,0,2,1.69h0a2,2,0,0,0,2-2.39l-.52-3a2.05,2.05,0,0,0-2-1.7h0A2,2,0,0,0,109,155Z" transform="translate(-23.05 -1.56)"/><path class="cls-3" d="M111.58,160.34a2.63,2.63,0,0,1-2.59-2.18l-.54-3h0A2.58,2.58,0,0,1,109,153a2.62,2.62,0,0,1,2-.95h0a2.63,2.63,0,0,1,2.6,2.19l.52,3a2.64,2.64,0,0,1-2.6,3.08Zm-2-5.42.54,3a1.46,1.46,0,0,0,2.87-.51l-.52-3a1.45,1.45,0,0,0-1.44-1.21h0a1.46,1.46,0,0,0-1.44,1.71Z" transform="translate(-23.05 -1.56)"/><circle class="cls-3" cx="87.95" cy="152.88" r="1.14"/><circle class="cls-3" cx="87.95" cy="152.88" r="0.31"/><path class="cls-20" d="M111,155.87a1.43,1.43,0,1,1,1.43-1.43A1.43,1.43,0,0,1,111,155.87Zm0-2.27a.84.84,0,0,0,0,1.68.84.84,0,0,0,0-1.68Z" transform="translate(-23.05 -1.56)"/><circle class="cls-3" cx="88.54" cy="156.2" r="1.14"/><path class="cls-20" d="M111.59,159.18a1.43,1.43,0,1,1,1.43-1.43A1.43,1.43,0,0,1,111.59,159.18Zm0-2.27a.84.84,0,0,0,0,1.68.84.84,0,0,0,0-1.68Z" transform="translate(-23.05 -1.56)"/><ellipse class="cls-3" cx="112.98" cy="126.96" rx="5.42" ry="3.99" transform="translate(-44.97 228.78) rotate(-85.8)"/><ellipse class="cls-6" cx="114.42" cy="126.05" rx="2.15" ry="1.34" transform="translate(-42.73 229.37) rotate(-85.8)"/><ellipse class="cls-3" cx="135.9" cy="126.96" rx="3.99" ry="5.42" transform="matrix(1, -0.07, 0.07, 1, -31.99, 8.74)"/><ellipse class="cls-6" cx="134.46" cy="126.05" rx="1.34" ry="2.15" transform="translate(-31.93 8.63) rotate(-4.2)"/><path class="cls-21" d="M247.34,221.63a16.32,16.32,0,0,1-16,13.09H121.08a16.35,16.35,0,0,1-16-13.09Z" transform="translate(-23.05 -1.56)"/><path class="cls-3" d="M231.34,235H121.08a16.68,16.68,0,0,1-16.3-13.33l-.07-.36h143l-.08.36A16.61,16.61,0,0,1,231.34,235Zm-125.9-13.09a16.1,16.1,0,0,0,15.64,12.49H231.34A16,16,0,0,0,247,221.93Z" transform="translate(-23.05 -1.56)"/><path class="cls-3" d="M231.34,236.51H121.08A18.18,18.18,0,0,1,103.31,222a1.8,1.8,0,0,1,1.77-2.16H247.34a1.82,1.82,0,0,1,1.39.66,1.77,1.77,0,0,1,.37,1.5A18.16,18.16,0,0,1,231.34,236.51ZM107.45,223.43a14.59,14.59,0,0,0,13.63,9.49H231.34A14.6,14.6,0,0,0,245,223.43Z" transform="translate(-23.05 -1.56)"/><g class="cls-2"><path class="cls-3" d="M247.34,221.63a16.32,16.32,0,0,1-16,13.09h-68.2c11.2-.53,21.14-3.63,29.69-9.53a28.5,28.5,0,0,1,1.89-3.56Z" transform="translate(-23.05 -1.56)"/></g><path class="cls-21" d="M247.3,152.49l-5.76,65.63a7.75,7.75,0,0,1-7.72,7.07H118.59a7.76,7.76,0,0,1-7.72-7.07l-5.75-65.63a11,11,0,0,1,11-12H236.31a11,11,0,0,1,11,12Z" transform="translate(-23.05 -1.56)"/><path class="cls-3" d="M233.82,225.49H118.59a8,8,0,0,1-8-7.35l-5.75-65.62A11.32,11.32,0,0,1,116.1,140.2H236.31a11.33,11.33,0,0,1,11.29,12.32h0l-5.76,65.62A8,8,0,0,1,233.82,225.49ZM116.1,140.8a10.72,10.72,0,0,0-10.68,11.66l5.75,65.63a7.41,7.41,0,0,0,7.42,6.8H233.82a7.4,7.4,0,0,0,7.42-6.8L247,152.46a10.72,10.72,0,0,0-10.69-11.66Z" transform="translate(-23.05 -1.56)"/><g class="cls-22"><path class="cls-6" d="M245.46,145.37a10.84,10.84,0,0,0-4.64-1H120.61a11,11,0,0,0-11,12L115.38,222a7.72,7.72,0,0,0,.82,2.85,7.75,7.75,0,0,1-5.33-6.69l-5.75-65.63a11,11,0,0,1,11-12H236.31A11,11,0,0,1,245.46,145.37Z" transform="translate(-23.05 -1.56)"/></g><path class="cls-3" d="M233.82,227H118.6a9.51,9.51,0,0,1-9.52-8.72l-5.75-65.62a12.82,12.82,0,0,1,12.77-14H236.31a12.82,12.82,0,0,1,12.78,14l-5.75,65.62A9.51,9.51,0,0,1,233.82,227ZM116.1,142.3a9.22,9.22,0,0,0-9.19,10L112.66,218a5.93,5.93,0,0,0,5.94,5.43H233.82a5.91,5.91,0,0,0,5.93-5.43l5.76-65.63a9.22,9.22,0,0,0-9.2-10Z" transform="translate(-23.05 -1.56)"/><g class="cls-2"><path class="cls-3" d="M247.3,152.49l-5.76,65.63a7.75,7.75,0,0,1-7.72,7.07H129.88c64-5,103.53-30.87,112.17-83.08h0A11,11,0,0,1,247.3,152.49Z" transform="translate(-23.05 -1.56)"/></g><path class="cls-6" d="M110.91,142.18a7.58,7.58,0,0,1-3.18,5.31c-2.41,1.53-6.14,1.6-7.1,0s1.26-4.75,3-6.16c.95-.77,2.69-2.23,4.65-1.66A4.52,4.52,0,0,1,110.91,142.18Z" transform="translate(-23.05 -1.56)"/><path class="cls-23" d="M110.29,140.38a5.25,5.25,0,0,1,.52,2.84,6,6,0,0,1-3.08,4.27c-3.21,1.88-6.8.11-7.1,0" transform="translate(-23.05 -1.56)"/></svg>