<svg id="Layer_1" data-name="Layer 1" xmlns="http://www.w3.org/2000/svg" viewBox="0 0 147.16 186.03"><defs><style>.cls-1{fill:#9191e9;}.cls-2{opacity:0.3;}.cls-3{fill:#000072;}.cls-4{fill:#4d5a6a;}.cls-5{opacity:0.55;}.cls-6{fill:#fff;}.cls-7{opacity:0.4;}.cls-8{fill:#ffd5b8;}.cls-9{fill:#151328;}.cls-10{opacity:0.2;}.cls-11{fill:#fefefe;}.cls-12{fill:#8e8fb3;}.cls-13{opacity:0.15;}.cls-14{opacity:0.5;}.cls-15{fill:#f27e80;}.cls-16{fill:#ff5c64;}.cls-17{fill:#e8e8e8;}.cls-18{fill:#686868;}.cls-19{fill:#61619b;}.cls-20{fill:#c6d3e3;}.cls-21{opacity:0.75;}.cls-22{fill:none;stroke:#000072;stroke-linecap:round;stroke-linejoin:round;stroke-width:0.75px;}</style></defs><circle class="cls-1" cx="73.58" cy="73.58" r="73.58"/><g class="cls-2"><path class="cls-3" d="M101.21,215.93c23.42,6,116.11,6,139.54,0,2.17-.56,1.64-3.07-.64-3.07H101.85C99.57,212.86,99,215.37,101.21,215.93Z" transform="translate(-97.4 -34.43)"/></g><path class="cls-3" d="M107.76,212.52a47,47,0,0,1,7.91-.71c2.63-.07,5.26,0,7.9,0s5.27,0,7.9,0h90.87c1.32,0,2.64,0,3.95-.06a28.58,28.58,0,0,1,7.9.73.35.35,0,0,1,.25.43.36.36,0,0,1-.25.24,29,29,0,0,1-7.9.74c-1.31,0-2.63-.07-3.95-.07H131.47c-2.63,0-5.27,0-7.9,0s-5.27.08-7.9,0a46,46,0,0,1-7.91-.71.35.35,0,0,1-.27-.4A.36.36,0,0,1,107.76,212.52Z" transform="translate(-97.4 -34.43)"/><path class="cls-4" d="M203.56,205.71l.42-.05a20,20,0,0,0,17.2-23.83l-4.36-21.25a20.85,20.85,0,0,0-20.43-16.66h-50A20.84,20.84,0,0,0,126,160.58l-4.36,21.25a20,20,0,0,0,17.2,23.83l.42.05Z" transform="translate(-97.4 -34.43)"/><path class="cls-3" d="M203.57,205.87H139.21l-.44-.05a20.13,20.13,0,0,1-17.34-24l4.36-21.25a21.09,21.09,0,0,1,20.58-16.79h50A21.08,21.08,0,0,1,217,160.55l4.36,21.25a20.1,20.1,0,0,1-17.34,24Zm-57.2-61.79a20.75,20.75,0,0,0-20.26,16.53l-4.36,21.25a19.81,19.81,0,0,0,17.06,23.65l.41.05h64.33l.41,0A19.81,19.81,0,0,0,221,181.86l-4.36-21.25a20.77,20.77,0,0,0-20.27-16.53Z" transform="translate(-97.4 -34.43)"/><g class="cls-2"><path class="cls-3" d="M204,205.67l-.42,0H139.21l-.42,0a20,20,0,0,1-16-12.07,19.83,19.83,0,0,0,11,5l.42.05h64.35l.42-.05a20,20,0,0,0,17.2-23.84l-4.36-21.25a21.64,21.64,0,0,0-1.29-4.09,20.77,20.77,0,0,1,6.35,11.2l4.37,21.25A20,20,0,0,1,204,205.67Z" transform="translate(-97.4 -34.43)"/></g><g class="cls-5"><path class="cls-6" d="M206.68,146.64a20.76,20.76,0,0,0-7.64-1.45H149a20.85,20.85,0,0,0-20.42,16.66l-4.36,21.25a20,20,0,0,0,9.65,21.35,20,20,0,0,1-12.3-22.62L126,160.58a20.84,20.84,0,0,1,20.42-16.66h50A20.72,20.72,0,0,1,206.68,146.64Z" transform="translate(-97.4 -34.43)"/></g><path class="cls-3" d="M203.56,206.75H139.08l-.41-.05a21,21,0,0,1-18.1-25.07l4.36-21.25a22,22,0,0,1,21.44-17.49h50a22,22,0,0,1,21.44,17.49l4.36,21.25a21,21,0,0,1-18.09,25.07l-.42.05Zm-64.29-2.07H203.5l.35-.05A18.92,18.92,0,0,0,220.16,182l-4.36-21.25A19.88,19.88,0,0,0,196.39,145h-50A19.88,19.88,0,0,0,127,160.79L122.61,182a18.92,18.92,0,0,0,16.3,22.59Z" transform="translate(-97.4 -34.43)"/><path class="cls-4" d="M208.33,128.23c-.06.24-.13.48-.19.72s-.11.37-.16.55l-.06.2c0,.15-.09.3-.14.44s-.12.38-.18.57,0,.16-.08.24c-.09.27-.19.54-.29.8s-.21.58-.32.86l-.35.86-.37.84c-.12.27-.25.53-.38.8l-.05.1c-.12.25-.24.5-.37.74v0c-.14.28-.28.54-.42.81s-.35.64-.54.95-.25.43-.38.64v0c-.16.26-.32.52-.49.78-.27.44-.56.86-.85,1.29l-.39.55-.34.47-.51.68-.51.66-.29.36-.19.23c-.12.13-.23.27-.35.41-.32.37-.64.74-1,1.11-.15.18-.32.36-.49.53l-.36.39c-.17.18-.34.36-.52.53s-.5.51-.76.75l-.63.6-.09.08c-.21.21-.43.4-.65.6-.41.36-.82.72-1.24,1.07l-.31.26-.65.52c-.75.6-1.52,1.17-2.31,1.73l0,0a34.7,34.7,0,0,1-9.9,4.83,32.94,32.94,0,0,1-3.65.9A34.93,34.93,0,0,1,150.84,152l-.75-.54-.08,0-.73-.55-.76-.59h0l-.74-.6-.73-.62-.72-.63-.71-.64c-.23-.22-.46-.43-.68-.66s-.46-.44-.68-.66l-.66-.68-.65-.7c-.21-.22-.41-.45-.62-.69l-.47-.54c-.45-.54-.9-1.09-1.33-1.64-.17-.23-.35-.46-.51-.69l-.07-.09-.34-.47c-.26-.36-.5-.72-.75-1.09-.13-.2-.27-.4-.39-.61s-.4-.61-.59-.93l-.39-.67q-.27-.47-.54-1c-.12-.24-.25-.48-.38-.72l-.37-.75,0-.1c-.26-.54-.51-1.08-.73-1.63l0-.06-.33-.82-.33-.86c-.1-.29-.21-.58-.3-.87s-.15-.43-.22-.65-.11-.34-.16-.52,0-.15-.07-.23-.1-.33-.14-.5-.14-.5-.2-.75C131,110,147.64,89.71,164.23,81a14.55,14.55,0,0,1,13.49,0c.38.19.75.4,1.12.62h0C195.05,91,210.86,110.38,208.33,128.23Z" transform="translate(-97.4 -34.43)"/><g class="cls-7"><path class="cls-3" d="M177.36,157.72c.47-.13.94-.25,1.4-.4a34.67,34.67,0,0,0,9.9-4.82l0,0c.79-.55,1.56-1.13,2.31-1.73.22-.17.44-.34.65-.52L192,150c.42-.35.83-.7,1.24-1.07l.65-.59.09-.09.63-.59c.26-.25.51-.5.76-.76s.35-.34.52-.52l.36-.39.49-.53c.34-.37.66-.74,1-1.11l.35-.42.18-.23.3-.36.51-.65.51-.69.34-.46.39-.56c.29-.42.58-.85.85-1.28.17-.26.33-.52.49-.78v0c.13-.22.26-.43.38-.65s.36-.62.53-.94.29-.54.43-.81v0l.37-.74,0-.11c.13-.26.25-.53.38-.8l.37-.84c.12-.28.23-.57.34-.85s.23-.57.33-.86.2-.53.29-.8a2.41,2.41,0,0,1,.08-.25l.18-.56c0-.15.1-.3.14-.45l.06-.2c.05-.18.1-.36.16-.54l.19-.73C208.41,111.07,193,91.92,177,82.47c11.25,10.24,19.77,24.58,17.86,38-.06.24-.12.49-.19.72s-.1.37-.16.55a1.52,1.52,0,0,1-.06.2c0,.15-.09.3-.13.44s-.12.38-.19.57a2.25,2.25,0,0,1-.08.24c-.09.27-.18.54-.28.8l-.33.86c-.11.29-.23.57-.35.86s-.24.56-.37.84-.25.53-.37.8l-.06.1c-.11.25-.24.5-.37.74v0c-.13.28-.28.54-.42.81s-.35.64-.53.95-.26.43-.38.65h0c-.15.27-.32.52-.48.78-.28.44-.56.87-.86,1.29-.12.19-.26.37-.39.55l-.33.47-.52.69-.51.65-.29.36-.19.23-.35.41c-.32.38-.64.75-1,1.11l-.49.54-.37.38c-.17.18-.34.36-.52.53l-.76.76-.62.59a.39.39,0,0,1-.1.08c-.21.21-.43.4-.65.6-.4.36-.82.72-1.23,1.07l-.32.26-.64.52c-.76.6-1.53,1.17-2.32,1.73l0,0a34.51,34.51,0,0,1-9.89,4.83,33.67,33.67,0,0,1-3.66.9,34.83,34.83,0,0,1-6.19.62,34.83,34.83,0,0,0,6.19-.62l.18,0q-1.12.28-2.25.51a35.09,35.09,0,0,1-13.66-.12l-.16-.12.74.58.74.55.07,0,.75.54a35,35,0,0,0,26.69,5.76q1-.18,1.92-.42C178.53,157.47,177.94,157.6,177.36,157.72Z" transform="translate(-97.4 -34.43)"/></g><g class="cls-5"><path class="cls-6" d="M184.77,85.73c-1.27-.86-2.56-1.67-3.85-2.41h0l-1.12-.62a14.55,14.55,0,0,0-13.49,0c-16.59,8.69-33.19,28.94-30.61,47.2.07.25.13.5.2.75l.15.51c0,.07,0,.15.07.23s.1.34.16.52l.21.65c.1.29.2.58.31.86s.21.58.33.87.22.54.33.81l0,.07c.23.54.47,1.09.74,1.62a.54.54,0,0,0,.05.11l.37.74.38.73c.18.32.35.64.53.95s.27.45.4.67.38.63.58.94l.4.6c.24.37.49.73.75,1.09.11.16.22.32.34.47l.06.09.52.69c.43.56.87,1.1,1.32,1.64l.48.54c.2.24.41.47.61.7l.66.69c.21.23.44.46.66.68l.67.67.69.65c.23.22.47.43.71.64l.71.63.73.62.74.6h0c.25.2.5.4.76.59l.68.51c-.29-.18-.57-.38-.86-.58l-.74-.53-.08-.06-.73-.55c-.26-.19-.51-.39-.76-.59h0l-.74-.6-.74-.62-.71-.63c-.24-.21-.48-.42-.71-.64l-.69-.65-.67-.67-.66-.68-.66-.69c-.2-.23-.41-.46-.61-.7l-.48-.54c-.45-.54-.89-1.09-1.32-1.64l-.52-.69-.06-.09c-.12-.15-.23-.31-.34-.47-.26-.36-.51-.72-.75-1.09-.14-.2-.27-.4-.4-.61s-.39-.61-.58-.93-.27-.44-.4-.67-.35-.63-.53-1l-.38-.73c-.13-.25-.25-.5-.37-.74a.54.54,0,0,1-.05-.11c-.27-.53-.51-1.08-.74-1.62l0-.07-.33-.82c-.12-.28-.23-.57-.33-.86s-.21-.57-.31-.86l-.21-.65c-.06-.18-.11-.35-.16-.52a2.17,2.17,0,0,1-.07-.24l-.15-.5c-.07-.25-.13-.5-.2-.75-2.58-18.26,14-38.51,30.61-47.2a14.55,14.55,0,0,1,13.49,0c.37.19.74.4,1.12.62h0A62.28,62.28,0,0,1,184.77,85.73Z" transform="translate(-97.4 -34.43)"/></g><path class="cls-3" d="M171,159.4a36,36,0,0,1-20.74-6.56l-.76-.54,0,0a.1.1,0,0,0-.05,0l-.74-.55-.72-.57-.06,0-.72-.59-.78-.66-.73-.64,0,0c-.23-.21-.46-.41-.69-.63l-.7-.66-.69-.68-.67-.69-.66-.71-.64-.72-.48-.55c-.48-.57-.93-1.13-1.36-1.68l-.11-.15-.4-.54-.07-.09-.37-.51c-.28-.39-.53-.75-.76-1.11-.14-.2-.28-.41-.41-.63s-.4-.62-.59-.94l-.13-.21c-.09-.16-.19-.31-.28-.48s-.35-.62-.52-.93l0-.05-.39-.75-.37-.74a1,1,0,0,1-.07-.15c-.28-.58-.52-1.11-.73-1.61a1.07,1.07,0,0,1-.07-.15c-.11-.26-.22-.53-.32-.8s-.24-.59-.34-.89-.22-.59-.32-.89-.15-.44-.22-.66-.11-.36-.16-.54-.05-.16-.08-.25-.1-.33-.15-.52-.13-.49-.2-.75c0,0,0-.08,0-.12-1.57-11.06,3.64-21.29,8.29-27.93a66.72,66.72,0,0,1,22.86-20.33,15.57,15.57,0,0,1,14.45,0,66.75,66.75,0,0,1,22.87,20.33c4.64,6.64,9.85,16.87,8.29,27.93a.5.5,0,0,0,0,.12c-.07.24-.14.49-.2.74l-.18.62c0,.05,0,.1-.05.16a3,3,0,0,1-.1.32l0,.12-.18.54v0l-.09.26c-.09.27-.19.55-.3.83s-.21.58-.33.88-.23.58-.36.87-.25.58-.38.87-.25.54-.38.82l-.06.12c-.11.24-.24.5-.38.75s-.29.57-.44.84-.36.66-.55,1-.26.44-.39.66h0v0c-.16.27-.33.54-.5.8-.31.48-.59.91-.88,1.32l-.4.57-.34.47c-.17.24-.35.47-.52.7l-.53.67-.3.38-.55.65c-.33.39-.66.77-1,1.14l-.49.53-.38.41-.54.55c-.24.25-.5.5-.77.76l-.63.6-.12.11-.65.6c-.43.38-.86.74-1.26,1.08l-.31.26-.67.54c-.76.61-1.56,1.2-2.36,1.77l0,0h0A36,36,0,0,1,171,159.4Zm-20.26-8.77c.24.17.48.35.72.51a34,34,0,0,0,39,0h0l0,0c.77-.54,1.54-1.11,2.27-1.69l.63-.51.31-.26,1.21-1,.63-.58.05-.05,0,0,0,0,.61-.57c.25-.24.5-.49.74-.74l.51-.51.36-.39.47-.51c.33-.36.65-.73,1-1.09l.52-.63.29-.35c.16-.21.33-.42.49-.64l.51-.67.32-.45.38-.54c.28-.39.55-.8.84-1.26.16-.25.32-.5.47-.75v0h0c.13-.21.25-.42.37-.63s.36-.61.52-.92.28-.52.41-.78l0,0c.12-.23.24-.46.35-.7l.07-.13.35-.76c.13-.27.25-.55.36-.82s.23-.54.34-.82.22-.56.32-.84.19-.52.27-.78l.1-.28c.06-.17.11-.33.16-.5l0-.13.09-.29s0,0,0-.06l0-.09.17-.6c.06-.21.11-.43.17-.65,1.13-8.09-1.69-17.46-7.94-26.39A64.65,64.65,0,0,0,177.24,82a13.51,13.51,0,0,0-12.52,0,64.65,64.65,0,0,0-22.13,19.68c-6.25,8.93-9.07,18.3-7.94,26.39l.18.68c0,.17.09.32.14.48a2.18,2.18,0,0,0,.06.22c.06.18.11.35.16.52l.21.63q.14.42.3.84c.1.29.21.56.31.84l.33.79v0s0,0,0,.05c.21.49.44,1,.72,1.58,0,0,0,0,0,0a.25.25,0,0,1,0,.07c.11.24.23.47.35.71s.26.48.38.72l0,0,.5.9.27.45.12.2c.18.3.37.6.56.9l.38.59c.23.34.47.69.74,1.07l.32.45,0,0v0l.06.08.39.52.11.15c.4.52.84,1.06,1.29,1.6.15.17.3.35.46.52s.4.46.61.69l.64.68c.2.22.41.43.63.65l.66.65.68.65.66.6,0,0,.7.61.72.6.68.56,0,0,.74.58.7.52Zm-1.3,1.61ZM195.65,147h0Zm-59.27-13.85Zm-.06-.16h0Zm72-4.75Z" transform="translate(-97.4 -34.43)"/><path class="cls-8" d="M200,133.47c-.06.19-.13.39-.2.59-1.93,4.93-5.7,7.55-8,4.58l1.36-6.69.93-4.55C197.71,125,202.46,126.06,200,133.47Z" transform="translate(-97.4 -34.43)"/><path class="cls-3" d="M194.14,140a3,3,0,0,1-2.38-1.3l0-.05L194,127.33l0,0c1.94-1.33,4.13-1.56,5.45-.57.85.64,2.07,2.37.63,6.78h0c-.06.19-.13.39-.21.59-1.28,3.3-3.4,5.6-5.4,5.89A2.83,2.83,0,0,1,194.14,140ZM192,138.61a2.66,2.66,0,0,0,2.53,1.13c1.91-.27,3.95-2.52,5.2-5.72.07-.2.14-.4.2-.59h0c1-3.16.84-5.47-.54-6.51-1.22-.91-3.27-.69-5.12.56Z" transform="translate(-97.4 -34.43)"/><g class="cls-2"><path class="cls-3" d="M200,133.47c-.06.19-.13.39-.2.59-1.93,4.93-5.7,7.55-8,4.58l1.36-6.69.51,0q2.09,6.5,6,1.16Z" transform="translate(-97.4 -34.43)"/></g><path class="cls-3" d="M194.15,140.73a3.69,3.69,0,0,1-3-1.58.87.87,0,0,1-.16-.68l2.29-11.23a.88.88,0,0,1,.35-.53c2.22-1.51,4.76-1.72,6.31-.52,1,.81,2.52,2.94.63,8.16-1.4,3.59-3.69,6-6,6.34A4.21,4.21,0,0,1,194.15,140.73Zm-1.39-2.32a1.83,1.83,0,0,0,1.66.63c1.63-.23,3.5-2.35,4.64-5.28s1.08-5.35-.09-6.25c-.91-.71-2.55-.54-4.08.4Z" transform="translate(-97.4 -34.43)"/><path class="cls-8" d="M141.92,133.47l.21.59c1.92,4.93,5.69,7.55,8,4.58L148.74,132l-.92-4.55C144.25,125,139.5,126.06,141.92,133.47Z" transform="translate(-97.4 -34.43)"/><path class="cls-3" d="M147.82,140.07l-.42,0c-2-.29-4.14-2.61-5.43-5.92q-.12-.3-.21-.6h0c-1.45-4.43-.22-6.18.65-6.83,1.33-1,3.54-.77,5.5.57l.06,0,2.32,11.38,0,.07A3,3,0,0,1,147.82,140.07Zm-5.73-6.66c.06.2.13.39.2.59,1.24,3.19,3.27,5.43,5.16,5.7a2.6,2.6,0,0,0,2.47-1.1l-2.26-11.09c-1.82-1.23-3.85-1.45-5-.55-1.37,1-1.56,3.32-.53,6.45Z" transform="translate(-97.4 -34.43)"/><g class="cls-5"><path class="cls-6" d="M147,139.81c-1.76-.59-3.58-2.71-4.74-5.67-.07-.2-.14-.4-.2-.59-2.42-7.41,2.33-8.5,5.89-6.07l0,.09c-3.22-1.22-6.47.47-4.38,6.86.06.19.13.39.2.59A11.72,11.72,0,0,0,147,139.81Z" transform="translate(-97.4 -34.43)"/></g><path class="cls-3" d="M147.82,140.73a4.38,4.38,0,0,1-.51,0c-2.28-.33-4.56-2.75-6-6.33-1.89-5.23-.42-7.36.62-8.17,1.56-1.2,4.09-1,6.32.52a.87.87,0,0,1,.34.53l2.29,11.23a.86.86,0,0,1-.15.68A3.72,3.72,0,0,1,147.82,140.73Zm-3.39-13.66a2.35,2.35,0,0,0-1.44.44c-1.17.9-1.19,3.19-.08,6.27,1.14,2.91,3,5,4.64,5.26a1.84,1.84,0,0,0,1.66-.63l-2.14-10.5A5.19,5.19,0,0,0,144.43,127.07Z" transform="translate(-97.4 -34.43)"/><path class="cls-8" d="M193.65,132.12V136A20.14,20.14,0,0,1,185,152.6a1.88,1.88,0,0,0-.23.16,24.77,24.77,0,0,1-27.53,0l-.23-.16A20.14,20.14,0,0,1,148.42,136v-3.85s0-.25,0-.69c.21-3.51,1.14-19.26,1.29-19.66C154.7,98.44,204.19,101.71,193.65,132.12Z" transform="translate(-97.4 -34.43)"/><path class="cls-3" d="M171,157.13a24.85,24.85,0,0,1-13.85-4.23l-.21-.14A20.27,20.27,0,0,1,148.25,136v-3.85s0-.26,0-.7c.34-5.79,1.14-19.3,1.3-19.72,1.3-3.49,5.7-6.08,12.08-7.11a40.63,40.63,0,0,1,19.2,1.79c5.85,2.1,18.81,8.82,12.95,25.77V136a20.27,20.27,0,0,1-8.7,16.77l-.08.06-.14.1A24.91,24.91,0,0,1,171,157.13Zm-3.52-52.64a36.29,36.29,0,0,0-5.78.45c-6.26,1-10.56,3.51-11.82,6.89-.12.44-.76,10.84-1.27,19.61,0,.44,0,.69,0,.69V136a19.93,19.93,0,0,0,8.54,16.49l.23.16a24.46,24.46,0,0,0,27.33,0l.14-.09.09-.06A19.94,19.94,0,0,0,193.47,136v-3.91c5.79-16.68-7-23.29-12.73-25.35A40,40,0,0,0,167.51,104.49Z" transform="translate(-97.4 -34.43)"/><g class="cls-2"><path class="cls-3" d="M193.65,132.12V136A20.14,20.14,0,0,1,185,152.6a1.88,1.88,0,0,0-.23.16,24.77,24.77,0,0,1-27.53,0l-.23-.16-.51-.36a24.77,24.77,0,0,0,24.57-1.7,1.88,1.88,0,0,1,.23-.16A20.14,20.14,0,0,0,190,133.75l.33-4.85c3.58-10.32-.09-16.51-6.25-21C192.41,112,197.89,119.88,193.65,132.12Z" transform="translate(-97.4 -34.43)"/></g><g class="cls-2"><path class="cls-3" d="M193.65,132.12v1.56c-2.49-3.66-3-13.66-3-13.66-2.17,2.36-14.38,5.09-23,.53a.54.54,0,0,0-.74.72l.15.28c-1.13.7-6.44,0-9.32-1.66a1.32,1.32,0,0,0-2,1c-.65,4.11-2.7,7-7.08,11.27-.11-.23-.22-.46-.32-.69.21-3.51,1.14-19.26,1.29-19.66C154.7,98.44,204.19,101.71,193.65,132.12Z" transform="translate(-97.4 -34.43)"/></g><g class="cls-5"><path class="cls-6" d="M180.42,155.09a24.76,24.76,0,0,1-23.15-2.33l-.23-.16A20.14,20.14,0,0,1,148.42,136v-3.85s1.16-19.9,1.33-20.35c1-2.8,4-4.87,8.05-6.11-3,1.26-5.22,3.07-6.09,5.39-.17.46-1.32,20.36-1.32,20.36v3.85A20.12,20.12,0,0,0,159,151.89a1.88,1.88,0,0,1,.23.16C164.64,156.94,173.38,157.3,180.42,155.09Z" transform="translate(-97.4 -34.43)"/></g><path class="cls-3" d="M171,157.79a25.46,25.46,0,0,1-14.22-4.34l-.24-.16a21,21,0,0,1-9-17.32v-3.9c1.17-20,1.33-20.45,1.38-20.6h0c3.05-8.19,20.21-10,32.12-5.71,5.68,2,10,5.27,12.43,9.35,2.89,4.8,3.21,10.57,1,17.15V136a21,21,0,0,1-9,17.32l-.24.16A25.47,25.47,0,0,1,171,157.79Zm-21.78-25.65V136a19.27,19.27,0,0,0,8.27,15.95l.22.15a23.81,23.81,0,0,0,26.59,0l.22-.15A19.28,19.28,0,0,0,192.81,136v-3.85a.81.81,0,0,1,.05-.27c5.59-16.13-6.76-22.52-12.33-24.52-12.07-4.34-27.44-1.94-30,4.66C150.4,113.07,149.7,124.56,149.25,132.14Zm1.28-20.09Zm0,0h0Zm-.79-.28Z" transform="translate(-97.4 -34.43)"/><path class="cls-9" d="M193.39,103.61c6.24,8,5.46,21.86.2,29.13-4-2.22-4.29-12.72-4.29-12.72-9.52,2.6-19.16,1-27.9-6.52-.18,3,2.3,5.71,2.3,5.71a12,12,0,0,1-3-.47,9.6,9.6,0,0,1-6.19-6.11c-1.11,10-1.18,12.21-6.05,19.49-4.85-10.41-5.75-23.24,2.35-27.08-11.29-3.88-7.13-11.75,2.59-4.76-4.77-6.85,1.25-9.49,2.49-2,7-12.82,37.88-8.32,42.06,6.25l-4.51-1Z" transform="translate(-97.4 -34.43)"/><path class="cls-3" d="M193.64,133l-.13-.07c-3.79-2.09-4.31-11.09-4.37-12.65-10.12,2.69-19.39.54-27.57-6.38a9.25,9.25,0,0,0,2.25,5.22l.28.3h-.41a11.55,11.55,0,0,1-3.08-.48,9.41,9.41,0,0,1-6-5.6l-.07.55c-1,8.94-1.25,11.35-5.93,18.37l-.17.25-.13-.28c-4.9-10.48-5.71-23,2.06-27.12-4.56-1.66-6.36-3.89-6.5-5.45a1.89,1.89,0,0,1,1-1.9c1.34-.77,4.09-.63,7.92,1.91-1.6-2.62-1.56-4.52-1-5.39a1.33,1.33,0,0,1,1.45-.6c1,.21,2.18,1.42,2.74,4.2,3.86-6.42,13.18-7.84,20.72-7,9,1,19.1,5.62,21.42,13.69l.08.28-4.35-.94c6.05,8.2,5,21.95-.08,29Zm-4.17-13.17V120c0,.1.3,10.19,4.06,12.5,5-7.08,6-20.83-.29-28.81l-.22-.28.42,0,4.21.9c-2.42-7.75-12.26-12.19-21-13.16-7.6-.85-17,.61-20.62,7.23l-.25.44-.08-.5c-.48-2.94-1.68-4.2-2.55-4.38a1,1,0,0,0-1.09.45c-.57.86-.54,2.88,1.46,5.75l.57.83-.81-.59c-4.08-2.93-7-3.13-8.27-2.4a1.57,1.57,0,0,0-.82,1.57c.14,1.43,2,3.67,6.65,5.29l.4.14-.38.18c-7.88,3.73-7.17,16.13-2.39,26.57,4.47-6.75,4.74-9.19,5.71-18l.21-1.89.26.64c1.28,3.2,3.27,5.17,6.08,6a11.76,11.76,0,0,0,2.6.45,8.85,8.85,0,0,1-2.08-5.53l0-.34.27.22c8.21,7.08,17.54,9.26,27.74,6.49Z" transform="translate(-97.4 -34.43)"/><g class="cls-2"><path class="cls-3" d="M153.31,110.89a11.69,11.69,0,0,1,1,2.76c-1,9.13-1.24,11.44-5.93,18.47-.55-1.18-1-2.39-1.49-3.61,3.86-6,4.31-9.35,5.2-17.41A.62.62,0,0,1,153.31,110.89Z" transform="translate(-97.4 -34.43)"/></g><g class="cls-5"><path class="cls-6" d="M151.52,99.09c-6.11-2.59-8.32,1.89-2.37,5.32C140.56,100.67,143.62,94.57,151.52,99.09Z" transform="translate(-97.4 -34.43)"/></g><g class="cls-5"><path class="cls-6" d="M150.57,105.14h0a1.11,1.11,0,0,1,.28,1.88c-5.52,4.59-5.31,14.9-1.67,23.89q-.36.59-.78,1.2C143.61,121.8,142.69,109.09,150.57,105.14Z" transform="translate(-97.4 -34.43)"/></g><g class="cls-5"><path class="cls-6" d="M153,100.17h0c-3.23-5-.29-7.83,1.67-5.54-1.09.16-1.73,1.83-.53,4.48A.82.82,0,0,1,153,100.17Z" transform="translate(-97.4 -34.43)"/></g><g class="cls-5"><path class="cls-6" d="M191.79,97.09A48.13,48.13,0,0,0,172.89,93c-1,1.91-4.35,1.82-5.77.46-3.63.65-6.71,2-8.63,4.32a1.27,1.27,0,0,1-2.06-.12l-.06-.13C162.39,89.81,182.7,89.18,191.79,97.09Z" transform="translate(-97.4 -34.43)"/></g><path class="cls-3" d="M193.59,133.58a.86.86,0,0,1-.4-.11c-3.67-2-4.49-9.5-4.67-12.39a29.41,29.41,0,0,1-26-5.6,10.3,10.3,0,0,0,1.81,3.17.83.83,0,0,1,.14.91.84.84,0,0,1-.75.48h0a10.18,10.18,0,0,1-8.68-4.6c-.88,7.85-1.38,10.41-5.88,17.14a.82.82,0,0,1-.75.37.84.84,0,0,1-.69-.48c-4.77-10.22-5.69-22.42,1.19-27.28-3.94-1.71-5.54-3.9-5.69-5.51a2.55,2.55,0,0,1,1.31-2.53c1.26-.72,3.58-.78,6.69.8-.69-1.86-.51-3.26,0-4.07a2,2,0,0,1,2.14-.89c1.22.26,2.24,1.46,2.87,3.3,4.4-5.66,13.27-6.91,20.53-6.1,9.21,1,19.57,5.8,22,14.16a.82.82,0,0,1-.19.8.83.83,0,0,1-.78.24l-2.48-.53a25.57,25.57,0,0,1,3.38,13.59c-.08,5.66-1.67,11-4.37,14.78A.83.83,0,0,1,193.59,133.58Zm-4.29-14.39a.84.84,0,0,1,.5.17.83.83,0,0,1,.34.64c.06,2.59.78,9.31,3.25,11.57,4.53-7,5.25-19.9-.66-27.45a.81.81,0,0,1,0-1,.84.84,0,0,1,.88-.38l3.07.66c-2.88-6.79-11.95-10.71-20.08-11.61-9.27-1-17.11,1.68-20,6.89a.83.83,0,0,1-1.55-.26c-.46-2.8-1.54-3.74-2-3.85a.33.33,0,0,0-.4.18c-.35.51-.48,2.22,1.45,5a.83.83,0,0,1-1.17,1.15c-3.58-2.57-6.37-3-7.56-2.36a.91.91,0,0,0-.48.94c.12,1.33,2.09,3.31,6.21,4.72a.84.84,0,0,1,.56.75.82.82,0,0,1-.48.79c-4.35,2.07-5.42,6.77-5.55,10.36a35,35,0,0,0,3,14.24c3.75-5.85,4-8.26,4.95-16.65l.13-1.21a.83.83,0,0,1,1.6-.21c1.34,3.35,3.54,5.28,6.7,5.87a8.43,8.43,0,0,1-1.37-4.74.83.83,0,0,1,.51-.71.86.86,0,0,1,.87.13c8,6.93,17.16,9.06,27.13,6.35Z" transform="translate(-97.4 -34.43)"/><path class="cls-3" d="M189.3,120.86a.84.84,0,0,1-.8-.62.83.83,0,0,1,.59-1c1-.28,2.08-.61,3.1-1a.83.83,0,1,1,.58,1.56c-1.07.4-2.17.75-3.25,1A.83.83,0,0,1,189.3,120.86Z" transform="translate(-97.4 -34.43)"/><g class="cls-2"><path class="cls-3" d="M193.59,132.74c-4-2.22-4.29-12.72-4.29-12.72-9.52,2.6-19.16,1-27.9-6.52-.18,3,2.3,5.71,2.3,5.71a12,12,0,0,1-3-.47c-4.56-7.51-2.62-9.28,3.93-7,18.19,5.86,31.42,6.78,28.8-8.16C199.63,111.58,198.85,125.47,193.59,132.74Z" transform="translate(-97.4 -34.43)"/></g><g class="cls-10"><path class="cls-11" d="M189,110.54c0,1.27-2.47,2.29-5.52,2.29s-5.51-1-5.51-2.29,2.47-1.29,5.51-1.29S189,109.28,189,110.54Z" transform="translate(-97.4 -34.43)"/></g><path class="cls-3" d="M174,147.51s-1.19.77-4.3.77c-.68,0-2.61-.06-5.05-2.29a5.21,5.21,0,0,0,5,3.25A6.31,6.31,0,0,0,174,147.51Z" transform="translate(-97.4 -34.43)"/><path class="cls-3" d="M156.28,133.07a3.78,3.78,0,0,1,1.66-2,4.93,4.93,0,0,1,2.63-.72,5,5,0,0,1,2.6.75,4,4,0,0,1,1.68,2,19.46,19.46,0,0,0-2.25-.67,10.47,10.47,0,0,0-2-.23,8.88,8.88,0,0,0-2,.2A13.69,13.69,0,0,0,156.28,133.07Z" transform="translate(-97.4 -34.43)"/><path class="cls-3" d="M186.12,133.07a13.4,13.4,0,0,0-2.23-.7,8.88,8.88,0,0,0-2-.2,10.37,10.37,0,0,0-2,.23,19,19,0,0,0-2.26.67,4,4,0,0,1,1.68-2,5.08,5.08,0,0,1,2.61-.75,4.9,4.9,0,0,1,2.62.72A3.78,3.78,0,0,1,186.12,133.07Z" transform="translate(-97.4 -34.43)"/><ellipse class="cls-3" cx="64" cy="103.7" rx="2.86" ry="3.78"/><ellipse class="cls-6" cx="64.73" cy="102.83" rx="0.86" ry="1.27"/><path class="cls-3" d="M162.13,138.7c-.58,0-1-.63-1-1.44s.45-1.44,1-1.44,1,.63,1,1.44S162.72,138.7,162.13,138.7Zm0-2.53c-.37,0-.69.5-.69,1.09s.32,1.1.69,1.1.7-.5.7-1.1S162.51,136.17,162.13,136.17Z" transform="translate(-97.4 -34.43)"/><ellipse class="cls-3" cx="83.79" cy="103.7" rx="2.86" ry="3.78"/><ellipse class="cls-6" cx="83.06" cy="102.83" rx="0.86" ry="1.27"/><path class="cls-3" d="M180.46,138.7c-.58,0-1-.63-1-1.44s.46-1.44,1-1.44,1,.63,1,1.44S181,138.7,180.46,138.7Zm0-2.53c-.37,0-.69.5-.69,1.09s.32,1.1.69,1.1.69-.5.69-1.1S180.84,136.17,180.46,136.17Z" transform="translate(-97.4 -34.43)"/><path class="cls-12" d="M132.51,177.7c-4.73,2.71-9.21.24-9.89-3.5a5.53,5.53,0,0,1,.07-2.32,7,7,0,0,1,.51-1.43l.63-1.27a13.05,13.05,0,0,0,1.48-4.35,4.18,4.18,0,0,0-.25-1.89,2,2,0,0,0-.57-.81,2.24,2.24,0,0,0-1-.51,2.12,2.12,0,0,0-.5-.05c-1.06.05-2,1-1.64,3.41.55,3.37-3.12,4.43-4.46,1.54-.06-.13-.12-.27-.17-.41a.88.88,0,0,0,0-.15c-.84-2.69.18-7.35,4.34-8.33l.59-.11a8,8,0,0,1,.83-.07,6.87,6.87,0,0,1,1.45.12c3.38.66,5.5,4,4.44,8.16-.58,2.23-2.89,6.46-1.91,8.5a2.52,2.52,0,0,0,2.39,1.09h.09a4,4,0,0,0,2.52-1.2Z" transform="translate(-97.4 -34.43)"/><g class="cls-13"><path class="cls-3" d="M132.51,177.7c-4.73,2.71-9.21.24-9.89-3.5.57,1.89,3.66,3.11,6.16,1.12h.09a4,4,0,0,0,2.52-1.2Z" transform="translate(-97.4 -34.43)"/></g><path class="cls-12" d="M158.29,153.75c-.74,7.38-9.51,8.32-13.64,9.14h-5.22c-2.67-.53-7.28-1.11-10.4-3.45a8.36,8.36,0,0,1-2-2,7.45,7.45,0,0,1-.92-1.9,8.6,8.6,0,0,1-.33-1.53c0-.2,0-.42-.06-.63a11.17,11.17,0,0,1,.07-2.06,38.31,38.31,0,0,1,1.22-5c.23-.72.48-1.44.73-2.1-.94-4.18-1.32-9.46.09-11.27.93-1.19,3.42,0,7.2,3.24a19.91,19.91,0,0,1,13.94,0c3.78-3.24,6.28-4.43,7.2-3.24,1.42,1.81,1,7.09.09,11.27a41.36,41.36,0,0,1,2,7.05A11.24,11.24,0,0,1,158.29,153.75Z" transform="translate(-97.4 -34.43)"/><g class="cls-14"><path class="cls-6" d="M157.14,137.87a7,7,0,0,0-.93-3.84c-.92-1.18-3.42,0-7.2,3.24a20.06,20.06,0,0,0-13.94,0c-3.78-3.24-6.27-4.42-7.2-3.24a6.9,6.9,0,0,0-.92,3.84c0-2.13.2-4,.92-4.89.93-1.19,3.42,0,7.2,3.24a19.91,19.91,0,0,1,13.94,0c3.78-3.24,6.28-4.43,7.2-3.24C156.94,133.91,157.19,135.74,157.14,137.87Z" transform="translate(-97.4 -34.43)"/></g><path class="cls-6" d="M158.29,153.75c-.74,7.38-9.51,8.32-13.64,9.14h-5.22c-2.67-.53-7.28-1.11-10.4-3.45a8.36,8.36,0,0,1-2-2,7.45,7.45,0,0,1-.92-1.9,8.6,8.6,0,0,1-.33-1.53c6.39,5.49,11,3,13.06-1.16a3.5,3.5,0,0,1,6.08,0C147.05,157.08,151.76,159.55,158.29,153.75Z" transform="translate(-97.4 -34.43)"/><g class="cls-13"><path class="cls-3" d="M157.57,156.44c-2.33,4.94-9.35,5.74-12.92,6.45h-5.22c-2.67-.53-7.28-1.11-10.4-3.45a8.36,8.36,0,0,1-2-2,7.74,7.74,0,0,1-.55-1,9.76,9.76,0,0,0,1.08.93C130,159.15,138.25,160,142,160S155.13,158.86,157.57,156.44Z" transform="translate(-97.4 -34.43)"/></g><path class="cls-3" d="M132.51,143.59a2.73,2.73,0,0,1,3.47-2.18c.87.28,1,1.12.28,1.3a11.45,11.45,0,0,0-1.91.38C133.79,143.29,132.7,143.89,132.51,143.59Z" transform="translate(-97.4 -34.43)"/><path class="cls-3" d="M151.57,143.59a2.73,2.73,0,0,0-3.47-2.18c-.86.28-.94,1.12-.27,1.3a11.65,11.65,0,0,1,1.91.38C150.3,143.29,151.38,143.89,151.57,143.59Z" transform="translate(-97.4 -34.43)"/><path class="cls-15" d="M131.18,139.38c-1.17,1.24-1.9,3-2,2.77l0-.07a18.88,18.88,0,0,1-.58-4.83c0-.32,0-.61,0-.86a4.45,4.45,0,0,1,.27-1.39.58.58,0,0,1,.77-.33,12.76,12.76,0,0,1,3.71,2.7C133.46,137.53,132.34,138.14,131.18,139.38Z" transform="translate(-97.4 -34.43)"/><path class="cls-16" d="M131.18,139.38c-1.17,1.24-1.9,3-2,2.77l0-.07a18.77,18.77,0,0,1,1.52-3.56,2.06,2.06,0,0,0-1.17-2.92c-.31-.12-.67.39-.91.79a4.45,4.45,0,0,1,.27-1.39.58.58,0,0,1,.77-.33,12.76,12.76,0,0,1,3.71,2.7C133.46,137.53,132.34,138.14,131.18,139.38Z" transform="translate(-97.4 -34.43)"/><path class="cls-3" d="M129.2,142.55h0a.41.41,0,0,1-.35-.22,18.27,18.27,0,0,1-.65-5.08h0a6.53,6.53,0,0,1,.32-2.4,1,1,0,0,1,1.27-.54,13,13,0,0,1,3.87,2.82c.1.12.2.38-.14.71-.11.11-.27.23-.47.39a14.48,14.48,0,0,0-1.57,1.41,12.16,12.16,0,0,0-1.5,2.11C129.61,142.34,129.48,142.55,129.2,142.55Zm.32-.57Zm-.57-4.73a23.07,23.07,0,0,0,.39,4,12.43,12.43,0,0,1,1.55-2.18,16.24,16.24,0,0,1,1.66-1.48l.3-.24a13.6,13.6,0,0,0-3.36-2.36.2.2,0,0,0-.28.12,6.06,6.06,0,0,0-.26,2.1Z" transform="translate(-97.4 -34.43)"/><path class="cls-15" d="M153,139.38c1.16,1.24,1.9,3,2,2.77l0-.07a19.35,19.35,0,0,0,.58-4.83c0-.32,0-.61,0-.86a4.23,4.23,0,0,0-.26-1.39.58.58,0,0,0-.77-.33,12.76,12.76,0,0,0-3.71,2.7C150.66,137.53,151.79,138.14,153,139.38Z" transform="translate(-97.4 -34.43)"/><path class="cls-16" d="M153,139.38c1.16,1.24,1.9,3,2,2.77l0-.07a19.44,19.44,0,0,0-1.52-3.56,2.06,2.06,0,0,1,1.17-2.92c.3-.12.66.39.9.79a4.23,4.23,0,0,0-.26-1.39.58.58,0,0,0-.77-.33,12.76,12.76,0,0,0-3.71,2.7C150.66,137.53,151.79,138.14,153,139.38Z" transform="translate(-97.4 -34.43)"/><path class="cls-3" d="M154.92,142.55c-.28,0-.4-.21-.76-.8a12.6,12.6,0,0,0-1.49-2.11,16.66,16.66,0,0,0-1.57-1.41c-.2-.16-.36-.28-.47-.39-.35-.33-.24-.59-.15-.71a13.07,13.07,0,0,1,3.88-2.82,1,1,0,0,1,1.26.53,6.42,6.42,0,0,1,.32,2.41h0a17.88,17.88,0,0,1-.65,5.08.4.4,0,0,1-.35.22Zm-3.64-5.16.3.24a15.3,15.3,0,0,1,1.65,1.48,12.54,12.54,0,0,1,1.56,2.18,22.25,22.25,0,0,0,.38-4h0a5.57,5.57,0,0,0-.26-2.1.19.19,0,0,0-.27-.12A13.42,13.42,0,0,0,151.28,137.39Z" transform="translate(-97.4 -34.43)"/><path class="cls-3" d="M144.62,162.73c1.12-.31,2.24-.53,3.35-.8a30.64,30.64,0,0,0,3.28-.92c.27-.09.53-.19.79-.3s.52-.22.78-.33l.37-.19.38-.2.36-.2.35-.23.18-.11.17-.12.34-.25.32-.26.16-.13.15-.15a7.51,7.51,0,0,0,1.08-1.24l.22-.35.06-.08,0-.09.09-.19.1-.18a.41.41,0,0,1,.05-.09l0-.09.16-.38,0-.1,0-.09.06-.2c0-.13.09-.26.13-.39l.09-.41,0-.2,0-.2.06-.41s0-.07,0-.11v-.1l0-.21,0-.41v-.84l0-.42,0-.42,0-.19,0-.21c-.11-.55-.24-1.11-.37-1.66s-.28-1.11-.44-1.66c-.31-1.09-.66-2.18-1.07-3.24l0-.1,0-.11a34.94,34.94,0,0,0,.75-4.87,22.46,22.46,0,0,0,.07-2.46,10.56,10.56,0,0,0-.29-2.39,4.27,4.27,0,0,0-.42-1,1,1,0,0,0-.08-.11l0-.06,0,0a.6.6,0,0,0-.08-.08l0,0,0,0a1,1,0,0,0-.41-.14,1.81,1.81,0,0,0-.51,0,4.12,4.12,0,0,0-.55.15,7,7,0,0,0-1.07.51,17.88,17.88,0,0,0-2,1.35q-1,.75-1.92,1.56l-.18.15-.22-.1a12.48,12.48,0,0,0-1.63-.55,16.62,16.62,0,0,0-1.7-.37q-.87-.13-1.74-.21c-.58-.05-1.17-.08-1.75-.08s-1.16,0-1.74.08-1.17.12-1.74.22a16.21,16.21,0,0,0-1.71.36,12.07,12.07,0,0,0-1.63.56l-.21.09-.18-.15q-.95-.81-1.92-1.56a18,18,0,0,0-2-1.35,8,8,0,0,0-1.07-.5,3.68,3.68,0,0,0-.54-.16,1.86,1.86,0,0,0-.52,0,.8.8,0,0,0-.41.14l0,0,0,0-.07.08,0,.05,0,0a.76.76,0,0,0-.08.11,4.27,4.27,0,0,0-.42,1,10.56,10.56,0,0,0-.29,2.39,22.46,22.46,0,0,0,.07,2.46,34.94,34.94,0,0,0,.75,4.87l0,.11,0,.1c-.41,1.06-.76,2.15-1.07,3.24-.15.55-.3,1.11-.44,1.66s-.26,1.11-.36,1.66c0,.14,0,.28-.07.41s0,.27,0,.41a7.87,7.87,0,0,0,0,.84,9.2,9.2,0,0,0,.11,1.66,7.44,7.44,0,0,0,1.2,3,8.59,8.59,0,0,0,2.39,2.26,14.87,14.87,0,0,0,3,1.44,27.88,27.88,0,0,0,3.28.91l.41.1.42.1.84.19c.56.13,1.12.26,1.68.43a.16.16,0,0,1,.11.2.16.16,0,0,1-.18.12h0c-1.14-.12-2.28-.27-3.42-.5a24.62,24.62,0,0,1-3.37-.9,15.42,15.42,0,0,1-3.18-1.51,9,9,0,0,1-2.59-2.45,8.06,8.06,0,0,1-1.32-3.32,9.7,9.7,0,0,1-.13-1.78c0-.3,0-.59,0-.89,0-.14,0-.29,0-.44s0-.3.07-.44c.11-.58.24-1.15.37-1.71s.29-1.12.44-1.68c.32-1.11.66-2.22,1.09-3.31l0,.21a36.31,36.31,0,0,1-.77-5c-.06-.84-.1-1.68-.08-2.53a11.71,11.71,0,0,1,.32-2.55,4.48,4.48,0,0,1,.5-1.26,1.3,1.3,0,0,1,.1-.15l0-.07.06-.07a1,1,0,0,1,.14-.15l.08-.07.08-.06a1.59,1.59,0,0,1,.76-.27,2.52,2.52,0,0,1,.73,0,4.84,4.84,0,0,1,.65.19,8.05,8.05,0,0,1,1.19.55,20.45,20.45,0,0,1,2.12,1.4c.67.51,1.32,1,2,1.58l-.4-.06a15.55,15.55,0,0,1,1.74-.6,18,18,0,0,1,1.77-.38c.6-.1,1.2-.17,1.8-.22s1.2-.09,1.81-.09,1.21,0,1.81.09,1.2.13,1.8.23a18.18,18.18,0,0,1,1.78.38,11.8,11.8,0,0,1,1.73.6l-.39.05c.64-.54,1.29-1.07,2-1.58a20.45,20.45,0,0,1,2.12-1.4,8.44,8.44,0,0,1,1.18-.55,4.58,4.58,0,0,1,.66-.19,2.9,2.9,0,0,1,.73,0,1.55,1.55,0,0,1,.75.27l.08.06.08.07a.66.66,0,0,1,.14.15l.06.07.05.08a.78.78,0,0,1,.1.15,4.64,4.64,0,0,1,.51,1.25,11.7,11.7,0,0,1,.31,2.55c0,.85,0,1.69-.08,2.53a37.91,37.91,0,0,1-.77,5l0-.21c.42,1.09.77,2.2,1.09,3.31.15.56.3,1.12.44,1.68s.26,1.13.37,1.71l0,.22,0,.22,0,.45,0,.44V153l0,.44v.33s0,.08,0,.11l-.07.45,0,.22-.05.22-.1.43c0,.15-.09.29-.14.43l-.07.22,0,.1,0,.11-.17.41,0,.11-.05.1-.11.19-.1.2-.06.1-.06.1-.24.38a8.92,8.92,0,0,1-1.18,1.35l-.16.15-.18.15-.34.28-.36.26-.18.13-.19.12-.38.23-.38.22-.39.21-.4.19c-.27.12-.53.24-.81.35l-.82.31c-.55.19-1.11.36-1.67.51-.28.08-.56.14-.85.21l-.85.18c-1.14.22-2.28.37-3.42.51h0a.16.16,0,0,1-.06-.32Z" transform="translate(-97.4 -34.43)"/><path class="cls-17" d="M144.87,154s0,1.72-1.54,1.63a1.4,1.4,0,0,1-1.34-1,1.37,1.37,0,0,1-1.33,1c-1.54.09-1.54-1.63-1.54-1.63l2.86-2.23h0Z" transform="translate(-97.4 -34.43)"/><path class="cls-6" d="M144.85,154s-.5,1.31-1.67,1c-1.33-.35-1.17-1.94-1.17-1.94h0s.16,1.59-1.17,1.93c-1.18.3-1.67-1-1.67-1a2.87,2.87,0,1,1,5.73,0Z" transform="translate(-97.4 -34.43)"/><path class="cls-17" d="M144.7,154.3a1.34,1.34,0,0,1-1.52.72c-1.33-.35-1.17-1.94-1.17-1.94h0s.16,1.59-1.17,1.93a1.34,1.34,0,0,1-1.52-.72,2.08,2.08,0,0,0,.73-.06A2.53,2.53,0,0,0,142,151.5H142a2.53,2.53,0,0,0,1.93,2.74A2.15,2.15,0,0,0,144.7,154.3Z" transform="translate(-97.4 -34.43)"/><path class="cls-3" d="M139.3,153.93l.14.21.16.2a1.32,1.32,0,0,0,.38.3,1,1,0,0,0,.41.12,1.5,1.5,0,0,0,.22,0l.12,0,.11,0a1.2,1.2,0,0,0,.68-.59,2,2,0,0,0,.18-.48,2.17,2.17,0,0,0,0-.25,1.3,1.3,0,0,0,0-.26v0a.2.2,0,0,1,.2-.18.18.18,0,0,1,.18.16,1.73,1.73,0,0,1,0,.32,1.61,1.61,0,0,1,0,.31,2.09,2.09,0,0,1-.16.63,1.69,1.69,0,0,1-1,.92l-.16,0-.17,0c-.11,0-.23,0-.35,0a1.53,1.53,0,0,1-.67-.23,2,2,0,0,1-.48-.47c-.06-.09-.11-.19-.16-.28a2.65,2.65,0,0,1-.11-.3.19.19,0,0,1,.13-.24.19.19,0,0,1,.22.08Z" transform="translate(-97.4 -34.43)"/><path class="cls-3" d="M145,154.08a2.65,2.65,0,0,1-.11.3,2.54,2.54,0,0,1-.16.28,2,2,0,0,1-.48.47,1.44,1.44,0,0,1-.67.22,1.35,1.35,0,0,1-.35,0l-.17,0-.16-.06a1.63,1.63,0,0,1-1-.92,2.43,2.43,0,0,1-.16-.63c0-.1,0-.21,0-.31a1.73,1.73,0,0,1,0-.32.19.19,0,0,1,.38,0v0l0,.26a1.32,1.32,0,0,0,.05.26,1.88,1.88,0,0,0,.17.47,1.18,1.18,0,0,0,.68.6l.11,0,.11,0a1.79,1.79,0,0,0,.23,0,1,1,0,0,0,.41-.12,1.52,1.52,0,0,0,.38-.3l.16-.2.14-.21,0,0a.19.19,0,0,1,.34.16Z" transform="translate(-97.4 -34.43)"/><path class="cls-3" d="M143.59,152.25c0,.38-.49.71-.94.93a1.59,1.59,0,0,1-1.47,0c-.45-.23-.94-.56-.94-.94C140.25,151.11,143.6,151.12,143.59,152.25Z" transform="translate(-97.4 -34.43)"/><g class="cls-14"><path class="cls-6" d="M142.58,152c0,.11-.19.21-.37.27a.83.83,0,0,1-.58,0c-.18-.06-.38-.16-.37-.27C141.26,151.7,142.58,151.7,142.58,152Z" transform="translate(-97.4 -34.43)"/></g><path class="cls-3" d="M127.77,153.19l-.2-.11-.22-.11-.22-.1-.23-.1c-.3-.12-.6-.24-.91-.34a12.52,12.52,0,0,0-1.9-.46c-.16,0-.33,0-.49-.06l-.24,0-.24,0-.49,0h-.49c-.33,0-.66,0-1,0h-.24l-.25,0-.49,0h0a.18.18,0,0,1-.19-.15.18.18,0,0,1,.14-.19l.5-.09.25,0,.13,0,.12,0,.51-.05.25,0h.77l.51,0h.25l.26,0c.17,0,.34,0,.5.06l.51.09.5.11a3.94,3.94,0,0,1,.49.14,4,4,0,0,1,.49.16,7.32,7.32,0,0,1,1.82.94.17.17,0,0,1,0,.24.19.19,0,0,1-.23,0Z" transform="translate(-97.4 -34.43)"/><path class="cls-3" d="M128.21,155.74a8.31,8.31,0,0,0-.86-.07c-.29,0-.58,0-.87,0a9.7,9.7,0,0,0-1.7.17,7.18,7.18,0,0,0-.83.2l-.41.14-.39.16a6.39,6.39,0,0,0-1.45.9h0a.17.17,0,0,1-.24,0,.17.17,0,0,1,0-.23,5.56,5.56,0,0,1,1.48-1.06,5.24,5.24,0,0,1,.85-.35,6.33,6.33,0,0,1,.88-.24,8.37,8.37,0,0,1,1.8-.16,7.86,7.86,0,0,1,1.8.23.18.18,0,0,1,.12.21.17.17,0,0,1-.18.13Z" transform="translate(-97.4 -34.43)"/><path class="cls-3" d="M156.12,152.91a7.15,7.15,0,0,1,1.82-.94,4.5,4.5,0,0,1,.48-.16,4.67,4.67,0,0,1,.5-.14l.5-.11.5-.09.51-.06.25,0h.26l.51,0h.76l.26,0,.5.05.13,0,.12,0,.25,0,.5.09a.18.18,0,0,1,.14.2.17.17,0,0,1-.18.14h0l-.49,0-.24,0h-.25c-.33,0-.65,0-1,0h-.49l-.49,0-.25,0-.24,0L160,152a12.24,12.24,0,0,0-1.9.46c-.31.1-.62.22-.92.34l-.22.1-.22.1a1.51,1.51,0,0,0-.22.11l-.21.11h0a.18.18,0,0,1-.23-.07A.16.16,0,0,1,156.12,152.91Z" transform="translate(-97.4 -34.43)"/><path class="cls-3" d="M155.81,155.4a7.77,7.77,0,0,1,1.79-.23,8.47,8.47,0,0,1,1.81.16,6.74,6.74,0,0,1,.88.24,5.14,5.14,0,0,1,.84.35,5.56,5.56,0,0,1,1.48,1.06.16.16,0,0,1,0,.24.16.16,0,0,1-.22,0h0a6.33,6.33,0,0,0-1.44-.9l-.4-.16-.4-.14a7.72,7.72,0,0,0-.83-.2,9.72,9.72,0,0,0-1.71-.17c-.29,0-.57,0-.86,0a8.09,8.09,0,0,0-.86.07h0a.17.17,0,0,1-.06-.34Z" transform="translate(-97.4 -34.43)"/><g class="cls-13"><path class="cls-3" d="M126.55,163.7a10,10,0,0,1-2.72,5.48,13.05,13.05,0,0,0,1.48-4.35,4.18,4.18,0,0,0-.25-1.89,2,2,0,0,0-.57-.81,2.22,2.22,0,0,0-1.52-.56c-1.06.05-2,1-1.64,3.41.55,3.37-3.12,4.43-4.46,1.54-.06-.13-.12-.27-.17-.41.68.51,2.37,1.38,3.31.34,1.32-1.47-.48-3.92,1.26-5.73C122.59,159.35,126.81,160.44,126.55,163.7Z" transform="translate(-97.4 -34.43)"/></g><path class="cls-18" d="M123.89,160.39s-.46-.08-.45,0a2.92,2.92,0,0,1,0,1.26h0l-.09,0H123c-1.06.05-2,1-1.64,3.41.55,3.37-3.12,4.43-4.46,1.54-.06-.13-.12-.27-.17-.41.68.51,2.37,1.38,3.31.34,1.32-1.47-.48-3.92,1.26-5.73a2.79,2.79,0,0,1,2.63-.45A.16.16,0,0,1,123.89,160.39Z" transform="translate(-97.4 -34.43)"/><path class="cls-6" d="M123.47,161.62a2.12,2.12,0,0,0-.5-.05c-1.06.05-2,1-1.64,3.41.55,3.37-3.12,4.43-4.46,1.54-.06-.13-.12-.27-.17-.41a.88.88,0,0,0,0-.15c-.84-2.69.18-7.35,4.34-8.33l.59-.11a8,8,0,0,1,.83-.07,3.17,3.17,0,0,1,1.15,1.54c0,.09-.41-.08-.38,0,.12.31.85,1.24.71,1.39s-.46-.08-.45,0A2.76,2.76,0,0,1,123.47,161.62Z" transform="translate(-97.4 -34.43)"/><g class="cls-13"><path class="cls-3" d="M123.89,160.39s-.46-.08-.45,0a2.92,2.92,0,0,1,0,1.26h0l-.09,0H123c-1.06.05-2,1-1.64,3.41.55,3.37-3.12,4.43-4.46,1.54-.06-.13-.12-.27-.17-.41.68.51,2.37,1.38,3.31.34,1.32-1.47-.48-3.92,1.26-5.73a2.79,2.79,0,0,1,2.63-.45A.16.16,0,0,1,123.89,160.39Z" transform="translate(-97.4 -34.43)"/></g><path class="cls-3" d="M128.47,179.18a6.36,6.36,0,0,1-4.42-1.7,6,6,0,0,1-1.15-7.18c.07-.16.15-.32.23-.48,1.17-2.36,2.38-4.8,1.62-6.76a1.85,1.85,0,0,0-2.07-1.1c-.9.25-1.27,1.35-1,3a2.91,2.91,0,0,1-1.78,3.5,2.79,2.79,0,0,1-3.33-1.77,7.47,7.47,0,0,1,.4-6.32,6,6,0,0,1,4.58-3.16,6.37,6.37,0,0,1,5.75,1.95,7.16,7.16,0,0,1,1.34,6.68c-.17.66-.49,1.48-.82,2.35-.78,2.05-1.75,4.59-1.12,5.92a1.94,1.94,0,0,0,1.4.86,3.52,3.52,0,0,0,3.06-1.06.34.34,0,0,1,.48.48,4.22,4.22,0,0,1-3.65,1.25,2.57,2.57,0,0,1-1.9-1.24c-.76-1.58.23-4.17,1.1-6.45.32-.85.63-1.66.79-2.28a6.5,6.5,0,0,0-1.18-6.06,5.71,5.71,0,0,0-5.16-1.72,5.31,5.31,0,0,0-4.07,2.8,6.82,6.82,0,0,0-.38,5.71,2.13,2.13,0,0,0,2.51,1.41c.77-.24,1.57-1.1,1.31-2.74-.48-2.95,1-3.61,1.5-3.74a2.53,2.53,0,0,1,2.88,1.52c.87,2.23-.4,4.81-1.64,7.3-.08.16-.16.32-.23.48a5.27,5.27,0,0,0,1,6.38c2,1.85,5,2,7.83.43a.34.34,0,0,1,.46.12.35.35,0,0,1-.12.47A8.51,8.51,0,0,1,128.47,179.18Z" transform="translate(-97.4 -34.43)"/><g class="cls-14"><path class="cls-6" d="M154.85,174.69a1.83,1.83,0,0,0-1.66-1.13c-.62.08-.31.46.17.59C154.08,174.35,154.94,175.13,154.85,174.69Z" transform="translate(-97.4 -34.43)"/></g><path class="cls-12" d="M133.38,170.26c-5.42-.1-6.83-3.7-7-6.69a11.35,11.35,0,0,1,.22-2.91l6.34-1a3.42,3.42,0,0,0,.27.62c1.15,2.14,4.24,3.35,4.24,3.35S140.85,170.4,133.38,170.26Z" transform="translate(-97.4 -34.43)"/><g class="cls-13"><path class="cls-3" d="M133.38,170.26c-4.55-.09-6.27-2.64-6.79-5.23,1,1.5,2.77,2.62,5.77,2.68,4.44.08,5-2.28,4.81-4.21l.31.13S140.85,170.4,133.38,170.26Z" transform="translate(-97.4 -34.43)"/></g><path class="cls-6" d="M133.24,160.28a6,6,0,0,1-2.64,2.64,6.46,6.46,0,0,1-4.19.65,11.35,11.35,0,0,1,.22-2.91l6.34-1a2.65,2.65,0,0,0,.17.44A1.62,1.62,0,0,0,133.24,160.28Z" transform="translate(-97.4 -34.43)"/><g class="cls-13"><path class="cls-3" d="M133.24,160.28a6,6,0,0,1-2.64,2.64h0c-.75.34-2,.33-2.31-.38-.27-.56,3.25-1.88,4.86-2.44A1.62,1.62,0,0,0,133.24,160.28Z" transform="translate(-97.4 -34.43)"/></g><path class="cls-3" d="M133.61,170.6h-.23a7.13,7.13,0,0,1-5.76-2.43c-2.19-2.74-1.49-6.8-1.32-7.58a.33.33,0,0,1,.4-.27.34.34,0,0,1,.26.4c-.15.74-.81,4.53,1.19,7a6.5,6.5,0,0,0,5.24,2.18c2.06,0,3.43-.46,4.07-1.47,1-1.53.08-3.84-.2-4.49a5.07,5.07,0,0,1-4.63-4.23.34.34,0,0,1,.67-.14,4.35,4.35,0,0,0,4.18,3.7h.21l.1.19c.06.13,1.57,3.23.24,5.33C137.28,170,135.79,170.6,133.61,170.6Z" transform="translate(-97.4 -34.43)"/><path class="cls-6" d="M133.85,160.4c-.69.52-1.72.54-2.45-.74.19.7.09,2.88-2.81,2.89h-.31l-1.88.28c-.14-5.15,3.39-7,6.35-5.45a3.13,3.13,0,0,1,1.24,1.49C134.23,159.47,134.25,160.09,133.85,160.4Z" transform="translate(-97.4 -34.43)"/><g class="cls-13"><path class="cls-3" d="M133.85,160.4c-.69.52-1.72.54-2.45-.74.19.7.09,2.88-2.81,2.89a4.37,4.37,0,0,0,2-1.62,12.17,12.17,0,0,0,.57-1.45c.27-.16,2.54.8,2.85-.62C134.23,159.47,134.25,160.09,133.85,160.4Z" transform="translate(-97.4 -34.43)"/></g><path class="cls-3" d="M132.46,160.29l.19.07a1.07,1.07,0,0,0,.4,0,1.46,1.46,0,0,0,.39-.12l.09-.06.09-.06h0l0,0s0,0,0-.05a.53.53,0,0,0,.09-.32,1.3,1.3,0,0,0,0-.43,2.92,2.92,0,0,0-.4-.86,2.41,2.41,0,0,0-.64-.67l-.09-.06a.31.31,0,0,0-.1,0l-.22-.11-.23-.1-.23-.08a4,4,0,0,0-1-.18,3.47,3.47,0,0,0-1.87.41,3.77,3.77,0,0,0-1.39,1.33,5.56,5.56,0,0,0-.73,1.86,8.57,8.57,0,0,0-.17,2h0a.35.35,0,0,1-.34.35.33.33,0,0,1-.34-.33h0a9.49,9.49,0,0,1,.18-2.19,6.32,6.32,0,0,1,.82-2.08,4.44,4.44,0,0,1,1.65-1.57,4.15,4.15,0,0,1,2.23-.49,4.81,4.81,0,0,1,1.13.22l.27.09.26.11.25.12.14.07.13.09a3.3,3.3,0,0,1,.82.85,3.72,3.72,0,0,1,.49,1.07,2.14,2.14,0,0,1,.07.63,1.28,1.28,0,0,1-.21.68.86.86,0,0,1-.13.14l-.07.07,0,0,0,0-.13.09-.14.08a1.9,1.9,0,0,1-.61.2" transform="translate(-97.4 -34.43)"/><path class="cls-12" d="M151.52,178.19c1-2.65.24-7.3-.47-12.26H132.84c-.71,5-1.52,9.61-.48,12.26" transform="translate(-97.4 -34.43)"/><g class="cls-13"><path class="cls-3" d="M151.4,178.19c1-2.65.24-7.3-.47-12.26H132.72c-.71,5-1.52,9.61-.48,12.26" transform="translate(-97.4 -34.43)"/></g><path class="cls-3" d="M151.36,178.13a11.48,11.48,0,0,0,.33-3l0-.75c0-.26,0-.51,0-.77s0-.5-.06-.76l-.07-.76c-.11-1-.24-2-.38-3.06l-.21-1.53c-.07-.51-.14-1-.2-1.53h0l.34.29H132.84l.33-.29h0c-.06.51-.13,1-.2,1.53l-.2,1.53c-.14,1-.28,2-.39,3.06s-.18,2-.19,3.05a11.45,11.45,0,0,0,.33,3h0a.18.18,0,0,1-.12.21.17.17,0,0,1-.2-.1c-.06-.12-.11-.24-.16-.37a1.42,1.42,0,0,1-.08-.18l-.05-.19-.12-.39-.08-.39,0-.19,0-.2-.06-.39-.06-.79c0-.26,0-.53,0-.79s0-.52,0-.78,0-.53,0-.78,0-.52.06-.78c.09-1,.22-2.07.37-3.09.07-.51.15-1,.23-1.53l.24-1.53h0l0-.29h18.8l0,.29h0c.09.51.17,1,.25,1.53s.15,1,.23,1.53c.14,1,.28,2.05.37,3.09l.06.77c0,.26,0,.53.05.79s0,.52,0,.78,0,.53,0,.79,0,.52-.06.79l0,.39,0,.2,0,.19c0,.13,0,.26-.08.39s-.08.26-.12.39l-.05.19c0,.06-.06.12-.08.19l-.16.36a.17.17,0,0,1-.23.09.18.18,0,0,1-.09-.2Z" transform="translate(-97.4 -34.43)"/><path class="cls-12" d="M151.12,163.07s8,9.75-.5,11.1Z" transform="translate(-97.4 -34.43)"/><path class="cls-3" d="M150.26,174.57l.56-12.4.56.69c.19.22,4.55,5.61,3.24,9.07q-.8,2.07-4,2.58ZM151.42,164l-.44,9.73a3.69,3.69,0,0,0,3-2.07C154.89,169.3,152.54,165.6,151.42,164Z" transform="translate(-97.4 -34.43)"/><g class="cls-7"><path class="cls-6" d="M152.58,164.88v.06a3.06,3.06,0,0,0-3-2.66h-1.42a.93.93,0,0,0-.93.93v1.73h-2.78v-1.73a.94.94,0,0,0-.94-.93h-5.68a1,1,0,0,0-1,1v1.7h-1.51v-1.7a1,1,0,0,0-1-1h0a3.05,3.05,0,0,0-3,2.66v-.08a3,3,0,0,1,3-3.36h15.19A3.06,3.06,0,0,1,152.58,164.88Z" transform="translate(-97.4 -34.43)"/></g><g class="cls-13"><path class="cls-3" d="M151.9,169.53l-.78,4.49-.31,1.82-.63,3.64a3.4,3.4,0,0,1-3.34,2.81h-9.78a3.38,3.38,0,0,1-3.34-2.81l-.94-5.44c1.21,2.55,3.76,5.39,9.16,5.4h0c4.09,0,6.55-1.64,8-3.54-1.77,0-2.85-1.27-2.37-4.77C147.88,169.12,151,169.4,151.9,169.53Z" transform="translate(-97.4 -34.43)"/></g><g class="cls-7"><path class="cls-6" d="M152.37,166.83l-.16.89-18.67,10.74-.24-1.39L152.38,166A2.32,2.32,0,0,1,152.37,166.83Z" transform="translate(-97.4 -34.43)"/></g><path class="cls-6" d="M152.66,172.68a2.64,2.64,0,0,1-2,1.49c-2.14.25-3.36-1-2.58-4a2.62,2.62,0,0,1,1.49-1.7,6.6,6.6,0,0,1,2.64-.59A4.62,4.62,0,0,1,152.66,172.68Z" transform="translate(-97.4 -34.43)"/><g class="cls-13"><path class="cls-3" d="M152.66,172.68a2.64,2.64,0,0,1-2,1.49c-2.14.25-3.36-1-2.58-4a2.62,2.62,0,0,1,1.49-1.7,4.76,4.76,0,0,0-.18,4C150,173.6,151.62,173.53,152.66,172.68Z" transform="translate(-97.4 -34.43)"/></g><path class="cls-3" d="M152.17,168.21a5.74,5.74,0,0,0-2.82.76,2.27,2.27,0,0,0-.88,1,1,1,0,0,0-.05.16s0,.1,0,.17-.06.25-.08.37a6.29,6.29,0,0,0-.11.74,3.09,3.09,0,0,0,.14,1.4,1.66,1.66,0,0,0,.34.54,1.6,1.6,0,0,0,.54.34,3.24,3.24,0,0,0,1.4.15l.36-.07.38-.07.37-.09.19,0,.15-.05h0a.26.26,0,0,1,.35.15.27.27,0,0,1-.13.34,1.38,1.38,0,0,1-.22.1l-.19.06a2.91,2.91,0,0,1-.39.12l-.4.1a2.47,2.47,0,0,1-.41.09,4,4,0,0,1-.85.05,3.35,3.35,0,0,1-.87-.17,2.08,2.08,0,0,1-.79-.5,2.3,2.3,0,0,1-.51-.77,4,4,0,0,1-.2-1.72c0-.28.07-.55.12-.82l.09-.4.06-.22a1.8,1.8,0,0,1,.08-.21,2.66,2.66,0,0,1,.47-.77,3.32,3.32,0,0,1,.67-.58,5,5,0,0,1,1.57-.64,7.4,7.4,0,0,1,.82-.15l.41,0h.42a.34.34,0,0,1,.34.34.35.35,0,0,1-.33.34Z" transform="translate(-97.4 -34.43)"/><path class="cls-3" d="M149.91,170.26a4.31,4.31,0,0,0-.59.16,3,3,0,0,0-.54.25,1.69,1.69,0,0,0-.42.37,1.28,1.28,0,0,0-.14.21,1.09,1.09,0,0,0-.07.24h0a.34.34,0,1,1-.67-.15v0a2,2,0,0,1,.18-.36,1.54,1.54,0,0,1,.25-.31,2.23,2.23,0,0,1,.62-.41,3.25,3.25,0,0,1,.67-.21,3.72,3.72,0,0,1,.68-.09.18.18,0,0,1,.17.17.16.16,0,0,1-.14.17Z" transform="translate(-97.4 -34.43)"/><path class="cls-3" d="M150.14,173.17a3.16,3.16,0,0,1-.68.14,2.75,2.75,0,0,1-.7,0,2,2,0,0,1-.71-.28,1.84,1.84,0,0,1-.53-.58h0a.35.35,0,0,1,.12-.47.35.35,0,0,1,.47.12l0,0a1.34,1.34,0,0,0,.28.42,1.46,1.46,0,0,0,.46.25,2.2,2.2,0,0,0,.58.1,2.88,2.88,0,0,0,.59,0h0a.16.16,0,0,1,.19.13A.17.17,0,0,1,150.14,173.17Z" transform="translate(-97.4 -34.43)"/><path class="cls-3" d="M133,166.88l.31,1.75a1.18,1.18,0,0,0,1.16,1h0a1.18,1.18,0,0,0,1.16-1.38l-.3-1.75a1.17,1.17,0,0,0-1.16-1h0A1.18,1.18,0,0,0,133,166.88Z" transform="translate(-97.4 -34.43)"/><path class="cls-3" d="M134.5,169.94a1.52,1.52,0,0,1-1.5-1.25l-.31-1.75h0a1.49,1.49,0,0,1,.33-1.24,1.52,1.52,0,0,1,1.17-.55h0a1.52,1.52,0,0,1,1.5,1.27l.3,1.74a1.53,1.53,0,0,1-1.5,1.78Zm-1.14-3.12.31,1.75a.84.84,0,0,0,1.66-.29l-.3-1.75a.85.85,0,0,0-.83-.7h0a.83.83,0,0,0-.64.3.86.86,0,0,0-.19.69Z" transform="translate(-97.4 -34.43)"/><circle class="cls-3" cx="36.76" cy="132.11" r="0.66"/><circle class="cls-3" cx="36.76" cy="132.11" r="0.18"/><path class="cls-19" d="M134.16,167.37a.83.83,0,1,1,.83-.83A.83.83,0,0,1,134.16,167.37Zm0-1.31a.48.48,0,0,0-.48.48.49.49,0,1,0,1,0A.48.48,0,0,0,134.16,166.06Z" transform="translate(-97.4 -34.43)"/><circle class="cls-3" cx="37.1" cy="134.02" r="0.66"/><path class="cls-19" d="M134.5,169.28a.83.83,0,1,1,.83-.83A.83.83,0,0,1,134.5,169.28Zm0-1.31a.48.48,0,0,0-.48.48.49.49,0,1,0,1,0A.48.48,0,0,0,134.5,168Z" transform="translate(-97.4 -34.43)"/><ellipse class="cls-3" cx="135.31" cy="150.69" rx="3.12" ry="2.3" transform="translate(-122.29 240.16) rotate(-85.8)"/><ellipse class="cls-6" cx="136.14" cy="150.16" rx="1.24" ry="0.77" transform="translate(-121 240.5) rotate(-85.8)"/><ellipse class="cls-3" cx="148.53" cy="150.69" rx="2.3" ry="3.12" transform="translate(-108.04 -23.15) rotate(-4.2)"/><ellipse class="cls-6" cx="147.7" cy="150.16" rx="0.77" ry="1.24" transform="translate(-108.01 -23.21) rotate(-4.2)"/><path class="cls-20" d="M212.83,205.31a9.43,9.43,0,0,1-9.24,7.55H140a9.43,9.43,0,0,1-9.24-7.55Z" transform="translate(-97.4 -34.43)"/><path class="cls-3" d="M203.59,213H140a9.63,9.63,0,0,1-9.41-7.69l0-.21H213l0,.21a9.6,9.6,0,0,1-9.41,7.69ZM131,205.48a9.27,9.27,0,0,0,9,7.2h63.61a9.21,9.21,0,0,0,9-7.2Z" transform="translate(-97.4 -34.43)"/><path class="cls-3" d="M203.59,213.89H140a10.48,10.48,0,0,1-10.25-8.38,1,1,0,0,1,.21-.86,1,1,0,0,1,.81-.38h82.08a1,1,0,0,1,.8.38,1,1,0,0,1,.21.86A10.48,10.48,0,0,1,203.59,213.89Zm-71.47-7.55a8.41,8.41,0,0,0,7.86,5.48h63.61a8.43,8.43,0,0,0,7.87-5.48Z" transform="translate(-97.4 -34.43)"/><g class="cls-2"><path class="cls-3" d="M212.83,205.31a9.43,9.43,0,0,1-9.24,7.55H164.24a32.22,32.22,0,0,0,17.14-5.5,15.83,15.83,0,0,1,1.09-2.05Z" transform="translate(-97.4 -34.43)"/></g><path class="cls-20" d="M212.8,165.42l-3.32,37.86a4.47,4.47,0,0,1-4.46,4.08H138.54a4.47,4.47,0,0,1-4.45-4.08l-3.32-37.86a6.36,6.36,0,0,1,6.34-6.92h69.35a6.36,6.36,0,0,1,6.34,6.92Z" transform="translate(-97.4 -34.43)"/><path class="cls-3" d="M205,207.54H138.54a4.62,4.62,0,0,1-4.62-4.24l-3.32-37.87a6.53,6.53,0,0,1,6.51-7.11h69.35a6.53,6.53,0,0,1,6.51,7.11h0l-3.32,37.87A4.62,4.62,0,0,1,205,207.54Zm-67.91-48.87a6.19,6.19,0,0,0-6.17,6.73l3.32,37.86a4.28,4.28,0,0,0,4.28,3.93H205a4.29,4.29,0,0,0,4.29-3.93l3.32-37.86a6.2,6.2,0,0,0-6.17-6.73Z" transform="translate(-97.4 -34.43)"/><g class="cls-21"><path class="cls-6" d="M211.74,161.31a6.27,6.27,0,0,0-2.68-.6H139.71a6.38,6.38,0,0,0-6.34,6.92l3.32,37.87a4.51,4.51,0,0,0,.47,1.64,4.47,4.47,0,0,1-3.07-3.86l-3.32-37.86a6.36,6.36,0,0,1,6.34-6.92h69.35A6.35,6.35,0,0,1,211.74,161.31Z" transform="translate(-97.4 -34.43)"/></g><path class="cls-3" d="M205,208.4H138.55a5.48,5.48,0,0,1-5.49-5l-3.32-37.86a7.39,7.39,0,0,1,7.37-8h69.35a7.41,7.41,0,0,1,7.38,8l-3.32,37.86A5.49,5.49,0,0,1,205,208.4Zm-67.92-48.87a5.33,5.33,0,0,0-5.31,5.79l3.32,37.87a3.42,3.42,0,0,0,3.43,3.13H205a3.41,3.41,0,0,0,3.42-3.13l3.32-37.87a5.33,5.33,0,0,0-5.31-5.79Z" transform="translate(-97.4 -34.43)"/><g class="cls-2"><path class="cls-3" d="M212.8,165.42l-3.32,37.86a4.47,4.47,0,0,1-4.46,4.08h-60c36.9-2.9,59.73-17.81,64.71-47.93h0A6.36,6.36,0,0,1,212.8,165.42Z" transform="translate(-97.4 -34.43)"/></g><g id="Layer_2_copy" data-name="Layer 2 copy"><path class="cls-6" d="M133.75,158.43a3.91,3.91,0,0,1-1.47,4.1c-1.46,1-3.65.84-4.1,0-.75-1.42,2.48-4.85,3.61-4.45a3.37,3.37,0,0,0,.86.37A2.68,2.68,0,0,0,133.75,158.43Z" transform="translate(-97.4 -34.43)"/></g><g id="Layer_2" data-name="Layer 2"><path class="cls-22" d="M133.75,158.43a3.66,3.66,0,0,1-5.57,4.08" transform="translate(-97.4 -34.43)"/></g></svg>