<svg id="Layer_4" data-name="Layer 4" xmlns="http://www.w3.org/2000/svg" xmlns:xlink="http://www.w3.org/1999/xlink" viewBox="0 0 350 250"><defs><style>.cls-1{mask:url(#mask);filter:url(#luminosity-noclip-2);}.cls-2{mix-blend-mode:multiply;fill:url(#linear-gradient);}.cls-3{fill:#9191e9;}.cls-4{opacity:0.3;}.cls-5{fill:#080842;}.cls-6{fill:#4d5a6a;}.cls-7{opacity:0.55;}.cls-8{fill:#fff;}.cls-9{opacity:0.4;}.cls-10{fill:#ffd5b8;}.cls-11{fill:#02021e;}.cls-12{fill:#151328;}.cls-13{opacity:0.2;}.cls-14{fill:#fefefe;}.cls-15{fill:#8e8fb3;}.cls-16{opacity:0.15;}.cls-17,.cls-24{opacity:0.5;}.cls-18{fill:#f27e80;}.cls-19{fill:#ff5c64;}.cls-20{fill:#e8e8e8;}.cls-21{fill:#686868;}.cls-22{fill:#61619b;}.cls-23{mask:url(#mask-2);}.cls-24{fill:url(#linear-gradient-2);}.cls-25{fill:#c6d3e3;}.cls-26{opacity:0.75;}.cls-27{fill:none;stroke:#080842;stroke-linecap:round;stroke-linejoin:round;}.cls-28{filter:url(#luminosity-noclip);}</style><filter id="luminosity-noclip" x="129.63" y="-8317" width="193.79" height="32766" filterUnits="userSpaceOnUse" color-interpolation-filters="sRGB"><feFlood flood-color="#fff" result="bg"/><feBlend in="SourceGraphic" in2="bg"/></filter><mask id="mask" x="129.63" y="-8317" width="193.79" height="32766" maskUnits="userSpaceOnUse"><g class="cls-28"/></mask><linearGradient id="linear-gradient" x1="226.53" y1="78.3" x2="225.51" y2="225.83" gradientUnits="userSpaceOnUse"><stop offset="0"/><stop offset="1" stop-color="#fff"/></linearGradient><filter id="luminosity-noclip-2" x="129.63" y="77.63" width="193.79" height="147.81" filterUnits="userSpaceOnUse" color-interpolation-filters="sRGB"><feFlood flood-color="#fff" result="bg"/><feBlend in="SourceGraphic" in2="bg"/></filter><mask id="mask-2" x="129.63" y="77.63" width="193.79" height="147.81" maskUnits="userSpaceOnUse"><g class="cls-1"><polygon class="cls-2" points="284.34 225.44 169.11 225.44 129.63 77.63 323.43 79.31 284.34 225.44"/></g></mask><linearGradient id="linear-gradient-2" x1="226.53" y1="78.3" x2="225.51" y2="225.83" gradientUnits="userSpaceOnUse"><stop offset="0" stop-color="#40e6ff"/><stop offset="1" stop-color="#40e6ff"/></linearGradient></defs><path class="cls-3" d="M18.22,220.08l2.12-5.68h238l-2.11,5.68Zm9.36-24.49h238l-5.73,14.34H22.15Zm7.24-18.81h238l-5.13,13.44h-238ZM42.06,158H161.81L157,170.21H37.53Zm107.76-7.46H45.07l4.23-11.35H287.61l-3.32,8.36H151ZM56.54,120.35H226.85l-3.92,10.15H52.61Zm204.7-89H61.66l-3.31-4.18h204.7ZM64.08,101.54h170l-3.62,9.25h-170Zm7.24-18.81H240.07l-2,8.06H68.3ZM73.13,45.4H255.81l-2.11,5.68H78Zm5.43,18.52h170l-2.71,7.16h-170Z"/><g class="cls-4"><path class="cls-5" d="M104.39,240.28c40.61,10.49,201.26,10.49,241.87,0,3.76-1,2.84-5.32-1.12-5.32H105.51C101.55,235,100.63,239.31,104.39,240.28Z"/></g><path class="cls-5" d="M115.76,234.38a80.18,80.18,0,0,1,13.69-1.23c4.57-.12,9.13-.05,13.7,0s9.13.07,13.7.06h157.5c2.28,0,4.56-.08,6.85-.12,4.56,0,9.13,0,13.69,1.28a.6.6,0,0,1,.42.74.59.59,0,0,1-.42.42c-4.56,1.24-9.13,1.3-13.69,1.28-2.29,0-4.57-.12-6.85-.12H156.85c-4.57,0-9.14,0-13.7.06s-9.13.13-13.7,0a80.18,80.18,0,0,1-13.69-1.23.59.59,0,0,1,0-1.16Z"/><path class="cls-6" d="M281.8,222.58l.72-.09a34.6,34.6,0,0,0,29.81-41.31l-7.56-36.83a36.13,36.13,0,0,0-35.4-28.87H182.68a36.13,36.13,0,0,0-35.4,28.87l-7.56,36.83a34.6,34.6,0,0,0,29.81,41.31l.72.09Z"/><path class="cls-5" d="M281.81,222.86H170.25l-.75-.09a34.88,34.88,0,0,1-30.05-41.65L147,144.29a36.55,36.55,0,0,1,35.67-29.09h86.69A36.55,36.55,0,0,1,305,144.29l7.56,36.83a34.88,34.88,0,0,1-30.05,41.65Zm-99.13-107.1a36,36,0,0,0-35.13,28.65L140,181.24a34.32,34.32,0,0,0,29.58,41l.72.09H281.78l.7-.08a34.32,34.32,0,0,0,29.58-41l-7.56-36.83a36,36,0,0,0-35.13-28.65Z"/><g class="cls-4"><path class="cls-5" d="M282.52,222.5l-.72.08H170.25l-.71-.08a34.6,34.6,0,0,1-27.81-20.92,34.39,34.39,0,0,0,19,8.6l.72.08H273l.72-.08a34.59,34.59,0,0,0,29.81-41.31L296,132a36.47,36.47,0,0,0-2.24-7.1,36,36,0,0,1,11,19.41l7.56,36.83A34.61,34.61,0,0,1,282.52,222.5Z"/></g><g class="cls-7"><path class="cls-8" d="M287.2,120.19A35.86,35.86,0,0,0,274,117.68h-86.7a36.12,36.12,0,0,0-35.39,28.87l-7.56,36.83a34.59,34.59,0,0,0,16.72,37,34.62,34.62,0,0,1-21.32-39.2l7.56-36.83a36.13,36.13,0,0,1,35.39-28.87h86.7A36,36,0,0,1,287.2,120.19Z"/></g><path class="cls-5" d="M281.8,224.38H170l-.72-.09A36.41,36.41,0,0,1,138,180.82L145.52,144a38.07,38.07,0,0,1,37.16-30.31h86.69A38.07,38.07,0,0,1,306.53,144l7.56,36.83a36.41,36.41,0,0,1-31.36,43.46l-.72.09Zm-111.44-3.6H281.69l.62-.07a32.82,32.82,0,0,0,28.26-39.17L303,144.71a34.46,34.46,0,0,0-33.64-27.43H182.68A34.46,34.46,0,0,0,149,144.71l-7.56,36.83a32.82,32.82,0,0,0,28.27,39.17Z"/><path class="cls-6" d="M290.06,88.28c-.1.42-.22.84-.33,1.26l-.27.94-.11.35c-.07.26-.15.52-.23.77s-.21.65-.32,1c-.05.14-.1.28-.14.42-.16.47-.32.93-.5,1.39s-.37,1-.57,1.49-.39,1-.6,1.48-.42,1-.64,1.46-.43.92-.65,1.39l-.09.18c-.2.43-.42.85-.64,1.28l0,0c-.24.48-.48.94-.74,1.41s-.6,1.09-.92,1.63l-.66,1.12,0,0c-.27.46-.55.91-.84,1.36-.48.75-1,1.49-1.48,2.23l-.68,1-.58.8c-.3.4-.59.8-.89,1.19l-.89,1.14-.51.62-.32.4-.6.72-1.69,1.92c-.28.31-.57.62-.86.92l-.63.67c-.3.32-.59.62-.89.92l-1.32,1.31c-.36.35-.72.69-1.09,1a1.1,1.1,0,0,1-.16.15c-.37.36-.75.7-1.13,1-.7.63-1.42,1.24-2.14,1.85l-.55.45-1.11.9q-2,1.56-4,3l-.08.06A60.23,60.23,0,0,1,243,137.89a62.85,62.85,0,0,1-6.33,1.56A60.67,60.67,0,0,1,208.16,138a60,60,0,0,1-17.75-8.58l-1.29-.92-.13-.1-1.27-1-1.32-1h0l-1.29-1-1.27-1.07-1.24-1.09-1.22-1.11c-.4-.38-.8-.75-1.19-1.14s-.79-.76-1.17-1.15l-1.15-1.17c-.37-.41-.75-.81-1.13-1.21l-1.07-1.2-.82-1c-.78-.93-1.55-1.88-2.29-2.84-.3-.4-.61-.79-.9-1.19,0,0-.07-.11-.11-.15-.2-.27-.4-.55-.59-.83-.45-.62-.88-1.24-1.3-1.88-.23-.35-.47-.7-.69-1-.34-.54-.68-1.07-1-1.62-.22-.38-.46-.77-.68-1.16-.32-.54-.62-1.1-.93-1.66l-.66-1.26c-.22-.42-.43-.85-.64-1.29l-.09-.18c-.45-.93-.88-1.87-1.28-2.81a1,1,0,0,1-.05-.12q-.3-.71-.57-1.41c-.2-.49-.39-1-.57-1.49s-.37-1-.54-1.51-.25-.75-.37-1.13-.19-.6-.28-.9c0-.13-.08-.27-.11-.4-.09-.29-.18-.58-.26-.87s-.23-.87-.34-1.3c-4.49-31.65,24.29-66.75,53-81.81a25.2,25.2,0,0,1,23.37,0c.65.34,1.29.7,1.94,1.07h0C267.05,23.7,294.45,57.34,290.06,88.28Z"/><g class="cls-9"><path class="cls-5" d="M236.38,139.39c.82-.21,1.63-.44,2.44-.68A60.18,60.18,0,0,0,256,130.34l.08-.05c1.37-1,2.7-2,4-3l1.12-.9.54-.45c.73-.61,1.44-1.22,2.14-1.85.38-.34.76-.68,1.13-1l.17-.15,1.08-1c.44-.43.89-.87,1.32-1.31s.6-.6.9-.91l.63-.68c.29-.3.57-.61.85-.92.57-.63,1.14-1.28,1.69-1.92l.61-.72.32-.4c.17-.2.33-.41.5-.62.3-.38.6-.75.89-1.13l.89-1.2.58-.8.68-1c.51-.74,1-1.48,1.48-2.23.29-.45.57-.9.85-1.35,0,0,0,0,0,0l.65-1.12c.32-.54.63-1.09.93-1.64s.5-.93.73-1.4l0,0c.22-.43.44-.85.64-1.28l.09-.18c.23-.46.44-.93.65-1.39s.44-1,.64-1.46.42-1,.61-1.48.39-1,.57-1.49.33-.92.49-1.39c.05-.14.1-.28.14-.42.11-.33.22-.65.32-1s.16-.51.23-.77a2.35,2.35,0,0,0,.11-.35l.27-.94c.12-.42.23-.84.34-1.26C290.2,58.54,263.52,25.34,235.79,9c19.51,17.74,34.27,42.6,31,65.93-.11.42-.22.84-.34,1.26l-.27.94a2.35,2.35,0,0,1-.11.35c-.07.26-.15.52-.23.77s-.21.65-.32,1c0,.14-.09.28-.14.42-.16.47-.32.93-.49,1.39s-.37,1-.57,1.49-.4,1-.61,1.48-.42,1-.64,1.46-.42.93-.65,1.39l-.09.18c-.2.43-.42.85-.64,1.28l0,0c-.23.47-.48.93-.73,1.4s-.61,1.1-.93,1.63c-.21.38-.43.75-.66,1.13a0,0,0,0,0,0,0c-.28.45-.56.9-.85,1.35-.48.75-1,1.49-1.48,2.23l-.68,1-.58.8-.89,1.2c-.29.38-.59.75-.89,1.13-.17.21-.33.42-.5.62l-.33.4-.6.72c-.55.64-1.12,1.29-1.69,1.92-.28.31-.56.62-.85.92l-.63.68-.9.91c-.43.44-.88.88-1.32,1.31s-.72.69-1.08,1a1.14,1.14,0,0,1-.17.15c-.37.36-.75.7-1.13,1-.7.63-1.41,1.24-2.14,1.85l-.54.45-1.12.9c-1.31,1-2.64,2-4,3l-.08,0a60.18,60.18,0,0,1-17.14,8.37,63,63,0,0,1-6.34,1.56,60.51,60.51,0,0,1-10.73,1.07,60.51,60.51,0,0,0,10.73-1.07l.31-.06c-1.29.34-2.6.63-3.9.88a60.69,60.69,0,0,1-23.68-.2l-.27-.21,1.29,1,1.27,1,.13.1,1.29.92A60,60,0,0,0,207.56,138a60.67,60.67,0,0,0,28.52,1.41c1.11-.21,2.22-.46,3.33-.73C238.41,139,237.4,139.19,236.38,139.39Z"/></g><g class="cls-7"><path class="cls-8" d="M249.24,14.63q-3.33-2.25-6.69-4.19h0c-.65-.37-1.29-.73-1.94-1.07a25.22,25.22,0,0,0-23.38,0c-28.75,15.05-57.53,50.16-53,81.81.12.43.23.87.35,1.3s.16.58.25.87l.12.4c.09.3.18.6.28.9s.24.76.37,1.13.35,1,.53,1.5.37,1,.57,1.5.38.94.58,1.41a1,1,0,0,0,.05.12c.4.94.82,1.88,1.28,2.81a.76.76,0,0,0,.09.18c.2.43.42.87.64,1.29l.66,1.26c.3.56.61,1.12.92,1.66l.69,1.16c.33.55.67,1.08,1,1.62q.33.52.69,1c.42.64.85,1.26,1.29,1.88.19.28.39.55.6.82a.83.83,0,0,0,.11.15c.29.41.59.8.89,1.2.75,1,1.51,1.91,2.3,2.84l.82,1c.35.4.71.8,1.07,1.19s.75.81,1.13,1.22l1.14,1.17,1.17,1.15c.4.39.8.76,1.2,1.13s.81.75,1.22,1.12l1.24,1.08,1.27,1.08,1.28,1h0l1.31,1,1.18.88c-.49-.32-1-.66-1.48-1l-1.29-.93-.13-.1-1.27-1-1.32-1h0l-1.29-1c-.43-.35-.85-.71-1.27-1.07l-1.24-1.09L182,123c-.4-.38-.8-.75-1.19-1.14s-.79-.76-1.17-1.15l-1.15-1.17-1.13-1.21-1.07-1.2-.82-1c-.78-.93-1.55-1.88-2.29-2.84-.3-.4-.61-.79-.9-1.19l-.11-.15c-.21-.27-.4-.55-.59-.82-.45-.63-.88-1.25-1.3-1.89-.23-.34-.47-.7-.69-1-.34-.54-.68-1.07-1-1.61-.22-.39-.46-.78-.69-1.17s-.61-1.1-.92-1.66l-.66-1.26c-.22-.42-.44-.85-.64-1.29a.76.76,0,0,1-.09-.18c-.45-.92-.88-1.87-1.28-2.81a.61.61,0,0,1-.05-.12c-.2-.47-.39-.94-.58-1.41s-.38-1-.56-1.49-.37-1-.54-1.51-.25-.75-.37-1.13-.19-.59-.28-.89l-.12-.41c-.09-.29-.17-.58-.25-.87s-.23-.86-.34-1.3c-4.49-31.65,24.29-66.76,53.05-81.81a25.2,25.2,0,0,1,23.37,0c.65.34,1.29.7,1.94,1.07h0A110.52,110.52,0,0,1,249.24,14.63Z"/></g><path class="cls-5" d="M225.32,142.31a62.21,62.21,0,0,1-35.94-11.38c-.44-.31-.88-.62-1.31-.94a.18.18,0,0,1-.07-.05l-.09-.06-1.28-1-1.26-1-.1-.08-1.25-1c-.49-.39-.92-.76-1.35-1.13l-1.27-1.11-.06,0-1.19-1.09c-.4-.38-.81-.76-1.21-1.16s-.81-.77-1.2-1.18l-1.17-1.19-1.15-1.23-1.11-1.24-.83-1c-.82-1-1.61-1.95-2.35-2.9l-.2-.27c-.23-.3-.47-.61-.69-.93l-.12-.15-.64-.89q-.72-1-1.32-1.92c-.24-.35-.48-.72-.71-1.09-.34-.53-.69-1.08-1-1.64l-.22-.35-.49-.83c-.31-.54-.6-1.08-.9-1.62l0-.08c-.24-.45-.47-.88-.69-1.31s-.43-.84-.63-1.27l-.14-.28c-.48-1-.9-1.91-1.26-2.78a1.45,1.45,0,0,1-.11-.25c-.2-.47-.39-.93-.57-1.4s-.4-1-.59-1.54-.37-1-.54-1.54-.26-.76-.38-1.15-.19-.62-.29-.93c0-.13-.09-.29-.13-.44l-.26-.89c-.11-.42-.23-.86-.34-1.31a.71.71,0,0,1,0-.2c-2.72-19.17,6.31-36.9,14.36-48.41,10.18-14.54,24.62-27.38,39.63-35.24a27,27,0,0,1,25,0c15,7.86,29.45,20.7,39.63,35.24,8,11.51,17.08,29.24,14.37,48.41,0,.07,0,.13,0,.2-.11.42-.23.86-.35,1.28l-.31,1.08c0,.09,0,.18-.08.28s-.11.37-.17.56l-.06.2c-.1.32-.21.63-.31.94l0,.07-.16.45c-.15.47-.32,1-.51,1.44s-.37,1-.58,1.52-.4,1-.62,1.51-.43,1-.66,1.51-.43.94-.66,1.42l-.1.2c-.2.42-.42.86-.66,1.31s-.5,1-.76,1.46-.63,1.14-1,1.7l-.66,1.13h0l0,0c-.28.46-.57.93-.87,1.39-.52.82-1,1.57-1.51,2.28l-.7,1-.59.81-.91,1.22-.91,1.17-.53.64-.94,1.14c-.57.66-1.15,1.32-1.73,2l-.85.92-.66.7c-.33.34-.63.66-.95,1s-.87.87-1.32,1.31-.73.7-1.1,1a1.89,1.89,0,0,1-.2.2c-.38.35-.75.69-1.14,1-.74.67-1.48,1.3-2.18,1.89l-.54.45-1.15.93c-1.33,1-2.71,2.08-4.1,3.06l-.06,0h0A62.27,62.27,0,0,1,225.32,142.31Zm-35.1-15.2,1.23.89a58.89,58.89,0,0,0,67.67.05h0l.08-.06c1.33-.94,2.66-1.93,3.93-2.94l1.09-.88.53-.44c.68-.57,1.39-1.18,2.1-1.81l1.09-1a.39.39,0,0,1,.1-.08l0,0,.06,0,1.05-1c.43-.42.86-.85,1.28-1.28s.59-.6.88-.89l.63-.67.81-.88c.57-.63,1.13-1.27,1.67-1.9l.9-1.08.49-.62c.29-.36.58-.72.87-1.1l.87-1.16.57-.78c.22-.32.44-.62.65-.94.48-.68.95-1.39,1.45-2.18.28-.44.56-.87.82-1.32l0,0h0c.21-.36.43-.72.64-1.09.32-.54.61-1.07.9-1.6l.72-1.36,0,0c.21-.41.42-.81.61-1.22l.11-.22.62-1.32c.22-.48.43-1,.62-1.42s.4-1,.59-1.43.38-1,.55-1.45.33-.91.48-1.35l.17-.49c.09-.29.19-.58.28-.87l.07-.22.15-.5,0-.12a.78.78,0,0,0,.05-.14l.3-1c.1-.36.2-.75.3-1.12,1.95-14-2.94-30.27-13.77-45.75A112.17,112.17,0,0,0,236.18,8.07a23.4,23.4,0,0,0-21.71,0,112.17,112.17,0,0,0-38.35,34.11C165.29,57.66,160.4,73.9,162.35,87.92c.1.4.21.79.32,1.18s.15.56.24.83.08.27.11.38c.09.32.18.61.27.9s.24.73.37,1.09.33,1,.51,1.46.36,1,.55,1.45.38.92.57,1.38v0a1,1,0,0,0,0,.1c.36.85.76,1.74,1.24,2.73l0,.07a.54.54,0,0,1,.07.13c.19.41.4.82.61,1.22s.43.84.65,1.25l0,.06c.28.52.57,1,.86,1.55l.46.79.21.35c.32.52.64,1,1,1.56q.33.52.66,1c.39.59.8,1.18,1.27,1.84.19.27.37.53.56.78l.06.07,0,0,.12.14c.21.3.44.6.67.9l.19.25c.69.9,1.45,1.84,2.24,2.77l.79.92,1,1.18,1.11,1.19,1.1,1.12c.39.4.77.77,1.15,1.13l1.17,1.12c.39.36.76.7,1.15,1l.05,0L185,123l1.24,1,1.19,1,.08.06,1.29,1,1.2.9ZM188,129.9h0Zm80.13-9.1h0Zm-102.72-24Zm-.11-.28Zm124.81-8.24h0Z"/><path class="cls-10" d="M275.7,97.36c-.11.34-.23.68-.36,1-3.33,8.54-9.87,13.09-13.82,7.94l2.36-11.6,1.6-7.88C271.66,82.63,279.89,84.52,275.7,97.36Z"/><path class="cls-11" d="M265.47,108.71a5.15,5.15,0,0,1-4.12-2.25l-.06-.08,4-19.66.07,0c3.37-2.3,7.17-2.7,9.44-1,1.49,1.11,3.6,4.11,1.1,11.75h0c-.11.34-.23.68-.35,1-2.23,5.71-5.91,9.71-9.37,10.2A4.24,4.24,0,0,1,265.47,108.71Zm-3.72-2.44a4.6,4.6,0,0,0,4.37,2c3.31-.47,6.85-4.37,9-9.93q.19-.51.36-1h0c1.78-5.47,1.45-9.47-.95-11.27-2.12-1.59-5.67-1.2-8.87,1Z"/><g class="cls-4"><path class="cls-11" d="M275.7,97.36c-.11.34-.23.68-.36,1-3.33,8.54-9.87,13.09-13.82,7.94l2.36-11.6.88-.07q3.6,11.27,10.46,2Z"/></g><path class="cls-11" d="M265.48,109.94a6.41,6.41,0,0,1-5.11-2.73,1.49,1.49,0,0,1-.27-1.17l4-19.48a1.41,1.41,0,0,1,.6-.9c3.85-2.63,8.25-3,10.95-.91,1.8,1.4,4.35,5.1,1.08,14.13-2.43,6.23-6.39,10.43-10.34,11A6.62,6.62,0,0,1,265.48,109.94Zm-2.41-4A3.19,3.19,0,0,0,266,107c2.84-.4,6.07-4.08,8.05-9.15,1.92-5.31,1.87-9.27-.15-10.84-1.58-1.22-4.43-.92-7.07.7Z"/><path class="cls-10" d="M175,97.36c.11.34.23.68.36,1,3.33,8.54,9.87,13.09,13.83,7.94l-2.37-11.6-1.6-7.88C179,82.63,170.77,84.52,175,97.36Z"/><path class="cls-11" d="M185.19,108.8a5.81,5.81,0,0,1-.72,0c-3.49-.5-7.19-4.52-9.43-10.25q-.19-.54-.36-1h0c-2.51-7.68-.37-10.72,1.13-11.84,2.3-1.73,6.14-1.33,9.54,1l.1.07,4,19.73-.09.11A5.22,5.22,0,0,1,185.19,108.8Zm-9.94-11.53.35,1c2.16,5.52,5.67,9.4,9,9.86a4.45,4.45,0,0,0,4.28-1.9L184.91,87c-3.16-2.12-6.67-2.5-8.74-.94-2.37,1.77-2.7,5.74-.92,11.18Z"/><g class="cls-7"><path class="cls-8" d="M183.81,108.36c-3.05-1-6.2-4.71-8.2-9.83-.13-.35-.25-.69-.36-1-4.19-12.83,4-14.73,10.22-10.51l0,.14C179.91,85,174.28,88,177.9,99l.35,1A20.42,20.42,0,0,0,183.81,108.36Z"/></g><path class="cls-11" d="M185.18,109.94a6.62,6.62,0,0,1-.88-.06c-4-.57-7.91-4.77-10.33-11-3.28-9.07-.73-12.77,1.08-14.17,2.69-2.09,7.09-1.73,10.94.91a1.41,1.41,0,0,1,.6.9l4,19.48a1.45,1.45,0,0,1-.27,1.17A6.41,6.41,0,0,1,185.18,109.94Zm-5.86-23.66a4.11,4.11,0,0,0-2.51.75c-2,1.57-2.07,5.53-.13,10.87,2,5,5.2,8.72,8,9.12a3.18,3.18,0,0,0,2.88-1.09l-3.71-18.2A9,9,0,0,0,179.32,86.28Z"/><path class="cls-10" d="M264.61,95v6.67a34.88,34.88,0,0,1-14.94,28.83c-.13.1-.27.18-.4.27a42.86,42.86,0,0,1-47.7,0l-.4-.28a34.89,34.89,0,0,1-14.94-28.83V95s0-.42.07-1.19c.36-6.09,2-33.39,2.23-34.09C197.11,36.65,282.89,42.31,264.61,95Z"/><path class="cls-11" d="M225.42,138.38a43.11,43.11,0,0,1-24-7.33l-.37-.25a35.17,35.17,0,0,1-15.11-29.11V95s0-.44.07-1.21c.59-10,2-33.46,2.25-34.17,2.25-6.06,9.89-10.55,20.95-12.32a70.2,70.2,0,0,1,33.26,3.09c10.14,3.64,32.61,15.28,22.45,44.66v6.62a35.14,35.14,0,0,1-15.07,29.08l-.15.11-.24.16A43.13,43.13,0,0,1,225.42,138.38Zm-6.1-91.24a63.19,63.19,0,0,0-10,.77C198.45,49.64,191,54,188.81,59.85c-.21.77-1.32,18.79-2.21,34,0,.77-.07,1.2-.07,1.2v6.65a34.56,34.56,0,0,0,14.81,28.59l.4.27a42.39,42.39,0,0,0,47.37,0l.25-.16.15-.1a34.56,34.56,0,0,0,14.8-28.59l0-6.76c10-28.92-12.09-40.37-22.07-44A69.2,69.2,0,0,0,219.32,47.14Z"/><g class="cls-4"><path class="cls-11" d="M264.61,95v6.67a34.88,34.88,0,0,1-14.94,28.83c-.13.1-.27.18-.4.27a42.86,42.86,0,0,1-47.7,0l-.4-.28c-.3-.2-.59-.41-.89-.63A42.9,42.9,0,0,0,242.86,127c.13-.1.27-.18.4-.27A34.94,34.94,0,0,0,258.2,97.84l.57-8.4C265,71.55,258.62,60.82,248,53.06,262.48,60.22,272,73.81,264.61,95Z"/></g><g class="cls-4"><path class="cls-11" d="M264.61,95v2.71c-4.31-6.35-5.14-23.67-5.14-23.67-3.77,4.09-24.93,8.81-39.78.92a.94.94,0,0,0-1.28,1.24l.26.49c-1.95,1.21-11.15,0-16.15-2.88a2.3,2.3,0,0,0-3.4,1.66C198,82.62,194.45,87.59,186.84,95c-.18-.4-.37-.79-.54-1.19.36-6.09,2-33.39,2.23-34.09C197.11,36.65,282.89,42.31,264.61,95Z"/></g><g class="cls-7"><path class="cls-8" d="M241.69,134.84a42.91,42.91,0,0,1-40.12-4l-.4-.28a34.89,34.89,0,0,1-14.94-28.83V95s2-34.49,2.3-35.28c1.8-4.85,7-8.43,13.95-10.58-5.22,2.18-9,5.33-10.55,9.35-.29.79-2.3,35.28-2.3,35.28v6.67a34.92,34.92,0,0,0,15,28.84,2.55,2.55,0,0,1,.4.27C214.34,138,229.49,138.67,241.69,134.84Z"/></g><path class="cls-11" d="M225.42,139.52A44.28,44.28,0,0,1,200.77,132l-.41-.28a36.29,36.29,0,0,1-15.57-30V94.94c2-34.68,2.29-35.45,2.39-35.7h0c5.28-14.21,35-17.32,55.67-9.9,9.84,3.53,17.29,9.13,21.54,16.2,5,8.32,5.57,18.32,1.67,29.73v6.42a36.28,36.28,0,0,1-15.57,30l-.41.28A44.22,44.22,0,0,1,225.42,139.52ZM187.67,95.07v6.62A33.41,33.41,0,0,0,202,129.34l.39.26a41.26,41.26,0,0,0,46.09,0l.38-.27a33.38,33.38,0,0,0,14.32-27.64V95a1.5,1.5,0,0,1,.08-.47c9.69-27.95-11.72-39-21.37-42.5-20.93-7.51-47.56-3.35-52,8.09C189.65,62,188.44,81.91,187.67,95.07Zm2.21-34.82Zm0,0v0Zm-1.36-.48Z"/><path class="cls-12" d="M264.16,45.6c10.82,13.83,9.48,37.89.36,50.51-7-3.85-7.43-22-7.43-22-16.51,4.49-33.22,1.75-48.36-11.3-.32,5.13,4,9.88,4,9.88a20,20,0,0,1-5.26-.81c-5.48-1.64-8.74-5.61-10.74-10.59-1.92,17.31-2,21.16-10.47,33.78-8.42-18-10-40.28,4.06-46.93-19.56-6.73-12.34-20.36,4.49-8.26C186.52,28,197,23.39,199.11,36.47,211.28,14.23,264.76,22,272,47.29l-7.83-1.68Z"/><path class="cls-11" d="M264.61,96.5l-.23-.13c-6.57-3.62-7.47-19.21-7.58-21.92-17.54,4.66-33.61.94-47.79-11.05.05,4.7,3.87,9,3.91,9l.47.52-.7,0a20.52,20.52,0,0,1-5.34-.82c-4.73-1.42-8.17-4.6-10.47-9.71l-.11,1c-1.71,15.5-2.17,19.67-10.29,31.83l-.3.44-.22-.48c-8.48-18.17-9.89-39.95,3.57-47-7.9-2.87-11-6.73-11.27-9.44A3.29,3.29,0,0,1,180,35.4c2.32-1.33,7.09-1.09,13.72,3.31-2.78-4.54-2.7-7.83-1.69-9.34a2.33,2.33,0,0,1,2.51-1.05c1.69.37,3.78,2.48,4.75,7.29C206,24.48,222.1,22,235.18,23.48c15.58,1.73,33.1,9.74,37.12,23.72l.14.49-7.55-1.62c10.5,14.2,8.68,38-.13,50.21Zm-7.23-22.83v.38c0,.18.52,17.66,7.05,21.66,8.67-12.26,10.31-36.09-.52-49.92l-.37-.49.73,0,7.3,1.56c-4.2-13.42-21.26-21.13-36.47-22.82-13.16-1.46-29.46,1.07-35.74,12.54l-.41.76-.15-.86c-.84-5.09-2.91-7.27-4.42-7.6a1.76,1.76,0,0,0-1.9.79c-1,1.49-.92,5,2.54,10l1,1.44-1.42-1c-7.07-5.09-12.14-5.42-14.34-4.16a2.71,2.71,0,0,0-1.41,2.72c.24,2.48,3.4,6.37,11.53,9.17l.7.24-.67.31c-13.66,6.48-12.43,28-4.14,46.05,7.75-11.7,8.22-15.92,9.9-31.12l.36-3.28.44,1.11c2.23,5.56,5.67,9,10.55,10.42a19.31,19.31,0,0,0,4.51.77c-1.11-1.39-3.88-5.32-3.61-9.57l0-.6.45.39c14.24,12.27,30.42,16,48.09,11.24Z"/><g class="cls-4"><path class="cls-11" d="M194.7,58.22a20.71,20.71,0,0,1,1.81,4.8c-1.75,15.81-2.15,19.82-10.28,32-.95-2-1.82-4.13-2.58-6.25,6.68-10.36,7.46-16.21,9-30.17A1.09,1.09,0,0,1,194.7,58.22Z"/></g><g class="cls-7"><path class="cls-8" d="M191.6,37.78C181,33.29,177.18,41.05,187.49,47,172.6,40.51,177.91,29.94,191.6,37.78Z"/></g><g class="cls-7"><path class="cls-8" d="M190,48.26h0a1.94,1.94,0,0,1,.49,3.27c-9.58,8-9.22,25.82-2.89,41.41-.43.66-.88,1.36-1.36,2.07C177.88,77.13,176.29,55.1,190,48.26Z"/></g><g class="cls-7"><path class="cls-8" d="M194.12,39.64l0,0C188.5,31,193.59,26.06,197,30c-1.87.28-3,3.18-.91,7.77A1.42,1.42,0,0,1,194.12,39.64Z"/></g><g class="cls-7"><path class="cls-8" d="M261.4,34.3a83.79,83.79,0,0,0-32.76-7.15c-1.73,3.32-7.55,3.15-10,.8-6.3,1.13-11.63,3.51-15,7.49a2.21,2.21,0,0,1-3.57-.22A1.51,1.51,0,0,1,200,35C210.44,21.69,245.64,20.59,261.4,34.3Z"/></g><path class="cls-11" d="M264.52,97.55a1.46,1.46,0,0,1-.7-.18c-6.36-3.51-7.78-16.47-8.09-21.47-16.43,4-31.57.72-45.1-9.72a17.45,17.45,0,0,0,3.14,5.5,1.44,1.44,0,0,1-1.07,2.41h0c-6.63-.21-11.67-2.88-15-8-1.53,13.61-2.4,18-10.19,29.7a1.44,1.44,0,0,1-2.51-.19c-8.27-17.72-9.87-38.86,2.06-47.27-6.82-3-9.59-6.77-9.86-9.55a4.44,4.44,0,0,1,2.28-4.4c2.19-1.25,6.2-1.34,11.59,1.39-1.19-3.23-.88-5.66,0-7.06a3.45,3.45,0,0,1,3.71-1.53c2.12.45,3.88,2.52,5,5.71,7.63-9.8,23-12,35.59-10.58,16,1.78,33.93,10.06,38.09,24.55a1.43,1.43,0,0,1-.34,1.38,1.45,1.45,0,0,1-1.35.43l-4.3-.92c3.91,6.4,6,14.62,5.85,23.55-.13,9.81-2.89,19.14-7.57,25.62A1.44,1.44,0,0,1,264.52,97.55Zm-7.43-24.93a1.45,1.45,0,0,1,.86.28,1.47,1.47,0,0,1,.58,1.12c.11,4.48,1.37,16.13,5.63,20C272,81.89,273.27,59.58,263,46.49a1.45,1.45,0,0,1,1.44-2.3l5.33,1.15c-5-11.77-20.71-18.56-34.8-20.13-16.08-1.78-29.66,2.9-34.61,11.95a1.46,1.46,0,0,1-1.51.73,1.43,1.43,0,0,1-1.18-1.19c-.81-4.85-2.67-6.48-3.54-6.67a.58.58,0,0,0-.7.31c-.6.89-.84,3.85,2.51,8.67a1.44,1.44,0,0,1-2,2c-6.2-4.46-11.05-5.26-13.1-4.08a1.53,1.53,0,0,0-.84,1.61c.22,2.31,3.63,5.74,10.76,8.2a1.44,1.44,0,0,1,.15,2.66c-7.54,3.58-9.4,11.74-9.62,18C181,74.7,182.9,83.57,186.47,92c6.5-10.14,7-14.31,8.57-28.85l.23-2.09A1.44,1.44,0,0,1,198,60.7c2.33,5.81,6.14,9.16,11.62,10.18a14.61,14.61,0,0,1-2.37-8.21,1.42,1.42,0,0,1,.88-1.24,1.44,1.44,0,0,1,1.5.24c13.93,12,29.75,15.7,47,11A1.2,1.2,0,0,1,257.09,72.62Z"/><path class="cls-11" d="M257.08,75.5a1.44,1.44,0,0,1-.37-2.84c1.79-.48,3.61-1.06,5.39-1.72a1.44,1.44,0,0,1,1,2.71c-1.87.69-3.76,1.3-5.64,1.8A1.24,1.24,0,0,1,257.08,75.5Z"/><g class="cls-4"><path class="cls-11" d="M264.52,96.11c-7-3.85-7.43-22-7.43-22-16.51,4.49-33.22,1.75-48.36-11.3-.32,5.13,4,9.88,4,9.88a20,20,0,0,1-5.26-.81c-7.9-13-4.54-16.08,6.82-12.08,31.51,10.17,54.46,11.76,49.9-14.15C275,59.43,273.64,83.49,264.52,96.11Z"/></g><g class="cls-13"><path class="cls-14" d="M256.52,57.63c0,2.19-4.28,4-9.56,4s-9.56-1.77-9.56-4,4.28-2.24,9.56-2.24S256.52,55.44,256.52,57.63Z"/></g><path class="cls-11" d="M230.48,121.71S228.41,123,223,123c-1.17.08-4.51-.11-8.75-4a9,9,0,0,0,8.63,5.64A11,11,0,0,0,230.48,121.71Z"/><path class="cls-11" d="M199.85,96.67a6.54,6.54,0,0,1,2.88-3.53,8.52,8.52,0,0,1,4.55-1.25,8.8,8.8,0,0,1,4.51,1.3,6.83,6.83,0,0,1,2.91,3.48,33.61,33.61,0,0,0-3.91-1.16,18.23,18.23,0,0,0-3.54-.41,16.54,16.54,0,0,0-3.54.35A23.79,23.79,0,0,0,199.85,96.67Z"/><path class="cls-11" d="M251.57,96.67a23.79,23.79,0,0,0-3.86-1.22,16.51,16.51,0,0,0-3.53-.35,18.25,18.25,0,0,0-3.55.41,33.61,33.61,0,0,0-3.91,1.16,6.88,6.88,0,0,1,2.91-3.48,8.8,8.8,0,0,1,4.52-1.3,8.51,8.51,0,0,1,4.54,1.25A6.54,6.54,0,0,1,251.57,96.67Z"/><ellipse class="cls-11" cx="208.73" cy="105.45" rx="4.96" ry="6.54"/><ellipse class="cls-8" cx="210" cy="103.94" rx="1.5" ry="2.2"/><path class="cls-11" d="M210,106.43c-1,0-1.8-1.09-1.8-2.49s.79-2.5,1.8-2.5,1.79,1.1,1.79,2.5S211,106.43,210,106.43Zm0-4.39c-.65,0-1.2.87-1.2,1.9s.55,1.89,1.2,1.89,1.19-.86,1.19-1.89S210.65,102,210,102Z"/><ellipse class="cls-11" cx="243.03" cy="105.45" rx="4.96" ry="6.54"/><ellipse class="cls-8" cx="241.76" cy="103.94" rx="1.5" ry="2.2"/><path class="cls-11" d="M241.76,106.43c-1,0-1.8-1.09-1.8-2.49s.79-2.5,1.8-2.5,1.8,1.1,1.8,2.5S242.77,106.43,241.76,106.43Zm0-4.39c-.65,0-1.2.87-1.2,1.9s.55,1.89,1.2,1.89,1.2-.86,1.2-1.89S242.41,102,241.76,102Z"/><path class="cls-15" d="M158.64,174c-8.18,4.69-16,.41-17.14-6.07a10,10,0,0,1,.12-4,11.56,11.56,0,0,1,.9-2.47c.35-.73.72-1.47,1.08-2.21a22.6,22.6,0,0,0,2.57-7.53,7.3,7.3,0,0,0-.43-3.28,3.58,3.58,0,0,0-1-1.4,4.07,4.07,0,0,0-1.77-.89,3.16,3.16,0,0,0-.86-.07c-1.84.07-3.52,1.74-2.84,5.9.94,5.84-5.41,7.67-7.74,2.66a7.33,7.33,0,0,1-.29-.7,2.58,2.58,0,0,0-.08-.26c-1.46-4.67.31-12.74,7.51-14.44.33-.08.68-.14,1-.19a12,12,0,0,1,1.44-.12,11.36,11.36,0,0,1,2.5.2c5.86,1.15,9.54,6.91,7.7,14.14-1,3.88-5,11.2-3.31,14.73a4.36,4.36,0,0,0,4.14,1.9h.16a6.94,6.94,0,0,0,4.37-2.07Z"/><g class="cls-16"><path class="cls-5" d="M158.64,174c-8.18,4.69-16,.41-17.14-6.07,1,3.27,6.34,5.39,10.68,1.94h.16a6.94,6.94,0,0,0,4.37-2.07Z"/></g><path class="cls-15" d="M203.34,132.52c-1.28,12.78-16.48,14.41-23.65,15.83h-9c-4.63-.92-12.62-1.92-18-6a14.32,14.32,0,0,1-3.39-3.51,13,13,0,0,1-1.6-3.28,15.33,15.33,0,0,1-.58-2.65c0-.36-.08-.73-.1-1.11a20.73,20.73,0,0,1,.12-3.56,66.78,66.78,0,0,1,2.12-8.58c.39-1.25.82-2.5,1.27-3.64-1.64-7.25-2.3-16.39.15-19.54,1.6-2.05,5.93,0,12.48,5.62,4.68-2.06,11.1-2.18,12.08-2.18s7.4.12,12.08,2.18c6.56-5.61,10.88-7.67,12.48-5.62,2.45,3.15,1.79,12.29.15,19.54a70.26,70.26,0,0,1,3.39,12.22A19.7,19.7,0,0,1,203.34,132.52Z"/><g class="cls-17"><path class="cls-8" d="M201.33,105c-.08-2.9-.56-5.33-1.6-6.67-1.6-2-5.92,0-12.48,5.62-4.68-2.06-11.09-2.18-12.08-2.17s-7.4.11-12.08,2.17c-6.55-5.61-10.88-7.67-12.48-5.62-1,1.34-1.52,3.77-1.6,6.67-.09-3.7.35-6.88,1.6-8.49,1.6-2.05,5.93,0,12.48,5.62,4.68-2.06,11.1-2.18,12.08-2.18s7.4.12,12.08,2.18c6.56-5.61,10.88-7.67,12.48-5.62C201,98.12,201.42,101.3,201.33,105Z"/></g><path class="cls-8" d="M203.34,132.52c-1.28,12.78-16.48,14.41-23.65,15.83h-9c-4.63-.92-12.62-1.92-18-6a14.32,14.32,0,0,1-3.39-3.51,13,13,0,0,1-1.6-3.28,15.33,15.33,0,0,1-.58-2.65c11.07,9.5,19.06,5.24,22.63-2a6.06,6.06,0,0,1,10.55,0C183.85,138.28,192,142.56,203.34,132.52Z"/><g class="cls-16"><path class="cls-5" d="M202.08,137.17c-4,8.57-16.2,10-22.39,11.18h-9c-4.63-.92-12.62-1.92-18-6a14.32,14.32,0,0,1-3.39-3.51,12.16,12.16,0,0,1-1-1.69,18,18,0,0,0,1.87,1.61c4.13,3.08,18.47,4.63,25,4.63S197.86,141.37,202.08,137.17Z"/></g><path class="cls-5" d="M158.65,114.9c-.33-.52,1.87-5.15,6-3.78,1.5.49,1.64,1.95.48,2.26a21.06,21.06,0,0,0-3.31.66C160.87,114.38,159,115.42,158.65,114.9Z"/><path class="cls-5" d="M191.69,114.9c.33-.52-1.87-5.15-6-3.78-1.49.49-1.63,1.95-.48,2.26a21.14,21.14,0,0,1,3.32.66C189.48,114.38,191.36,115.42,191.69,114.9Z"/><path class="cls-18" d="M156.34,107.61c-2,2.15-3.29,5.15-3.47,4.8a.73.73,0,0,1-.05-.12,33.22,33.22,0,0,1-1-8.37c0-.56,0-1,0-1.49a7.62,7.62,0,0,1,.46-2.42,1,1,0,0,1,1.33-.57,22.54,22.54,0,0,1,6.43,4.68C160.3,104.4,158.35,105.46,156.34,107.61Z"/><path class="cls-19" d="M156.34,107.61c-2,2.15-3.29,5.15-3.47,4.8a.73.73,0,0,1-.05-.12,33,33,0,0,1,2.64-6.17,3.57,3.57,0,0,0-2-5.06c-.53-.21-1.16.66-1.57,1.37a7.62,7.62,0,0,1,.46-2.42,1,1,0,0,1,1.33-.57,22.54,22.54,0,0,1,6.43,4.68C160.3,104.4,158.35,105.46,156.34,107.61Z"/><path class="cls-5" d="M152.92,113.11h0a.7.7,0,0,1-.61-.4c-.46-.88-1.14-5.18-1.13-8.79h0a11.29,11.29,0,0,1,.55-4.17,1.67,1.67,0,0,1,2.2-.93,22.66,22.66,0,0,1,6.71,4.89c.16.21.35.65-.25,1.23a10.46,10.46,0,0,1-.81.68,24.64,24.64,0,0,0-2.72,2.44,21.56,21.56,0,0,0-2.6,3.66C153.62,112.75,153.4,113.11,152.92,113.11Zm.55-1Zm-1-8.19a39.41,39.41,0,0,0,.66,7,22,22,0,0,1,2.7-3.77,25.33,25.33,0,0,1,2.86-2.57l.52-.43a23.93,23.93,0,0,0-5.82-4.09.35.35,0,0,0-.48.22,9.94,9.94,0,0,0-.44,3.64Z"/><path class="cls-18" d="M194.08,107.61c2,2.15,3.28,5.15,3.46,4.8a.33.33,0,0,0,.05-.12,33.09,33.09,0,0,0,1-8.37c0-.56,0-1,0-1.49a8,8,0,0,0-.45-2.42,1,1,0,0,0-1.34-.57,22.54,22.54,0,0,0-6.43,4.68C190.11,104.4,192.06,105.46,194.08,107.61Z"/><path class="cls-19" d="M194.08,107.61c2,2.15,3.28,5.15,3.46,4.8a.33.33,0,0,0,.05-.12,33,33,0,0,0-2.64-6.17,3.58,3.58,0,0,1,2-5.06c.53-.21,1.16.66,1.57,1.37a8,8,0,0,0-.45-2.42,1,1,0,0,0-1.34-.57,22.54,22.54,0,0,0-6.43,4.68C190.11,104.4,192.06,105.46,194.08,107.61Z"/><path class="cls-5" d="M197.49,113.11c-.48,0-.69-.36-1.31-1.39a22,22,0,0,0-2.59-3.66,25.59,25.59,0,0,0-2.72-2.44c-.35-.27-.62-.49-.82-.68-.6-.58-.41-1-.25-1.23a22.79,22.79,0,0,1,6.71-4.89,1.67,1.67,0,0,1,2.2.93,11.46,11.46,0,0,1,.56,4.17h0c0,3.61-.68,7.91-1.13,8.79a.72.72,0,0,1-.61.4Zm-6.31-9,.52.43a25.33,25.33,0,0,1,2.86,2.57,22,22,0,0,1,2.7,3.77,40.25,40.25,0,0,0,.67-7h0a10.08,10.08,0,0,0-.45-3.64.35.35,0,0,0-.48-.22A24.12,24.12,0,0,0,191.18,104.15Z"/><path class="cls-5" d="M179.64,148.07c1.93-.52,3.88-.91,5.81-1.37a57.54,57.54,0,0,0,5.68-1.6c.46-.17.92-.33,1.37-.52s.9-.38,1.35-.58c.22-.1.43-.22.65-.33a6.48,6.48,0,0,0,.64-.34l.64-.35.61-.39.31-.19.29-.22.58-.42.56-.46.28-.23.26-.25a13.17,13.17,0,0,0,1.87-2.15l.39-.6.09-.15.09-.16.16-.31.17-.32a.8.8,0,0,0,.08-.16l.07-.16.28-.66.07-.16.06-.17.11-.34c.07-.23.15-.45.21-.68l.16-.7.08-.35.05-.36.1-.71,0-.18v-.18l0-.36,0-.72c0-.24,0-.48,0-.72v-.73l-.06-.72-.06-.72-.05-.35-.07-.35c-.18-1-.4-1.93-.64-2.89s-.48-1.91-.76-2.87a56.64,56.64,0,0,0-1.85-5.61l-.07-.18,0-.18a62.2,62.2,0,0,0,1.3-8.46,40.29,40.29,0,0,0,.12-4.25,18.84,18.84,0,0,0-.51-4.14,7.07,7.07,0,0,0-.73-1.83,1.27,1.27,0,0,0-.13-.19l-.06-.09-.07-.09a.8.8,0,0,0-.13-.13l-.06-.06-.08-.05a1.44,1.44,0,0,0-.71-.25,3.45,3.45,0,0,0-.89.06,6.64,6.64,0,0,0-.94.27,13.09,13.09,0,0,0-1.86.88A32.2,32.2,0,0,0,191,99.93c-1.13.86-2.24,1.77-3.32,2.7l-.31.26-.38-.16a21.32,21.32,0,0,0-2.82-1c-1-.26-2-.46-3-.63s-2-.28-3-.37-2-.14-3-.14-2,.06-3,.14-2,.21-3,.38a29.72,29.72,0,0,0-2.95.62,22.46,22.46,0,0,0-2.83,1l-.38.16-.31-.26c-1.08-.93-2.19-1.84-3.33-2.69a29.94,29.94,0,0,0-3.52-2.35,12,12,0,0,0-1.86-.87,5.54,5.54,0,0,0-.94-.27,3.06,3.06,0,0,0-.89-.06,1.46,1.46,0,0,0-.71.24l-.07.05-.07.06-.12.14-.07.08-.06.09-.13.2a6.54,6.54,0,0,0-.73,1.82,18.84,18.84,0,0,0-.51,4.14,40.29,40.29,0,0,0,.12,4.25,62.2,62.2,0,0,0,1.3,8.46l0,.18-.07.18c-.72,1.83-1.31,3.72-1.85,5.62-.27.95-.52,1.91-.76,2.87s-.46,1.92-.64,2.88c0,.24-.08.47-.11.7s-.05.48-.08.72c0,.48-.06,1-.07,1.45a17.09,17.09,0,0,0,.2,2.87,12.8,12.8,0,0,0,2.08,5.27,14.38,14.38,0,0,0,4.15,3.92,24.66,24.66,0,0,0,5.26,2.5,49.12,49.12,0,0,0,5.68,1.58l.72.18.73.16,1.45.33c1,.23,1.94.46,2.91.74a.29.29,0,0,1,.19.36.28.28,0,0,1-.3.2h0c-2-.2-4-.46-5.93-.86a43.07,43.07,0,0,1-5.84-1.57,26.7,26.7,0,0,1-5.51-2.61,15.64,15.64,0,0,1-4.49-4.24,14,14,0,0,1-2.29-5.76,18.77,18.77,0,0,1-.22-3.08c0-.52,0-1,.07-1.54,0-.26.05-.51.08-.76s.08-.53.12-.78c.19-1,.41-2,.65-3s.49-1.94.76-2.91c.55-1.93,1.15-3.85,1.89-5.74l0,.37a62.7,62.7,0,0,1-1.34-8.63c-.11-1.45-.17-2.92-.14-4.39a20.25,20.25,0,0,1,.55-4.42,8.08,8.08,0,0,1,.87-2.18,2.2,2.2,0,0,1,.17-.25l.09-.13a.63.63,0,0,1,.11-.13,2,2,0,0,1,.24-.26l.13-.12.15-.11a2.72,2.72,0,0,1,1.31-.46,4.33,4.33,0,0,1,1.26.07,7.94,7.94,0,0,1,1.14.32,13.74,13.74,0,0,1,2.05,1,33,33,0,0,1,3.68,2.43c1.17.88,2.29,1.8,3.4,2.74l-.69-.1a23.28,23.28,0,0,1,3-1c1-.28,2-.48,3.08-.66s2.07-.3,3.11-.39,2.08-.15,3.14-.15,2.1.06,3.14.15,2.08.22,3.11.39,2.07.39,3.09.66a23.67,23.67,0,0,1,3,1l-.68.11c1.1-1,2.23-1.87,3.4-2.74a34.37,34.37,0,0,1,3.67-2.44,14.3,14.3,0,0,1,2.06-.95,7,7,0,0,1,1.13-.32,4.37,4.37,0,0,1,1.26-.08,2.74,2.74,0,0,1,1.31.47l.14.1.14.12a3,3,0,0,1,.24.26l.1.13.09.13a2.33,2.33,0,0,1,.17.26,7.92,7.92,0,0,1,.88,2.17,20.24,20.24,0,0,1,.54,4.42,40.08,40.08,0,0,1-.14,4.39,62.7,62.7,0,0,1-1.34,8.63l0-.36c.73,1.89,1.33,3.8,1.88,5.73.27,1,.52,1.94.76,2.92s.46,2,.65,3l.06.38.06.4.06.76.07.77v1.54l0,.77,0,.38,0,.2a1.37,1.37,0,0,1,0,.19l-.11.77-.06.38-.09.38-.17.76c-.07.25-.16.49-.24.74l-.12.37-.06.18-.08.18-.3.72-.08.18-.09.18-.18.34-.19.34-.09.18-.11.16-.42.66a14.7,14.7,0,0,1-2,2.34l-.29.27-.29.24-.6.5-.63.45-.31.22-.33.21-.65.41-.67.37c-.22.13-.45.24-.68.36l-.68.34c-.47.2-.93.42-1.4.6s-.95.37-1.43.54c-.95.33-1.92.63-2.89.88l-1.47.37c-.49.1-1,.21-1.48.3-2,.39-3.95.65-5.92.89h0a.28.28,0,0,1-.32-.25A.28.28,0,0,1,179.64,148.07Z"/><path class="cls-20" d="M180.07,132.94s0,3-2.67,2.83a2.4,2.4,0,0,1-2.31-1.79,2.42,2.42,0,0,1-2.32,1.79c-2.67.16-2.67-2.83-2.67-2.83l5-3.87h.05Z"/><path class="cls-8" d="M180,133s-.87,2.28-2.9,1.75c-2.3-.6-2-3.36-2-3.36H175s.27,2.76-2,3.35c-2,.52-2.89-1.75-2.89-1.75a5,5,0,1,1,9.94,0Z"/><path class="cls-20" d="M179.78,133.47a2.35,2.35,0,0,1-2.64,1.24c-2.31-.6-2-3.36-2-3.36H175s.28,2.76-2,3.35a2.35,2.35,0,0,1-2.63-1.25,3.61,3.61,0,0,0,1.28-.11,4.37,4.37,0,0,0,3.36-4.72h.15a4.37,4.37,0,0,0,3.34,4.74A3.68,3.68,0,0,0,179.78,133.47Z"/><path class="cls-5" d="M170.41,132.83a3.9,3.9,0,0,0,.25.36,3.3,3.3,0,0,0,.28.35,2.61,2.61,0,0,0,.65.52,1.71,1.71,0,0,0,.72.21,1.78,1.78,0,0,0,.39,0l.19,0,.19-.06a2,2,0,0,0,1.19-1,3.64,3.64,0,0,0,.3-.82c0-.15.06-.3.09-.45s0-.31,0-.45v0a.33.33,0,0,1,.35-.32.35.35,0,0,1,.32.28c0,.2,0,.37,0,.55a4.89,4.89,0,0,1,0,.54,3.51,3.51,0,0,1-.28,1.09,2.84,2.84,0,0,1-1.68,1.59l-.27.1-.3.05a2.44,2.44,0,0,1-.61,0,2.48,2.48,0,0,1-1.16-.4,2.88,2.88,0,0,1-.82-.81,4,4,0,0,1-.28-.48,3.65,3.65,0,0,1-.2-.53.33.33,0,0,1,.22-.41.34.34,0,0,1,.38.14Z"/><path class="cls-5" d="M180.36,133.08a2.79,2.79,0,0,1-.21.53,4,4,0,0,1-.28.48,2.88,2.88,0,0,1-.82.81,2.4,2.4,0,0,1-1.78.35,1.5,1.5,0,0,1-.29-.06l-.28-.09a2.86,2.86,0,0,1-1.67-1.6,3.49,3.49,0,0,1-.27-1.09,4.89,4.89,0,0,1,0-.54,3.55,3.55,0,0,1,.06-.55.34.34,0,0,1,.38-.28.35.35,0,0,1,.28.32v0c0,.13,0,.29,0,.44s0,.3.09.45a3.21,3.21,0,0,0,.3.82,2,2,0,0,0,1.18,1l.19.06.19,0a1.78,1.78,0,0,0,.39,0,1.71,1.71,0,0,0,.72-.21,2.56,2.56,0,0,0,.65-.51,3.07,3.07,0,0,0,.28-.35l.25-.36,0,0a.34.34,0,0,1,.46-.1A.33.33,0,0,1,180.36,133.08Z"/><path class="cls-5" d="M177.86,129.91c0,.65-.85,1.23-1.63,1.62a2.8,2.8,0,0,1-2.55,0c-.78-.39-1.63-1-1.63-1.62C172.06,127.94,177.86,128,177.86,129.91Z"/><g class="cls-17"><path class="cls-8" d="M176.11,129.52c0,.19-.34.36-.65.47a1.46,1.46,0,0,1-1,0c-.31-.12-.64-.28-.64-.47C173.81,129,176.11,129,176.11,129.52Z"/></g><path class="cls-5" d="M150.44,131.54l-.36-.19-.38-.19-.38-.18-.39-.17c-.52-.21-1.05-.42-1.59-.58a20.5,20.5,0,0,0-3.29-.8c-.28-.05-.56-.07-.84-.11l-.42,0c-.14,0-.28,0-.42,0l-.85-.06h-.85c-.57,0-1.13,0-1.7.05h-.22l-.21,0-.42,0-.86.09h0a.29.29,0,0,1-.32-.26.3.3,0,0,1,.24-.32l.87-.16.43-.07.22,0,.22,0q.43-.06.87-.09c.15,0,.3,0,.44,0h.44l.89,0,.88,0,.44,0,.45.05c.29,0,.58,0,.87.1l.88.15.86.2c.29.06.57.15.86.23s.56.19.84.29a12.64,12.64,0,0,1,3.16,1.63.29.29,0,0,1,.06.41.28.28,0,0,1-.38.08Z"/><path class="cls-5" d="M151.19,136c-.48-.06-1-.1-1.49-.12s-1,0-1.5,0a18.33,18.33,0,0,0-3,.3,11.92,11.92,0,0,0-1.43.35c-.24.07-.47.16-.71.24s-.46.17-.68.28a10.8,10.8,0,0,0-2.5,1.56h0a.29.29,0,0,1-.39-.43,9.57,9.57,0,0,1,2.56-1.85,10.57,10.57,0,0,1,1.47-.61,13.61,13.61,0,0,1,1.52-.4,14.42,14.42,0,0,1,3.13-.29,13.68,13.68,0,0,1,3.11.41.3.3,0,0,1,.22.36.3.3,0,0,1-.32.22Z"/><path class="cls-5" d="M199.56,131.06a12.64,12.64,0,0,1,3.16-1.63c.28-.1.56-.21.84-.29s.57-.17.86-.23l.86-.2.88-.15c.29-.05.58-.07.88-.1l.44-.05.44,0,.88,0,.89,0h.44c.15,0,.29,0,.44,0l.88.09.22,0,.21,0,.44.07.86.16a.29.29,0,0,1,.24.34.29.29,0,0,1-.32.24h0l-.85-.09-.43,0-.21,0h-.21c-.57,0-1.14-.08-1.71-.05h-.85l-.84.06c-.15,0-.29,0-.43,0l-.42,0c-.28,0-.56.06-.84.11a20.5,20.5,0,0,0-3.29.8c-.54.16-1.07.37-1.59.58L201,131l-.38.18-.38.19-.36.19h0a.28.28,0,0,1-.4-.1A.31.31,0,0,1,199.56,131.06Z"/><path class="cls-5" d="M199,135.38a13.68,13.68,0,0,1,3.11-.41,14.37,14.37,0,0,1,3.13.29,13.22,13.22,0,0,1,1.53.4,11,11,0,0,1,1.46.61,9.78,9.78,0,0,1,2.57,1.85.29.29,0,0,1-.4.43h0a11.08,11.08,0,0,0-2.51-1.56c-.22-.11-.45-.19-.68-.28l-.7-.24a11.63,11.63,0,0,0-1.44-.35,18.33,18.33,0,0,0-3-.3c-.5,0-1,0-1.5,0s-1,.06-1.49.12h0a.3.3,0,0,1-.33-.26A.3.3,0,0,1,199,135.38Z"/><g class="cls-16"><path class="cls-5" d="M148.31,149.75c-.36,4.36-3.36,8.05-4.71,9.5a22.6,22.6,0,0,0,2.57-7.53,7.28,7.28,0,0,0-.43-3.28,3.58,3.58,0,0,0-1-1.4,3.81,3.81,0,0,0-2.63-1c-1.84.07-3.52,1.74-2.84,5.9.94,5.84-5.41,7.67-7.74,2.66a7.33,7.33,0,0,1-.29-.7c1.18.88,4.11,2.39,5.74.59,2.29-2.55-.83-6.8,2.18-9.93C141.46,142.22,148.78,144.11,148.31,149.75Z"/></g><path class="cls-21" d="M143.71,144c-.06.06-.8-.14-.78-.06a4.94,4.94,0,0,1,0,2.19h0a.51.51,0,0,0-.17,0l-.14,0-.12,0h-.11a1.61,1.61,0,0,0-.31,0c-1.84.07-3.52,1.74-2.84,5.9.94,5.84-5.41,7.67-7.74,2.66a7.33,7.33,0,0,1-.29-.7c1.18.88,4.11,2.39,5.74.59,2.29-2.55-.83-6.8,2.18-9.93,1-1,2.78-1.24,4.56-.79A.24.24,0,0,1,143.71,144Z"/><path class="cls-8" d="M143,146.15a3.16,3.16,0,0,0-.86-.07c-1.84.07-3.52,1.74-2.84,5.9.94,5.84-5.41,7.67-7.74,2.66a7.33,7.33,0,0,1-.29-.7,2.58,2.58,0,0,0-.08-.26c-1.46-4.67.31-12.74,7.51-14.44.33-.08.68-.14,1-.19a12,12,0,0,1,1.44-.12,5.59,5.59,0,0,1,2,2.67c0,.15-.72-.14-.66,0,.2.54,1.48,2.15,1.23,2.41-.05.06-.8-.14-.78-.06A4.94,4.94,0,0,1,143,146.15Z"/><g class="cls-16"><path class="cls-5" d="M143.71,144c-.06.06-.8-.14-.78-.06a4.94,4.94,0,0,1,0,2.19h0l-.17,0-.14,0-.12,0h-.11a1.61,1.61,0,0,0-.31,0c-1.84.07-3.52,1.74-2.84,5.9.94,5.84-5.41,7.67-7.74,2.66a7.33,7.33,0,0,1-.29-.7c1.18.88,4.11,2.39,5.74.59,2.29-2.55-.83-6.8,2.18-9.93,1-1,2.78-1.24,4.56-.79A.24.24,0,0,1,143.71,144Z"/></g><path class="cls-5" d="M151.65,176.59a11,11,0,0,1-7.67-3,10.41,10.41,0,0,1-2-12.44c.13-.28.27-.55.41-.83,2-4.1,4.12-8.33,2.79-11.71a3.18,3.18,0,0,0-3.58-1.91c-1.55.42-2.2,2.34-1.75,5.14.55,3.37-1.16,5.47-3.08,6.07s-4.42-.15-5.78-3.07-1.14-7.57.7-10.95a10.32,10.32,0,0,1,7.93-5.47,11,11,0,0,1,10,3.36c2.6,2.91,3.44,7.14,2.31,11.59-.3,1.14-.84,2.56-1.41,4.07-1.36,3.55-3,8-1.94,10.26a3.33,3.33,0,0,0,2.43,1.49,6.14,6.14,0,0,0,5.3-1.84.59.59,0,1,1,.82.84,7.26,7.26,0,0,1-6.33,2.16,4.42,4.42,0,0,1-3.28-2.14c-1.32-2.75.39-7.24,1.9-11.19a40.06,40.06,0,0,0,1.36-3.94c1-4.07.3-7.9-2-10.51a9.91,9.91,0,0,0-8.93-3,9.23,9.23,0,0,0-7.07,4.87,11.89,11.89,0,0,0-.66,9.89c1.06,2.28,3,2.87,4.36,2.44s2.73-1.9,2.27-4.75c-.83-5.12,1.78-6.25,2.6-6.47a4.37,4.37,0,0,1,5,2.62c1.51,3.87-.7,8.34-2.84,12.66-.13.28-.27.55-.41.83a9.15,9.15,0,0,0,1.75,11.06c3.42,3.21,8.74,3.5,13.56.74a.59.59,0,0,1,.8.22.58.58,0,0,1-.21.8A14.72,14.72,0,0,1,151.65,176.59Z"/><g class="cls-17"><path class="cls-8" d="M197.37,168.81a3.13,3.13,0,0,0-2.88-1.95c-1.07.13-.53.78.29,1C196,168.22,197.53,169.57,197.37,168.81Z"/></g><path class="cls-15" d="M160.16,161.13c-9.4-.18-11.84-6.41-12.09-11.6a20.72,20.72,0,0,1,.39-5.05l11-1.72a6.42,6.42,0,0,0,.47,1.08c2,3.69,7.36,5.8,7.36,5.8S173.1,161.38,160.16,161.13Z"/><g class="cls-16"><path class="cls-5" d="M160.16,161.13c-7.9-.15-10.88-4.57-11.78-9.06,1.75,2.59,4.82,4.53,10,4.63,7.7.15,8.76-3.95,8.34-7.29l.55.23S173.1,161.38,160.16,161.13Z"/></g><path class="cls-8" d="M159.91,143.84a10.33,10.33,0,0,1-4.57,4.56,11.12,11.12,0,0,1-7.27,1.13,20.72,20.72,0,0,1,.39-5.05l11-1.72a4.89,4.89,0,0,0,.3.75C159.79,143.62,159.85,143.73,159.91,143.84Z"/><g class="cls-16"><path class="cls-5" d="M159.91,143.84a10.33,10.33,0,0,1-4.57,4.56h0c-1.32.59-3.43.57-4-.66-.45-1,5.65-3.25,8.43-4.24C159.79,143.62,159.85,143.73,159.91,143.84Z"/></g><path class="cls-5" d="M160.56,161.72h-.41c-4.46-.09-7.82-1.5-10-4.21-3.79-4.75-2.57-11.78-2.29-13.15a.59.59,0,0,1,1.15.24c-.26,1.27-1.4,7.84,2.06,12.17,1.93,2.42,5,3.69,9.08,3.77,3.57.07,5.94-.79,7.06-2.55,1.67-2.64.14-6.65-.35-7.78a8.78,8.78,0,0,1-8-7.33.59.59,0,0,1,1.16-.24,7.54,7.54,0,0,0,7.24,6.41h.37l.17.33c.11.23,2.73,5.6.42,9.24C166.92,160.68,164.34,161.72,160.56,161.72Z"/><path class="cls-8" d="M161,144c-1.19.9-3,.94-4.25-1.28.33,1.21.16,5-4.86,5h-.55l-3.26.48c-.23-8.92,5.88-12.15,11-9.44a5.26,5.26,0,0,1,2.15,2.59C161.64,142.44,161.67,143.51,161,144Z"/><g class="cls-16"><path class="cls-5" d="M161,144c-1.19.9-3,.94-4.25-1.28.33,1.21.16,5-4.86,5a7.48,7.48,0,0,0,3.43-2.8,24.39,24.39,0,0,0,1-2.51c.46-.28,4.39,1.39,4.93-1.07C161.64,142.44,161.67,143.51,161,144Z"/></g><path class="cls-5" d="M158.57,143.85a1.83,1.83,0,0,0,.33.11,1.73,1.73,0,0,0,.68,0,2.16,2.16,0,0,0,.68-.22l.16-.09.15-.11,0,0,0,0,0,0a.7.7,0,0,0,.08-.1,1.09,1.09,0,0,0,.17-.56,3.17,3.17,0,0,0-.09-.73,5.31,5.31,0,0,0-.69-1.49,4.44,4.44,0,0,0-1.11-1.17l-.16-.1-.17-.09-.39-.19-.39-.16-.41-.14a7.27,7.27,0,0,0-1.66-.32,6.06,6.06,0,0,0-3.24.7,6.64,6.64,0,0,0-2.42,2.32,9.74,9.74,0,0,0-1.26,3.21,15.41,15.41,0,0,0-.3,3.53h0a.59.59,0,0,1-.57.61.6.6,0,0,1-.61-.58h0a16.78,16.78,0,0,1,.32-3.8,11,11,0,0,1,1.43-3.61,7.73,7.73,0,0,1,2.85-2.71,7.15,7.15,0,0,1,3.87-.84,8.5,8.5,0,0,1,1.95.36l.47.17.45.18.45.22.23.12.23.15a5.57,5.57,0,0,1,1.42,1.49,6.19,6.19,0,0,1,.85,1.84,3.84,3.84,0,0,1,.12,1.09,2.24,2.24,0,0,1-.37,1.18,1.71,1.71,0,0,1-.22.25l-.12.11-.07.06,0,0-.23.15-.24.14a3.27,3.27,0,0,1-1.07.34"/><path class="cls-15" d="M191.6,174.87c1.81-4.59.41-12.64-.82-21.25H159.22c-1.23,8.61-2.64,16.66-.82,21.25"/><g class="cls-16"><path class="cls-5" d="M191.39,174.87c1.82-4.59.41-12.64-.82-21.25H159c-1.23,8.61-2.63,16.66-.82,21.25"/></g><path class="cls-5" d="M191.32,174.77a19.9,19.9,0,0,0,.56-5.17l0-1.32c0-.44,0-.88-.07-1.32s-.06-.88-.1-1.32l-.13-1.32c-.18-1.77-.42-3.53-.66-5.3l-.36-2.65c-.12-.89-.24-1.77-.35-2.66h0l.59.5H159.22l.58-.5h0c-.11.89-.23,1.77-.35,2.66l-.36,2.65c-.24,1.77-.48,3.53-.67,5.3s-.31,3.52-.32,5.28a19.08,19.08,0,0,0,.57,5.17v0a.3.3,0,0,1-.21.36.29.29,0,0,1-.35-.17l-.27-.64c0-.1-.09-.21-.13-.32l-.1-.33c-.06-.22-.14-.44-.19-.67l-.15-.67-.06-.34-.05-.34-.09-.68c-.05-.46-.08-.91-.11-1.37s0-.91,0-1.37,0-.9,0-1.35,0-.91.07-1.36.07-.9.11-1.35c.16-1.79.39-3.57.65-5.35.12-.88.25-1.77.39-2.65l.42-2.65h0l.08-.51h32.58l.07.51h0c.15.88.28,1.76.42,2.65s.28,1.77.4,2.65c.25,1.78.49,3.56.65,5.35l.11,1.35c0,.45.05.9.07,1.36s0,.9,0,1.35,0,.91,0,1.37-.05.91-.1,1.37l-.08.68,0,.34-.07.34-.15.68c-.05.22-.12.44-.19.66l-.11.33a2.26,2.26,0,0,1-.13.33c-.09.21-.18.42-.28.63a.29.29,0,0,1-.55-.19Z"/><path class="cls-15" d="M190.9,148.67s13.84,16.91-.86,19.24Z"/><path class="cls-5" d="M189.42,168.6l1-21.49,1,1.19c.32.39,7.89,9.74,5.61,15.73-.91,2.39-3.21,3.88-6.84,4.46Zm2-18.27-.76,16.87c2.77-.58,4.51-1.78,5.2-3.59C197.45,159.46,193.37,153.05,191.42,150.33Z"/><g class="cls-9"><path class="cls-8" d="M193.43,151.8v.12a5.31,5.31,0,0,0-5.26-4.63h-2.45a1.63,1.63,0,0,0-1.62,1.63v3h-4.82v-3a1.62,1.62,0,0,0-1.62-1.63h-9.86a1.68,1.68,0,0,0-1.67,1.68v2.95h-2.61V149a1.68,1.68,0,0,0-1.68-1.68h0a5.3,5.3,0,0,0-5.25,4.63l0-.14a5.31,5.31,0,0,1,5.27-5.84h26.33A5.3,5.3,0,0,1,193.43,151.8Z"/></g><g class="cls-16"><path class="cls-5" d="M192.26,159.86l-1.35,7.79-.55,3.16-1.09,6.3a5.87,5.87,0,0,1-5.79,4.87H166.54a5.87,5.87,0,0,1-5.79-4.87l-1.63-9.42c2.09,4.41,6.52,9.34,15.88,9.35h0c7.09,0,11.35-2.84,13.91-6.13-3.07-.07-5-2.21-4.12-8.26C185.29,159.16,190.66,159.65,192.26,159.86Z"/></g><g class="cls-9"><path class="cls-8" d="M193.07,155.19l-.27,1.55-32.36,18.6-.41-2.41,33.06-19.25A4.27,4.27,0,0,1,193.07,155.19Z"/></g><path class="cls-8" d="M193.57,165.33a4.55,4.55,0,0,1-3.53,2.58c-3.72.43-5.83-1.68-4.48-6.95a4.64,4.64,0,0,1,2.58-3,11.37,11.37,0,0,1,4.58-1A8,8,0,0,1,193.57,165.33Z"/><g class="cls-16"><path class="cls-5" d="M193.57,165.33a4.55,4.55,0,0,1-3.53,2.58c-3.72.43-5.83-1.68-4.48-6.95a4.64,4.64,0,0,1,2.58-3c-.76,1.82-1.51,4.59-.3,6.88C188.91,166.92,191.77,166.79,193.57,165.33Z"/></g><path class="cls-5" d="M192.72,157.58a9.83,9.83,0,0,0-4.89,1.32,3.84,3.84,0,0,0-1.51,1.76,2.31,2.31,0,0,0-.1.28c0,.09-.05.18-.08.29s-.1.43-.14.64a11.51,11.51,0,0,0-.2,1.29,5.54,5.54,0,0,0,.25,2.42,2.7,2.7,0,0,0,.6.94,2.79,2.79,0,0,0,.93.59,5.39,5.39,0,0,0,2.42.25c.19,0,.42-.06.63-.1l.66-.14.65-.15.31-.09.26-.09h0a.47.47,0,0,1,.38.86l-.37.16-.35.12-.67.2-.68.18c-.23,0-.45.1-.72.14a7.17,7.17,0,0,1-1.47.09,5.06,5.06,0,0,1-1.51-.3,3.79,3.79,0,0,1-1.37-.85,3.91,3.91,0,0,1-.87-1.35,6.69,6.69,0,0,1-.35-3,11,11,0,0,1,.2-1.42c0-.24.1-.47.16-.7a2.8,2.8,0,0,1,.1-.36c0-.13.08-.25.13-.38a4.72,4.72,0,0,1,.83-1.33,5.49,5.49,0,0,1,1.16-1,8.84,8.84,0,0,1,2.71-1.12,14.08,14.08,0,0,1,1.42-.25l.71-.07.74,0a.59.59,0,0,1,0,1.18Z"/><path class="cls-5" d="M188.81,161.14a6.22,6.22,0,0,0-1,.26,5.08,5.08,0,0,0-.94.45,2.75,2.75,0,0,0-.72.63,2.12,2.12,0,0,0-.24.37,2,2,0,0,0-.13.41h0a.59.59,0,0,1-.7.45.6.6,0,0,1-.45-.71.19.19,0,0,1,0-.07,3.07,3.07,0,0,1,.31-.63,3.12,3.12,0,0,1,.43-.53,3.83,3.83,0,0,1,1.07-.71,6.25,6.25,0,0,1,1.16-.37,6.56,6.56,0,0,1,1.18-.14.29.29,0,0,1,.06.58Z"/><path class="cls-5" d="M189.21,166.17a5.4,5.4,0,0,1-1.18.25,4.56,4.56,0,0,1-1.22,0,3.2,3.2,0,0,1-1.22-.49,3,3,0,0,1-.92-1h0a.59.59,0,0,1,1-.6l0,.07a2,2,0,0,0,.5.71,2.12,2.12,0,0,0,.79.45,3.61,3.61,0,0,0,1,.16,4.43,4.43,0,0,0,1-.08h0a.29.29,0,0,1,.34.23A.29.29,0,0,1,189.21,166.17Z"/><path class="cls-5" d="M159.55,155.27l.53,3a2.06,2.06,0,0,0,2,1.69h0a2,2,0,0,0,2-2.39l-.52-3a2,2,0,0,0-2-1.7h0A2,2,0,0,0,159.55,155.27Z"/><path class="cls-5" d="M162.1,160.58a2.64,2.64,0,0,1-2.6-2.18l-.53-3h0a2.62,2.62,0,0,1,2.59-3.09h0a2.63,2.63,0,0,1,2.6,2.19l.52,3a2.65,2.65,0,0,1-2.6,3.08Zm-2-5.41.53,3a1.46,1.46,0,0,0,1.44,1.2,1.43,1.43,0,0,0,1.11-.52,1.41,1.41,0,0,0,.32-1.18l-.52-3a1.45,1.45,0,0,0-1.43-1.22h0a1.46,1.46,0,0,0-1.43,1.72Z"/><circle class="cls-5" cx="161.52" cy="154.69" r="1.14"/><circle class="cls-5" cx="161.52" cy="154.69" r="0.31"/><path class="cls-22" d="M161.52,156.12a1.43,1.43,0,1,1,1.43-1.43A1.44,1.44,0,0,1,161.52,156.12Zm0-2.27a.84.84,0,0,0,0,1.68.84.84,0,0,0,0-1.68Z"/><circle class="cls-5" cx="162.11" cy="158" r="1.14"/><path class="cls-22" d="M162.11,159.43a1.43,1.43,0,1,1,1.43-1.43A1.43,1.43,0,0,1,162.11,159.43Zm0-2.27a.84.84,0,0,0,0,1.68.84.84,0,1,0,0-1.68Z"/><ellipse class="cls-5" cx="163.5" cy="127.21" rx="5.42" ry="3.99" transform="translate(24.66 280.95) rotate(-85.8)"/><ellipse class="cls-8" cx="164.94" cy="126.29" rx="2.15" ry="1.34" transform="translate(26.9 281.53) rotate(-85.8)"/><ellipse class="cls-5" cx="186.42" cy="127.21" rx="3.99" ry="5.42" transform="matrix(1, -0.07, 0.07, 1, -8.82, 14)"/><ellipse class="cls-8" cx="184.98" cy="126.29" rx="1.34" ry="2.15" transform="translate(-8.76 13.89) rotate(-4.2)"/><g class="cls-23"><polygon class="cls-24" points="284.34 225.44 169.11 225.44 129.63 77.63 323.43 79.31 284.34 225.44"/></g><path class="cls-25" d="M297.86,221.87a16.34,16.34,0,0,1-16,13.09H171.59a16.33,16.33,0,0,1-16-13.09Z"/><path class="cls-5" d="M281.85,235.26H171.59a16.69,16.69,0,0,1-16.3-13.33l-.07-.36h143l-.07.36a16.64,16.64,0,0,1-16.3,13.33ZM156,222.17a16.08,16.08,0,0,0,15.63,12.49H281.85a16,16,0,0,0,15.64-12.49Z"/><path class="cls-5" d="M281.85,236.76H171.59a18.17,18.17,0,0,1-17.76-14.53,1.8,1.8,0,0,1,1.76-2.15H297.86a1.8,1.8,0,0,1,1.76,2.15A18.19,18.19,0,0,1,281.85,236.76ZM158,223.67a14.58,14.58,0,0,0,13.62,9.49H281.85a14.59,14.59,0,0,0,13.63-9.49Z"/><g class="cls-4"><path class="cls-5" d="M297.86,221.87a16.34,16.34,0,0,1-16,13.09h-68.2c11.21-.53,21.15-3.62,29.7-9.52a26.55,26.55,0,0,1,1.89-3.57Z"/></g><path class="cls-25" d="M297.81,152.73l-5.75,65.63a7.75,7.75,0,0,1-7.73,7.08H169.11a7.75,7.75,0,0,1-7.72-7.08l-5.75-65.63a11,11,0,0,1,11-12H286.83a11,11,0,0,1,11,12Z"/><path class="cls-5" d="M284.33,225.74H169.11a8,8,0,0,1-8-7.35l-5.75-65.63a11.33,11.33,0,0,1,11.28-12.32H286.83a11.31,11.31,0,0,1,11.28,12.32h0l-5.75,65.63A8,8,0,0,1,284.33,225.74ZM166.62,141a10.73,10.73,0,0,0-10.69,11.67l5.75,65.63a7.43,7.43,0,0,0,7.43,6.8H284.33a7.42,7.42,0,0,0,7.43-6.8l5.75-65.63A10.7,10.7,0,0,0,286.83,141Z"/><g class="cls-26"><path class="cls-8" d="M296,145.61a10.9,10.9,0,0,0-4.64-1H171.12a11,11,0,0,0-11,12l5.75,65.63a7.65,7.65,0,0,0,.83,2.85,7.76,7.76,0,0,1-5.33-6.7l-5.75-65.63a11,11,0,0,1,11-12H286.83A11,11,0,0,1,296,145.61Z"/></g><path class="cls-5" d="M284.34,227.23H169.11a9.48,9.48,0,0,1-9.51-8.71l-5.76-65.63a12.82,12.82,0,0,1,12.78-13.95H286.83a12.82,12.82,0,0,1,12.78,13.95l-5.76,65.63A9.49,9.49,0,0,1,284.34,227.23ZM166.62,142.54a9.22,9.22,0,0,0-9.2,10l5.76,65.63a5.92,5.92,0,0,0,5.93,5.44H284.34a5.92,5.92,0,0,0,5.93-5.44L296,152.57a9.22,9.22,0,0,0-9.19-10Z"/><g class="cls-4"><path class="cls-5" d="M297.81,152.73l-5.75,65.63a7.75,7.75,0,0,1-7.73,7.08H180.4c63.95-5,103.53-30.87,112.16-83.09h0A11,11,0,0,1,297.81,152.73Z"/></g><path class="cls-8" d="M161.42,142.42a7.6,7.6,0,0,1-3.17,5.31c-2.41,1.54-6.14,1.6-7.11,0s1.26-4.75,3-6.15c1-.78,2.69-2.24,4.66-1.66A4.52,4.52,0,0,1,161.42,142.42Z"/><path class="cls-27" d="M160.8,140.62a5.25,5.25,0,0,1,.52,2.84,6,6,0,0,1-3.07,4.27c-3.22,1.89-6.81.12-7.11,0"/></svg>