<svg id="Layer_1" data-name="Layer 1" xmlns="http://www.w3.org/2000/svg" xmlns:xlink="http://www.w3.org/1999/xlink" viewBox="0 0 246.64 246.35"><defs><style>.cls-1{mask:url(#mask);}.cls-2{mix-blend-mode:multiply;fill:url(#linear-gradient);}.cls-3{opacity:0.3;}.cls-4{fill:#080842;}.cls-5{fill:#4d5a6a;}.cls-6{opacity:0.55;}.cls-7{fill:#fff;}.cls-8{opacity:0.4;}.cls-9{fill:#ffd5b8;}.cls-10{fill:#02021e;}.cls-11{fill:#151328;}.cls-12{opacity:0.2;}.cls-13{fill:#fefefe;}.cls-14{fill:#8e8fb3;}.cls-15{opacity:0.15;}.cls-16,.cls-23{opacity:0.5;}.cls-17{fill:#f27e80;}.cls-18{fill:#ff5c64;}.cls-19{fill:#e8e8e8;}.cls-20{fill:#686868;}.cls-21{fill:#61619b;}.cls-22{mask:url(#mask-2);}.cls-23{fill:url(#linear-gradient-2);}.cls-24{fill:#c6d3e3;}.cls-25{opacity:0.75;}.cls-26{fill:none;stroke:#080842;stroke-linecap:round;stroke-linejoin:round;}.cls-27{filter:url(#luminosity-noclip-2);}.cls-28{filter:url(#luminosity-noclip);}</style><filter id="luminosity-noclip" x="75.29" y="-8317" width="193.79" height="32766" filterUnits="userSpaceOnUse" color-interpolation-filters="sRGB"><feFlood flood-color="#fff" result="bg"/><feBlend in="SourceGraphic" in2="bg"/></filter><mask id="mask" x="75.29" y="-8317" width="193.79" height="32766" maskUnits="userSpaceOnUse"><g class="cls-28"/></mask><linearGradient id="linear-gradient" x1="172.19" y1="78.15" x2="171.16" y2="225.68" gradientUnits="userSpaceOnUse"><stop offset="0"/><stop offset="1" stop-color="#fff"/></linearGradient><filter id="luminosity-noclip-2" x="75.29" y="77.48" width="193.79" height="147.81" filterUnits="userSpaceOnUse" color-interpolation-filters="sRGB"><feFlood flood-color="#fff" result="bg"/><feBlend in="SourceGraphic" in2="bg"/></filter><mask id="mask-2" x="27.63" y="75.82" width="193.79" height="147.81" maskUnits="userSpaceOnUse"><g class="cls-27"><g transform="translate(-47.66 -1.65)"><g class="cls-1"><polygon class="cls-2" points="229.99 225.29 114.76 225.29 75.29 77.48 269.08 79.17 229.99 225.29"/></g></g></g></mask><linearGradient id="linear-gradient-2" x1="124.52" y1="76.5" x2="123.5" y2="224.03" gradientUnits="userSpaceOnUse"><stop offset="0" stop-color="#40e6ff"/><stop offset="1" stop-color="#40e6ff"/></linearGradient></defs><g class="cls-3"><path class="cls-4" d="M50,240.13c40.61,10.49,201.27,10.49,241.87,0,3.76-1,2.84-5.32-1.11-5.32H51.16C47.2,234.81,46.29,239.16,50,240.13Z" transform="translate(-47.66 -1.65)"/></g><path class="cls-4" d="M61.41,234.23A79.28,79.28,0,0,1,75.11,233c4.56-.13,9.13-.06,13.69,0s9.13.06,13.7,0H260c2.28,0,4.57-.08,6.85-.11,4.57,0,9.13,0,13.7,1.27a.6.6,0,0,1,0,1.16c-4.57,1.25-9.13,1.3-13.7,1.28-2.28,0-4.57-.12-6.85-.12H102.5q-6.85,0-13.7.06c-4.56.07-9.13.13-13.69,0a80.3,80.3,0,0,1-13.7-1.23.58.58,0,0,1-.46-.69A.59.59,0,0,1,61.41,234.23Z" transform="translate(-47.66 -1.65)"/><path class="cls-5" d="M227.45,222.43l.72-.08A34.6,34.6,0,0,0,258,181l-7.56-36.83A36.13,36.13,0,0,0,215,115.33h-86.7a36.14,36.14,0,0,0-35.4,28.87L85.38,181a34.6,34.6,0,0,0,29.81,41.32l.72.08Z" transform="translate(-47.66 -1.65)"/><path class="cls-4" d="M227.47,222.71H115.91l-.76-.09a34.87,34.87,0,0,1-30-41.64l7.55-36.83a36.54,36.54,0,0,1,35.67-29.09H215a36.54,36.54,0,0,1,35.67,29.09L258.25,181a34.87,34.87,0,0,1-30.05,41.64Zm-99.14-107.1A36,36,0,0,0,93.2,144.26l-7.55,36.83a34.33,34.33,0,0,0,29.57,41l.72.09H227.43l.71-.09a34.33,34.33,0,0,0,29.57-41l-7.56-36.83A36,36,0,0,0,215,115.61Z" transform="translate(-47.66 -1.65)"/><g class="cls-3"><path class="cls-4" d="M228.17,222.35l-.72.08H115.91l-.72-.08a34.61,34.61,0,0,1-27.81-20.91,34.44,34.44,0,0,0,19,8.59l.72.09H218.66l.72-.09a34.59,34.59,0,0,0,29.81-41.31l-7.55-36.83a35.71,35.71,0,0,0-2.24-7.09,35.94,35.94,0,0,1,11,19.4L258,181A34.61,34.61,0,0,1,228.17,222.35Z" transform="translate(-47.66 -1.65)"/></g><g class="cls-6"><path class="cls-7" d="M232.86,120a35.92,35.92,0,0,0-13.24-2.51H132.93a36.13,36.13,0,0,0-35.4,28.87L90,183.23a34.61,34.61,0,0,0,16.72,37A34.63,34.63,0,0,1,85.37,181l7.56-36.83a36.14,36.14,0,0,1,35.4-28.87H215A36,36,0,0,1,232.86,120Z" transform="translate(-47.66 -1.65)"/></g><path class="cls-4" d="M227.45,224.23H115.7l-.72-.09a36.39,36.39,0,0,1-31.37-43.46l7.56-36.83a38.07,38.07,0,0,1,37.16-30.31H215a38.08,38.08,0,0,1,37.16,30.31l7.55,36.83a36.39,36.39,0,0,1-31.36,43.46l-.72.09ZM116,220.63H227.34l.62-.07a32.8,32.8,0,0,0,28.26-39.17l-7.56-36.83A34.45,34.45,0,0,0,215,117.13h-86.7a34.47,34.47,0,0,0-33.64,27.43l-7.55,36.83a32.8,32.8,0,0,0,28.26,39.17Z" transform="translate(-47.66 -1.65)"/><path class="cls-5" d="M235.72,88.13c-.11.42-.22.85-.34,1.26l-.27.94a2.35,2.35,0,0,1-.11.35c-.07.26-.15.52-.23.77s-.21.65-.32,1c0,.14-.09.29-.14.42-.16.47-.32.93-.49,1.39s-.37,1-.57,1.49-.4,1-.61,1.48-.42,1-.64,1.46-.42.93-.65,1.39l-.09.18c-.2.43-.42.86-.64,1.28l0,0c-.23.47-.48.93-.73,1.4s-.61,1.1-.93,1.64l-.65,1.12s0,0,0,0c-.28.45-.56.9-.85,1.35-.48.75-1,1.49-1.48,2.23-.22.33-.45.64-.68,1l-.58.8c-.29.41-.59.8-.89,1.2s-.59.75-.89,1.13c-.17.21-.33.42-.5.62l-.33.4-.6.72c-.55.65-1.12,1.29-1.69,1.92l-.85.93-.63.67c-.3.31-.59.61-.9.91s-.88.88-1.32,1.31l-1.08,1-.17.15c-.37.35-.75.69-1.13,1-.7.63-1.41,1.24-2.14,1.85l-.54.45-1.12.9c-1.31,1-2.64,2-4,3l-.08.05a60.3,60.3,0,0,1-23.48,9.93,60.56,60.56,0,0,1-46.26-10l-1.3-.93-.13-.1-1.27-.95c-.44-.34-.88-.68-1.31-1h0l-1.28-1c-.43-.35-.85-.71-1.27-1.07s-.84-.72-1.24-1.09L127,122l-1.19-1.13-1.17-1.16c-.38-.39-.77-.78-1.14-1.17l-1.14-1.21c-.36-.4-.71-.79-1.06-1.2s-.55-.63-.82-.95c-.79-.93-1.56-1.87-2.3-2.84-.3-.39-.61-.79-.89-1.19l-.12-.15-.59-.82c-.44-.63-.88-1.25-1.29-1.89-.24-.34-.47-.7-.69-1.05-.35-.53-.68-1.07-1-1.61l-.69-1.17c-.31-.54-.62-1.1-.92-1.66s-.45-.84-.66-1.25-.44-.86-.64-1.29a.76.76,0,0,1-.09-.18c-.46-.93-.89-1.87-1.28-2.82a.67.67,0,0,1-.06-.12l-.57-1.41c-.2-.49-.39-1-.57-1.49s-.37-1-.53-1.51-.26-.75-.38-1.12l-.27-.9c0-.13-.09-.27-.12-.4-.09-.3-.17-.59-.25-.88s-.24-.86-.35-1.3c-4.48-31.65,24.29-66.75,53.05-81.8a25.22,25.22,0,0,1,23.38,0c.65.33,1.29.69,1.93,1.06h0C212.71,23.55,240.1,57.19,235.72,88.13Z" transform="translate(-47.66 -1.65)"/><g class="cls-8"><path class="cls-4" d="M182,139.24c.81-.21,1.63-.43,2.43-.68a60,60,0,0,0,17.15-8.37l.07-.05q2.06-1.45,4-3l1.12-.9.54-.46c.73-.6,1.44-1.22,2.14-1.85.39-.34.77-.68,1.14-1l.16-.15c.37-.34.72-.68,1.08-1s.89-.87,1.32-1.3.6-.61.9-.92l.63-.67c.29-.31.58-.61.85-.93.58-.63,1.14-1.27,1.69-1.92l.61-.72.32-.39.51-.63.88-1.13.9-1.19.58-.81c.23-.31.45-.63.68-1,.5-.73,1-1.48,1.48-2.23.28-.45.57-.9.84-1.35l0,0,.66-1.12c.32-.54.62-1.09.92-1.64s.5-.93.74-1.4l0,0c.22-.42.43-.85.64-1.28l.09-.18c.22-.46.44-.92.65-1.39s.43-1,.64-1.46.41-1,.6-1.48.39-1,.57-1.49.34-.92.49-1.38l.15-.43c.11-.32.21-.65.31-1s.17-.51.24-.76.07-.24.11-.36l.27-.94c.11-.41.22-.84.33-1.26,4.33-30.56-22.34-63.76-50.07-80.13,19.5,17.75,34.26,42.61,31,65.93L212.08,76l-.27.94-.11.35c-.07.26-.16.52-.24.77s-.2.66-.31,1c-.05.14-.1.29-.15.42-.15.47-.31.93-.49,1.39s-.37,1-.57,1.49-.39,1-.6,1.48-.42,1-.64,1.46-.43.93-.65,1.39l-.09.18c-.21.43-.42.86-.64,1.28l0,0c-.24.47-.49.93-.74,1.4s-.6,1.1-.92,1.64L205,92.34s0,0,0,0c-.27.45-.56.9-.84,1.35-.48.75-1,1.5-1.48,2.23l-.68,1-.58.81-.9,1.19L199.6,100l-.51.62-.32.4-.61.72c-.55.65-1.11,1.29-1.69,1.92-.27.32-.56.62-.85.93l-.63.67c-.3.31-.59.62-.9.92s-.87.87-1.32,1.3-.71.69-1.08,1l-.16.15c-.37.35-.75.69-1.14,1-.7.63-1.41,1.24-2.14,1.85l-.54.46c-.37.3-.74.6-1.12.89q-2,1.56-4,3l-.07,0a60.23,60.23,0,0,1-17.15,8.37,57.87,57.87,0,0,1-6.33,1.56A60.62,60.62,0,0,1,148.29,127,60.62,60.62,0,0,0,159,125.92l.3-.06c-1.29.34-2.59.64-3.9.89a61.07,61.07,0,0,1-23.68-.2l-.27-.22,1.29,1,1.27.95.13.1,1.3.93a60.56,60.56,0,0,0,46.26,10c1.12-.21,2.23-.45,3.33-.73C184.06,138.82,183.05,139,182,139.24Z" transform="translate(-47.66 -1.65)"/></g><g class="cls-6"><path class="cls-7" d="M194.89,14.48c-2.21-1.5-4.45-2.89-6.68-4.18h0c-.65-.37-1.29-.73-1.94-1.07a25.2,25.2,0,0,0-23.37,0c-28.76,15.06-57.54,50.16-53,81.81.11.44.22.87.34,1.3s.17.58.26.87a3.17,3.17,0,0,0,.12.41l.27.9.37,1.12c.17.51.35,1,.54,1.51s.37,1,.57,1.49.37.94.57,1.41a.34.34,0,0,0,.06.12c.39,1,.82,1.89,1.27,2.82l.09.18c.21.43.42.86.64,1.28l.66,1.26c.31.56.61,1.12.93,1.66.22.39.46.78.69,1.17s.66,1.08,1,1.61c.22.35.46.71.69,1,.42.64.85,1.26,1.3,1.89l.59.82.11.15c.29.4.6.79.9,1.19.74,1,1.51,1.91,2.29,2.84l.82,1,1.07,1.2,1.13,1.21,1.15,1.17c.38.39.77.78,1.17,1.15s.79.77,1.19,1.14l1.22,1.11,1.24,1.09c.42.36.84.72,1.28,1.07l1.28,1h0l1.32,1,1.18.89c-.5-.33-1-.66-1.48-1l-1.3-.93-.13-.1c-.43-.31-.85-.63-1.27-1l-1.31-1h0l-1.28-1.05c-.43-.35-.85-.71-1.27-1.07s-.84-.72-1.24-1.09-.82-.73-1.23-1.11l-1.19-1.13c-.4-.38-.78-.77-1.17-1.15s-.77-.78-1.14-1.18L123,118.13c-.36-.4-.71-.79-1.06-1.2s-.55-.63-.82-1c-.79-.93-1.56-1.87-2.3-2.84-.3-.39-.61-.79-.89-1.19a1.58,1.58,0,0,1-.12-.15l-.59-.82c-.44-.63-.88-1.25-1.3-1.88l-.68-1.06c-.35-.53-.68-1.07-1-1.61l-.69-1.16-.92-1.66q-.35-.63-.66-1.26c-.23-.43-.44-.86-.65-1.29l-.09-.18c-.45-.93-.88-1.87-1.27-2.82a.67.67,0,0,1-.06-.12c-.19-.47-.39-.93-.57-1.41s-.39-1-.57-1.49-.37-1-.53-1.51-.26-.74-.38-1.12l-.27-.9c0-.13-.09-.27-.12-.4-.09-.3-.18-.58-.25-.88s-.24-.86-.35-1.3c-4.48-31.65,24.29-66.75,53-81.8a25.22,25.22,0,0,1,23.38,0c.64.33,1.29.69,1.93,1.06h0A109,109,0,0,1,194.89,14.48Z" transform="translate(-47.66 -1.65)"/></g><path class="cls-4" d="M171,142.16A62.33,62.33,0,0,1,135,130.79l-1.31-.94-.07,0-.09-.07-1.28-1-1.25-1-.11-.08-1.25-1-1.34-1.14c-.43-.37-.86-.73-1.27-1.11l-.06,0c-.41-.36-.81-.72-1.2-1.09s-.81-.76-1.21-1.15-.8-.78-1.2-1.18-.79-.8-1.16-1.2l-1.15-1.23c-.39-.42-.75-.82-1.11-1.24l-.84-1c-.82-1-1.61-2-2.34-2.9l-.2-.26-.7-.93-.12-.16c-.22-.29-.43-.59-.64-.88-.48-.68-.91-1.31-1.32-1.92-.23-.35-.48-.72-.71-1.09-.34-.54-.68-1.08-1-1.64l-.21-.36c-.17-.27-.33-.55-.49-.83-.31-.54-.61-1.08-.9-1.61l0-.09-.68-1.3c-.22-.42-.44-.85-.64-1.28a1.43,1.43,0,0,1-.13-.28c-.49-1-.9-1.91-1.27-2.78l-.11-.25L107,96.39c-.2-.5-.4-1-.58-1.55s-.37-1-.55-1.54c-.13-.37-.26-.76-.38-1.15s-.19-.62-.28-.92c0-.13-.09-.3-.14-.45s-.17-.57-.25-.89-.23-.86-.35-1.31a1.18,1.18,0,0,1,0-.2c-2.72-19.16,6.31-36.9,14.37-48.41A115.74,115.74,0,0,1,158.46,4.73a27,27,0,0,1,25,0c15,7.86,29.45,20.7,39.63,35.24,8.05,11.51,17.08,29.25,14.37,48.41a1.42,1.42,0,0,1,0,.2c-.11.43-.23.86-.34,1.29l-.31,1.07-.09.28c-.05.19-.11.38-.17.56l-.06.2c-.1.32-.2.63-.31.94l0,.07-.15.46c-.16.46-.33,1-.51,1.43s-.38,1-.58,1.52-.4,1-.62,1.52-.44,1-.67,1.5-.43.94-.65,1.42l-.11.21c-.19.41-.42.86-.65,1.3s-.51,1-.77,1.46-.63,1.14-1,1.7c-.21.37-.43.75-.66,1.13h0v0l-.87,1.39c-.53.83-1,1.57-1.52,2.28-.22.33-.46.66-.69,1l-.6.82c-.3.41-.6.81-.91,1.21s-.6.78-.91,1.17l-.52.65-.95,1.13c-.57.67-1.15,1.33-1.73,2-.26.3-.56.61-.85.92l-.66.7c-.32.35-.63.66-.94,1s-.87.87-1.33,1.31-.72.7-1.09,1l-.21.19-1.13,1c-.75.66-1.48,1.29-2.19,1.88l-.54.45-1.15.93c-1.33,1.05-2.7,2.08-4.09,3.07l-.07,0h0A62.27,62.27,0,0,1,171,142.16ZM135.87,127l1.24.89a58.89,58.89,0,0,0,67.67.05h0l.07-.05c1.34-.94,2.66-1.93,3.93-2.94l1.1-.89.53-.44c.67-.56,1.38-1.17,2.1-1.81.36-.33.73-.66,1.08-1l.1-.08,0,0,.06-.05,1.05-1c.43-.42.87-.85,1.29-1.28s.59-.59.87-.89l.63-.67c.29-.31.56-.59.81-.88.57-.63,1.13-1.26,1.67-1.9l.9-1.08.5-.61.86-1.11c.29-.38.58-.76.87-1.16l.57-.78.66-.93c.47-.69.94-1.4,1.45-2.19.28-.43.55-.87.82-1.31v0h0l.64-1.1c.32-.54.62-1.06.91-1.6s.48-.89.71-1.35a.17.17,0,0,1,0-.06c.21-.4.41-.81.61-1.22l.11-.22c.2-.42.41-.86.61-1.32s.43-1,.63-1.42.4-1,.58-1.43.38-1,.55-1.45.34-.9.48-1.35l.17-.49c.1-.29.19-.58.28-.87l.07-.21c0-.17.11-.34.15-.51a.36.36,0,0,1,0-.11.83.83,0,0,0,0-.15l.3-1c.1-.36.2-.74.3-1.12,2-14-2.93-30.27-13.77-45.74A111.91,111.91,0,0,0,181.83,7.92a23.4,23.4,0,0,0-21.71,0A112.1,112.1,0,0,0,121.77,42C110.94,57.51,106.05,73.75,108,87.78c.1.39.2.78.31,1.17s.16.56.24.83.08.28.11.39l.28.89c.11.37.24.74.36,1.1s.34,1,.51,1.45.37,1,.56,1.45.37.93.56,1.38v0l0,.11c.35.84.76,1.73,1.23,2.72a.3.3,0,0,1,0,.08l.06.12c.2.41.4.82.61,1.22s.44.84.66,1.25l0,.07.86,1.54.47.79.2.35c.32.52.65,1,1,1.56.22.35.44.69.67,1,.38.59.8,1.19,1.26,1.84.19.28.38.53.57.78l0,.08,0,0a1.71,1.71,0,0,1,.11.14l.67.9.19.26c.7.9,1.45,1.83,2.24,2.76l.79.92,1.06,1.18,1.11,1.19c.35.37.72.74,1.09,1.12s.77.77,1.15,1.13.78.76,1.18,1.12.76.7,1.14,1l.06.06,1.21,1c.41.35.82.71,1.24,1l1.18,1,.09.07,1.28,1,1.21.91Zm-2.26,2.8Zm80.12-9.11v0ZM111,96.65h0Zm-.11-.27h0Zm124.82-8.25Z" transform="translate(-47.66 -1.65)"/><path class="cls-9" d="M221.35,97.21c-.11.34-.23.68-.35,1-3.34,8.54-9.87,13.09-13.83,7.94l2.36-11.6,1.61-7.88C217.31,82.48,225.55,84.38,221.35,97.21Z" transform="translate(-47.66 -1.65)"/><path class="cls-10" d="M211.13,108.57a5.15,5.15,0,0,1-4.13-2.26l-.06-.08,4-19.66.08,0c3.37-2.3,7.16-2.7,9.44-1,1.48,1.11,3.59,4.11,1.1,11.75h0c-.11.34-.24.68-.36,1-2.23,5.7-5.9,9.7-9.36,10.2A5.78,5.78,0,0,1,211.13,108.57Zm-3.73-2.44a4.6,4.6,0,0,0,4.38,2c3.31-.47,6.85-4.37,9-9.92l.35-1h0c1.79-5.47,1.45-9.48-1-11.28-2.11-1.58-5.67-1.2-8.87,1Z" transform="translate(-47.66 -1.65)"/><g class="cls-3"><path class="cls-10" d="M221.35,97.21c-.11.34-.23.68-.35,1-3.34,8.54-9.87,13.09-13.83,7.94l2.36-11.6.89-.06q3.6,11.25,10.46,2Z" transform="translate(-47.66 -1.65)"/></g><path class="cls-10" d="M211.14,109.79a6.41,6.41,0,0,1-5.11-2.73,1.41,1.41,0,0,1-.27-1.17l4-19.48a1.44,1.44,0,0,1,.6-.9c3.86-2.63,8.26-3,11-.91,1.81,1.4,4.35,5.1,1.08,14.13-2.43,6.24-6.39,10.44-10.34,11A6.36,6.36,0,0,1,211.14,109.79Zm-2.42-4a3.18,3.18,0,0,0,2.89,1.09c2.83-.4,6.06-4.08,8-9.15,1.92-5.31,1.87-9.27-.15-10.84-1.58-1.22-4.43-.92-7.07.7Z" transform="translate(-47.66 -1.65)"/><path class="cls-9" d="M120.62,97.21c.11.34.23.68.35,1,3.34,8.54,9.87,13.09,13.83,7.94l-2.36-11.6-1.61-7.88C124.66,82.48,116.42,84.38,120.62,97.21Z" transform="translate(-47.66 -1.65)"/><path class="cls-10" d="M130.84,108.65a5.81,5.81,0,0,1-.72-.05c-3.49-.5-7.19-4.52-9.43-10.25-.13-.36-.25-.7-.36-1h0c-2.51-7.69-.37-10.72,1.13-11.85,2.31-1.73,6.14-1.33,9.54,1l.1.07,4,19.73-.08.11A5.24,5.24,0,0,1,130.84,108.65ZM120.9,97.12c.11.34.23.67.35,1,2.16,5.52,5.67,9.4,8.95,9.87a4.47,4.47,0,0,0,4.28-1.91l-3.92-19.22c-3.16-2.12-6.66-2.5-8.74-.94-2.37,1.78-2.69,5.75-.92,11.18Z" transform="translate(-47.66 -1.65)"/><g class="cls-6"><path class="cls-7" d="M129.47,108.21c-3.06-1-6.21-4.7-8.21-9.83l-.35-1c-4.2-12.84,4-14.74,10.21-10.52l0,.15c-5.58-2.12-11.22.81-7.6,11.89.11.34.23.68.36,1A20.25,20.25,0,0,0,129.47,108.21Z" transform="translate(-47.66 -1.65)"/></g><path class="cls-10" d="M130.83,109.79a6.36,6.36,0,0,1-.87-.06c-4-.56-7.91-4.76-10.33-11-3.28-9.07-.74-12.77,1.07-14.17,2.7-2.09,7.09-1.72,11,.91a1.44,1.44,0,0,1,.6.9l4,19.48a1.41,1.41,0,0,1-.27,1.17A6.41,6.41,0,0,1,130.83,109.79ZM125,86.13a4.06,4.06,0,0,0-2.5.75c-2,1.57-2.07,5.53-.14,10.87,2,5,5.2,8.72,8,9.12a3.18,3.18,0,0,0,2.89-1.09l-3.71-18.2A9,9,0,0,0,125,86.13Z" transform="translate(-47.66 -1.65)"/><path class="cls-9" d="M210.27,94.88v6.66a34.94,34.94,0,0,1-14.94,28.84c-.14.09-.27.17-.4.27a42.88,42.88,0,0,1-47.7,0l-.4-.27a34.91,34.91,0,0,1-15-28.84V94.88s0-.43.08-1.2c.35-6.09,2-33.39,2.22-34.08C142.76,36.5,228.55,42.16,210.27,94.88Z" transform="translate(-47.66 -1.65)"/><path class="cls-10" d="M171.07,138.23a43,43,0,0,1-24-7.33l-.36-.25a35.15,35.15,0,0,1-15.12-29.11V94.88s0-.45.08-1.22c.58-10,2-33.46,2.24-34.17,2.25-6.06,9.89-10.55,20.95-12.32a70.12,70.12,0,0,1,33.27,3.1c10.14,3.64,32.61,15.27,22.45,44.66v6.61a35.17,35.17,0,0,1-15.07,29.08l-.16.11-.24.16A43.11,43.11,0,0,1,171.07,138.23ZM165,47a64.39,64.39,0,0,0-10,.77c-10.84,1.74-18.3,6.09-20.48,11.94-.2.77-1.32,18.8-2.21,34,0,.77-.07,1.19-.07,1.19v6.65A34.54,34.54,0,0,0,147,130.13l.4.28a42.41,42.41,0,0,0,47.36,0l.25-.17.15-.1A34.57,34.57,0,0,0,210,101.54V94.78c10-28.91-12.09-40.37-22.07-43.95A69.2,69.2,0,0,0,165,47Z" transform="translate(-47.66 -1.65)"/><g class="cls-3"><path class="cls-10" d="M210.27,94.88v6.66a34.94,34.94,0,0,1-14.94,28.84c-.14.09-.27.17-.4.27a42.88,42.88,0,0,1-47.7,0l-.4-.27c-.3-.21-.6-.42-.89-.64a42.87,42.87,0,0,0,42.58-2.94l.4-.27a34.92,34.92,0,0,0,14.94-28.84l.57-8.4c6.2-17.89-.15-28.62-10.83-36.38C208.13,60.07,217.62,73.67,210.27,94.88Z" transform="translate(-47.66 -1.65)"/></g><g class="cls-3"><path class="cls-10" d="M210.27,94.88v2.7c-4.31-6.34-5.14-23.67-5.14-23.67-3.77,4.09-24.93,8.81-39.78.92a.94.94,0,0,0-1.28,1.24c.18.37.25.49.25.49-1.95,1.21-11.15,0-16.14-2.87a2.3,2.3,0,0,0-3.41,1.65c-1.12,7.14-4.67,12.1-12.27,19.54q-.28-.6-.54-1.2c.35-6.09,2-33.39,2.22-34.08C142.76,36.5,228.55,42.16,210.27,94.88Z" transform="translate(-47.66 -1.65)"/></g><g class="cls-6"><path class="cls-7" d="M187.34,134.69a42.89,42.89,0,0,1-40.11-4l-.4-.27a34.91,34.91,0,0,1-15-28.84V94.88s2-34.5,2.3-35.28c1.81-4.86,7-8.44,14-10.58-5.22,2.17-9.06,5.33-10.55,9.35-.3.78-2.3,35.28-2.3,35.28v6.66a34.92,34.92,0,0,0,14.94,28.84,2.9,2.9,0,0,1,.41.27C160,137.89,175.14,138.52,187.34,134.69Z" transform="translate(-47.66 -1.65)"/></g><path class="cls-10" d="M171.08,139.38a44.16,44.16,0,0,1-24.65-7.53l-.42-.28a36.29,36.29,0,0,1-15.57-30V94.79c2-34.68,2.3-35.45,2.39-35.7h0c5.28-14.2,35-17.32,55.68-9.9,9.83,3.53,17.28,9.14,21.54,16.2,5,8.32,5.56,18.32,1.66,29.73v6.42a36.31,36.31,0,0,1-15.57,30l-.41.27A44.14,44.14,0,0,1,171.08,139.38ZM133.33,94.92v6.62a33.41,33.41,0,0,0,14.31,27.65l.39.26a41.24,41.24,0,0,0,46.09,0l.39-.26a33.43,33.43,0,0,0,14.31-27.65V94.88a1.61,1.61,0,0,1,.08-.48c9.7-27.94-11.71-39-21.37-42.49-20.92-7.52-47.55-3.36-52,8.08C135.31,61.86,134.09,81.77,133.33,94.92Zm2.21-34.82h0Zm0,0v0Zm-1.37-.47h0Z" transform="translate(-47.66 -1.65)"/><path class="cls-11" d="M209.81,45.46c10.83,13.82,9.48,37.89.37,50.5-7-3.85-7.44-22-7.44-22-16.51,4.49-33.21,1.75-48.36-11.3-.32,5.13,4,9.89,4,9.89a20.08,20.08,0,0,1-5.27-.82c-5.47-1.64-8.74-5.6-10.73-10.59-1.93,17.31-2.05,21.16-10.48,33.79-8.41-18-10-40.28,4.07-46.94-19.56-6.73-12.35-20.36,4.48-8.25-8.25-11.87,2.17-16.44,4.33-3.37,12.18-22.24,65.66-14.43,72.9,10.82l-7.83-1.68Z" transform="translate(-47.66 -1.65)"/><path class="cls-10" d="M210.26,96.35l-.23-.13c-6.56-3.62-7.47-19.2-7.58-21.92-17.53,4.66-33.6.94-47.78-11,0,4.7,3.87,9,3.91,9l.47.52-.7,0A20.88,20.88,0,0,1,153,72c-4.74-1.42-8.18-4.6-10.48-9.71l-.1,1c-1.72,15.5-2.18,19.67-10.3,31.83l-.29.45-.23-.49c-8.48-18.16-9.88-39.95,3.57-47-7.9-2.87-11-6.73-11.26-9.44a3.25,3.25,0,0,1,1.71-3.29c2.32-1.33,7.08-1.1,13.72,3.31-2.78-4.55-2.7-7.84-1.7-9.35a2.33,2.33,0,0,1,2.52-1c1.69.36,3.77,2.47,4.74,7.28,6.7-11.12,22.85-13.58,35.92-12.13,15.59,1.73,33.11,9.74,37.12,23.73l.14.48-7.55-1.62c10.5,14.2,8.68,38-.12,50.21ZM203,73.52v.38c0,.18.52,17.67,7.05,21.66,8.68-12.26,10.31-36.09-.51-49.92l-.38-.48.73,0,7.3,1.56C213,33.32,196,25.62,180.77,23.93,167.61,22.46,151.31,25,145,36.46l-.42.76-.14-.85c-.85-5.09-2.91-7.28-4.43-7.61a1.73,1.73,0,0,0-1.89.8c-1,1.49-.92,5,2.53,10l1,1.44-1.42-1c-7.07-5.08-12.14-5.41-14.33-4.15a2.68,2.68,0,0,0-1.42,2.71c.24,2.48,3.4,6.37,11.54,9.17l.69.24-.66.31c-13.66,6.48-12.43,28-4.15,46.05,7.76-11.69,8.22-15.92,9.9-31.12l.36-3.27.45,1.11c2.22,5.55,5.67,9,10.54,10.42a20,20,0,0,0,4.51.77c-1.11-1.4-3.87-5.33-3.61-9.58l0-.6.46.4c14.23,12.26,30.41,16,48.08,11.23Z" transform="translate(-47.66 -1.65)"/><g class="cls-3"><path class="cls-10" d="M140.36,58.07a20.71,20.71,0,0,1,1.8,4.8c-1.74,15.82-2.14,19.82-10.28,32q-1.42-3.07-2.57-6.26c6.67-10.36,7.45-16.21,9-30.17A1.09,1.09,0,0,1,140.36,58.07Z" transform="translate(-47.66 -1.65)"/></g><g class="cls-6"><path class="cls-7" d="M137.26,37.63c-10.6-4.49-14.43,3.27-4.11,9.23C118.26,40.36,123.57,29.79,137.26,37.63Z" transform="translate(-47.66 -1.65)"/></g><g class="cls-6"><path class="cls-7" d="M135.61,48.11l0,0a1.92,1.92,0,0,1,.49,3.26c-9.58,8-9.21,25.83-2.89,41.41-.42.67-.88,1.36-1.36,2.08C123.53,77,121.94,55,135.61,48.11Z" transform="translate(-47.66 -1.65)"/></g><g class="cls-6"><path class="cls-7" d="M139.78,39.49l0,0c-5.59-8.6-.5-13.56,2.9-9.59-1.88.28-3,3.18-.91,7.77A1.42,1.42,0,0,1,139.78,39.49Z" transform="translate(-47.66 -1.65)"/></g><g class="cls-6"><path class="cls-7" d="M207.05,34.15A83.61,83.61,0,0,0,174.29,27c-1.73,3.31-7.55,3.15-10,.79-6.31,1.13-11.64,3.52-15,7.49a2.19,2.19,0,0,1-3.68-.44C156.09,21.54,191.3,20.45,207.05,34.15Z" transform="translate(-47.66 -1.65)"/></g><path class="cls-10" d="M210.17,97.4a1.45,1.45,0,0,1-.69-.18c-6.36-3.51-7.79-16.47-8.1-21.47-16.43,4-31.57.72-45.09-9.72a17.24,17.24,0,0,0,3.14,5.5,1.45,1.45,0,0,1-1.07,2.41h-.05c-6.62-.2-11.66-2.88-15-8-1.52,13.61-2.39,18-10.19,29.71a1.46,1.46,0,0,1-1.31.64,1.44,1.44,0,0,1-1.19-.83c-8.28-17.73-9.87-38.87,2.06-47.28-6.83-3-9.6-6.77-9.86-9.55a4.39,4.39,0,0,1,2.28-4.39c2.18-1.26,6.19-1.35,11.58,1.39-1.19-3.23-.88-5.66.06-7.07a3.47,3.47,0,0,1,3.71-1.53c2.12.45,3.88,2.52,5,5.71,7.63-9.8,23-12,35.59-10.57,16,1.77,33.93,10.05,38.09,24.54a1.45,1.45,0,0,1-.33,1.38,1.42,1.42,0,0,1-1.36.43l-4.29-.92c3.9,6.41,6,14.62,5.84,23.55C218.78,81,216,90.33,211.35,96.8A1.47,1.47,0,0,1,210.17,97.4Zm-7.43-24.93a1.47,1.47,0,0,1,.86.28,1.44,1.44,0,0,1,.58,1.12c.12,4.49,1.37,16.14,5.64,20.06,7.86-12.18,9.1-34.5-1.14-47.58a1.44,1.44,0,0,1,1.44-2.3l5.32,1.14c-5-11.77-20.71-18.56-34.8-20.13C164.56,23.28,151,28,146,37a1.45,1.45,0,0,1-1.51.73,1.43,1.43,0,0,1-1.18-1.19c-.8-4.85-2.67-6.48-3.54-6.67a.59.59,0,0,0-.7.31c-.59.89-.83,3.86,2.52,8.67a1.45,1.45,0,0,1-2,2c-6.2-4.46-11-5.27-13.1-4.09a1.55,1.55,0,0,0-.84,1.62c.22,2.31,3.64,5.73,10.77,8.19a1.45,1.45,0,0,1,.15,2.67c-7.55,3.58-9.4,11.73-9.63,17.94-.27,7.37,1.61,16.24,5.19,24.68,6.5-10.13,7-14.31,8.56-28.85l.23-2.09a1.45,1.45,0,0,1,2.78-.38c2.32,5.81,6.14,9.17,11.61,10.18a14.61,14.61,0,0,1-2.37-8.21,1.48,1.48,0,0,1,.88-1.24,1.44,1.44,0,0,1,1.5.24c13.93,12,29.76,15.7,47,11A1.24,1.24,0,0,1,202.74,72.47Z" transform="translate(-47.66 -1.65)"/><path class="cls-10" d="M202.74,75.35a1.44,1.44,0,0,1-.38-2.83c1.8-.48,3.61-1.06,5.39-1.72a1.44,1.44,0,1,1,1,2.7c-1.86.69-3.76,1.3-5.64,1.8A1.18,1.18,0,0,1,202.74,75.35Z" transform="translate(-47.66 -1.65)"/><g class="cls-3"><path class="cls-10" d="M210.18,96c-7-3.85-7.44-22-7.44-22-16.51,4.49-33.21,1.75-48.36-11.3-.32,5.13,4,9.89,4,9.89a20.08,20.08,0,0,1-5.27-.82c-7.89-13-4.53-16.08,6.82-12.08,31.52,10.17,54.46,11.76,49.9-14.14C220.64,59.28,219.29,83.35,210.18,96Z" transform="translate(-47.66 -1.65)"/></g><g class="cls-12"><path class="cls-13" d="M202.17,57.48c0,2.19-4.27,4-9.55,4s-9.56-1.77-9.56-4,4.28-2.24,9.56-2.24S202.17,55.3,202.17,57.48Z" transform="translate(-47.66 -1.65)"/></g><path class="cls-10" d="M176.13,121.56s-2.07,1.32-7.46,1.32c-1.17.08-4.52-.1-8.75-4a9,9,0,0,0,8.62,5.64A11,11,0,0,0,176.13,121.56Z" transform="translate(-47.66 -1.65)"/><path class="cls-10" d="M145.51,96.52A6.55,6.55,0,0,1,148.38,93a8.51,8.51,0,0,1,4.55-1.24A8.76,8.76,0,0,1,157.44,93a6.9,6.9,0,0,1,2.92,3.48,34.19,34.19,0,0,0-3.91-1.16,17.48,17.48,0,0,0-3.55-.4,16.43,16.43,0,0,0-3.53.34A23.79,23.79,0,0,0,145.51,96.52Z" transform="translate(-47.66 -1.65)"/><path class="cls-10" d="M197.22,96.52a23.79,23.79,0,0,0-3.86-1.22,16.43,16.43,0,0,0-3.53-.34,17.48,17.48,0,0,0-3.55.4,33.61,33.61,0,0,0-3.91,1.16A6.9,6.9,0,0,1,185.29,93a8.76,8.76,0,0,1,4.51-1.29A8.53,8.53,0,0,1,194.35,93,6.55,6.55,0,0,1,197.22,96.52Z" transform="translate(-47.66 -1.65)"/><ellipse class="cls-10" cx="106.72" cy="103.65" rx="4.96" ry="6.54"/><ellipse class="cls-7" cx="107.99" cy="102.14" rx="1.5" ry="2.2"/><path class="cls-10" d="M155.65,106.29c-1,0-1.8-1.1-1.8-2.5s.79-2.5,1.8-2.5,1.8,1.1,1.8,2.5S156.66,106.29,155.65,106.29Zm0-4.4c-.65,0-1.2.87-1.2,1.9s.55,1.9,1.2,1.9,1.2-.87,1.2-1.9S156.3,101.89,155.65,101.89Z" transform="translate(-47.66 -1.65)"/><ellipse class="cls-10" cx="141.02" cy="103.65" rx="4.96" ry="6.54"/><ellipse class="cls-7" cx="139.75" cy="102.14" rx="1.5" ry="2.2"/><path class="cls-10" d="M187.41,106.29c-1,0-1.8-1.1-1.8-2.5s.79-2.5,1.8-2.5,1.8,1.1,1.8,2.5S188.42,106.29,187.41,106.29Zm0-4.4c-.65,0-1.2.87-1.2,1.9s.55,1.9,1.2,1.9,1.2-.87,1.2-1.9S188.06,101.89,187.41,101.89Z" transform="translate(-47.66 -1.65)"/><path class="cls-14" d="M104.3,173.88c-8.19,4.69-16,.41-17.14-6.07a9.79,9.79,0,0,1,.12-4,11.39,11.39,0,0,1,.89-2.48l1.09-2.2a22.47,22.47,0,0,0,2.56-7.54,7.24,7.24,0,0,0-.42-3.27,3.63,3.63,0,0,0-1-1.4,4,4,0,0,0-1.77-.9,3.53,3.53,0,0,0-.86-.07c-1.84.08-3.51,1.74-2.84,5.9.95,5.85-5.41,7.67-7.74,2.66a6.38,6.38,0,0,1-.28-.7l-.09-.26c-1.46-4.66.31-12.74,7.52-14.44.33-.07.67-.14,1-.19a11.65,11.65,0,0,1,1.43-.12,12.1,12.1,0,0,1,2.51.2c5.85,1.15,9.54,6.91,7.69,14.14-1,3.88-5,11.2-3.31,14.74a4.34,4.34,0,0,0,4.15,1.89H98a7,7,0,0,0,4.37-2.08Z" transform="translate(-47.66 -1.65)"/><g class="cls-15"><path class="cls-4" d="M104.3,173.88c-8.19,4.69-16,.41-17.14-6.07,1,3.27,6.34,5.39,10.68,1.94H98a7,7,0,0,0,4.37-2.08Z" transform="translate(-47.66 -1.65)"/></g><path class="cls-14" d="M149,132.37c-1.28,12.78-16.48,14.41-23.64,15.84h-9c-4.63-.93-12.61-1.93-18-6a14.28,14.28,0,0,1-3.39-3.5,12.87,12.87,0,0,1-1.59-3.29,14.09,14.09,0,0,1-.58-2.65c0-.36-.08-.73-.1-1.11a19.71,19.71,0,0,1,.11-3.56,67.35,67.35,0,0,1,2.13-8.57c.39-1.26.82-2.51,1.26-3.64-1.63-7.26-2.3-16.4.16-19.55,1.6-2,5.92,0,12.47,5.62,4.69-2.06,11.1-2.18,12.09-2.17s7.4.11,12.08,2.17c6.55-5.61,10.87-7.67,12.47-5.62,2.46,3.15,1.79,12.29.16,19.55a71.86,71.86,0,0,1,3.39,12.21A19.66,19.66,0,0,1,149,132.37Z" transform="translate(-47.66 -1.65)"/><g class="cls-16"><path class="cls-7" d="M147,104.85c-.08-2.9-.56-5.33-1.61-6.67-1.6-2-5.92,0-12.47,5.63-4.68-2.06-11.1-2.18-12.08-2.18s-7.4.12-12.09,2.18c-6.55-5.62-10.87-7.67-12.47-5.63-1,1.34-1.53,3.77-1.61,6.67-.09-3.7.35-6.88,1.61-8.49,1.6-2,5.92,0,12.47,5.62,4.69-2.06,11.1-2.18,12.09-2.17s7.4.11,12.08,2.17c6.55-5.61,10.87-7.67,12.47-5.62C146.64,98,147.08,101.15,147,104.85Z" transform="translate(-47.66 -1.65)"/></g><path class="cls-7" d="M149,132.37c-1.28,12.78-16.48,14.41-23.64,15.84h-9c-4.63-.93-12.61-1.93-18-6a14.28,14.28,0,0,1-3.39-3.5,12.87,12.87,0,0,1-1.59-3.29,14.09,14.09,0,0,1-.58-2.65c11.07,9.51,19.06,5.24,22.63-2a6.06,6.06,0,0,1,10.54,0C129.51,138.13,137.68,142.42,149,132.37Z" transform="translate(-47.66 -1.65)"/><g class="cls-15"><path class="cls-4" d="M147.74,137c-4,8.57-16.21,10-22.39,11.19h-9c-4.63-.93-12.61-1.93-18-6a14.28,14.28,0,0,1-3.39-3.5,14.12,14.12,0,0,1-1-1.7,18,18,0,0,0,1.88,1.61c4.12,3.08,18.46,4.63,25,4.63S143.52,141.23,147.74,137Z" transform="translate(-47.66 -1.65)"/></g><path class="cls-4" d="M104.31,114.76c-.34-.52,1.87-5.15,6-3.79,1.49.5,1.63,2,.47,2.27a19.92,19.92,0,0,0-3.31.65C106.52,114.24,104.64,115.27,104.31,114.76Z" transform="translate(-47.66 -1.65)"/><path class="cls-4" d="M137.34,114.76c.34-.52-1.86-5.15-6-3.79-1.5.5-1.64,2-.48,2.27a19.92,19.92,0,0,1,3.31.65C135.13,114.24,137,115.27,137.34,114.76Z" transform="translate(-47.66 -1.65)"/><path class="cls-17" d="M102,107.46c-2,2.15-3.29,5.16-3.46,4.8a.67.67,0,0,1-.06-.12,33.12,33.12,0,0,1-1-8.36c0-.57,0-1.06,0-1.5A7.69,7.69,0,0,1,98,99.86a1,1,0,0,1,1.34-.57,22.37,22.37,0,0,1,6.42,4.68C106,104.26,104,105.31,102,107.46Z" transform="translate(-47.66 -1.65)"/><path class="cls-18" d="M102,107.46c-2,2.15-3.29,5.16-3.46,4.8a.67.67,0,0,1-.06-.12,32.65,32.65,0,0,1,2.64-6.16,3.58,3.58,0,0,0-2-5.07c-.53-.2-1.16.67-1.57,1.37A7.69,7.69,0,0,1,98,99.86a1,1,0,0,1,1.34-.57,22.37,22.37,0,0,1,6.42,4.68C106,104.26,104,105.31,102,107.46Z" transform="translate(-47.66 -1.65)"/><path class="cls-4" d="M98.57,113h0a.72.72,0,0,1-.61-.39c-.45-.89-1.14-5.18-1.13-8.8h0a11.46,11.46,0,0,1,.56-4.17,1.66,1.66,0,0,1,2.19-.93,22.66,22.66,0,0,1,6.71,4.89c.17.21.35.66-.25,1.24-.19.18-.46.4-.81.68a23.65,23.65,0,0,0-2.72,2.44,21.41,21.41,0,0,0-2.59,3.65C99.27,112.6,99.05,113,98.57,113Zm.55-1Zm-1-8.18a38.25,38.25,0,0,0,.67,7A21.71,21.71,0,0,1,101.5,107a25.27,25.27,0,0,1,2.87-2.57l.52-.42a23.87,23.87,0,0,0-5.83-4.09.33.33,0,0,0-.47.21,10.15,10.15,0,0,0-.45,3.65Z" transform="translate(-47.66 -1.65)"/><path class="cls-17" d="M139.73,107.46c2,2.15,3.29,5.16,3.46,4.8a.67.67,0,0,0,.06-.12,33.12,33.12,0,0,0,1-8.36c0-.57,0-1.06-.05-1.5a7.69,7.69,0,0,0-.45-2.42,1,1,0,0,0-1.34-.57A22.37,22.37,0,0,0,136,104C135.76,104.26,137.71,105.31,139.73,107.46Z" transform="translate(-47.66 -1.65)"/><path class="cls-18" d="M139.73,107.46c2,2.15,3.29,5.16,3.46,4.8a.67.67,0,0,0,.06-.12,32.65,32.65,0,0,0-2.64-6.16,3.58,3.58,0,0,1,2-5.07c.53-.2,1.16.67,1.57,1.37a7.69,7.69,0,0,0-.45-2.42,1,1,0,0,0-1.34-.57A22.37,22.37,0,0,0,136,104C135.76,104.26,137.71,105.31,139.73,107.46Z" transform="translate(-47.66 -1.65)"/><path class="cls-4" d="M143.15,113c-.48,0-.7-.36-1.32-1.39a20.86,20.86,0,0,0-2.59-3.65,23.65,23.65,0,0,0-2.72-2.44c-.35-.28-.62-.5-.81-.68-.6-.58-.42-1-.25-1.24a22.66,22.66,0,0,1,6.71-4.89,1.66,1.66,0,0,1,2.19.93,11.46,11.46,0,0,1,.56,4.17h0c0,3.62-.68,7.91-1.13,8.8a.72.72,0,0,1-.61.39ZM136.83,104l.53.42a25.33,25.33,0,0,1,2.86,2.57,21.71,21.71,0,0,1,2.69,3.77,38.25,38.25,0,0,0,.67-7h0a10.15,10.15,0,0,0-.45-3.65.33.33,0,0,0-.47-.21A23.87,23.87,0,0,0,136.83,104Z" transform="translate(-47.66 -1.65)"/><path class="cls-4" d="M125.29,147.92c1.94-.52,3.89-.91,5.81-1.37a57,57,0,0,0,5.69-1.6c.46-.16.92-.33,1.37-.52s.89-.38,1.34-.58l.65-.32c.22-.11.44-.22.65-.34l.63-.36c.21-.12.41-.26.61-.39l.31-.19.29-.21.59-.43.55-.46a3.11,3.11,0,0,0,.28-.23l.26-.24a13.67,13.67,0,0,0,1.87-2.16l.39-.6.1-.15.08-.16.17-.31.16-.32.09-.15.07-.17.27-.66.07-.16.06-.17.11-.34c.07-.23.16-.45.21-.68l.16-.7.08-.35.06-.35.1-.72a1,1,0,0,0,0-.17v-.18l0-.36,0-.72c0-.25,0-.49,0-.73v-.72l-.06-.73-.06-.72-.05-.34-.06-.36c-.18-1-.41-1.92-.64-2.88s-.49-1.92-.76-2.87c-.54-1.91-1.14-3.79-1.85-5.62l-.07-.17,0-.19a61.94,61.94,0,0,0,1.29-8.46,40.22,40.22,0,0,0,.13-4.25,18.84,18.84,0,0,0-.51-4.14,6.56,6.56,0,0,0-.74-1.82,1,1,0,0,0-.12-.2l-.07-.09-.07-.09a1.42,1.42,0,0,0-.12-.13l-.07-.06-.07,0a1.37,1.37,0,0,0-.71-.24,2.73,2.73,0,0,0-.89.06,6.71,6.71,0,0,0-1,.26,13.09,13.09,0,0,0-1.86.88,30.79,30.79,0,0,0-3.52,2.35c-1.14.85-2.24,1.76-3.33,2.69l-.31.26-.38-.16a21.78,21.78,0,0,0-2.82-1,29.33,29.33,0,0,0-3-.62c-1-.17-2-.29-3-.38s-2-.14-3-.14-2,.06-3,.15-2,.2-3,.37-2,.36-3,.62a22.32,22.32,0,0,0-2.82,1l-.38.17-.31-.27c-1.09-.93-2.19-1.84-3.33-2.69a33.16,33.16,0,0,0-3.52-2.35,14.32,14.32,0,0,0-1.87-.87,5.54,5.54,0,0,0-.94-.27,3,3,0,0,0-.89-.06,1.53,1.53,0,0,0-.7.24l-.08,0-.06.07a.53.53,0,0,0-.13.13l-.06.08-.07.1c0,.06-.09.12-.13.19a7,7,0,0,0-.73,1.82,18.84,18.84,0,0,0-.51,4.14,40.31,40.31,0,0,0,.13,4.25,62.18,62.18,0,0,0,1.29,8.46l0,.19-.07.17c-.71,1.83-1.31,3.72-1.85,5.62-.27,1-.52,1.91-.76,2.87s-.46,1.93-.64,2.88c0,.24-.08.48-.11.7s0,.48-.07.72c0,.49-.07,1-.07,1.45a16.28,16.28,0,0,0,.2,2.88,12.62,12.62,0,0,0,2.08,5.26,14.34,14.34,0,0,0,4.14,3.92,25.13,25.13,0,0,0,5.26,2.5,52.49,52.49,0,0,0,5.68,1.59l.73.17.72.16,1.45.34c1,.22,2,.45,2.91.73a.3.3,0,0,1,.2.36.29.29,0,0,1-.31.21h0c-2-.21-4-.47-5.93-.86a42.72,42.72,0,0,1-5.84-1.58A26.27,26.27,0,0,1,99,143.44a15.77,15.77,0,0,1-4.49-4.24,13.92,13.92,0,0,1-2.28-5.76,17.68,17.68,0,0,1-.23-3.08c0-.52,0-1,.08-1.54,0-.25,0-.51.07-.76s.08-.53.13-.78c.18-1,.41-2,.65-3s.49-2,.76-2.92a59,59,0,0,1,1.88-5.73l0,.36a64.24,64.24,0,0,1-1.33-8.63A39.9,39.9,0,0,1,94,103a20.33,20.33,0,0,1,.54-4.43,7.92,7.92,0,0,1,.88-2.17,2.33,2.33,0,0,1,.17-.26l.09-.13.1-.13a3,3,0,0,1,.24-.26l.14-.12.15-.1A2.7,2.7,0,0,1,97.65,95a4.76,4.76,0,0,1,1.26.07,8.18,8.18,0,0,1,1.13.32,15.51,15.51,0,0,1,2.06,1,32.92,32.92,0,0,1,3.67,2.44c1.17.87,2.3,1.79,3.4,2.74l-.69-.11a23.28,23.28,0,0,1,3-1c1-.27,2.05-.48,3.08-.65s2.07-.31,3.11-.4,2.08-.15,3.15-.15,2.09.07,3.14.16,2.07.22,3.11.39a30.18,30.18,0,0,1,3.08.66,21.86,21.86,0,0,1,3,1l-.69.1c1.11-.94,2.23-1.86,3.4-2.74a33,33,0,0,1,3.68-2.43,13.74,13.74,0,0,1,2.05-1,7.94,7.94,0,0,1,1.14-.32A4,4,0,0,1,144,95a2.72,2.72,0,0,1,1.31.46l.15.11.13.12a1.54,1.54,0,0,1,.25.26.64.64,0,0,1,.1.13l.09.12c.06.09.12.17.17.26a8,8,0,0,1,.87,2.17,19.8,19.8,0,0,1,.54,4.43,42.55,42.55,0,0,1-.13,4.38,62.7,62.7,0,0,1-1.34,8.63l0-.36c.73,1.89,1.34,3.81,1.88,5.74.27,1,.53,1.93.76,2.91s.46,2,.65,3l.07.38.05.4.07.76.06.77v.77c0,.26,0,.51,0,.77l0,.77,0,.39v.19l0,.19-.11.77-.06.38-.08.38-.18.76c-.06.25-.16.49-.23.74l-.12.37-.07.19-.07.18-.31.72-.08.18s-.06.11-.09.17l-.18.34-.19.35-.09.17c0,.06-.07.11-.1.16l-.43.66a14.21,14.21,0,0,1-2,2.34l-.28.27-.3.25-.6.49-.62.45-.32.22-.32.21-.65.41-.67.38c-.22.13-.45.24-.68.35l-.69.34c-.46.21-.92.42-1.4.6s-1,.37-1.42.54c-1,.33-1.92.63-2.9.88-.49.14-1,.25-1.47.37l-1.47.31c-2,.38-4,.65-5.93.89h0a.29.29,0,0,1-.32-.25A.29.29,0,0,1,125.29,147.92Z" transform="translate(-47.66 -1.65)"/><path class="cls-19" d="M125.72,132.8s0,3-2.67,2.83a2.4,2.4,0,0,1-2.31-1.8,2.4,2.4,0,0,1-2.31,1.8c-2.68.15-2.68-2.83-2.68-2.83l5-3.87h0Z" transform="translate(-47.66 -1.65)"/><path class="cls-7" d="M125.7,132.82s-.87,2.27-2.9,1.74c-2.31-.6-2-3.36-2-3.36h-.08s.27,2.76-2,3.35c-2,.52-2.9-1.75-2.9-1.75a5,5,0,1,1,10,0Z" transform="translate(-47.66 -1.65)"/><path class="cls-19" d="M125.44,133.32a2.34,2.34,0,0,1-2.64,1.24c-2.31-.6-2-3.36-2-3.36h-.08s.27,2.76-2,3.35a2.36,2.36,0,0,1-2.64-1.24,3.88,3.88,0,0,0,1.28-.12,4.37,4.37,0,0,0,3.37-4.72h.14a4.37,4.37,0,0,0,3.35,4.74A3.64,3.64,0,0,0,125.44,133.32Z" transform="translate(-47.66 -1.65)"/><path class="cls-4" d="M116.07,132.68c.07.11.15.25.24.37s.19.23.29.34a2.22,2.22,0,0,0,.64.52,1.75,1.75,0,0,0,.73.21,2.53,2.53,0,0,0,.38,0l.19,0,.2-.07a2.06,2.06,0,0,0,1.18-1,3.21,3.21,0,0,0,.3-.82,3.26,3.26,0,0,0,.09-.45,3.42,3.42,0,0,0,0-.44v0a.34.34,0,0,1,.67,0,3.62,3.62,0,0,1,0,.55c0,.18,0,.37,0,.55a3.83,3.83,0,0,1-.28,1.08,2.84,2.84,0,0,1-1.68,1.59l-.28.1c-.09,0-.2,0-.29.06a3.12,3.12,0,0,1-.61,0,2.5,2.5,0,0,1-1.17-.39,2.91,2.91,0,0,1-.82-.82,3.77,3.77,0,0,1-.28-.48,4,4,0,0,1-.2-.52.34.34,0,0,1,.61-.27Z" transform="translate(-47.66 -1.65)"/><path class="cls-4" d="M126,132.94a4,4,0,0,1-.2.52,3.77,3.77,0,0,1-.28.48,3.05,3.05,0,0,1-.83.81,2.36,2.36,0,0,1-1.16.39,3,3,0,0,1-.61,0l-.3-.06-.27-.1a2.88,2.88,0,0,1-1.68-1.6,3.8,3.8,0,0,1-.27-1.08,3.41,3.41,0,0,1,0-.55,3.62,3.62,0,0,1,0-.55.33.33,0,0,1,.39-.27.32.32,0,0,1,.27.31v0a3.75,3.75,0,0,0,0,.45,3.11,3.11,0,0,0,.08.44,3.31,3.31,0,0,0,.3.82,2.07,2.07,0,0,0,1.18,1l.19.07.2,0a1.64,1.64,0,0,0,.38,0,1.71,1.71,0,0,0,.72-.21,2.26,2.26,0,0,0,.65-.51,3.37,3.37,0,0,0,.29-.35,3.9,3.9,0,0,0,.25-.36l0,0a.33.33,0,0,1,.46-.11A.34.34,0,0,1,126,132.94Z" transform="translate(-47.66 -1.65)"/><path class="cls-4" d="M123.51,129.77c0,.65-.85,1.22-1.63,1.61a2.8,2.8,0,0,1-2.55,0c-.77-.4-1.62-1-1.62-1.63C117.71,127.79,123.52,127.8,123.51,129.77Z" transform="translate(-47.66 -1.65)"/><g class="cls-16"><path class="cls-7" d="M121.76,129.38c0,.18-.33.35-.64.46a1.46,1.46,0,0,1-1,0c-.31-.11-.65-.28-.65-.47C119.46,128.81,121.76,128.81,121.76,129.38Z" transform="translate(-47.66 -1.65)"/></g><path class="cls-4" d="M96.09,131.4a3.07,3.07,0,0,0-.36-.2l-.37-.19-.39-.17c-.13-.06-.25-.12-.39-.17-.52-.22-1-.42-1.58-.59a21,21,0,0,0-3.29-.8c-.28-.05-.56-.07-.84-.11l-.43,0c-.14,0-.28,0-.42,0l-.85-.06h-.85c-.57,0-1.13,0-1.7.06h-.21l-.22,0-.42,0-.85.08h0a.31.31,0,0,1-.33-.27.31.31,0,0,1,.24-.32l.87-.15.43-.08.22,0,.22,0,.88-.09.44,0h.44l.88,0,.89,0,.44,0,.44.05a8.81,8.81,0,0,1,.88.11l.87.14.87.2c.29.06.57.16.85.24s.57.18.84.28a12.47,12.47,0,0,1,3.16,1.63.3.3,0,0,1,.07.42.31.31,0,0,1-.39.08Z" transform="translate(-47.66 -1.65)"/><path class="cls-4" d="M96.84,135.81c-.48-.06-1-.1-1.48-.12s-1,0-1.5,0a18.22,18.22,0,0,0-3,.3,13.74,13.74,0,0,0-1.44.35c-.24.07-.47.16-.7.24l-.68.28a10.86,10.86,0,0,0-2.51,1.56h0a.3.3,0,0,1-.42,0,.29.29,0,0,1,0-.39,9.73,9.73,0,0,1,2.56-1.85,11.63,11.63,0,0,1,1.47-.6,11.5,11.5,0,0,1,1.53-.41,14.3,14.3,0,0,1,3.13-.28,13.13,13.13,0,0,1,3.11.4.3.3,0,0,1,.21.36.29.29,0,0,1-.32.22Z" transform="translate(-47.66 -1.65)"/><path class="cls-4" d="M145.22,130.91a12.47,12.47,0,0,1,3.16-1.63c.27-.1.55-.2.84-.28s.56-.18.85-.24l.87-.2.87-.14a8.81,8.81,0,0,1,.88-.11l.44-.05.44,0,.89,0,.88,0h.44l.44,0,.88.09.22,0,.22,0,.43.08.87.15a.3.3,0,0,1,.23.35.3.3,0,0,1-.32.24h0l-.85-.08-.42,0-.22,0H157c-.57,0-1.13-.08-1.7-.06h-.85l-.85.06c-.14,0-.28,0-.42,0l-.43,0c-.28,0-.56.06-.84.11a21,21,0,0,0-3.29.8c-.54.17-1.06.37-1.58.59-.14.05-.26.11-.39.17l-.39.17-.37.19a3.07,3.07,0,0,0-.36.2h0a.3.3,0,0,1-.32-.5Z" transform="translate(-47.66 -1.65)"/><path class="cls-4" d="M144.68,135.23a13.13,13.13,0,0,1,3.11-.4,14.3,14.3,0,0,1,3.13.28,11.5,11.5,0,0,1,1.53.41,11.63,11.63,0,0,1,1.47.6,9.73,9.73,0,0,1,2.56,1.85.31.31,0,0,1,0,.42.32.32,0,0,1-.4,0h0a10.86,10.86,0,0,0-2.51-1.56l-.68-.28c-.23-.08-.46-.17-.7-.24a13.74,13.74,0,0,0-1.44-.35,18.22,18.22,0,0,0-3-.3c-.5,0-1,0-1.5,0s-1,.06-1.48.12h0a.3.3,0,0,1-.33-.26A.31.31,0,0,1,144.68,135.23Z" transform="translate(-47.66 -1.65)"/><g class="cls-15"><path class="cls-4" d="M94,149.61c-.35,4.35-3.35,8-4.7,9.5a22.47,22.47,0,0,0,2.56-7.54,7.24,7.24,0,0,0-.42-3.27,3.63,3.63,0,0,0-1-1.4,3.79,3.79,0,0,0-2.63-1c-1.84.08-3.51,1.74-2.84,5.9.95,5.85-5.41,7.67-7.74,2.66a6.38,6.38,0,0,1-.28-.7c1.17.88,4.11,2.4,5.73.59,2.29-2.55-.83-6.79,2.18-9.92C87.11,142.07,94.43,144,94,149.61Z" transform="translate(-47.66 -1.65)"/></g><path class="cls-20" d="M89.37,143.87c-.06.06-.8-.13-.78-.05a5.09,5.09,0,0,1,0,2.18h0l-.16,0-.15,0h-.23a1.6,1.6,0,0,0-.31,0c-1.84.08-3.51,1.74-2.84,5.9.95,5.85-5.41,7.67-7.74,2.66a6.38,6.38,0,0,1-.28-.7c1.17.88,4.11,2.4,5.73.59,2.29-2.55-.83-6.8,2.18-9.93,1-1,2.79-1.24,4.56-.79A.24.24,0,0,1,89.37,143.87Z" transform="translate(-47.66 -1.65)"/><path class="cls-7" d="M88.63,146a3.53,3.53,0,0,0-.86-.07c-1.84.08-3.51,1.74-2.84,5.9.95,5.85-5.41,7.67-7.74,2.66a6.38,6.38,0,0,1-.28-.7l-.09-.26c-1.46-4.66.31-12.74,7.52-14.44.33-.07.67-.14,1-.19a11.65,11.65,0,0,1,1.43-.12,5.58,5.58,0,0,1,2,2.67c0,.15-.71-.14-.65,0,.2.53,1.47,2.14,1.23,2.4-.06.06-.8-.13-.78-.05A5.09,5.09,0,0,1,88.63,146Z" transform="translate(-47.66 -1.65)"/><g class="cls-15"><path class="cls-4" d="M89.37,143.87c-.06.06-.8-.13-.78-.05a5.09,5.09,0,0,1,0,2.18h0l-.16,0-.15,0h-.23a1.6,1.6,0,0,0-.31,0c-1.84.08-3.51,1.74-2.84,5.9.95,5.85-5.41,7.67-7.74,2.66a6.38,6.38,0,0,1-.28-.7c1.17.88,4.11,2.4,5.73.59,2.29-2.55-.83-6.8,2.18-9.93,1-1,2.79-1.24,4.56-.79A.24.24,0,0,1,89.37,143.87Z" transform="translate(-47.66 -1.65)"/></g><path class="cls-4" d="M97.31,176.44a11.05,11.05,0,0,1-7.67-2.94,10.42,10.42,0,0,1-2-12.45c.14-.27.27-.55.41-.83,2-4.09,4.12-8.33,2.8-11.71a3.21,3.21,0,0,0-3.59-1.91c-1.55.42-2.2,2.34-1.75,5.14.55,3.37-1.15,5.48-3.08,6.07s-4.41-.14-5.77-3.07-1.15-7.57.69-11a10.33,10.33,0,0,1,7.93-5.47,11,11,0,0,1,10,3.37c2.61,2.91,3.45,7.13,2.31,11.58a39.4,39.4,0,0,1-1.41,4.07c-1.35,3.55-3,8-1.94,10.26a3.32,3.32,0,0,0,2.43,1.49,6.07,6.07,0,0,0,5.3-1.84.59.59,0,0,1,.82.85,7.22,7.22,0,0,1-6.32,2.15,4.44,4.44,0,0,1-3.29-2.14c-1.32-2.75.39-7.23,1.9-11.19.56-1.47,1.09-2.86,1.37-3.94,1-4.06.29-7.89-2.05-10.51a9.87,9.87,0,0,0-8.93-3,9.16,9.16,0,0,0-7.06,4.86,11.81,11.81,0,0,0-.66,9.89c1.06,2.29,3,2.87,4.35,2.44s2.73-1.9,2.27-4.75c-.83-5.12,1.78-6.24,2.6-6.47a4.39,4.39,0,0,1,5,2.62c1.51,3.87-.7,8.34-2.84,12.66l-.41.83a9.15,9.15,0,0,0,1.74,11.07c3.42,3.21,8.75,3.49,13.56.73a.59.59,0,0,1,.59,1A14.8,14.8,0,0,1,97.31,176.44Z" transform="translate(-47.66 -1.65)"/><g class="cls-16"><path class="cls-7" d="M143,168.67a3.14,3.14,0,0,0-2.87-2c-1.07.13-.54.79.28,1C141.68,168.07,143.18,169.42,143,168.67Z" transform="translate(-47.66 -1.65)"/></g><path class="cls-14" d="M105.81,161c-9.4-.18-11.83-6.41-12.08-11.6a20.2,20.2,0,0,1,.38-5l11-1.73a5.78,5.78,0,0,0,.47,1.08c2,3.7,7.36,5.8,7.36,5.8S118.75,161.23,105.81,161Z" transform="translate(-47.66 -1.65)"/><g class="cls-15"><path class="cls-4" d="M105.81,161c-7.89-.15-10.87-4.57-11.78-9.06,1.75,2.6,4.82,4.54,10,4.64,7.7.14,8.75-4,8.34-7.3l.54.23S118.75,161.23,105.81,161Z" transform="translate(-47.66 -1.65)"/></g><path class="cls-7" d="M105.56,143.69a10.33,10.33,0,0,1-4.56,4.57,11.2,11.2,0,0,1-7.27,1.12,20.2,20.2,0,0,1,.38-5l11-1.73c.09.26.19.51.3.76C105.45,143.47,105.5,143.58,105.56,143.69Z" transform="translate(-47.66 -1.65)"/><g class="cls-15"><path class="cls-4" d="M105.56,143.69a10.33,10.33,0,0,1-4.56,4.57h0c-1.31.59-3.42.58-4-.66-.46-1,5.64-3.25,8.42-4.23C105.45,143.47,105.5,143.58,105.56,143.69Z" transform="translate(-47.66 -1.65)"/></g><path class="cls-4" d="M106.21,161.58h-.41c-4.46-.08-7.81-1.5-10-4.21-3.78-4.74-2.57-11.78-2.29-13.14a.59.59,0,0,1,1.16.23c-.27,1.28-1.4,7.84,2,12.17,1.94,2.43,5,3.7,9.09,3.77,3.56.07,5.94-.79,7-2.55,1.67-2.64.14-6.65-.35-7.78a8.78,8.78,0,0,1-8-7.33A.58.58,0,0,1,105,142a.59.59,0,0,1,.7.45,7.54,7.54,0,0,0,7.25,6.41h.37l.16.33c.11.23,2.73,5.6.43,9.24C112.57,160.53,110,161.58,106.21,161.58Z" transform="translate(-47.66 -1.65)"/><path class="cls-7" d="M106.62,143.89c-1.19.9-3,.94-4.25-1.28.33,1.21.17,5-4.86,5H97l-3.26.49c-.23-8.93,5.87-12.16,11-9.45a5.3,5.3,0,0,1,2.14,2.59C107.29,142.29,107.33,143.36,106.62,143.89Z" transform="translate(-47.66 -1.65)"/><g class="cls-15"><path class="cls-4" d="M106.62,143.89c-1.19.9-3,.94-4.25-1.28.33,1.21.17,5-4.86,5a7.54,7.54,0,0,0,3.44-2.8c.7-1.17.78-2.39,1-2.51.45-.27,4.39,1.39,4.92-1.07C107.29,142.29,107.33,143.36,106.62,143.89Z" transform="translate(-47.66 -1.65)"/></g><path class="cls-4" d="M104.22,143.7l.33.12a1.73,1.73,0,0,0,.68,0,2.16,2.16,0,0,0,.68-.22l.16-.09.16-.1,0,0,0,0,0,0a.87.87,0,0,0,.08-.1,1.08,1.08,0,0,0,.16-.55,2.77,2.77,0,0,0-.09-.74,4.86,4.86,0,0,0-.69-1.48,4.64,4.64,0,0,0-1.11-1.18l-.16-.1-.17-.09-.38-.19-.4-.16-.4-.14a6.92,6.92,0,0,0-1.67-.31,5.85,5.85,0,0,0-3.23.7,6.64,6.64,0,0,0-2.43,2.31,9.93,9.93,0,0,0-1.26,3.22,15.27,15.27,0,0,0-.29,3.52h0a.6.6,0,0,1-.58.6.58.58,0,0,1-.6-.58h0a16.83,16.83,0,0,1,.32-3.8,10.92,10.92,0,0,1,1.42-3.6A7.75,7.75,0,0,1,97.71,138a7.19,7.19,0,0,1,3.88-.84,8,8,0,0,1,1.94.37l.47.16.46.19.44.21.23.13.23.14a5.73,5.73,0,0,1,1.42,1.49,6.3,6.3,0,0,1,.85,1.84,3.83,3.83,0,0,1,.13,1.09,2.17,2.17,0,0,1-.38,1.18c-.06.09-.14.17-.21.26l-.13.11-.06.05-.06,0-.22.16-.24.13a3.27,3.27,0,0,1-1.07.34" transform="translate(-47.66 -1.65)"/><path class="cls-14" d="M137.25,174.73c1.82-4.59.41-12.65-.82-21.25H104.87c-1.23,8.6-2.63,16.66-.82,21.25" transform="translate(-47.66 -1.65)"/><g class="cls-15"><path class="cls-4" d="M137.05,174.73c1.81-4.59.4-12.65-.83-21.25H104.66c-1.22,8.6-2.63,16.66-.82,21.25" transform="translate(-47.66 -1.65)"/></g><path class="cls-4" d="M137,174.62a20.34,20.34,0,0,0,.56-5.17l0-1.32c0-.44,0-.88-.06-1.32s-.06-.88-.11-1.32l-.12-1.32c-.19-1.76-.43-3.53-.67-5.3l-.36-2.65c-.11-.88-.23-1.77-.34-2.66h0l.58.51H104.87l.59-.51h0c-.11.89-.23,1.77-.35,2.66l-.36,2.65c-.24,1.77-.49,3.54-.67,5.3a52.14,52.14,0,0,0-.33,5.28,19.08,19.08,0,0,0,.57,5.17v0a.29.29,0,0,1-.21.36.28.28,0,0,1-.34-.16l-.28-.64-.13-.33-.1-.33c-.06-.22-.13-.44-.19-.66l-.14-.68-.07-.34-.05-.34-.09-.68c0-.46-.07-.91-.1-1.37s0-.91,0-1.36,0-.91,0-1.36,0-.91.08-1.36.06-.9.1-1.34c.17-1.8.4-3.58.65-5.35.13-.89.26-1.78.4-2.66s.27-1.77.42-2.65h0l.07-.5h32.58l.07.5h0c.15.88.29,1.77.43,2.65s.27,1.77.4,2.66c.25,1.77.48,3.55.64,5.35l.11,1.34c0,.45,0,.91.08,1.36s0,.9,0,1.36,0,.91,0,1.36-.05.91-.1,1.37l-.09.68-.05.34-.07.34c0,.23-.09.45-.14.68s-.13.44-.2.67l-.1.33c0,.11-.09.21-.13.32l-.28.64a.3.3,0,0,1-.39.14.29.29,0,0,1-.17-.34Z" transform="translate(-47.66 -1.65)"/><path class="cls-14" d="M136.56,148.52s13.83,16.91-.87,19.24Z" transform="translate(-47.66 -1.65)"/><path class="cls-4" d="M135.07,168.46l1-21.5,1,1.19c.33.4,7.89,9.74,5.61,15.74-.91,2.38-3.21,3.88-6.83,4.45Zm2-18.27-.75,16.86c2.76-.57,4.51-1.78,5.2-3.58C143.1,159.31,139,152.91,137.07,150.19Z" transform="translate(-47.66 -1.65)"/><g class="cls-8"><path class="cls-7" d="M139.08,151.65v.12a5.3,5.3,0,0,0-5.26-4.62h-2.44a1.61,1.61,0,0,0-1.62,1.62v3h-4.82v-3a1.62,1.62,0,0,0-1.62-1.62h-9.86a1.67,1.67,0,0,0-1.67,1.67v3h-2.62v-3a1.67,1.67,0,0,0-1.67-1.67h0a5.3,5.3,0,0,0-5.26,4.62v-.14a5.29,5.29,0,0,1,5.27-5.83h26.32A5.29,5.29,0,0,1,139.08,151.65Z" transform="translate(-47.66 -1.65)"/></g><g class="cls-15"><path class="cls-4" d="M137.91,159.72l-1.35,7.78-.55,3.16L134.92,177a5.88,5.88,0,0,1-5.78,4.87H112.19A5.88,5.88,0,0,1,106.4,177l-1.63-9.43c2.09,4.42,6.52,9.34,15.88,9.35h0c7.09,0,11.36-2.83,13.91-6.13-3.07-.06-4.95-2.21-4.11-8.26C130.94,159,136.32,159.5,137.91,159.72Z" transform="translate(-47.66 -1.65)"/></g><g class="cls-8"><path class="cls-7" d="M138.72,155l-.26,1.55-32.36,18.6-.42-2.41,33.06-19.24A4,4,0,0,1,138.72,155Z" transform="translate(-47.66 -1.65)"/></g><path class="cls-7" d="M139.23,165.19a4.56,4.56,0,0,1-3.54,2.57c-3.71.43-5.82-1.67-4.47-6.94a4.57,4.57,0,0,1,2.58-3,11.45,11.45,0,0,1,4.58-1A8.06,8.06,0,0,1,139.23,165.19Z" transform="translate(-47.66 -1.65)"/><g class="cls-15"><path class="cls-4" d="M139.23,165.19a4.56,4.56,0,0,1-3.54,2.57c-3.71.43-5.82-1.67-4.47-6.94a4.57,4.57,0,0,1,2.58-3c-.77,1.81-1.52,4.59-.31,6.87C134.57,166.78,137.43,166.65,139.23,165.19Z" transform="translate(-47.66 -1.65)"/></g><path class="cls-4" d="M138.37,157.43a9.86,9.86,0,0,0-4.89,1.32,3.91,3.91,0,0,0-1.51,1.77c0,.09-.07.18-.09.27a1.84,1.84,0,0,0-.08.3c-.06.21-.11.42-.15.64a9.19,9.19,0,0,0-.19,1.28,5.38,5.38,0,0,0,.25,2.42,2.59,2.59,0,0,0,.59.94,2.54,2.54,0,0,0,.94.59,5.5,5.5,0,0,0,2.42.26l.63-.11.65-.14.65-.15.31-.09.27-.08,0,0a.48.48,0,0,1,.61.27.47.47,0,0,1-.22.59,3.52,3.52,0,0,1-.38.16l-.34.12-.68.2-.67.18c-.24,0-.46.11-.72.15a7.27,7.27,0,0,1-1.48.08,5,5,0,0,1-1.51-.29,3.78,3.78,0,0,1-2.24-2.21,6.8,6.8,0,0,1-.35-3,11.19,11.19,0,0,1,.21-1.43c0-.23.09-.47.15-.7s.06-.24.1-.36.09-.25.13-.37a5,5,0,0,1,.83-1.34,5.79,5.79,0,0,1,1.16-1,8.54,8.54,0,0,1,2.72-1.11,11.62,11.62,0,0,1,1.41-.26q.36,0,.72-.06c.24,0,.47,0,.73,0a.59.59,0,0,1,.59.59.6.6,0,0,1-.57.59Z" transform="translate(-47.66 -1.65)"/><path class="cls-4" d="M134.46,161a5.5,5.5,0,0,0-1,.27,4.51,4.51,0,0,0-.94.44,2.82,2.82,0,0,0-.73.63,2.06,2.06,0,0,0-.23.37,2,2,0,0,0-.13.41h0a.6.6,0,0,1-.71.45.59.59,0,0,1-.45-.7.24.24,0,0,0,0-.08,3.07,3.07,0,0,1,.31-.63,3.13,3.13,0,0,1,.43-.52,3.88,3.88,0,0,1,1.08-.71,4.82,4.82,0,0,1,1.15-.37,5.77,5.77,0,0,1,1.18-.15.3.3,0,0,1,.31.29.31.31,0,0,1-.25.3Z" transform="translate(-47.66 -1.65)"/><path class="cls-4" d="M134.86,166a5.31,5.31,0,0,1-1.17.25,4.25,4.25,0,0,1-1.23,0,2.94,2.94,0,0,1-2.13-1.48h0a.59.59,0,0,1,.22-.81.58.58,0,0,1,.8.22.21.21,0,0,1,0,.06,1.89,1.89,0,0,0,.49.72,2.21,2.21,0,0,0,.8.44,3.54,3.54,0,0,0,1,.16,4.39,4.39,0,0,0,1-.07h0a.3.3,0,0,1,.35.24A.29.29,0,0,1,134.86,166Z" transform="translate(-47.66 -1.65)"/><path class="cls-4" d="M105.2,155.12l.54,3a2,2,0,0,0,2,1.69h0a2,2,0,0,0,2-2.39l-.52-3a2.05,2.05,0,0,0-2-1.7h0A2,2,0,0,0,105.2,155.12Z" transform="translate(-47.66 -1.65)"/><path class="cls-4" d="M107.75,160.43a2.62,2.62,0,0,1-2.59-2.17l-.54-3h0a2.64,2.64,0,0,1,2.6-3.09h0a2.63,2.63,0,0,1,2.6,2.19l.52,3a2.62,2.62,0,0,1-2.6,3.08Zm-2-5.41.54,3a1.44,1.44,0,0,0,1.43,1.2,1.46,1.46,0,0,0,1.12-.51,1.5,1.5,0,0,0,.32-1.19l-.52-3a1.46,1.46,0,0,0-1.44-1.21h0a1.46,1.46,0,0,0-1.44,1.71Z" transform="translate(-47.66 -1.65)"/><circle class="cls-4" cx="59.51" cy="152.88" r="1.14"/><circle class="cls-4" cx="59.51" cy="152.88" r="0.31"/><path class="cls-21" d="M107.17,156a1.43,1.43,0,1,1,1.43-1.43A1.43,1.43,0,0,1,107.17,156Zm0-2.27a.84.84,0,1,0,.84.84A.84.84,0,0,0,107.17,153.7Z" transform="translate(-47.66 -1.65)"/><circle class="cls-4" cx="60.1" cy="156.2" r="1.14"/><path class="cls-21" d="M107.76,159.28a1.43,1.43,0,1,1,1.43-1.43A1.43,1.43,0,0,1,107.76,159.28Zm0-2.27a.84.84,0,1,0,.84.84A.85.85,0,0,0,107.76,157Z" transform="translate(-47.66 -1.65)"/><ellipse class="cls-4" cx="109.15" cy="127.06" rx="5.42" ry="3.99" transform="translate(-73.22 224.96) rotate(-85.8)"/><ellipse class="cls-7" cx="110.59" cy="126.14" rx="2.15" ry="1.34" transform="translate(-70.98 225.54) rotate(-85.8)"/><ellipse class="cls-4" cx="132.07" cy="127.06" rx="3.99" ry="5.42" transform="translate(-56.61 8.36) rotate(-4.2)"/><ellipse class="cls-7" cx="130.63" cy="126.14" rx="1.34" ry="2.15" transform="translate(-56.55 8.26) rotate(-4.2)"/><g class="cls-22"><polygon class="cls-23" points="182.33 223.63 67.1 223.64 27.63 75.83 221.42 77.51 182.33 223.63"/></g><path class="cls-24" d="M243.51,221.73a16.32,16.32,0,0,1-16,13.08H117.25a16.34,16.34,0,0,1-16-13.08Z" transform="translate(-47.66 -1.65)"/><path class="cls-4" d="M227.51,235.11H117.25A16.68,16.68,0,0,1,101,221.79l-.08-.36h143l-.08.36a16.61,16.61,0,0,1-16.29,13.32ZM101.61,222a16.09,16.09,0,0,0,15.64,12.48H227.51A16,16,0,0,0,243.14,222Z" transform="translate(-47.66 -1.65)"/><path class="cls-4" d="M227.51,236.61H117.25a18.19,18.19,0,0,1-17.77-14.53,1.8,1.8,0,0,1,1.76-2.15H243.51a1.78,1.78,0,0,1,1.39.66,1.8,1.8,0,0,1,.37,1.5A18.17,18.17,0,0,1,227.51,236.61ZM103.62,223.53A14.58,14.58,0,0,0,117.25,233H227.51a14.59,14.59,0,0,0,13.62-9.48Z" transform="translate(-47.66 -1.65)"/><g class="cls-3"><path class="cls-4" d="M243.51,221.73a16.32,16.32,0,0,1-16,13.08h-68.2c11.2-.53,21.14-3.62,29.69-9.52a27.69,27.69,0,0,1,1.89-3.56Z" transform="translate(-47.66 -1.65)"/></g><path class="cls-24" d="M243.47,152.59l-5.76,65.62a7.75,7.75,0,0,1-7.72,7.08H114.76a7.75,7.75,0,0,1-7.72-7.08l-5.75-65.62a11,11,0,0,1,11-12H232.48a11,11,0,0,1,11,12Z" transform="translate(-47.66 -1.65)"/><path class="cls-4" d="M230,225.59H114.76a8,8,0,0,1-8-7.35L101,152.61a11.33,11.33,0,0,1,11.28-12.32H232.48a11.35,11.35,0,0,1,11.29,12.32h0L238,218.24A8,8,0,0,1,230,225.59Zm-117.72-84.7a10.72,10.72,0,0,0-10.68,11.67l5.75,65.63a7.41,7.41,0,0,0,7.42,6.8H230a7.41,7.41,0,0,0,7.42-6.8l5.76-65.63a10.74,10.74,0,0,0-10.69-11.67Z" transform="translate(-47.66 -1.65)"/><g class="cls-25"><path class="cls-7" d="M241.63,145.46a10.84,10.84,0,0,0-4.64-1H116.78a11,11,0,0,0-11,12l5.75,65.63a7.64,7.64,0,0,0,.82,2.85,7.74,7.74,0,0,1-5.33-6.7l-5.75-65.62a11,11,0,0,1,11-12H232.48A11,11,0,0,1,241.63,145.46Z" transform="translate(-47.66 -1.65)"/></g><path class="cls-4" d="M230,227.09H114.76a9.51,9.51,0,0,1-9.51-8.72L99.5,152.74a12.81,12.81,0,0,1,12.77-13.94H232.48a12.82,12.82,0,0,1,12.78,13.94l-5.76,65.63A9.49,9.49,0,0,1,230,227.09Zm-117.72-84.7a9.24,9.24,0,0,0-9.19,10l5.75,65.63a5.92,5.92,0,0,0,5.93,5.43H230a5.92,5.92,0,0,0,5.93-5.43l5.76-65.63a9.24,9.24,0,0,0-9.2-10Z" transform="translate(-47.66 -1.65)"/><g class="cls-3"><path class="cls-4" d="M243.47,152.59l-5.76,65.62a7.75,7.75,0,0,1-7.72,7.08H126.05c64-5,103.53-30.87,112.17-83.08h0A11,11,0,0,1,243.47,152.59Z" transform="translate(-47.66 -1.65)"/></g><g id="Layer_2_copy" data-name="Layer 2 copy"><path class="cls-7" d="M107.08,142.27a7.6,7.6,0,0,1-3.18,5.32c-2.41,1.53-6.14,1.6-7.11-.05s1.26-4.75,3-6.15c1-.78,2.7-2.24,4.66-1.66A4.54,4.54,0,0,1,107.08,142.27Z" transform="translate(-47.66 -1.65)"/></g><g id="Layer_2" data-name="Layer 2"><path class="cls-26" d="M106.45,140.47a5.14,5.14,0,0,1,.53,2.84,6.06,6.06,0,0,1-3.08,4.28c-3.21,1.88-6.8.11-7.11-.05" transform="translate(-47.66 -1.65)"/></g></svg>