<?xml version="1.0" encoding="UTF-8"?>
<svg id="Layer_1" data-name="Layer 1" xmlns="http://www.w3.org/2000/svg" viewBox="0 0 248.58 246.26">
  <defs>
    <style>
      .cls-1 {
        fill: #151414;
      }

      .cls-1, .cls-2, .cls-3 {
        stroke-width: 0px;
      }

      .cls-2 {
        fill: #fcfcfc;
      }

      .cls-3 {
        fill: #ec2131;
      }
    </style>
  </defs>
  <g>
    <path class="cls-3" d="m116.43,174.43c8.59-1.74,15.68-1.04,18.92.95,2.45,1.5,3.33,2.77,3.33,2.77,1.46,2.1,1.05,3.82,2.71,4.81.45.27,1.49.7,2.67.58.4-.04.81-.15,1.23-.33.81-.36,1.64-.54,2.47-.35,2.8.65,5.2-1.46,7.94-1.1.04,0,.09-.07.14-.07,1.05-.03,1.94-.83,3.04-.6,3.88.81,7.75,1.68,11.71.44.29-.09.65-.12.93-.03,1.04.35,1.98.23,2.85-.42.42-.32.86-.3,1.35-.2.91.19,1.73.08,2.54-.51.58-.43,1.37-.68,2.11-.55,1.55.27,2.64-.63,3.38-1.65.95-1.31,1.76-.85,2.63-.19.67.51,1.22,1.48,2.04,1.39,2.14-.23,3.93.87,5.91,1.21.81.14,1.6.11,2.34-.2,1.11-.47,2.05-.43,3.13.25.82.52,1.88.72,2.9.37,1.98-.7,4.26,0,6.12-1.31.14-.1.46-.11.61-.02,1.64.95,3.3-.02,4.95.05,1.54.06,2.75-.63,3.34-2.18.21-.54.52-1.18,1.21-1.06,2.12.38,4.16-.38,6.25-.33,3.11.06,4.01.91,4.25,4.07.06.79.03,1.59.01,2.38-.02.55.07,1.04.43,1.48.98,1.22,1.17,2.69,1.2,4.18.04,1.53-.45,3.18,1.23,4.25.21.14.25.57.36.86.67,1.81.77,3.71.84,5.61.02.43-.05.87.3,1.17,1.35,1.17,1.43,2.77,1.44,4.36,0,1.43-.09,2.85-.11,4.28,0,.46-.12.99.39,1.29,1.59.94,1.75,2.51,1.86,4.12.03.41-.07.86.28,1.2,1.44,1.37,1.48,3.21,1.59,4.97.08,1.31-.05,2.55.94,3.69.53.61.78,1.7.73,2.54-.19,2.88,2.35,5.06,1.94,7.97-.02.12.13.29.24.4,2.01,1.93,1.35,4.73,2.14,7.06.44,1.3.17,2.94,1.08,4.24H2.22c.06-2.54.63-5.03,1.28-7.42,1.03-3.8,2.1-7.58,3.09-11.39.26-1.01.19-1.76,1.94-2.01,7.75-1.12,15.54-1.51,23.33-1.88,9.51-.45,19.02-.03,28.52.47,1.97.11,4.29-.09,5.81,1.11,1.83,1.44,3.68,1.51,5.64,1.29,7.03-.81,14.06-1.57,21.13-2.06,1.38-.1,2.89-.05,3.76.82,1.34,1.35,2.53,1.18,3.98.53.48-.21,1.01-.3,1.53-.41,7.21-1.67,14.54-1.9,21.89-1.7,4.19.11,8.33.68,12.35,1.81,1.56.44,3.28.74,4.38,2.31.6.85,1.87,1.3,2.65.45,2.28-2.48,5.38-2.79,8.33-3.35,5.71-1.09,11.48-.54,17.21-.07,1.4.12,2.95.22,4.07,1.16,1.44,1.21,2.73.94,4.22.2,1.94-.96,4.21-1.58,6.11-.63,2.36,1.17,4.06,1.08,6.54-.02,4.27-1.9,9.01-2.52,13.76-2.32.36.02.83-.04,1.07.16,1.42,1.2,2.97.87,4.52.47,1.22-.32,2.39-.42,3.52.28.75.46,1.56.39,2.26-.05,2.51-1.53,5.28-1.3,8.01-1.24,1.06.02,1.97.39,2.23,1.62.14.69.76,1.39,1.27,1.21,1.53-.54,3.27.04,4.67-.9.94-.63,1.68-.91,2.57.18.74.91,2.4.58,2.61-.37.21-1-1.51-3.47-2.58-3.57-.89-.08-1.84-.15-2.68.09-1.75.5-3.44,1.15-4.88-.61-.11-.13-.4-.12-.6-.19-2.79-.97-5.69-.85-8.47-.32-3.49.66-6.97.45-10.43.36-5.55-.14-10.95.42-16.32,1.74-1.52.37-3.1,1.34-4.61.82-3.45-1.19-6.76-.7-10.11.21-.56.15-1.13.25-1.72.16-2.93-.42-5.85-.9-8.78-1.22-7.53-.82-14.99-.65-22.25,1.83-.79.27-1.51.26-2.31.02-2.02-.6-4.05-1.17-6.11-1.63-6.45-1.45-13.02-1.2-19.57-1.32-6.8-.12-13.49,1.64-20.34.81-3.93-.48-7.9.45-11.86.58-4.01.13-8.01.88-12.02.36-4.67-.61-9.36-.81-14.05-.99-4.01-.15-8.04,0-12.05-.22-6.51-.34-13-.09-19.48.36-5.95.42-12,.42-17.86,2.61.4-1.51.81-2.81,1.1-4.14.76-3.48,1.41-6.98,2.23-10.45.31-1.32.9-2.59,1.46-3.84,1.59-3.6,1.54-7.57,2.62-11.31.99-3.41,2.27-6.77,2.78-10.32.29-2.02,1.81-3.67,1.6-5.88-.07-.72.56-1.56,1.35-2.37.26-.26,1.11-1.08,2.91-1.57,3.03-.82,4.1.57,7.2-.16,1.5-.35,1.28-.69,2.88-1.11,2.76-.73,5.02-.16,6.39.08,4.07.71,4.7-.71,10.24-.88,6.75-.21,6.67,1.88,14.08,1.92,4.09.02,4.72-.61,10.09-.62,3.68,0,6.7.28,8.71.53"/>
    <path class="cls-1" d="m233.87,220.91c-.89-.08-1.84-.15-2.68.09-1.75.5-3.44,1.15-4.88-.61-.11-.13-.4-.12-.6-.19-2.79-.97-5.69-.85-8.47-.32-3.49.66-6.97.45-10.43.36-5.55-.14-10.95.42-16.32,1.74-1.52.37-3.1,1.34-4.61.82-3.45-1.19-6.76-.7-10.11.21-.56.15-1.13.25-1.72.16-2.93-.42-5.85-.9-8.78-1.22-7.53-.82-14.99-.65-22.25,1.83-.79.27-1.51.26-2.31.02-2.02-.6-4.05-1.17-6.11-1.63-6.45-1.45-13.02-1.2-19.57-1.32-6.8-.12-13.49,1.64-20.34.81-3.93-.48-7.9.45-11.86.58-4.01.13-8.01.88-12.02.36-4.67-.61-9.36-.81-14.05-.99-4.01-.15-8.04,0-12.05-.22-6.51-.34-13-.09-19.48.36-5.95.42-12,.42-17.86,2.61.4-1.51.81-2.81,1.1-4.14.76-3.48,1.41-6.98,2.23-10.45.31-1.32.9-2.59,1.46-3.84,1.59-3.6,1.54-7.57,2.62-11.31.99-3.41,2.27-6.77,2.78-10.32.29-2.02,1.81-3.67,1.6-5.88-.09-.89.39-2.01,1.35-2.37,2.31-.88,4.75-.9,7.15-.48.95.17,1.84.37,2.79.07.47-.15.95-.22,1.42-.24-.18-1.05-.31-2.1-.4-3.15-.83.05-1.67.15-2.51.24-2.43.23-4.92-.16-7.32.66-.44.15-.81-.05-1.21-.18-2.09-.68-2.9-.04-3.06,2.19-.22,3.06-.82,6.12-1.89,8.93-1,2.63-1.24,5.42-2.43,7.99-1.27,2.74-.9,6-2.48,8.7-.12.21-.11.52-.1.77.11,2.98-.93,5.69-1.96,8.4-.31.83-.86,1.59-.9,2.51-.16,3.87-1.64,7.46-2.27,11.24-.33,2-1.04,3.92-1.43,5.94-.45,2.33-.78,4.78-1.71,6.98-1.3,3.1-1.42,6.41-2.18,9.6h2.22c.06-2.54.63-5.03,1.28-7.42,1.03-3.79,2.1-7.58,3.09-11.39.26-1.01.19-1.76,1.94-2.01,7.75-1.12,15.54-1.51,23.33-1.88,9.51-.45,19.02-.03,28.52.47,1.97.11,4.29-.09,5.81,1.11,1.83,1.44,3.68,1.51,5.64,1.29,7.03-.81,14.06-1.57,21.13-2.06,1.38-.1,2.89-.05,3.76.82,1.34,1.35,2.53,1.18,3.98.53.48-.21,1.01-.3,1.53-.41,7.21-1.67,14.54-1.9,21.89-1.7,4.19.11,8.33.68,12.35,1.81,1.56.44,3.28.74,4.38,2.31.6.85,1.87,1.3,2.65.45,2.28-2.48,5.38-2.79,8.33-3.35,5.71-1.09,11.48-.54,17.21-.07,1.4.12,2.95.22,4.07,1.16,1.44,1.21,2.73.94,4.22.2,1.94-.96,4.21-1.58,6.11-.63,2.36,1.17,4.06,1.08,6.54-.02,4.27-1.9,9.01-2.52,13.76-2.32.36.02.83-.04,1.07.16,1.42,1.2,2.97.87,4.52.47,1.22-.32,2.39-.42,3.52.28.75.46,1.56.39,2.26-.05,2.51-1.53,5.28-1.3,8.01-1.24,1.06.02,1.97.39,2.23,1.62.14.69.76,1.39,1.27,1.21,1.53-.54,3.27.04,4.67-.9.94-.63,1.68-.91,2.57.18.74.91,2.4.58,2.61-.37.21-1-1.51-3.47-2.58-3.57Z"/>
    <path class="cls-1" d="m247.62,240.27c-.54-2.34-1.31-4.63-1.93-6.94-.87-3.25-1.84-6.51-2.94-9.72-.31-.91-.02-2.09-.46-2.9-1.05-1.89-1.07-3.93-1.3-5.96-.07-.62.12-1.34-.47-1.77-.81-.58-1.1-1.44-1.21-2.32-.34-2.69-2.23-5.02-1.76-7.92.11-.69-.03-1.45.06-2.19.15-1.21-.02-2.34-1.24-2.99-.46-.24-.8-.59-.79-1.09.04-1.91-.84-3.71-.68-5.64.06-.69-.18-1.33-.71-1.68-.84-.56-.9-1.33-.9-2.2,0-1.54.09-3.23-.74-4.48-1.29-1.95-1.32-4.2-2-6.27-.71-2.18-1.12-2.61-3.37-2.83-2.86-.28-5.58.93-8.46.58-1.03-.12-1.26-.33-1.48-1.25-.81-3.34-2.57-4.76-6-5.04-2.72-.22-5.36.41-8.03.67-3.97.38-7.9.08-11.78-.79-.66-.15-1.45-.42-.93-1.2,1.01-1.52,1.3-3.3,1.99-4.92,1.22-2.84,1.84-5.88,2.39-8.94.43-2.42-.14-4.87.44-7.21.8-3.16.34-6.35.59-9.51.05-.57,0-1.18-.15-1.73-.58-2.03-.82-4.22-.82-6.21,0-3.14-1.04-5.94-1.67-8.88-.07-.3-.16-.62-.3-.89-1.51-2.85-2.91-5.74-3.37-8.98-.09-.61-.2-1.46-.61-1.75-1.75-1.23-2.24-3.24-3.32-4.88-.17-.26-.36-.56-.62-.71-1.75-1.02-2.48-2.93-3.55-4.44-1.25-1.78-2.9-3.44-3.21-5.89-.11-.87-.66-1.65-.21-2.62.37-.83.19-1.68-.8-1.86-.79-.15-1.06-.73-1.55-1.17-1.05-.95-.6-2.3-1.03-3.41-.98-2.53-1.3-5.2-1.07-7.87.32-3.67,1.9-7.06,2.61-10.66.18-.94.68-.85,1.35-.34,1.81,1.36,4.26.15,6.12,1.45.11.07.4-.08.59-.17.41-.19.79-.24,1.19.03.69.47,1.39.23,2.13.07,1.4-.31,2.8-.62,4.21-.88,1.29-.24,2.74-.36,3.88-1.02,1.05-.61,1.72-1.81,3.08-2.08.4-.08.79-.67.72-1.14-.15-1.02.33-1.57,1.15-2.01.37-.2.6-.58.59-1.05-.03-1.62,1.79-2.84.99-4.65-.06-.13.23-.45.4-.65.41-.47.45-1.01.51-1.61.15-1.65.31-3.31.64-4.93.55-2.71.52-5.5-.45-7.97-1.42-3.61-1.22-7.65-3.32-11.08-.78-1.27-.98-2.86-2.58-3.55-.6-.26-.83-.88-1.07-1.5-1.22-3.13-3.95-5.2-5.7-7.96-.1-.17-.31-.32-.5-.37-1.3-.39-2.1-1.4-2.82-2.43-.63-.92-1.4-1.53-2.51-1.73-1.39-.25-2.55-.84-3.37-2.08-.4-.61-1.12-.85-1.85-1.11-1.8-.64-3.83-.78-5.33-2.2-.35-.34-.88-.33-1.36-.32-1.59.05-3.12.06-4.45-1.09-.43-.37-1.16-.42-1.82-.36-3.3.31-6.47-1.08-9.77-.76-.1,0-.2-.05-.31-.07-2.23-.36-4.49.3-6.73-.22-.53-.12-.91.47-1.34.76-1.11.75-2.39.6-3.21-.15-.88-.8-1.41-.47-2.01.04-.79.67-1.58,1.02-2.57.48-.25-.14-.51-.18-.75-.02-1.46.95-3.1,1.38-4.7,1.98-1.8.68-3.98,1.05-5.29,2.84-.28.38-.91.5-1.37.75-1.89,1-3.74,2.04-4.64,4.17-.24.57-.64,1.15-1.12,1.51-1.52,1.12-2.55,2.29-2.74,4.41-.15,1.6-1.43,2.99-1.28,4.92.08,1.09-.98,2.16.32,3.31.57.51-.04,1.52-.23,2.27-.15.62-.47,1.23-.23,1.85.64,1.64-.26,3.02-.74,4.45-.19.56-.38,1.38-1.02,1.53-2.4.54-2.46,2.79-3.37,4.41-.29.52-.14,1.1.41,1.35.67.31.93-.3,1.17-.76.31-.61.57-1.24.87-1.86.14-.29.32-.57.72-.48.31.07.78.23.73.5-.23,1.27.37,2.66-.52,3.83-1.2,1.58-2.38,3.17-2.81,5.18-.07.32-.39.62-.65.87-1.5,1.43-3,2.82-3.67,4.9-.42,1.31-1.07,2.58-2.83,2.44-.53-.04-.86.23-.93.66-.31,1.83-1.93,3.11-2.02,5.05-.03.67-.59,1.21-1.03,1.75-.9,1.1-1.78,2.22-2.65,3.34-.33.42-.69.86-.45,1.43.38.92.11,1.78-.27,2.59-.99,2.1-.97,4.39-1.25,6.62-.12.93-.63,1.91-.12,2.79.76,1.33.43,2.67.27,4.01-.2,1.63-.08,3.4.4,4.76.64,1.84.99,3.62,1.04,5.51.03,1.27-.2,2.58,1.36,3.23.25.11.45.62.48.96.18,2.22,2.48,3.21,2.98,5.24.03.13.2.27.34.31,1.92.59.89,1.69.33,2.51-2.4,3.51-1.34,8.67,2.29,10.75.29.17.68.28.91.08,1.2-1.05,3.1,1.35,4.05-.83.13.08.29.12.4.23.52.52.98.19,1.41-.12.47-.34.85-.98,1.34-1.06,2.5-.45,3.09-2.2,3.29-4.35.04-.44.18-1.32.8-1.14,1.44.42,2.88.04,4.19-.16,2.13-.33,4.54.36,6.37-1.04,2.18-1.66,4.84-1.94,7.26-2.81,2.24-.81,4.26-1.87,6.01-3.35,3.29-2.79,6.58-5.56,10.42-7.59.98-.52,2.08-1.46,3.01.37.31.62.77,1.33,1.33,1.89.66.65.58,1.25-.23,1.82-.58.41-1.37.91-1.01,1.76.34.81,1.14.09,1.71.26.07.02.11.14.21.28-1.55,1.55-2.84,3.32-4.09,5.15-2.34,3.44-4.65,6.92-7.76,9.78-.82.76-1.48,1.78-1.96,2.8-1.37,2.89-2.14,3.23-5.02,1.88-.19-.09-.36-.25-.56-.29-2.03-.35-3.99-1.59-6.12-.81-1.66.61-3.13.58-4.55-.53-.92-.73-1.91-.82-2.94-.18-.55.34-1.06.52-1.77.3-2.62-.81-3.51-.45-5.15,1.79-.44.59-.89,1.21-1.47,1.65-2.16,1.64-1,4.12-1.59,6.16-.32,1.13,1.25.61,1.7,1.21.03.04.1.07.11.11.51,2.18,2.32,1.56,3.67,1.52.93-.03.88.19.68.81-.22.65-.4,1.33-.75,1.9-.41.68-.39,1.23,0,1.9.39.68.54,1.47.59,2.27.05.78.57,1.44,1.33,1.21,1.25-.37,2.37-.71,3.52.22.18.14.69-.18,1.04-.2,1.79-.1,3.62-1.58,5.4.28.32.33.76.61,1.01,1.05.63,1.14,1.65,1.4,2.7.85.84-.44,1.59-.32,2.55-.18-1.06,2.04-1.62,4.21-2.86,6.15-1.48,2.33-1.79,5.16-2.51,7.79-.24.87-.68,1.65-1.12,2.34.16,1.43.25,2.86.16,4.24.66.15,1.35.21,2.06.13-1.12,1.09-1.47,2.07-1.59,2.75-.49,2.74,2.05,4.63,1.62,8.25-.07.55-.18.99-.26,1.25.03.18.07.35.09.53.99,1.67,1.75,3.46,2.42,5.3.03.02.07.04.09.07.78,1.4,2.23,1.61,3.54,2.21,1.39.64,2.58.83,3.91.25.81-.36,1.64-.54,2.47-.35,2.8.65,5.2-1.46,7.94-1.1.04,0,.09-.07.14-.07,1.05-.03,1.94-.83,3.04-.6,3.88.81,7.75,1.68,11.71.44.29-.09.65-.12.93-.03,1.04.35,1.98.23,2.85-.42.42-.32.86-.3,1.35-.2.91.19,1.73.08,2.54-.51.58-.43,1.37-.68,2.11-.55,1.55.27,2.64-.63,3.38-1.65.95-1.31,1.76-.85,2.63-.19.67.51,1.22,1.48,2.04,1.39,2.14-.23,3.93.87,5.91,1.21.81.14,1.6.11,2.34-.2,1.11-.47,2.05-.43,3.13.25.82.52,1.89.72,2.9.37,1.98-.7,4.26,0,6.12-1.31.14-.1.46-.11.61-.02,1.64.95,3.3-.02,4.95.05,1.54.06,2.75-.63,3.34-2.18.21-.54.52-1.18,1.21-1.06,2.12.38,4.16-.38,6.25-.33,3.11.06,4.01.91,4.25,4.07.06.79.03,1.59.01,2.38-.02.55.07,1.04.42,1.48.98,1.22,1.17,2.69,1.2,4.18.04,1.53-.45,3.18,1.23,4.25.21.14.25.57.36.86.67,1.81.77,3.71.84,5.61.02.43-.05.87.3,1.17,1.35,1.17,1.43,2.77,1.44,4.36,0,1.43-.09,2.85-.11,4.28,0,.46-.12.99.39,1.29,1.59.94,1.75,2.51,1.86,4.11.03.41-.07.86.28,1.2,1.44,1.37,1.48,3.21,1.59,4.97.08,1.31-.05,2.55.94,3.69.53.61.78,1.7.73,2.54-.19,2.88,2.35,5.06,1.94,7.97-.02.12.13.29.24.4,2.01,1.93,1.35,4.73,2.14,7.06.44,1.3.17,2.94,1.08,4.24h2.22c.27-2.09-.45-3.99-.91-5.99Zm-55.04-100.38c0,.29.03.68-.42.7-.37.02-.62-.28-.67-.57-.19-1.06-.49-2.16.54-3.19.88.98.57,2.04.55,3.05Zm-1.11-10.4c-.37,1.39.04,2.26.21,3.17-.99-.77-1.04-1.7-.21-3.17Zm-2.4-3.32c.09.13.26.25.26.38.03,2.51-.52,4.97-.76,7.46-.04.46-.15,1.31-.72,1.22-.77-.13-.23-.89-.19-1.33.11-1.3.43-2.58.53-3.87.11-1.3.73-2.48.87-3.85Zm-76.98-17.49c-1.18.53-1,1.88-1.65,2.75-.55.74-.6,1.68.72,2.37-2.7.51-3.77-1.15-4.7-2.63-.82-1.29-.15-2.63.87-3.67.5-.51.49-1.58,1.64-1.4,1.41.21,2.22,1.28,3.23,2.07.19.15.09.43-.11.52Zm47.52-16.98c.2-.19.1-.61-.2-.84-.56-.44-3.55-.3-4.21.04-2.03,1.06-4.05,2.13-6.02,3.31-1.41.85-3.01,1.47-4.11,2.73-1.37,1.56-3.14,2.62-4.7,3.95-1.56,1.33-3.65,1.23-5.47,1.84-1.53.51-3.22.81-4.5,1.71-1.68,1.18-3.54,1.01-5.29,1.12-2.81.19-5.56-.8-8.32-1.17-3.77-.51-6.66-2.54-9.16-4.71-2.37-2.06-4.71-4.83-4.56-8.56.06-2.69-.98-5.24-.99-7.92,0-2.35-.15-4.7-.1-7.04.12-5.41,2.69-10.05,4.86-14.8,1.04-2.27,3.14-3.8,4.52-5.81,1.55-2.27,3.92-3.83,5.19-6.27,1.81-3.47,4.26-6.66,4.83-10.69.11-.81.36-1.5,1.19-1.91.64-.32.96-1.2.52-1.62-1.52-1.42-.62-3.17-.74-4.71-.16-2.01-.28-4.06.28-6.12.24-.9-.2-2.07-.23-3.15-.06-2,.93-3.51,1.53-5.21.19-.52.56-.86.97-1.21.8-.68,1.75-1.31,2.28-2.17,2.15-3.53,5.71-5.12,9.14-6.92.6-.32,1.23-.6,1.86-.86,1.37-.57,2.57-1.15,4.29-.8,2.57.52,5.33.86,7.84-.61.09-.05.23-.12.29-.09,2.06,1.18,4.3.12,6.48.54,2.76.53,5.68.99,8.55.45.83-.16,1.36.18,1.84.64,1.32,1.27,2.85,1.77,4.62,1.35.56-.13.92.03,1.28.35,1.11.98,2.51,1.37,3.89,1.6.9.16,1.44.42,1.8,1.24.75,1.73,2.17,2.55,3.99,2.62.95.03,1.5.46,1.78,1.26.36,1.01.94,1.71,2.01,1.96,1.7.39,2.2,1.79,2.67,3.21.22.66.36,1.44,1.07,1.67,1.77.57,2.09,2.06,2.43,3.55.19.84.57,1.58,1.41,1.75,1.76.36,2.04,1.68,2.09,3.07.03.77.14,1.31.84,1.7.25.14.57.47.57.71,0,2.49,1.63,4.56,1.71,7.1.04,1.28.32,2.74.74,3.99.54,1.59.65,3.1-.17,4.39-1.13,1.79-.7,3.62-.6,5.43.07,1.24.04,2.31-1.02,3.1-.78.58-1.02,1.52-1.3,2.31-.69,1.96-2.48,2.34-4.01,2.87-2.86.99-5.93.8-8.87.46-3.22-.38-6.6-.73-9.01-3.41-.07-.08-.17-.19-.25-.18-2.68.29-3.56-2.52-5.63-3.29-.26-.1-.55-.4-.63-.67-.63-2.08-2.34-3.52-3.19-5.46-.08-.19-.17-.42-.32-.54-1.6-1.34-2.44-3.02-2.58-5.11-.03-.4-.49-.79-.79-1.16-.16-.2-.57-.39-.55-.54.28-2.12-1.08-3.88-1.24-5.89-.04-.52.19-1.14-.52-1.28-.73-.14-.9.46-1.14,1.04-1.11,2.72.05,5.41.22,8.08.07,1.03,1.79,1.85,1.67,3.32-.12,1.48.22,2.49,1.75,3.2.87.4,1.04,1.76,1.38,2.76.23.69.38,1.36,1.26,1.67.82.28.96,1.19,1.16,1.95.26,1,.49,1.93,1.88,1.92.74,0,1.22.72,1.45,1.34.54,1.5,1.66,1.88,3.09,1.98,1.49.11,1.85.82,1.58,2.35-.19,1.08-.94,1.93-1.12,2.93-.41,2.25-1.43,4.31-1.62,6.69-.17,2.1-.76,4.26-.48,6.34.28,2.07-.43,4.33.97,6.24.42.58.21,1.34.33,2.01.07.36.07.73.16,1.07.15.56,1.37.58.98,1.19-.45.7-1.28,1.37-2.07,1.59-3.17.88-5.52,3.03-8.03,4.93-.79.59-1.23.78-1.61-.26-.23-.63-.72-1.02-1.23-1.41-.74-.57-1.93-1-.67-2.22Zm12.71,1.38c-1.15,1.09-1.74,2.54-3.58,2.01-.84-.24-1.09.61-1.58,1.05-.67.59-.97,1.77-2.13,1.63-.67-.08-.45-.61.8-1.64.2-.17.42-.32.63-.48,1.48-1.14,2.8-2.59,4.87-2.65.24,0,.48.04.99.09Zm-17.64,17.29c1.34-1.6,2.38-3.45,3.56-5.18.24-.34.48-.7.8-.97.35-.3.76-.66,1.27-.32.58.39.05.79,0,1.21-.17,1.57-1.01,3.03-.68,4.68.13.67-.22,1.22-.56,1.76-.55.85-1.61,1.43-1.42,2.68.01.09-.18.28-.31.33-2.73,1.01-4.16,3.66-6.49,5.16-1.1.71-2.14,1.65-3.74.68,2.23-3.58,4.89-6.8,7.58-10.01Zm-31.53,18.29c-1.14.23-1.9.54-3.06-.34-1.09-.83-.95-1.61-.87-2.55.18-2.2,2.9-4.3,5.05-3.95.97.16,1.9.01,2.76-.43.58-.29,1.03-.37,1.53.2.51.57.06.88-.13,1.36-.62,1.63-1.8,3.22-.54,5.18-1.82-1.04-3.24.23-4.75.53Zm9.16,5.41c-.41.67-.95,1.28-.49,2.17.1.2-.18.44-.48.52-.86.22-1.72.46-2.34.62-1.43-.02-2.45-.65-3.65-.67-.77-.01-.62-1.22-.84-1.87-.55-1.58,1.49-4.55,2.92-4.06,1.68.57,3.56,1.09,4.84,2.54.19.21.19.51.05.74Zm5.64,16.54c.13-1.06,0-2.21.97-2.99.27-.22.53-.64.9-.37.35.26.14.67-.1.96-.62.76-1.2,1.54-1.77,2.4Zm50.92,11.92c0,1.16-.25,2.12-1.18,2.95-.85.75-.78,2.04-1.35,2.99-.05.08-.07.25-.03.3,1.89,2.08-1.01,3.26-1.01,5.11,0,1.42-2.52,2.34-4.27,2.29-2.44-.08-4.75.79-7.13,1.14-3.09.46-6.17,1.17-9.31.79-2.05-.25-4.09-.4-6.14-.39-.7,0-1.38.11-2,.42-.99.5-1.98.68-3.06.34-.34-.1-.77-.13-1.1-.02-2.35.83-4.79.88-7.23,1.16-2.67.3-4.04-.78-4.84-3.33-.9-2.87-.85-5.68-.63-8.58.12-1.5.62-2.81,1.19-4.19.61-1.48.59-3.19,1.08-4.73,1.41-4.5,2.14-9.23,4.55-13.4.48-.83.9-1.26,2.04-1.21,2.29.09,4.47.98,6.8.74.7-.07,1.54.11,1.71-.69.17-.79-.68-1.24-1.29-1.37-1.92-.4-3.87-.66-5.81-.94-.4-.06-.88.14-1.11-.35-.19-.41.15-.68.33-.98,1.22-2.08,2.36-4.21,3.69-6.22,1.41-2.14,5.39-1.7,6.43.68.31.71.55,1.3,1.42,1.06.86-.24,1.76-.52,1.93-1.61.14-.87-.32-1.29-1.06-1.7-1.85-1.01-3.64-2.11-5.93-1.71-.04-.14-.07-.28-.11-.42,1.7-1.54,3.33-3.16,5.12-4.58,1.54-1.22,5.73-.7,6.94.55.63.65.16,1.47.6,2.05,1.24,1.62,1.67,3.65,1.98,5.49.32,1.85,1.27,3.72.64,5.75-.29.93-.11,1.96-.08,2.95.05,1.47-.46,2.96-.77,4.43-.55,2.63-1.7,5.05-2.54,7.58-.21.64-.52,1.34-1.02,1.53-2.1.79-1.61,2.77-2,4.26-.28,1.09,1.44,1.95,2.71,1.33,1.01-.5,1.89-1.04,3.02-.41.16.09.46.07.62-.02,1.07-.64,1.85-.63,2.92.32.8.72,2.05-.05,2.79-.79.87-.88,1.58-1.33,2.63-.28.31.31.85.4,1.31.53.85.25,1.69.06,1.98-.78.3-.88.2-1.87-.32-2.71-.08-.12-.5-.21-.56-.15-1.07,1.3-1.77.05-2.61-.33-1.11-.51-2.04-.29-2.71.82-.48.79-.89,1.21-1.67.09-.72-1.04-1.81-1.5-2.91-.28-.52.57-1.05.21-1.58-.03-.66-.3-.41-.74-.19-1.18.28-.54.3-1.09.15-1.68-.14-.57-.19-1.36.25-1.66,1.35-.93.85-2.41,1.31-3.55.82-2.02.58-4.3,1.71-6.2.12-.21.23-.56.15-.74-.7-1.51-.64-2.95.3-4.34.05-.08.1-.25.06-.3-1.26-1.53-.25-3.54-1.07-5.13-.38-.74-.08-1.05.42-1.42.93-.69,1.59-1.54,1.63-2.76,0-.1,0-.24.06-.31,1.76-1.88,1.54-4.73,3.28-6.64,1.44-1.58.44-3.68.95-5.48.11-.4-.43-.93-.96-.84-.74.14-1.04.73-1.19,1.48-.48,2.3-.91,4.65-2.24,6.64-.9,1.34-1.6,2.76-2.31,4.19-.2.4-.49.91-1.06.81-.62-.11-.54-.73-.59-1.15-.47-4.49-3.67-5.76-6.96-5.29-.95.14-1.89.05-2.84-.03-1.68-.14-3.22.2-4.18,1.82-.68,1.15-1.66,1.9-2.81,2.65-1.2.78-2.31,1.97-2.92,3.41-.39.93-.82,1.83-1.55,2.55-1.36,1.35-2.59,2.74-3.1,4.68-.14.54-.36,1.25-1.2,1.3-.79.04-1.02-.5-1.39-1.05-.41-.63-.8-1.2-.91-1.97-.11-.72-.75-1.05-1.37-1.14-.59-.08-.92.42-1.12.94-.15.39-.38.77-.43,1.17-.15,1.15-.73,1.61-1.91,1.6-1.18,0-1.64-.63-2.02-1.6-.87-2.18-.55-3.94,1.44-5.35.81-.57.77-1.56.19-2.23-.55-.63-1.36-.96-2.23-.24-1.16.96-3.17.7-3.71-.03-.68-.94-.25-3.33.79-4.12,2.6-1.98,5.88-1.65,8.07.83.55.62,4.02,1.32,4.56.75,2.06-2.13,4.86-3.09,7.25-4.7,1.94-1.3,3.58-2.94,5.47-4.29,1.57-1.13,3.15-2.26,4.66-3.47,2.08-1.67,4.24-3.29,5.99-5.31.79-.92,1.16-2.21,1.69-3.34.19-.41-.07-.73-.4-.92-.54-.32-.83.13-.97.49-.53,1.38-1.68,2.29-2.51,3.44-.83,1.15-2.03,1.81-3.21,2.51-.24.14-.55.39-.85.11-.25-.24-.05-.48.04-.71.25-.66.2-1.33.16-2.02-.04-.98-.05-1.87.99-2.61.91-.65,1.26-1.75.33-2.9-.91-1.13-.56-1.99.86-2.44.82-.26,1.51-.64,2.18-1.22,1.02-.88,2.09-1.72,3.47-2.1,1.59-.43,2.39-2.01,3.68-2.91,1.4-.98,1.73-.94,2.01.73.22,1.33.11,2.79,1.96,3.06.12.02.29.22.3.34.19,2.16,2.19,3.33,2.83,5.24.22.66.67,1.18,1.29,1.28,1.48.24,1.79,1.27,1.91,2.49.08.81.31,1.44,1.09,1.95,1.27.84,1.28,2.33,1.4,3.67.07.81.19,1.42.77,2.11,1.21,1.42,1.14,3.28.82,4.98-.72,3.86-1.28,7.73-1.58,11.64-.13,1.68-.37,3.33-.83,4.95-.18.62-.39,1.28.64,1.41.55.07.52.59.6.99.25,1.24.49,2.48.3,3.75-.05.36-.23.89.08,1.05,1.72.9,1.45,2.52,1.55,4.02.03.42.02.88.65.86,1.71-.05,2.85,1.47,2.36,3.35-.38,1.48-.75,2.94-.84,4.48-.07,1.23-1.04,2.14-1.5,3.25-.42,1-.73,1.95-.74,2.99Zm25.99,13.09c-.26.75-.91,1.03-1.64.92-.64-.1-1.31.11-1.87-.02-2.62-.62-5.14.38-7.58.75-2.97.45-5.76-.65-8.71-.04-1.75.37-3.62-1.07-5.64-1.12,1.69-.34,2.09-2.07,3.37-2.73.64-.33.18-1.03-.11-1.54-.56-.97-.14-1.26.8-1.12,4.77.74,9.43-.03,14.07-1.04,1.5-.33,3.06-.29,4.52.12,1.95.55,3.47,3.85,2.79,5.8Z"/>
    <path class="cls-2" d="m103.07,91.14c.06-2.69-.98-5.24-.99-7.92,0-2.35-.15-4.7-.1-7.04.12-5.41,2.69-10.05,4.86-14.8,1.04-2.27,3.14-3.8,4.52-5.81,1.55-2.27,3.92-3.83,5.19-6.27,1.81-3.47,4.26-6.66,4.83-10.69.11-.81.36-1.5,1.19-1.91.64-.32.96-1.2.52-1.62-1.52-1.42-.62-3.17-.74-4.71-.16-2.01-.28-4.06.28-6.12.24-.9-.2-2.07-.23-3.15-.06-2,.93-3.51,1.53-5.21.19-.52.56-.86.97-1.21.8-.68,1.75-1.31,2.28-2.17,2.15-3.53,5.71-5.12,9.14-6.92.6-.32,1.23-.6,1.86-.86,1.37-.57,2.57-1.15,4.29-.8,2.57.52,5.33.86,7.84-.61.09-.05.23-.12.29-.09,2.06,1.18,4.3.12,6.48.54,2.76.53,5.68.99,8.55.45.83-.16,1.36.18,1.84.64,1.32,1.27,2.85,1.77,4.62,1.35.56-.13.92.03,1.28.35,1.11.98,2.51,1.37,3.89,1.6.9.16,1.44.42,1.8,1.24.75,1.73,2.17,2.55,3.99,2.62.95.03,1.5.46,1.78,1.26.36,1.01.94,1.71,2.01,1.96,1.7.39,2.2,1.79,2.67,3.21.22.66.36,1.44,1.07,1.67,1.77.57,2.09,2.06,2.43,3.55.19.84.57,1.58,1.41,1.75,1.76.36,2.04,1.68,2.09,3.07.03.77.14,1.31.84,1.7.25.14.57.47.57.71,0,2.49,1.63,4.56,1.71,7.1.04,1.28.32,2.74.74,3.99.54,1.59.65,3.1-.17,4.39-1.13,1.79-.7,3.62-.6,5.43.07,1.24.04,2.31-1.02,3.1-.78.58-1.02,1.52-1.3,2.31-.69,1.96-2.48,2.34-4.01,2.87-2.86.99-5.93.8-8.87.46-3.22-.38-6.6-.73-9.01-3.41-.07-.08-.17-.19-.25-.18-2.68.29-3.56-2.52-5.63-3.29-.26-.1-.55-.4-.63-.67-.63-2.08-2.34-3.52-3.19-5.46-.08-.19-.17-.42-.32-.54-1.6-1.34-2.44-3.02-2.58-5.11-.03-.4-.49-.79-.79-1.16-.16-.2-.57-.39-.55-.54.28-2.12-1.08-3.88-1.24-5.89-.04-.52.19-1.14-.52-1.28-.73-.14-.9.46-1.14,1.04-1.11,2.72.05,5.41.22,8.08.07,1.03,1.79,1.85,1.67,3.32-.12,1.48.22,2.49,1.75,3.2.87.4,1.04,1.76,1.38,2.76.23.69.38,1.36,1.26,1.67.82.28.96,1.19,1.16,1.95.26,1,.49,1.93,1.88,1.92.74,0,1.22.72,1.45,1.34.54,1.5,1.66,1.88,3.09,1.98,1.49.11,1.85.82,1.58,2.35-.19,1.08-.94,1.93-1.12,2.93-.41,2.25-1.43,4.31-1.62,6.69-.17,2.1-.76,4.26-.48,6.34.28,2.07-.43,4.33.97,6.24.42.58.21,1.34.33,2.01.07.36.07.73.16,1.07.15.56,1.37.58.98,1.19-.45.7-1.28,1.37-2.07,1.59-3.17.88-5.52,3.03-8.03,4.93-.79.59-1.23.78-1.61-.26-.23-.63-.72-1.02-1.23-1.41-.74-.57-1.93-1-.67-2.22.2-.19.1-.61-.2-.84-.56-.44-3.55-.3-4.21.04-2.03,1.06-4.05,2.13-6.02,3.31-1.41.85-3.01,1.47-4.11,2.73-1.37,1.56-3.14,2.62-4.7,3.95-1.56,1.33-3.65,1.23-5.47,1.84-1.53.51-3.22.81-4.5,1.71-1.68,1.18-3.54,1.01-5.29,1.12-2.81.19-5.56-.8-8.32-1.17-3.77-.51-6.66-2.54-9.16-4.71-2.37-2.06-4.71-4.83-4.56-8.56ZM170.04,22.05c-1.18.74-1.76.34-1.74-.98.01-.89-.19-1.76-.22-2.64-.04-1.13-.22-2.42-1.14-3.35-.37-.38-1.06-.92-1.32-.45-.57,1-1.83,1.19-2.23,2.46-.56,1.81-1.03,3.64-1.65,5.42-.96,2.79-.44,5.21,1.27,7.44.87,1.14.96,2.34.58,3.55-.27.85-.04,1.47.55,1.78,2.31,1.21,1.99,3.55,2.4,5.51.21.99-.13,2.03,1.4,2.09.38.01.48.53.56.88.35,1.58.83,3.15.98,4.76.12,1.3.62,1.95,1.83,2.42.77.3,1.69.04,2.35.75,1.34,1.43,3.18,2.28,4.39,3.89.46.61,1.46.98,2.16.81,1.78-.41,3.35.11,5.06.37,2.03.3,4.35,1.02,6.35-.49.19-.15.38.04.56.16.99.64,1.37-.03,1.82-.77.29-.49.18-1.36,1.11-1.33,1.1.04,1.16-.73,1.08-1.51-.18-1.93.21-3.79.73-5.62.41-1.45.88-2.86-.74-3.94-.22-.15-.25-.56-.39-.85-.97-2.03-1.1-4.2-.78-6.35.29-1.95-.7-3.34-2.03-4.12-2.17-1.28-3.14-3.18-3.77-5.38-.69-2.4-2.14-4.44-2.96-6.78-.28-.81-1.12-1.7-1.91-1.31-1.29.65-1.38-.21-1.74-.92-1.37-2.7-3.23-4.56-6.6-3.84-.33.07-.69.06-.9-.18-1.66-2-4.18-1.4-6.26-2.12-.63-.22-1.03.15-1.18.73-.25.94-.16,1.79.79,2.33.57.32.99.8.73,1.41-.98,2.26.28,4.17.87,6.19Zm-42.1,34.35c-.66-.07-1.29-.14-1.57.67-.25.71-.22,1.32.48,1.79.34.23.61.74.95.78,1.92.19,3.33,1.91,5.4,1.72.65-.06,1.36.38,1.7-.51.29-.75.16-1.44-.49-1.99-1.87-1.57-4.13-2.11-6.46-2.46Z"/>
    <path class="cls-2" d="m155.43,130.65c1.7-1.54,3.33-3.16,5.12-4.58,1.54-1.22,5.73-.7,6.94.55.63.65.16,1.47.6,2.05,1.24,1.62,1.67,3.65,1.98,5.49.32,1.85,1.27,3.72.64,5.75-.29.93-.11,1.96-.08,2.95.05,1.47-.46,2.96-.77,4.43-.55,2.63-1.7,5.05-2.54,7.58-.21.64-.52,1.34-1.02,1.53-2.1.79-1.61,2.77-2,4.26-.28,1.09,1.44,1.95,2.71,1.33,1.01-.5,1.89-1.04,3.02-.41.16.09.46.07.62-.02,1.07-.64,1.85-.63,2.92.32.8.72,2.05-.05,2.79-.79.87-.88,1.58-1.33,2.63-.28.31.31.85.4,1.31.53.85.25,1.69.06,1.98-.78.3-.88.2-1.87-.32-2.71-.08-.12-.5-.21-.56-.15-1.07,1.3-1.77.05-2.61-.33-1.11-.51-2.04-.29-2.71.82-.48.79-.89,1.21-1.67.09-.72-1.04-1.81-1.5-2.91-.28-.52.57-1.05.21-1.58-.03-.66-.3-.41-.74-.19-1.18.28-.54.3-1.09.15-1.68-.14-.57-.19-1.36.25-1.66,1.35-.93.85-2.41,1.31-3.55.82-2.02.58-4.3,1.71-6.2.12-.21.23-.56.15-.74-.7-1.51-.64-2.95.3-4.34.05-.08.1-.25.06-.3-1.26-1.53-.25-3.54-1.07-5.13-.38-.74-.08-1.05.42-1.42.93-.69,1.59-1.54,1.63-2.76,0-.1,0-.24.06-.31,1.76-1.88,1.54-4.73,3.28-6.64,1.44-1.58.44-3.68.95-5.48.11-.4-.43-.93-.96-.84-.74.14-1.04.73-1.19,1.48-.48,2.3-.91,4.65-2.24,6.64-.9,1.34-1.6,2.76-2.31,4.19-.2.4-.49.91-1.06.81-.62-.11-.54-.73-.59-1.15-.47-4.49-3.67-5.76-6.96-5.29-.95.14-1.89.05-2.84-.03-1.68-.14-3.22.2-4.18,1.82-.68,1.15-1.66,1.9-2.81,2.65-1.2.78-2.31,1.97-2.92,3.41-.39.93-.82,1.83-1.55,2.55-1.36,1.35-2.59,2.74-3.1,4.68-.14.54-.36,1.25-1.2,1.3-.79.04-1.02-.5-1.39-1.05-.41-.63-.8-1.2-.91-1.97-.11-.72-.75-1.05-1.37-1.14-.59-.08-.92.42-1.12.94-.15.39-.38.77-.43,1.17-.15,1.15-.73,1.61-1.91,1.6-1.18,0-1.64-.63-2.02-1.6-.87-2.18-.55-3.94,1.44-5.35.81-.57.77-1.56.19-2.23-.55-.63-1.36-.96-2.23-.24-1.16.96-3.17.7-3.71-.03-.68-.94-.25-3.33.79-4.12,2.6-1.98,5.88-1.65,8.07.83.55.62,4.02,1.32,4.56.75,2.06-2.13,4.86-3.09,7.25-4.7,1.94-1.3,3.58-2.94,5.47-4.29,1.57-1.13,3.15-2.26,4.66-3.47,2.08-1.67,4.24-3.29,5.99-5.31.79-.92,1.16-2.21,1.69-3.34.19-.41-.07-.73-.4-.92-.54-.32-.83.13-.97.49-.53,1.38-1.68,2.29-2.51,3.44-.83,1.15-2.03,1.81-3.21,2.51-.24.14-.55.39-.86.11-.25-.24-.05-.48.04-.71.25-.66.2-1.33.16-2.02-.04-.98-.05-1.87.99-2.61.91-.65,1.26-1.75.33-2.9-.91-1.13-.56-1.99.86-2.44.82-.26,1.51-.64,2.18-1.22,1.02-.88,2.09-1.72,3.47-2.1,1.59-.43,2.39-2.01,3.69-2.91,1.4-.98,1.73-.94,2.01.73.22,1.33.11,2.79,1.96,3.06.12.02.29.22.3.34.19,2.16,2.19,3.33,2.83,5.24.22.66.67,1.18,1.29,1.28,1.48.24,1.79,1.27,1.91,2.49.08.81.31,1.44,1.09,1.95,1.27.84,1.28,2.33,1.4,3.67.07.81.19,1.42.77,2.11,1.21,1.42,1.14,3.28.82,4.98-.72,3.86-1.28,7.73-1.58,11.64-.13,1.68-.37,3.33-.83,4.95-.18.62-.39,1.28.64,1.41.55.07.52.59.6.99.25,1.24.49,2.48.3,3.75-.05.36-.23.89.08,1.05,1.72.9,1.45,2.52,1.56,4.02.03.42.02.88.65.86,1.71-.05,2.85,1.47,2.36,3.35-.38,1.48-.75,2.94-.84,4.48-.07,1.23-1.04,2.14-1.5,3.25-.42,1-.73,1.95-.74,2.99,0,1.16-.25,2.12-1.18,2.95-.85.75-.78,2.04-1.35,2.99-.05.08-.07.25-.03.3,1.89,2.08-1.01,3.26-1.01,5.11,0,1.42-2.52,2.34-4.27,2.29-2.44-.08-4.75.79-7.13,1.14-3.09.46-6.17,1.17-9.31.79-2.05-.25-4.09-.4-6.14-.39-.7,0-1.38.11-2,.42-.99.5-1.98.68-3.06.34-.34-.1-.77-.13-1.1-.02-2.35.83-4.79.88-7.23,1.16-2.67.3-4.04-.78-4.84-3.33-.9-2.87-.85-5.68-.63-8.58.12-1.5.62-2.81,1.19-4.19.61-1.48.59-3.19,1.08-4.73,1.41-4.5,2.14-9.23,4.55-13.4.48-.83.9-1.26,2.04-1.21,2.29.09,4.47.98,6.8.74.7-.07,1.54.11,1.71-.69.17-.79-.68-1.24-1.29-1.37-1.92-.4-3.87-.66-5.81-.94-.4-.06-.88.14-1.11-.35-.19-.41.15-.68.33-.98,1.22-2.08,2.36-4.21,3.69-6.22,1.41-2.14,5.39-1.7,6.43.68.31.71.55,1.3,1.42,1.06.86-.24,1.76-.52,1.93-1.61.14-.87-.32-1.29-1.06-1.7-1.85-1.01-3.64-2.11-5.93-1.71-.04-.14-.07-.28-.11-.42Z"/>
    <path class="cls-2" d="m189.42,176.12c1.69-.34,2.09-2.07,3.37-2.73.64-.33.18-1.03-.11-1.54-.56-.97-.14-1.26.8-1.12,4.77.74,9.43-.03,14.07-1.04,1.5-.33,3.06-.29,4.52.12,1.95.55,3.47,3.85,2.79,5.8-.26.75-.91,1.03-1.64.92-.64-.1-1.31.11-1.87-.02-2.62-.62-5.14.38-7.58.75-2.97.45-5.76-.65-8.71-.04-1.75.37-3.62-1.07-5.64-1.12Z"/>
    <path class="cls-2" d="m147.09,120.39c2.23-3.58,4.89-6.8,7.58-10.01,1.34-1.6,2.38-3.45,3.56-5.18.24-.34.48-.7.8-.97.35-.3.76-.66,1.27-.32.58.39.05.79,0,1.21-.17,1.57-1.01,3.03-.68,4.68.13.67-.22,1.22-.56,1.76-.55.85-1.61,1.43-1.42,2.68.01.09-.18.28-.31.33-2.73,1.01-4.16,3.66-6.49,5.16-1.1.71-2.14,1.65-3.74.68Z"/>
    <path class="cls-2" d="m127.9,128.13c-1.82-1.04-3.24.23-4.75.53-1.14.23-1.9.54-3.06-.34-1.09-.83-.95-1.61-.87-2.55.18-2.2,2.9-4.3,5.05-3.95.97.16,1.9.01,2.76-.43.58-.29,1.03-.37,1.53.2.51.57.06.88-.13,1.36-.62,1.63-1.8,3.22-.54,5.18Z"/>
    <path class="cls-2" d="m129,137.38c-1.43-.02-2.45-.65-3.65-.67-.77-.01-.62-1.22-.84-1.87-.55-1.58,1.49-4.55,2.92-4.06,1.68.57,3.56,1.09,4.84,2.54.19.21.19.51.05.74-.41.67-.95,1.28-.49,2.17.1.2-.18.44-.48.52-.86.22-1.72.46-2.34.62Z"/>
    <path class="cls-2" d="m111.16,113.8c-2.7.51-3.77-1.15-4.7-2.63-.82-1.29-.15-2.63.87-3.67.5-.51.49-1.58,1.64-1.4,1.41.21,2.22,1.28,3.23,2.07.19.15.09.43-.11.52-1.18.53-1,1.88-1.65,2.75-.55.74-.6,1.68.72,2.37Z"/>
    <path class="cls-2" d="m48.82,153.1c-1.56-.46-2.73-.63-3.84.17-.25.18-.72.13-1.07.08-1.42-.22-2.81-.34-4.17.29-.42.2-.91.32-1.32-.1-.47-.47.17-.72.2-1.08.09-1.57.89-1.38,2.23-1.6,1.77-.29,3.5-.26,5.25-.38.75-.05,1.49-.35,2.23-.53.04.78.07,1.55.14,2.33.01.18.14.35.35.83Z"/>
    <path class="cls-2" d="m114.86,150.72c-.22,2.22-.68,2.53-2.72,1.49-.82-.42-2.6-.19-1.81-2.16.43-1.09.94-1.12,1.74-.53.45.34.82.89,1.47.35.25-.21.4-.74.86-.4.4.3.55.75.46,1.26Z"/>
    <path class="cls-3" d="m172.32,93.09c-1.15,1.09-1.74,2.54-3.58,2.01-.84-.24-1.09.61-1.58,1.05-.67.59-.97,1.77-2.13,1.63-.67-.08-.45-.61.8-1.64.2-.17.42-.32.63-.48,1.48-1.14,2.8-2.59,4.87-2.65.24,0,.48.04.99.09Z"/>
    <path class="cls-2" d="m189.06,126.17c.09.13.26.25.26.38.03,2.51-.52,4.97-.76,7.46-.04.46-.15,1.31-.72,1.22-.77-.13-.23-.89-.19-1.33.11-1.3.43-2.58.53-3.87.11-1.3.73-2.48.87-3.85Z"/>
    <path class="cls-2" d="m124,154.74c.44-.37-.23-1.2.44-1.45.68-.25.99.41,1.33.86.24.32.56.4.97.35.67-.08.75.47.79.93.05.49-.13.96-.59,1.2-.79.42-3-.98-2.95-1.89Z"/>
    <path class="cls-2" d="m98.88,145.68c.7.03,2.41,1.83,2.32,2.34-.12.62-.54,1.22-1.14,1.03-.93-.29-2.25-.41-2.3-1.74-.02-.66.54-1.31,1.12-1.63Z"/>
    <path class="cls-2" d="m192.02,136.83c.88.98.57,2.04.55,3.05,0,.29.03.68-.42.7-.37.02-.62-.28-.67-.57-.19-1.06-.49-2.16.54-3.19Z"/>
    <path class="cls-2" d="m137.95,150.62c.13-1.06,0-2.21.97-2.99.27-.22.53-.64.9-.37.35.26.14.67-.1.96-.62.76-1.2,1.54-1.77,2.4Z"/>
    <path class="cls-2" d="m191.46,129.49c-.37,1.39.04,2.26.21,3.17-.99-.77-1.04-1.7-.21-3.17Z"/>
    <path class="cls-1" d="m170.05,22.06c-.59-2.02-1.85-3.92-.87-6.19.26-.61-.16-1.1-.73-1.41-.96-.53-1.05-1.39-.79-2.33.16-.58.56-.95,1.18-.73,2.08.72,4.61.13,6.26,2.12.2.24.57.25.9.18,3.37-.72,5.23,1.14,6.6,3.84.36.71.45,1.57,1.74.92.79-.39,1.63.5,1.91,1.31.81,2.34,2.27,4.38,2.96,6.78.63,2.2,1.6,4.1,3.77,5.38,1.33.79,2.32,2.18,2.03,4.12-.32,2.15-.19,4.32.78,6.35.14.28.17.7.39.85,1.63,1.08,1.16,2.49.74,3.94-.52,1.83-.91,3.69-.73,5.62.07.78.02,1.55-1.08,1.51-.93-.03-.83.84-1.11,1.33-.44.75-.83,1.42-1.82.77-.18-.12-.36-.3-.56-.16-2,1.5-4.32.79-6.35.49-1.7-.25-3.28-.78-5.06-.37-.7.16-1.7-.21-2.16-.81-1.22-1.61-3.05-2.46-4.39-3.89-.66-.7-1.57-.44-2.35-.75-1.21-.47-1.71-1.11-1.83-2.42-.15-1.6-.62-3.18-.98-4.76-.08-.35-.18-.87-.56-.88-1.53-.06-1.19-1.1-1.4-2.09-.41-1.96-.09-4.3-2.4-5.51-.59-.31-.82-.93-.55-1.78.38-1.21.29-2.41-.58-3.55-1.71-2.22-2.23-4.65-1.27-7.44.62-1.78,1.08-3.62,1.65-5.42.4-1.27,1.66-1.46,2.23-2.46.26-.46.95.07,1.32.45.92.92,1.1,2.21,1.14,3.35.03.89.23,1.75.22,2.64-.02,1.31.56,1.72,1.74.98Zm14,12.32c-.51-3.45-.98-6.88-2.12-10.17-.38-1.1-1.37-1.11-2.07-.92-1.01.29-.33,1.29-.12,1.72.9,1.82,1.41,3.75,1.75,5.71.28,1.63,1.24,2.71,2.55,3.66Zm3.47-.33c.96,1.46,1.63,2.55,2.71,3.35.42.3.95.73.78,1.23-.22.63-.88.8-1.57.77-1.21-.05-2.31-.36-3.12-1.27-.69-.77-1.4-.21-1.78.13-.41.37.25.76.57,1.07.27.25.62.44.82.74,1.22,1.86,3.21.65,4.75,1.19.36.12.45-.35.56-.64.94-2.58-.53-5.5-3.71-6.57Zm-18.26-3.5c2.07-1.18,2.92-2.7,1.9-4.89-.08-.18-.07-.41-.1-.62-.09-.77-.35-1.28-1.29-1.17-.95.11-1.24.6-1.2,1.48.08,1.74.35,3.45.69,5.2Zm-4.18-11.88c-1.86,2.89-1.57,6.83.67,9.21,0-.26,0-.45,0-.65.02-2.43-1.52-4.8-.3-7.3.14-.3.05-.83-.37-1.26Zm24.06,25.37c-.51,1.64-.41,3.32-.18,4.99.06.45.16.97.76,1.07.59.09,1-.22,1.35-.65.37-.46.52-.97.09-1.43-1.06-1.12-1.35-2.58-2.02-3.98Zm-13.72-22.59c-.55-2-1.39-3.83-2.65-5.45-.27-.35-.46-.94-1.05-.69-.45.2-.35.76-.29,1.14.1.61.17,1.53.55,1.73,1.5.77,2,2.47,3.43,3.27Zm5.62.44c-.63-2.08-1.67-3.76-2.92-5.31-.24-.3-.63-.74-1.06-.39-.42.33.02.78.15,1.11.43,1.07,1.53,1.86,1.66,3.03.16,1.4.96,1.52,2.17,1.57Zm4.97,26.58c-.61-1.22-1.46-2.21-2.42-3.1-.27-.25-.51-1.03-1.08-.45-.42.42-.38,1.14.06,1.43,1,.66,1.67,1.57,2.38,2.47.13.17.38.43.67.19.15-.13.24-.32.39-.54Zm-12.94-13c-.13-1.5-.95-2.79-1.04-4.28-.02-.32.07-.87-.53-.68-.4.13-.72.48-.46.98.67,1.33,1.36,2.65,2.04,3.98Zm1.51,10.7c-.58-1-.24-2.1-1.3-2.29-.21-.04-1.32.11-1.16.92.22,1.09,1.26,1.03,2.46,1.37Zm-1.16-10.13c-.21,1.26.8,1.79,1,2.66.07.31.11.66.56.46.44-.2.49-.58.15-.87-.67-.59-1.15-1.31-1.71-2.25Zm2.94-10.77c-.08-1.39-.91-1.83-1.87-2.42.04,1.34.95,1.72,1.87,2.42Zm7.81,15.75c.21.34.38.65.58.94.23.32.36.79.84.82.11,0,.29-.27.34-.45.15-.54-.33-.7-.63-.95-.28-.23-.56-.48-1.13-.36Zm-7.13-4.69c.25-.63.46-1.16-.03-1.64-.21-.21-.53-.07-.64.18-.29.66.21.99.68,1.46Z"/>
    <path class="cls-1" d="m127.95,56.41c2.33.34,4.59.88,6.46,2.46.65.55.78,1.24.49,1.99-.34.89-1.05.45-1.7.51-2.07.19-3.48-1.53-5.4-1.72-.34-.03-.61-.54-.95-.78-.7-.47-.73-1.08-.48-1.79.28-.81.91-.73,1.57-.67Z"/>
    <path class="cls-2" d="m184.05,34.37c-1.31-.95-2.27-2.03-2.55-3.66-.34-1.96-.85-3.89-1.75-5.71-.21-.43-.9-1.44.12-1.72.69-.2,1.69-.18,2.07.92,1.14,3.29,1.61,6.72,2.12,10.17Z"/>
    <path class="cls-2" d="m187.52,34.05c3.19,1.07,4.66,3.99,3.71,6.57-.1.29-.2.76-.56.64-1.55-.54-3.53.67-4.75-1.19-.19-.3-.55-.48-.82-.74-.32-.31-.98-.7-.57-1.07.38-.34,1.09-.9,1.78-.13.82.91,1.92,1.22,3.12,1.27.7.03,1.36-.14,1.57-.77.17-.5-.36-.93-.78-1.23-1.08-.79-1.75-1.89-2.71-3.35Z"/>
    <path class="cls-2" d="m169.26,30.54c-.34-1.75-.61-3.46-.69-5.2-.04-.88.25-1.38,1.2-1.48.94-.11,1.21.4,1.29,1.17.02.21.01.44.1.62,1.01,2.2.17,3.71-1.9,4.89Z"/>
    <path class="cls-2" d="m165.08,18.67c.42.43.51.96.37,1.26-1.22,2.51.32,4.87.3,7.3,0,.19,0,.39,0,.65-2.24-2.38-2.53-6.32-.67-9.21Z"/>
    <path class="cls-2" d="m189.14,44.04c.67,1.41.96,2.86,2.02,3.98.43.46.29.97-.09,1.43-.35.43-.76.74-1.35.65-.6-.1-.7-.62-.76-1.07-.23-1.67-.33-3.35.18-4.99Z"/>
    <path class="cls-2" d="m175.42,21.45c-1.44-.8-1.94-2.5-3.43-3.27-.38-.2-.45-1.12-.55-1.73-.06-.38-.16-.94.29-1.14.58-.26.77.34,1.05.69,1.26,1.62,2.11,3.44,2.65,5.45Z"/>
    <path class="cls-2" d="m181.04,21.89c-1.2-.05-2.01-.17-2.17-1.57-.13-1.17-1.22-1.95-1.66-3.03-.13-.33-.57-.78-.15-1.11.43-.35.82.1,1.06.39,1.25,1.56,2.29,3.23,2.92,5.31Z"/>
    <path class="cls-2" d="m186.01,48.47c-.15.21-.24.41-.39.54-.28.24-.54-.02-.67-.19-.71-.91-1.38-1.82-2.38-2.47-.44-.29-.48-1.01-.06-1.43.58-.58.82.21,1.08.45.96.89,1.81,1.89,2.42,3.1Z"/>
    <path class="cls-2" d="m173.08,35.47c-.68-1.32-1.37-2.65-2.04-3.98-.25-.5.07-.85.46-.98.6-.2.51.35.53.68.09,1.49.91,2.78,1.04,4.28Z"/>
    <path class="cls-2" d="m174.59,46.17c-1.21-.34-2.24-.28-2.46-1.37-.16-.81.95-.95,1.16-.92,1.07.19.72,1.29,1.3,2.29Z"/>
    <path class="cls-2" d="m173.43,36.04c.55.95,1.04,1.67,1.71,2.25.33.29.29.67-.15.87-.44.2-.48-.15-.56-.46-.2-.87-1.21-1.4-1-2.66Z"/>
    <path class="cls-2" d="m176.37,25.26c-.92-.69-1.82-1.08-1.87-2.42.96.58,1.78,1.03,1.87,2.42Z"/>
    <path class="cls-2" d="m184.17,41.02c.57-.12.85.14,1.13.36.31.25.79.42.63.95-.05.18-.24.46-.34.45-.48-.03-.6-.5-.84-.82-.21-.29-.37-.6-.58-.94Z"/>
    <path class="cls-2" d="m177.05,36.33c-.47-.47-.96-.8-.68-1.46.11-.25.43-.39.64-.18.49.48.28,1.01.03,1.64Z"/>
  </g>
  <path class="cls-1" d="m43.9,171.86c-.13-.2-.28-.37-.46-.53-.36-.31-.25-.36-.08.13l-.15,1.16c-.39.56-.09.2.17,0s.47-.39.62-.69c.38-.76.05-1.19-.16-1.89l-.15,1.16c.34-.76.68-1.14.49-2.04-.07-.31-.14-.62-.29-.91-.09-.18-.62-1.1-.34-.38l-.15,1.16c.23-.55.69-1.04.87-1.66.29-.99-.31-1.25-.65-2.02v1.51c.46-.92.76-1.64.82-2.71.03-.52-.11-1-.48-1.38-.13-.14-.32-.26-.48-.36l-.23-.13c-.33-.22-.32-.15.04.22.28.15.34.32.19.52-.12.2-.11.23,0,.09.16-.09.25-.34.36-.48.19-.25.43-.5.57-.8.24-.51.25-1,0-1.51-.1-.2-.24-.36-.39-.52-.09-.1-.42-.48-.29-.22v1.51c-.22.45.53-.5.57-.56.16-.26.28-.59.27-.9s-.11-.65-.27-.9c-.05-.07-.76-.96-.59-.59v1.51c.13-.26.41-.44.55-.71.24-.5.2-.88.07-1.4-.11-.41-.14-.79-.24-1.21-.04-.17-.13-.39-.22-.54l-.23-.3c-.2-.24-.21-.25-.05-.02-.12.57.24-.3.15-.18.04-.05.21-.27.26-.36.25-.44.37-.76.41-1.27s.03-.94-.22-1.37c-.12-.21-.77-.81-.69-.66v1.51c.36-.7,1.06-1.14,1.18-2.01.07-.54-.15-.88-.36-1.33-.08-.17-.13-.38-.24-.54l-.23-.3c-.21-.24-.25-.25-.1-.02.36-.18-.45.68.08.22.16-.14.2-.39.3-.57.21-.41.49-.82.49-1.31,0-.43-.21-.88-.51-1.18-.15-.15-.39-.31-.59-.41-.36-.18-.34-.37-.05.12l.15,1.16c-.2.49.35-.57.39-.73.06-.27.08-1.21-.25-1.4-.21-.12-.9.79-.1.31.26-.16.51-.39.68-.64.41-.64.5-1.81.09-2.45-.22-.34-.54-.58-.91-.73-1.15-.47.25.79,0,.71-.13.23-.09.23.13-.02.14-.14.25-.3.32-.48.23-.47.25-.9.07-1.4-.02-.06-.34-.93-.32-.75-.03-.39.21-.88.23-1.29.01-.22,0-1.06-.27-1.2-.4.97-.4,1.23-.02.78.14-.14.25-.3.31-.48.5-1.04-.12-1.39-.54-2.2l.15,1.16c-.3.74.33-.06.48-.34.29-.53.28-1.05.03-1.59-.33-.71-.83-1.38-1.16-2.07l.15,1.16c-.4.51-.44.64-.11.37.16-.11.31-.23.45-.36.29-.32.49-.74.49-1.18s-.22-.88-.52-1.2c-.16-.13-.32-.25-.49-.36-.33-.21-.31-.16.08.16.11-.26.09-.67.21-.97.16-.38.38-.68.38-1.13s-.22-.88-.53-1.19c-.16-.16-.99-.92-.49-.19l.15,1.16c.12-.8.24-1.65-.07-2.42-.42-1.04-.88,1.17-.16.47.25-.24.43-.55.51-.89.1-.43.02-.77-.15-1.16-.44-.97-.15.57-.03-.39.09-.74-.2-1.53-.52-2.18-.05-.13-.12-.26-.19-.39-.32-.46-.32-.4,0,.19.08,0,.08-1,.08-1.02,0-.48-.04-.9-.3-1.31l-.23-.3c-.27-.32-.27-.24-.02.23.18-.54.14-.85.72-1.21.22-.14.49-.18.72-.32.36-.22.55-.56.86-.82l-1.46.39c-.31-.07.16.2.23.25.2.14.42.26.67.31.68.14,1.2-.19,1.8-.45l-1.16.15c.55.11.92.38,1.51.23.45-.11.66-.51,1.02-.7h-1.51c.26.12.45.43.73.56.51.25,1.01.27,1.51,0,.33-.17.55-.44.73-.76.29-.52.55-.73-.06-.34h-1.51c-.29-.15-.41-.55-.16-.02.06.13.13.27.22.39.31.45.69.77,1.25.84.5.07,1.01-.13,1.38-.48.13-.13.25-.31.35-.47.26-.43.38-.41-.09-.13h-1.51c-.27-.13.2.3.29.39.22.2.52.38.81.46.53.14,1.51.17,2.03.1.28-.04.55-.15.79-.28.75-.42-.4-.11.43-.08.7.03.94-.5,1.46-.76l-1.16.15c.21.06,1.1.59.43.13.34.23.6.51,1.03.61,1.04.24,1.38-.56,2.2-.84l-1.16-.15c-.37-.18.52.56.59.6.26.16.59.27.9.27.41,0,.75-.18,1.11-.34.2-.08.4-.17.59-.26.34-.27.4-.31.19-.14-.13.16-.28.14-.46-.05.15.15.31.29.49.41.33.2.7.25,1.08.31.5.07.87.11,1.34-.13.27-.13.45-.43.7-.56h-1.51c.75.38.88.93,1.88.74.78-.15,1.39-.66,2.13-.88l-1.16-.15c-.38-.18.52.58.58.61.34.22.69.27,1.08.26.87-.02,1.57-.32,2.36-.59l-1.16-.15c-.17-.09.44.58.65.7.5.29,1.07.31,1.59.04.31-.17.55-.44.74-.74.08-.13.23-.35.25-.5.1-.17.06-.14-.12.11-.28.25-.21.3.19.13l-1.16-.15c-.29-.16-.41-.55-.18-.03.06.13.13.26.21.38.31.45.7.77,1.25.85.5.07,1.01-.13,1.38-.48.13-.12.25-.31.35-.46.3-.45.35-.31-.07-.09l-1.16.15c.42.15.78.44,1.2.61.35.15.66.18,1.04.1.64-.15-.12-.28.21-.08.49.3,1.16.24,1.63-.03.2-.11.34-.25.48-.41.13-.15.62-.59.17-.36h-1.51c-.19-.1-.38-.53-.18-.11.09.18.23.37.36.51.33.38.77.65,1.3.65.43,0,.88-.21,1.18-.51.17-.16.31-.39.41-.6.19-.36.36-.34-.12-.06l-1.16.15c.32.11.81.25,1.1.39.34.17.61.53,1.05.63,1.12.26,1.49-.65,2.23-.95l-1.16-.15c-.45-.23.05.24.17.37.16.18.32.34.54.45.61.31,1.53.24,2-.33l.18-.21c-.24.26-.55.12-.91-.41-.03.18.35.5.43.62.31.42.56.97.96,1.29.19.15.41.28.65.35.21.03.42.06.63.08l-.56-.38c.36.5.36-.93.06-.44,0,0-.38,1.04-.2.59-.27.67-.58,1.17-.18,1.92.12.21.29.39.48.54.25.21.71.69.29.05l-.15-1.16c-.08.51-.08,1.08-.19,1.57-.15.66-.43,1.08-.07,1.76.19.35.5.58.84.77.07.04.42.25.5.23l-.54-.74c.35-.5.39-.62.11-.38-.89.27-1.15,2.16-1.09,2.9.05.61.31,1.04.8,1.39.11.08.23.14.35.2.5.24.35.33.09-.13v-1.51c-.19.44-.51.76-.58,1.27-.07.55.2.84.37,1.31l.15-1.16c.35-.3.36-.34.04-.11-.17.12-.33.25-.49.38-.33.34-.47.74-.52,1.2-.1.86.17,2.01.75,2.67.25.29.25.23,0-.16,0,.24,0,.48,0,.72.22-.4.2-.46-.08-.17-.14.14-.25.31-.33.48-.44.88-.07,1.98.09,2.9.05.31.22.82.21,1.07.17-.4.13-.46-.13-.18-.14.14-.25.31-.33.48-.17.3-.36.73-.43,1.07-.06.31.09,1.07.09,1.08,0,.49-.19.97-.14,1.47.06.57.37.82.55,1.3-.22-.61.06.74.13.9.21.45.29.6.37,1.09l.15-1.16c.19-.31.51-.39,0-.19-.14.05-.28.12-.4.2-.46.3-.78.7-.85,1.25-.08.61.23.95.5,1.44.22.39.3.84.43,1.34l.15-1.16c-.22.5-.59.87-.59,1.46s.39.98.6,1.48l-.15-1.16c-.08.24-.22.46-.28.71-.03.13-.02,1.12.05.58.06-.42-.21.13-.32.3-.12.19-.21.44-.3.65-.26.6-.39,1.14-.08,1.75.11.22.26.38.44.54.16.14.56.62.35.18v-1.51c-.16.37-.45.66-.54,1.07-.07.31.1,1.07.1,1.08-.01.6-.26.91.04,1.51.14.29.46.47.59.73l-.15-1.16c-.27.76-.83,1.35-.64,2.22.06.27.3.49.37.73.1.33-.26.84.09.33-.43.64-.86,1.3-.82,2.13.02.44.2.86.5,1.18.16.17.71.75.5.31v-1.51c.22-.45-.52.49-.57.56-.17.26-.27.59-.27.9,0,.53.44,1.12.27,1.54-.14.34-.46.53-.57.93-.09.35-.07.77-.02,1.12.05.32.1.62.27.9.04.07.77.96.6.59v-1.51c.29-.48.14-.21-.17.02-.24.18-.42.34-.58.61-.39.66-.15,1.22-.03,1.91.11.58.1,1.17.32,1.72.05.2.14.37.27.51.23.33.21.18-.06-.46-.05-.01-.12.89-.12.94,0,.56.25,1.07.3,1.59.06.62-.34,1.23-.34,1.85,0,.25.06.61.19.82.25.39.2-.79-.08,0-.25.71.04,1.14.26,1.78.61,1.82,3.51,1.04,2.89-.8-.03-.08-.19-.61-.23-.61,0,0-.17.98.09.18.16-.47.15-1.01-.07-1.46-.2-.4-.1.36.02-.05.07-.24.13-.48.19-.72.12-.55.12-1.14,0-1.7-.08-.38-.22-.63-.2-1.02.02-.53.18-.87-.02-1.4-.1-.25-.29-.43-.39-.66.2.47.02-.24,0-.35-.08-.56-.16-1.09-.3-1.64l-.15,1.16c-.34.3-.35.33-.03.11.17-.12.34-.24.5-.37.2-.21.39-.52.47-.8.12-.44.02-.92-.22-1.3-.11-.18-.24-.33-.4-.45-.34-.32-.4-.32-.16.01.21.19.2.39-.04.59.16-.14.31-.3.42-.48.21-.33.26-.69.32-1.07.13-.89-.06-1.57-.28-2.42l-.15,1.16c-.21.45.52-.49.57-.56.21-.33.3-.71.25-1.1s-.22-.71-.47-.98c-.16-.17-.72-.75-.5-.31l.15,1.16c.05-.24.1-.48.15-.71-.22.36-.21.4,0,.13.22-.25.35-.53.46-.84.28-.8.33-1.69-.02-2.48-.16-.54-.23-.47-.19.2l.15-.36c.17-.25.35-.66.41-.95.2-.94-.39-1.19-.74-1.88l.15,1.16c.26-.85.26-1.37,0-2.23l-.15,1.16c.31-.71.8-1.19.47-2.05-.1-.27-.24-.46-.44-.66-.16-.16-.64-.69-.42-.24l.15,1.16c.15-.46.21-.36.47-.73.35-.49.3-.88.39-1.44.06-.36.27-.68.27-1.07,0-.59-.39-.98-.6-1.48v1.51c.41-.95.65-1.33.39-2.41-.1-.43-.13-.86-.33-1.26-.14-.28-.45-.47-.58-.73v1.51c-.19.31-.51.38,0,.19.17-.06.33-.15.48-.25.42-.29.71-.69.78-1.2s-.07-1.19-.29-1.68c-.04-.1-.44-.83-.28-.44.12.31.01-.39,0-.45-.06-.28-.15-.54-.29-.8-.3-.58-.15.11-.09-.24.11-.6-.02-1.09,0-1.67-.01.49-.08.2.13,0,0,0,.26-.2.33-.29.37-.45.46-1.05.48-1.62.01-.49-.16-.79-.27-1.25-.06-.24-.05-.51-.09-.75,0,.01-.14-1.03-.21-.5-.05.43.27-.14.38-.3.1-.15.2-.36.25-.53.13-.5.09-1.32.03-1.83-.07-.59-.35-.85-.61-1.33-.02-.04-.13-.46-.13-.46.17.06-.98.84-.25.51.43-.2.84-.72.96-1.18.16-.61-.14-.99-.34-1.51l-.15,1.16c.38-.87.94-1.57.23-2.48-.19-.25-.64-.62-.99-.69-.6-.11.33.63.37.64l.07-.31c-.17.14-.16.13.03-.02.65-.79,1.11-1.44.8-2.59-.11-.42-.4-.76-.75-1-.14-.1-.28-.17-.44-.23-.38-.14-.3-.33.04.21l.15,1.16c.24-.82.52-1.7.47-2.58-.03-.45-.21-.87-.53-1.2-.15-.15-1-.92-.44-.16l.15,1.16c.04-.18.26-.44.32-.61.05-.15.2-.89.05-.41s.19-.33.21-.41c.08-.29.09-.69.02-.98-.11-.44-.49-.99-.8-1.31-.21-.21-.51-.39-.79-.48l-.22-.04c-.48-.12-.53-.08-.13.11.28.22.34.23.18.03-.07-.11-.15-.22-.23-.32-.14-.2-.29-.39-.43-.58-.28-.38-.5-.81-.94-1.05-.55-.29-1.11-.2-1.68-.05-.63.16-.83.54-1.34.81h1.51c.42.21-.12-.37-.29-.53-.37-.35-.87-.54-1.38-.47-.84.11-1.3.78-1.99,1.12h1.51c-.38-.17-.64-.52-1.07-.67s-.97-.4-1.43-.5c-.52-.11-1.01,0-1.43.34-.21.17-.37.37-.5.6-.21.34-.52.52.06.17h1.51c.19.1.38.53.18.11-.06-.13-.15-.25-.24-.36-.32-.42-.68-.71-1.22-.78-.45-.06-.87.08-1.23.36-.2.15-.88.85-.44.63l1.16-.15c-.6-.18-1.03-.48-1.69-.23-.28.07-.24.08.14.03l-.36-.15c-.13-.1-.59-.29-.72-.34-.51-.19-1.04-.17-1.51.13-.27.18-.48.42-.66.69-.24.37-.49.38.07.09h1.51c.45.24.39.42.12-.08-.09-.18-.19-.34-.33-.5-.46-.54-.99-.68-1.68-.59-.52.06-1.09.22-1.48.59-.17.16-.33.43-.43.64-.21.42-.44.38.14.06h1.51c.32.17-.52-.63-.58-.67-.26-.17-.6-.28-.9-.28-.42,0-.68.2-1.05.33-.12.09-.25.13-.41.13-.5.03-.43.16.19.4.08-.08-.59-.65-.68-.71-.41-.26-.83-.29-1.3-.22-.79.12-1.4.64-2.13.88l1.16.15c-.55-.28-.76-.79-1.48-.79s-.93.5-1.46.76l1.16-.15c-.58-.08-.36-.05-.9-.38-.39-.24-.85-.3-1.3-.32-.93-.05-1.36.44-2.17.7l1.16.15c.37.18-.52-.56-.59-.6-.34-.21-.71-.29-1.1-.25-.41.05-.9.22-1.27.42-.27.15-.46.47-.7.6l1.16-.15c.76.28-.51-.35-.73-.44-.51-.22-.94-.43-1.52-.29-.17.04-.38.14-.53.24-.2.13-.67.4-.3.34.55-.09-.46-.07-.58-.04-.27.07-.5.29-.74.37-.45.15.6,0-.28-.11-.8-.1.15.29.14.3.19-.17-1.08-.9-1.19-.93-.56-.14-1.16.05-1.58.46-.13.13-.25.31-.35.47-.26.43-.38.41.09.13h1.51c.35.42.42.46.22.13-.07-.14-.14-.29-.22-.42-.2-.31-.42-.57-.75-.74-.47-.25-1.05-.29-1.51,0-.32.2-.55.43-.73.76-.29.52-.55.73.06.34h1.51c-.55-.27-.77-.76-1.48-.77s-.91.48-1.42.76l1.16-.15c-1.04-.25-1.52-.27-2.51.22l1.16-.15c.37.26.41.26.1,0-.16-.13-.33-.25-.49-.38-.25-.14-.62-.24-.91-.24-.54,0-.86.29-1.26.6s-.04.09-.55.39c-1.24.72-2.27,1.89-2.41,3.37-.07.72,0,1.51.52,2.06.2.25.24.26.11.03-.09-.23-.11-.21-.05.07-.21.32-.22.96-.13,1.32.17.65.7,1.03.72,1.71.01.37-.12.65-.02,1.04s.35.67.49,1.01l-.15-1.16c.19-.57.1-.34-.14-.03-.18.24-.33.44-.41.74-.19.67.15.93.27,1.48.14.64-.19,1.18.15,1.81.15.28.38.49.63.67s.59.55.19-.04l-.15-1.16c-.3.92-.8,1.72-.68,2.75.05.44.25,1.01.49,1.38.15.23.33.37.54.54.31.24.46.47.15-.02v-1.51c.15-.32.02-.09-.2.09-.16.13-.29.23-.41.4-.36.48-.46,1.05-.25,1.61.12.32.39.6.52.84.24.46.48.94.71,1.4v-1.51c-.2.45-.76.68-.84,1.33-.1.87.4,1,.71,1.64v-1.51c-.18.4-.58.63-.69,1.11-.07.32-.05.6.05.91.05.17.28.87.23.15.04.57-.32,1.11-.26,1.7s.33,1.07.52,1.62l.15-1.16c-.16.33-.52.54-.67.93-.18.47-.21,1.19-.07,1.69.12.41.4.76.75,1,.16.11.36.21.55.27.39.12.26.28-.05-.22l-.15-1.16c-.1.72.48-.07-.19.37-.26.17-.51.38-.68.65-.31.49-.44,1.95.04,2.41.15.45.24.23.29-.67-.19.19-.31.41-.39.66-.16.43-.2.79-.02,1.22.14.36.37.6.68.84.13.09.26.17.4.24.34.2.31.15-.06-.18l-.15-1.16c-.33.87-.85,1.37-.83,2.41s.68,1.33.93,2.04l.15-1.16c-.34.77-1.21,1.3-1.21,2.21,0,.52.3,1.03.7,1.35.49.4.15.08.02-.26-.06-.14.3-.61-.1,0-.53.8-.83,2.08-.54,3.02.07.22.18.41.3.6.35.55.06.24.07,0-.04.59.2.96.38,1.48l.15-1.16c-.3.62-.84.82-.72,1.67.04.32.17.6.36.86.08.11.64.8.48.44v-1.51c.21-.44-.53.5-.57.57-.16.26-.28.59-.27.9s.11.65.27.9c.04.07.78.95.61.59v-1.51c-.42.9-1.11,1.25-1.23,2.35-.06.58-.04,1.09.34,1.57.16.21.37.37.6.51.34.22.49.54.16-.04l-.15-1.16c-.07.45-.05,1.07-.21,1.48.24-.63-.31.35-.36.49-.36,1,.26,1.3.61,2.08l-.15-1.16c-.07.23-.19.5-.3.71.4-.78-.2.11-.23.17-.35.58-.35,1.29,0,1.88l.23.3c.22.28.23.25.03-.11l.09.37c0-.4-.04-.43-.14-.1-.49.6-.03,1.32.16,1.89l.15-1.16c.34-.28.34-.31.02-.1-.18.11-.34.23-.5.36-.31.31-.53.75-.52,1.19s.21.91.51,1.25c.19.22.93,1.05.39.26,1.08,1.59,3.68.09,2.59-1.51h0Z"/>
  <path class="cls-1" d="m82.62,169.05c.34.08.75.13,1.08.23.26.08.45.22.72.34.8.37,1.18.06,1.88-.22l-1.16-.15c.63.27.86.69,1.66.69.89,0,1.27-.33,2.02-.68h-1.51c.67.35.95,1,1.88.76.44-.12.75-.41,1.02-.76.1-.13.18-.26.24-.41.22-.33.14-.32-.23.04-.19.3-.42.35-.69.14.14.17.3.31.48.43.32.2.72.31,1.08.4,1.01.24,1.25-.25,2.06-.6l-1.16.15c.83.14,1.41.15,2.24-.05l-1.16-.15c.58.25.99.67,1.68.57.59-.08.8-.5,1.28-.73h-1.51c.55.27.77.77,1.48.77s.94-.5,1.48-.75h-1.51c-.29-.34-.33-.35-.11-.02.12.17.25.34.38.5.32.3.76.53,1.2.52s.89-.22,1.24-.51c.28-.21.24-.21-.12.01l.72-.19-1.16-.15c.32.15.54.49.9.63.53.2,1.15.1,1.7,0,.47-.09.98-.22,1.44-.36.23-.07,1.47-.76.72-.46l-1.16-.15c-.37-.18.16.26.27.37.28.26.63.43,1.01.48.83.11,1.04-.4,1.68-.68l-1.16.15c.94.16,1.76.29,2.64.61.48.17.93.16,1.4-.07.16-.08.31-.18.45-.3l.14-.16c.32-.36.32-.4-.02-.13-.32.15-.34.21-.07.19.12.02.24.01.36-.01.24-.02.5-.06.74-.1.1-.02.81-.06.4-.11s.23.16.32.18c.91.26,2.17.03,3.08-.17l-1.16-.15c.32.15.54.49.9.63.58.22,1.02.06,1.58-.16-.29.11-.39,0,.05.1.25.05.5.05.76.05.6,0,.94-.18,1.48-.36l-1.16-.15c-.32-.17.52.63.58.67.39.25.85.35,1.3.23s.74-.4,1.02-.75c.09-.11.17-.24.24-.37.21-.32.15-.29-.18.1h-1.51c.73.36.91.94,1.88.72.24-.05.46-.27.68-.32.35-.09.93.09,1.26-.06.3.04.25-.02-.16-.17.15.15.31.28.48.4.26.16.64.28.94.28.78,0,1.16-.64,1.84-.8l-1.16-.15c-.45-.23.13.36.3.51.21.2.5.38.78.45.76.19,1.53-.19,2.24-.4l-1.16-.15c.38.18.65.48,1.08.59s1,.08,1.44.1c1.02.05,1.38-.54,2.24-.74l-1.16-.15c-.38-.18.15.24.27.35.28.26.63.43,1.01.48.92.12,1.02-.44,1.68-.79l-1.16.15c.38.08,1.11.35,1.48.15-.04.02-.61-.4-.16-.04.21.17.41.3.66.39.48.18.95.15,1.4-.11.17-.1.3-.22.43-.35.12-.13.52-.44.16-.27l-1.82-.23c-.27-.64-.34-.67-.22-.1.02.21.08.41.19.59.14.27.35.52.62.67.25.15.63.23.92.24.21-.02.41-.05.62-.08.45-.06.32-.12-.4-.17l-.69-.9c.05.16.1.32.14.48-.06.43-.05.51.05.25.09-.17.08-.18-.04-.04-.31.42-.62.77-.62,1.34,0,.38.21.99.52,1.24.48.39.12-.79.03-.22-.04.29.01.55.1.83.57,1.84,3.46,1.05,2.89-.8.1.32.02.26.02-.12,0-.3-.02-.57-.13-.85-.14-.34-.51-.54-.64-.84v1.51c.23-.51.62-.72.75-1.32.13-.64.08-1.38-.09-2.01-.14-.51-.39-.97-.88-1.23-.3-.16-.61-.21-.94-.2-.11,0-.92.04-.45.13l.9.69c.19.33-.01-.38-.04-.47-.1-.3-.26-.53-.48-.76-.48-.52-1.22-.51-1.82-.23-.19.09-.35.22-.49.37-.09.09-.52.49-.16.29h1.51c-.26-.12-.45-.4-.72-.53-.53-.26-.89-.12-1.44-.13-.59-.01-.94-.21-1.52.08-.29.15-.47.48-.72.61h1.51c.41.19-.51-.55-.58-.59-.34-.22-.71-.28-1.1-.25-.42.03-.9.15-1.28.34-.28.14-.46.45-.72.58l1.16-.15c-.48-.09-1.02-.08-1.48-.17.65.13-.33-.23-.5-.29-.82-.29-1.6.18-2.42.32l1.16.15c.45.23-.13-.36-.3-.51-.32-.3-.74-.48-1.18-.5s-1.08.17-1.48.37c-.28.14-.46.45-.72.58l1.16-.15c.8.33-.37-.34-.54-.41-.4-.15-.87-.17-1.3-.16-.46.01-.99.01-1.44.06s-.72.27-1.12.43l1.16.15c-.76-.37-1.05-1.04-2.06-.65-.37.14-.6.37-.84.68-.09.11-.17.24-.24.37-.21.32-.15.29.18-.1h1.51c.17.09-.44-.59-.65-.71-.5-.29-.93-.23-1.47-.11-.49.11-.6.11-1.12.05-.64-.08-.95.12-1.52.31l1.16.15c-.26-.12-.44-.42-.72-.55-.43-.21-.69-.19-1.16-.15-.41.04-.8.12-1.22.1-.32-.02-.53-.1-.86-.17-.41-.08-.76,0-1.16.07-.49.08-.92.03-1.4.07-.32.03-.63.1-.9.27-.08.05-1,.76-.58.57l1.16-.15c-.87-.3-1.59-.52-2.52-.63-.57-.07-.97-.17-1.52.09-.27.13-.46.39-.72.5h1.51c.4.19-.52-.56-.58-.6-.39-.25-.85-.33-1.3-.22-.43.1-.67.39-1.02.62.69-.44-.36,0-.6.06-.17.05-.33.09-.5.14.39.28.45.28.16.02-.35-.3-.77-.51-1.24-.53-.41-.01-.93.16-1.3.31-.17.07-1.36.69-.54.37l1.16.15c.29.34.33.35.11.02-.12-.17-.25-.34-.38-.5-.21-.2-.52-.4-.81-.47-.89-.23-1.19.38-1.88.7h1.51c-.55-.27-.77-.77-1.48-.77s-.94.5-1.48.76h1.51c-.37-.16-.67-.45-1.08-.55-.33-.08-1.05.12-1.08.12-.59.01-.94-.19-1.52.09-.27.13-.46.39-.72.5l1.16-.15c-.93-.27-1.44-.96-2.56-.9-.44.02-.87.2-1.18.51-.17.16-.31.39-.41.6-.2.36-.36.34.12.05h1.51c-.39-.2-.59-.64-1.08-.76-.42-.1-.77-.03-1.16.15l-.24.11c-.35.23-.42.29-.19.19-.08-.12.87.47.27,0-.22-.17-.4-.29-.66-.39-.76-.28-1.05.04-1.7.3l1.16.15c-.38-.18-.66-.46-1.08-.58-.46-.14-.97-.18-1.44-.3-1.88-.44-2.68,2.45-.8,2.89h0Z"/>
  <path class="cls-1" d="m56.84,143.63c-.3.63-.62,1.09-.55,1.84.04.36.07-.16-.03.24-.03.12-.04.23-.06.35-.08.38-.19.71-.23,1.1-.07.65.05,1.19.18,1.82.06.3.09.58.19.87.08.23.19.46.3.68l.08.16c-.06-.14-.06-.12.01.04.15.39.32.72.62,1.02.14.14.32.24.47.37.19.16-.18-.25.09.08.2.25.44.48.72.64.17.1.37.18.56.23.05.01.53.11.29.03.31.11.57.32.91.4s.65.05,1,.02.73-.1,1.1-.14c-.19.02.05,0,.08,0,.28,0,.57-.02.84-.1.65-.18,1.27-.53,1.82-.92.29-.21.58-.43.83-.69.12-.12.23-.3.33-.42.1-.14.12-.16.03-.04-.1.06-.1.06-.01,0,.25-.03.68-.57.81-.78.12-.19.2-.41.29-.62.11-.28.04-.11.02-.05.32-.68.6-1.32.73-2.06.13-.69.23-1.5-.02-2.17.12.34-.31-.82-.18-.41-.04-.11-.07-.23-.1-.35-.14-.41-.31-.8-.53-1.17-.4-.67-.69-1.01-1.13-1.47-.52-.55-1.28-.98-1.99-1.23-.66-.24-1.48-.46-2.18-.38-.44.05-.66.09-1.1.16s-.83.23-1.23.41c-.29.13-.5.32-.76.49-.33.21-.67.29-.96.59-.11.11-.23.27-.31.4-.06.1-.45.83-.21.46.03-.04.2-.23-.02.03-.18.21-.36.42-.49.66-.4.71-.17,1.64.54,2.05s1.65.17,2.05-.54c-.1.17-.02,0,.02-.05.06-.08.13-.15.19-.22.09-.11.57-.71.5-.88.07.16-.55.27-.34.37,0,0,.29-.14.27-.13.18-.09.34-.19.5-.31.27-.2.59-.34.82-.39.27-.06.66-.15.94-.14-.32-.01.09.1.2.13.46.12.65.12,1.05.37.19.12.26.17.39.28.19.17.09.1.03.03.13.16.25.33.38.49.22.27.4.56.5.89.08.26.16.51.28.76.14.32.03.1.03.05-.02-.22-.03.3-.03.3-.02.3-.09.73-.24,1.11-.04.11-.14.27-.22.45-.07.14-.13.28-.18.42-.13.33-.02,0,.05-.02.03,0,.25-.19-.05.04-.14.11-.29.21-.41.33-.12.12-.24.31-.33.41,0,0-.16.18-.06.08-.17.17-.61.49-.97.67-.04.02-.47.16-.22.12-.27.05-.57.03-.85.08-.16.03-.32.05-.41.06-.1,0-.2.02-.3.03-.49.05.05-.01.1.11-.06-.14-.66-.33-.77-.36-.09-.03-.2-.06-.29-.07-.06,0-.25-.09-.07.02.21.12-.16-.23-.21-.27-.12-.11-.31-.25-.42-.33-.14-.1-.11-.1-.01.01.02.03.05.12.07.13-.11-.07-.2-.49-.26-.63-.11-.24-.15-.31-.19-.55s-.06-.49-.14-.72c-.02-.04-.08-.29-.04-.03-.02-.14.01-.3.02-.45.02-.28-.05.15,0-.08.03-.12.08-.23.11-.35.06-.24.1-.5.15-.75-.02.09.11-.95.06-.93-.02,0-.06.21-.06.21-.01-.02.2-.35.22-.38.35-.73.2-1.62-.54-2.05-.66-.38-1.7-.19-2.05.54h0Z"/>
  <path class="cls-1" d="m31.54,175.37c1.62-.07,2.93-.79,4.4-1.37,1.72-.67,3.11-.1,4.8.36,1.59.44,3.07.47,4.69.17.76-.14,1.5-.36,2.25-.49,1.12-.2,2.22-.13,3.35-.06,1.74.12,3.59.08,5.29.43,1.83.37,3.53.82,5.39.99,1.75.16,3.55.5,5.31.38s3.3-.99,5.02-1.2,3.57-.09,5.3-.1c1.86,0,3.37.65,5.14,1.09,1.6.4,3.14.29,4.76.05,1.95-.3,3.6-.26,5.54.05,1.66.27,3.19.3,4.86.03,1.93-.31,3.7-.69,5.67-.44,1.67.21,3.37.71,5.07.65s3.33-.73,5.03-.73c1.96,0,3.89.54,5.84.66s3.86.75,5.84.78,3.74-.49,5.62-.59c2.04-.11,4.04.37,6.07.43s1.93-2.94,0-3c-1.81-.05-3.59-.45-5.4-.45s-3.59.47-5.4.58c-1.71.11-3.31-.34-4.99-.59-1.79-.27-3.6-.37-5.39-.62-1.6-.23-3.09-.21-4.69.09-1.86.36-3.32.44-5.22.13-1.61-.26-3.25-.56-4.88-.44-1.8.14-3.56.75-5.37.77-1.68.02-3.31-.52-4.98-.62-1.84-.11-3.6.49-5.43.54-1.64.05-3.09-.69-4.65-1.08-1.79-.45-3.65-.31-5.48-.27-1.68.03-3.3,0-4.93.46-.83.24-1.65.58-2.51.73-1,.17-2.05.04-3.05-.05-1.84-.17-3.71-.26-5.51-.71s-3.54-.67-5.44-.79c-2.05-.13-4.09-.44-6.13-.11s-3.74.96-5.8.4c-1.7-.46-3.34-1.07-5.12-.74-1.68.32-3.16,1.56-4.88,1.64-1.92.08-1.93,3.08,0,3h0Z"/>
</svg>