<svg version="1.1" id="Layer_1" xmlns="http://www.w3.org/2000/svg" xmlns:xlink="http://www.w3.org/1999/xlink" x="0px" y="0px"
	 width="100%" viewBox="0 0 2244 1265" enable-background="new 0 0 2244 1265" xml:space="preserve">
<path fill="#FFC0CB" opacity="1.000000" stroke="none" 
	d="
M2074.000000,1266.000000 
	C1382.666626,1266.000000 691.833313,1266.000000 1.000000,1266.000000 
	C1.000000,844.333313 1.000000,422.666656 1.000000,1.000000 
	C749.000000,1.000000 1497.000000,1.000000 2245.000000,1.000000 
	C2245.000000,422.666656 2245.000000,844.333313 2245.000000,1266.000000 
	C2188.166748,1266.000000 2131.333252,1266.000000 2074.000000,1266.000000 
M1195.000000,667.470154 
	C1195.000000,669.468994 1194.995117,671.467896 1195.000977,673.466736 
	C1195.022827,680.948120 1196.086792,681.996338 1203.768555,681.997620 
	C1237.416138,682.003235 1271.063721,682.005615 1304.711304,681.995422 
	C1311.731567,681.993286 1312.989258,680.785889 1312.993652,673.986267 
	C1313.009888,648.667297 1313.009155,623.348328 1312.993652,598.029358 
	C1312.989624,591.363342 1311.695923,590.011963 1305.226685,590.008484 
	C1271.079346,589.990295 1236.932129,589.990479 1202.784790,590.008423 
	C1196.305420,590.011841 1195.011108,591.359314 1195.006348,598.017944 
	C1194.989868,620.838318 1195.000000,643.658752 1195.000000,667.470154 
M505.000000,650.500000 
	C505.000000,658.162109 504.990417,665.824280 505.002716,673.486389 
	C505.014465,680.807190 506.152466,681.993103 513.288147,681.995300 
	C547.101624,682.005676 580.915039,682.005676 614.728516,681.995300 
	C621.731323,681.993164 622.989319,680.778931 622.993591,673.969482 
	C623.009521,648.651062 623.009766,623.332581 622.993469,598.014160 
	C622.989075,591.214294 621.731628,590.006653 614.712158,590.004517 
	C580.898682,589.994385 547.085266,589.994080 513.271790,590.004700 
	C506.154236,590.006897 505.007660,591.200562 505.003265,598.529968 
	C504.993011,615.519958 505.000000,632.510010 505.000000,650.500000 
M692.500000,682.000000 
	C712.654785,682.000000 732.809570,682.010925 752.964355,681.993774 
	C759.634583,681.988098 760.985962,680.696777 760.991333,674.233337 
	C761.012573,648.748291 761.011963,623.263306 760.991638,597.778259 
	C760.986572,591.441223 759.623840,590.015503 753.475647,590.011414 
	C719.162476,589.988464 684.849365,589.988647 650.536194,590.011230 
	C644.379822,590.015320 643.013611,591.438660 643.008545,597.766418 
	C642.987915,623.251465 642.987549,648.736450 643.008545,674.221497 
	C643.013855,680.695435 644.361145,681.983643 651.023804,681.993835 
	C664.515869,682.014465 678.007935,682.000000 692.500000,682.000000 
M781.000000,657.499878 
	C781.000000,662.830017 780.990784,668.160217 781.002258,673.490356 
	C781.017944,680.809326 782.151794,681.993164 789.292114,681.995361 
	C823.105591,682.005737 856.919006,682.005737 890.732483,681.995300 
	C897.731384,681.993164 898.989441,680.777344 898.993652,673.965454 
	C899.009521,648.646973 899.009827,623.328552 898.993469,598.010071 
	C898.989075,591.212646 897.731689,590.006653 890.708069,590.004517 
	C856.894592,589.994385 823.081116,589.994141 789.267639,590.004822 
	C782.154236,590.007019 781.006958,591.202026 781.003296,598.534058 
	C780.993652,617.856018 781.000000,637.178040 781.000000,657.499878 
M919.000000,642.500000 
	C919.000000,652.827209 918.991028,663.154480 919.003113,673.481689 
	C919.011658,680.805176 920.152771,681.993103 927.283386,681.995300 
	C961.096863,682.005798 994.910278,682.005676 1028.723755,681.995361 
	C1035.731323,681.993225 1036.989258,680.780762 1036.993530,673.974182 
	C1037.009521,648.655762 1037.009521,623.337280 1036.993774,598.018860 
	C1036.989624,591.359680 1035.694702,590.011841 1029.216431,590.008423 
	C995.069885,589.990417 960.923279,589.990295 926.776733,590.008423 
	C920.304382,590.011841 919.015503,591.361755 919.006287,598.025574 
	C918.986206,612.517029 919.000000,627.008545 919.000000,642.500000 
M1063.877563,681.998901 
	C1098.365356,681.999207 1132.853149,682.008789 1167.340942,681.990845 
	C1173.252319,681.987732 1174.960815,680.581970 1174.971802,675.352844 
	C1175.026733,649.028931 1174.984985,622.704895 1175.006104,596.380859 
	C1175.009521,592.018860 1172.917603,589.989502 1168.574219,589.992188 
	C1133.586548,590.013733 1098.598999,590.020874 1063.611328,589.982239 
	C1058.990479,589.977112 1056.970459,592.116638 1056.978760,596.695190 
	C1057.026855,622.852478 1057.023315,649.010071 1056.979126,675.167358 
	C1056.972046,679.330200 1058.456177,681.929504 1063.877563,681.998901 
M1358.500000,590.000000 
	C1352.836670,590.000000 1347.173340,589.990601 1341.510010,590.002319 
	C1334.191406,590.017395 1333.008057,591.152466 1333.004639,598.291748 
	C1332.992676,623.443604 1332.992310,648.595459 1333.004883,673.747314 
	C1333.008423,680.843689 1334.209351,681.995300 1341.549072,681.996887 
	C1375.195923,682.004028 1408.842773,682.004456 1442.489624,681.996582 
	C1449.958740,681.994873 1450.995605,680.916748 1450.997559,673.208801 
	C1451.003906,648.556641 1451.002075,623.904541 1450.998779,599.252380 
	C1450.997681,590.899292 1450.123291,590.002808 1441.951416,590.001526 
	C1414.467651,589.997375 1386.983765,590.000000 1358.500000,590.000000 
M1581.201660,590.000000 
	C1547.048584,590.000000 1512.895386,589.990417 1478.742310,590.008728 
	C1472.432983,590.012085 1471.017090,591.387207 1471.010986,597.562866 
	C1470.985474,623.219360 1470.984619,648.875854 1471.012085,674.532349 
	C1471.018555,680.502563 1472.459351,681.981384 1478.337769,681.986023 
	C1512.824097,682.013123 1547.310303,682.014038 1581.796631,681.984375 
	C1587.433716,681.979492 1588.974487,680.466187 1588.982544,674.897766 
	C1589.020020,648.908081 1588.962036,622.918213 1589.032227,596.928711 
	C1589.045288,592.099854 1586.979126,589.764648 1581.201660,590.000000 
M1628.502930,590.000000 
	C1624.838379,590.000000 1621.173950,589.992126 1617.509399,590.001648 
	C1610.190918,590.020691 1609.008179,591.152161 1609.004761,598.292419 
	C1608.992676,623.444336 1608.992188,648.596252 1609.004761,673.748169 
	C1609.008301,680.843750 1610.209595,681.995300 1617.550049,681.996887 
	C1651.197021,682.004028 1684.843872,682.004456 1718.490845,681.996582 
	C1725.959595,681.994873 1726.995605,680.917236 1726.997559,673.207581 
	C1727.003784,648.555359 1727.002075,623.903198 1726.998779,599.250977 
	C1726.997681,590.899170 1726.123047,590.002625 1717.949951,590.001526 
	C1688.467285,589.997498 1658.984497,590.000000 1628.502930,590.000000 
z"/>
<path fill="#FFFFFF" opacity="1.000000" stroke="none" 
	d="
M1195.000000,666.974609 
	C1195.000000,643.658752 1194.989868,620.838318 1195.006348,598.017944 
	C1195.011108,591.359314 1196.305420,590.011841 1202.784790,590.008423 
	C1236.932129,589.990479 1271.079346,589.990295 1305.226685,590.008484 
	C1311.695923,590.011963 1312.989624,591.363342 1312.993652,598.029358 
	C1313.009155,623.348328 1313.009888,648.667297 1312.993652,673.986267 
	C1312.989258,680.785889 1311.731567,681.993286 1304.711304,681.995422 
	C1271.063721,682.005615 1237.416138,682.003235 1203.768555,681.997620 
	C1196.086792,681.996338 1195.022827,680.948120 1195.000977,673.466736 
	C1194.995117,671.467896 1195.000000,669.468994 1195.000000,666.974609 
M1308.642334,595.022461 
	C1307.248291,594.681946 1305.854858,594.046448 1304.460205,594.044128 
	C1270.794312,593.988770 1237.128052,594.046143 1203.462402,593.934692 
	C1199.905396,593.922974 1198.924072,595.132019 1198.939697,598.559448 
	C1199.053589,623.558472 1199.062012,648.558533 1198.933105,673.557434 
	C1198.914551,677.139832 1200.178345,678.068237 1203.579224,678.058350 
	C1237.244995,677.960510 1270.911377,677.952148 1304.577026,678.066650 
	C1308.183228,678.078918 1309.074951,676.777405 1309.057129,673.401123 
	C1308.920532,647.569824 1308.937134,621.737732 1308.642334,595.022461 
z"/>
<path fill="#FFFFFF" opacity="1.000000" stroke="none" 
	d="
M505.000000,650.000000 
	C505.000000,632.510010 504.993011,615.519958 505.003265,598.529968 
	C505.007660,591.200562 506.154236,590.006897 513.271790,590.004700 
	C547.085266,589.994080 580.898682,589.994385 614.712158,590.004517 
	C621.731628,590.006653 622.989075,591.214294 622.993469,598.014160 
	C623.009766,623.332581 623.009521,648.651062 622.993591,673.969482 
	C622.989319,680.778931 621.731323,681.993164 614.728516,681.995300 
	C580.915039,682.005676 547.101624,682.005676 513.288147,681.995300 
	C506.152466,681.993103 505.014465,680.807190 505.002716,673.486389 
	C504.990417,665.824280 505.000000,658.162109 505.000000,650.000000 
M619.000000,659.499268 
	C618.999878,639.337097 618.941589,619.174561 619.056519,599.013000 
	C619.075928,595.610474 618.550964,593.900635 614.492798,593.918213 
	C580.834229,594.064270 547.174683,594.043091 513.515808,593.937866 
	C510.032837,593.927002 508.919312,595.005371 508.936310,598.504395 
	C509.057648,623.498291 509.057007,648.493164 508.936798,673.487061 
	C508.920044,676.974731 510.009369,678.111389 513.507935,678.065613 
	C526.336243,677.897888 539.168030,677.999878 551.998535,677.999939 
	C572.660583,678.000061 593.323486,677.906738 613.984070,678.081604 
	C617.927063,678.114929 619.363892,676.971924 619.068359,672.990784 
	C618.760803,668.847900 618.999878,664.664368 619.000000,659.499268 
z"/>
<path fill="#FFFFFF" opacity="1.000000" stroke="none" 
	d="
M692.000000,682.000000 
	C678.007935,682.000000 664.515869,682.014465 651.023804,681.993835 
	C644.361145,681.983643 643.013855,680.695435 643.008545,674.221497 
	C642.987549,648.736450 642.987915,623.251465 643.008545,597.766418 
	C643.013611,591.438660 644.379822,590.015320 650.536194,590.011230 
	C684.849365,589.988647 719.162476,589.988464 753.475647,590.011414 
	C759.623840,590.015503 760.986572,591.441223 760.991638,597.778259 
	C761.011963,623.263306 761.012573,648.748291 760.991333,674.233337 
	C760.985962,680.696777 759.634583,681.988098 752.964355,681.993774 
	C732.809570,682.010925 712.654785,682.000000 692.000000,682.000000 
M647.019470,596.824890 
	C647.013062,622.157654 647.063416,647.490723 646.937195,672.822876 
	C646.918823,676.503662 647.626587,678.114868 651.844910,678.093567 
	C685.343384,677.925049 718.843262,677.942810 752.342041,678.076904 
	C756.201111,678.092285 757.086792,676.735413 757.067810,673.136108 
	C756.937866,648.470581 756.937012,623.803833 757.066772,599.138306 
	C757.086426,595.400574 756.283325,593.887268 752.116333,593.907837 
	C718.617798,594.073120 685.118103,593.975769 651.619080,594.081360 
	C650.108337,594.086121 648.601257,595.269470 647.019470,596.824890 
z"/>
<path fill="#FFFFFF" opacity="1.000000" stroke="none" 
	d="
M781.000000,656.999939 
	C781.000000,637.178040 780.993652,617.856018 781.003296,598.534058 
	C781.006958,591.202026 782.154236,590.007019 789.267639,590.004822 
	C823.081116,589.994141 856.894592,589.994385 890.708069,590.004517 
	C897.731689,590.006653 898.989075,591.212646 898.993469,598.010071 
	C899.009827,623.328552 899.009521,648.646973 898.993652,673.965454 
	C898.989441,680.777344 897.731384,681.993164 890.732483,681.995300 
	C856.919006,682.005737 823.105591,682.005737 789.292114,681.995361 
	C782.151794,681.993164 781.017944,680.809326 781.002258,673.490356 
	C780.990784,668.160217 781.000000,662.830017 781.000000,656.999939 
M855.500000,678.000000 
	C866.997437,677.999878 878.498108,677.846680 889.990662,678.083740 
	C893.952820,678.165527 895.106995,676.935913 895.081177,672.987732 
	C894.919800,648.327698 894.918884,623.665405 895.082031,599.005371 
	C895.108215,595.045105 893.927002,593.903809 889.985107,593.920349 
	C856.659790,594.060303 823.333435,594.060974 790.008179,593.919556 
	C786.054443,593.902832 784.892944,595.063721 784.918762,599.012146 
	C785.080200,623.672180 785.081116,648.334473 784.918030,672.994507 
	C784.891846,676.954529 786.070923,678.112976 790.015076,678.081543 
	C811.508850,677.909729 833.004822,677.999939 855.500000,678.000000 
z"/>
<path fill="#FFFFFF" opacity="1.000000" stroke="none" 
	d="
M919.000000,642.000000 
	C919.000000,627.008545 918.986206,612.517029 919.006287,598.025574 
	C919.015503,591.361755 920.304382,590.011841 926.776733,590.008423 
	C960.923279,589.990295 995.069885,589.990417 1029.216431,590.008423 
	C1035.694702,590.011841 1036.989624,591.359680 1036.993774,598.018860 
	C1037.009521,623.337280 1037.009521,648.655762 1036.993530,673.974182 
	C1036.989258,680.780762 1035.731323,681.993225 1028.723755,681.995361 
	C994.910278,682.005676 961.096863,682.005798 927.283386,681.995300 
	C920.152771,681.993103 919.011658,680.805176 919.003113,673.481689 
	C918.991028,663.154480 919.000000,652.827209 919.000000,642.000000 
M923.000000,671.385254 
	C923.031982,677.990356 923.031982,677.998169 929.404663,677.998718 
	C962.066162,678.001526 994.728027,677.927246 1027.388672,678.088623 
	C1031.644043,678.109619 1033.149048,677.156494 1033.106567,672.589966 
	C1032.880127,648.262573 1032.903564,623.931213 1033.090820,599.603149 
	C1033.123657,595.334167 1032.134888,593.868713 1027.582031,593.895508 
	C994.588440,594.090149 961.592346,594.108337 928.599121,593.881958 
	C923.706360,593.848450 922.883972,595.594910 922.916443,599.922058 
	C923.092590,623.417053 923.000000,646.914001 923.000000,671.385254 
z"/>
<path fill="#FFFFFF" opacity="1.000000" stroke="none" 
	d="
M1063.426270,681.995605 
	C1058.456177,681.929504 1056.972046,679.330200 1056.979126,675.167358 
	C1057.023315,649.010071 1057.026855,622.852478 1056.978760,596.695190 
	C1056.970459,592.116638 1058.990479,589.977112 1063.611328,589.982239 
	C1098.598999,590.020874 1133.586548,590.013733 1168.574219,589.992188 
	C1172.917603,589.989502 1175.009521,592.018860 1175.006104,596.380859 
	C1174.984985,622.704895 1175.026733,649.028931 1174.971802,675.352844 
	C1174.960815,680.581970 1173.252319,681.987732 1167.340942,681.990845 
	C1132.853149,682.008789 1098.365356,681.999207 1063.426270,681.995605 
M1162.438965,678.000000 
	C1172.190918,677.870056 1170.960938,679.205566 1170.982910,669.542480 
	C1171.035767,646.213623 1170.893677,622.883728 1171.095459,599.556519 
	C1171.132935,595.214844 1170.020142,593.872864 1165.535522,593.898438 
	C1132.542725,594.086487 1099.548096,594.077637 1066.555054,593.906250 
	C1062.213257,593.883728 1060.857056,594.981323 1060.897095,599.465881 
	C1061.114136,623.792725 1061.103271,648.123352 1060.904175,672.450500 
	C1060.868530,676.802734 1061.997681,678.128052 1066.471558,678.101196 
	C1098.131226,677.910767 1129.792358,678.000000 1162.438965,678.000000 
z"/>
<path fill="#FFFFFF" opacity="1.000000" stroke="none" 
	d="
M1359.000000,590.000000 
	C1386.983765,590.000000 1414.467651,589.997375 1441.951416,590.001526 
	C1450.123291,590.002808 1450.997681,590.899292 1450.998779,599.252380 
	C1451.002075,623.904541 1451.003906,648.556641 1450.997559,673.208801 
	C1450.995605,680.916748 1449.958740,681.994873 1442.489624,681.996582 
	C1408.842773,682.004456 1375.195923,682.004028 1341.549072,681.996887 
	C1334.209351,681.995300 1333.008423,680.843689 1333.004883,673.747314 
	C1332.992310,648.595459 1332.992676,623.443604 1333.004639,598.291748 
	C1333.008057,591.152466 1334.191406,590.017395 1341.510010,590.002319 
	C1347.173340,589.990601 1352.836670,590.000000 1359.000000,590.000000 
M1433.489990,594.000000 
	C1402.996460,594.000122 1372.502563,594.066101 1342.009766,593.919373 
	C1338.058228,593.900330 1336.892822,595.059937 1336.918701,599.010681 
	C1337.080444,623.671021 1337.081055,648.333496 1336.918213,672.993835 
	C1336.892090,676.952393 1338.070801,678.096252 1342.014282,678.079712 
	C1375.339966,677.939575 1408.666626,677.938843 1441.992310,678.080444 
	C1445.947388,678.097290 1447.111694,676.934692 1447.081543,672.987183 
	C1446.911865,650.826538 1446.999878,628.663879 1447.000000,606.501953 
	C1447.000000,594.000000 1447.000000,594.000000 1433.489990,594.000000 
z"/>
<path fill="#FFFFFF" opacity="1.000000" stroke="none" 
	d="
M1581.662109,590.000610 
	C1586.979126,589.764648 1589.045288,592.099854 1589.032227,596.928711 
	C1588.962036,622.918213 1589.020020,648.908081 1588.982544,674.897766 
	C1588.974487,680.466187 1587.433716,681.979492 1581.796631,681.984375 
	C1547.310303,682.014038 1512.824097,682.013123 1478.337769,681.986023 
	C1472.459351,681.981384 1471.018555,680.502563 1471.012085,674.532349 
	C1470.984619,648.875854 1470.985474,623.219360 1471.010986,597.562866 
	C1471.017090,591.387207 1472.432983,590.012085 1478.742310,590.008728 
	C1512.895386,589.990417 1547.048584,590.000000 1581.662109,590.000610 
M1491.501953,594.000000 
	C1487.836060,594.000061 1484.142578,594.283142 1480.511475,593.927795 
	C1476.065430,593.492737 1474.863892,595.110413 1474.901367,599.515747 
	C1475.107910,623.841858 1475.109619,648.171631 1474.900146,672.497742 
	C1474.862061,676.924194 1476.119141,678.120789 1480.518311,678.097046 
	C1513.510010,677.918762 1546.503540,677.917358 1579.495239,678.098145 
	C1583.915771,678.122375 1585.135986,676.889343 1585.098633,672.484192 
	C1584.892090,648.158020 1584.890259,623.828308 1585.099854,599.502136 
	C1585.138062,595.075439 1583.881104,593.873596 1579.481445,593.902344 
	C1550.489136,594.091675 1521.494995,594.000000 1491.501953,594.000000 
z"/>
<path fill="#FFFFFF" opacity="1.000000" stroke="none" 
	d="
M1629.002441,590.000000 
	C1658.984497,590.000000 1688.467285,589.997498 1717.949951,590.001526 
	C1726.123047,590.002625 1726.997681,590.899170 1726.998779,599.250977 
	C1727.002075,623.903198 1727.003784,648.555359 1726.997559,673.207581 
	C1726.995605,680.917236 1725.959595,681.994873 1718.490845,681.996582 
	C1684.843872,682.004456 1651.197021,682.004028 1617.550049,681.996887 
	C1610.209595,681.995300 1609.008301,680.843750 1609.004761,673.748169 
	C1608.992188,648.596252 1608.992676,623.444336 1609.004761,598.292419 
	C1609.008179,591.152161 1610.190918,590.020691 1617.509399,590.001648 
	C1621.173950,589.992126 1624.838379,590.000000 1629.002441,590.000000 
M1723.000000,630.500000 
	C1722.999634,619.835693 1722.882202,609.169434 1723.065796,598.508301 
	C1723.126099,595.008484 1721.974365,593.926636 1718.487183,593.937622 
	C1684.828491,594.043213 1651.169067,594.043396 1617.510376,593.937561 
	C1614.019897,593.926575 1612.919800,595.018433 1612.936646,598.509827 
	C1613.057129,623.503662 1613.057495,648.498596 1612.936646,673.492432 
	C1612.919678,676.986938 1614.025269,678.073303 1617.512695,678.062378 
	C1651.171387,677.956787 1684.830811,677.956604 1718.489502,678.062500 
	C1721.979858,678.073425 1723.105103,676.984253 1723.065186,673.489868 
	C1722.905151,659.494812 1722.999634,645.496887 1723.000000,630.500000 
z"/>
<path fill="#A1CDF4" opacity="1.000000" stroke="none" 
	d="
M1308.774170,595.464172 
	C1308.937134,621.737732 1308.920532,647.569824 1309.057129,673.401123 
	C1309.074951,676.777405 1308.183228,678.078918 1304.577026,678.066650 
	C1270.911377,677.952148 1237.244995,677.960510 1203.579224,678.058350 
	C1200.178345,678.068237 1198.914551,677.139832 1198.933105,673.557434 
	C1199.062012,648.558533 1199.053589,623.558472 1198.939697,598.559448 
	C1198.924072,595.132019 1199.905396,593.922974 1203.462402,593.934692 
	C1237.128052,594.046143 1270.794312,593.988770 1304.460205,594.044128 
	C1305.854858,594.046448 1307.248291,594.681946 1308.774170,595.464172 
M1257.200928,635.550964 
	C1256.950195,637.139771 1256.699463,638.728577 1256.448853,640.317383 
	C1256.820557,640.744263 1257.192383,641.171143 1257.564209,641.598022 
	C1259.113892,640.558350 1261.700439,639.781250 1262.041138,638.435486 
	C1263.935547,630.952881 1265.285034,623.332336 1266.821289,615.756836 
	C1261.454834,613.555908 1260.752563,616.872070 1260.162964,620.341492 
	C1259.123291,626.460693 1258.678467,626.742188 1251.886719,625.160522 
	C1252.302856,621.908630 1252.726562,618.598206 1253.136719,615.393127 
	C1249.020264,614.311951 1247.482178,615.629761 1246.916138,619.309326 
	C1245.827271,626.388062 1244.246094,633.391052 1242.907104,640.231384 
	C1248.815796,642.435364 1248.795166,638.718140 1249.458496,635.655273 
	C1250.821167,629.363037 1251.456421,629.017456 1258.002563,630.982666 
	C1257.808350,632.211182 1257.606934,633.485901 1257.200928,635.550964 
M1260.728027,657.939758 
	C1258.861816,657.363586 1255.705200,655.870667 1255.351440,656.368713 
	C1253.765259,658.601868 1252.976685,661.401550 1251.858276,664.098145 
	C1259.023804,665.847351 1260.590820,664.786194 1260.728027,657.939758 
M1246.802002,656.947327 
	C1243.777954,655.634460 1240.694946,654.439575 1239.353394,658.953552 
	C1238.807617,660.790344 1238.791382,662.784424 1238.534180,664.706970 
	C1238.896973,664.801331 1239.259888,664.895752 1239.622803,664.990112 
	C1240.428833,664.115051 1241.234985,663.239990 1241.795776,662.631226 
	C1243.751709,663.632019 1245.498047,664.525574 1246.356567,664.964844 
	C1246.652954,662.143677 1246.893555,659.854492 1246.802002,656.947327 
M1265.291260,663.138733 
	C1266.368530,662.158569 1267.445679,661.178345 1268.481323,660.235901 
	C1267.743042,660.042603 1266.699097,659.769287 1264.355591,659.155701 
	C1266.801514,657.844055 1268.233643,657.076111 1269.665649,656.308167 
	C1267.164185,656.159851 1264.523315,656.553162 1263.315918,658.080017 
	C1262.213867,659.473450 1262.180542,662.223755 1262.681152,664.109070 
	C1262.868774,664.815552 1265.891357,664.769043 1267.621460,665.065796 
	C1267.632446,664.762695 1267.643311,664.459534 1267.654297,664.156433 
	C1267.020508,663.981689 1266.386841,663.806946 1265.291260,663.138733 
z"/>
<path fill="#A1CDF4" opacity="1.000000" stroke="none" 
	d="
M619.000000,659.998962 
	C618.999878,664.664368 618.760803,668.847900 619.068359,672.990784 
	C619.363892,676.971924 617.927063,678.114929 613.984070,678.081604 
	C593.323486,677.906738 572.660583,678.000061 551.998535,677.999939 
	C539.168030,677.999878 526.336243,677.897888 513.507935,678.065613 
	C510.009369,678.111389 508.920044,676.974731 508.936798,673.487061 
	C509.057007,648.493164 509.057648,623.498291 508.936310,598.504395 
	C508.919312,595.005371 510.032837,593.927002 513.515808,593.937866 
	C547.174683,594.043091 580.834229,594.064270 614.492798,593.918213 
	C618.550964,593.900635 619.075928,595.610474 619.056519,599.013000 
	C618.941589,619.174561 618.999878,639.337097 619.000000,659.998962 
M572.948059,634.305908 
	C572.470093,629.030579 572.147949,623.732971 571.401001,618.495972 
	C571.221558,617.238037 569.693604,615.295410 568.676147,615.223694 
	C566.782166,615.090210 563.728088,615.499756 563.042725,616.732056 
	C558.792053,624.374756 555.065796,632.309021 551.165466,640.146545 
	C551.674927,640.671997 552.184387,641.197449 552.693787,641.722900 
	C554.511414,640.462219 556.666870,639.494690 558.071655,637.875671 
	C560.492004,635.086243 566.001404,635.073181 567.442688,638.470215 
	C568.877258,641.851135 570.907654,641.152039 573.351562,640.386902 
	C573.211060,638.479553 573.089722,636.833374 572.948059,634.305908 
M565.015137,662.288452 
	C564.927429,663.096863 564.839661,663.905334 564.836670,663.932800 
	C567.515564,664.057007 569.746155,664.160339 572.471008,664.286621 
	C571.889282,661.586182 571.281677,658.765503 570.674011,655.944824 
	C570.082336,655.862183 569.490601,655.779541 568.898926,655.696960 
	C567.712585,657.683655 566.526245,659.670349 565.015137,662.288452 
M575.518616,656.909851 
	C575.001892,659.411499 574.485168,661.913086 573.859497,664.942505 
	C576.957642,662.956238 579.066772,661.735107 581.008484,660.289246 
	C581.703674,659.771484 582.559143,658.474365 582.340515,657.951294 
	C581.990112,657.112915 580.878418,656.259399 579.956177,656.075439 
	C578.731995,655.831299 577.380615,656.224670 575.518616,656.909851 
M553.534729,656.319946 
	C550.540283,655.445862 548.038391,656.181152 547.238403,659.304138 
	C546.855103,660.800598 547.405518,663.834045 548.165222,664.061646 
	C549.870789,664.572693 551.975037,663.785217 553.902222,663.443298 
	C554.015625,663.423157 553.998413,662.666565 554.078735,661.903809 
	C552.491516,662.522705 551.234802,663.012695 549.990356,663.497925 
	C547.145447,658.323914 552.314880,658.701782 553.534729,656.319946 
M559.250854,656.445251 
	C558.238647,658.828064 557.226440,661.210815 556.214233,663.593628 
	C558.011230,664.204102 559.808228,664.814514 561.605225,665.424927 
	C556.428406,663.427795 560.479675,659.554871 559.250854,656.445251 
z"/>
<path fill="#A1CDF4" opacity="1.000000" stroke="none" 
	d="
M647.055969,596.364380 
	C648.601257,595.269470 650.108337,594.086121 651.619080,594.081360 
	C685.118103,593.975769 718.617798,594.073120 752.116333,593.907837 
	C756.283325,593.887268 757.086426,595.400574 757.066772,599.138306 
	C756.937012,623.803833 756.937866,648.470581 757.067810,673.136108 
	C757.086792,676.735413 756.201111,678.092285 752.342041,678.076904 
	C718.843262,677.942810 685.343384,677.925049 651.844910,678.093567 
	C647.626587,678.114868 646.918823,676.503662 646.937195,672.822876 
	C647.063416,647.490723 647.013062,622.157654 647.055969,596.364380 
M711.975403,618.752991 
	C713.287476,613.285889 708.964600,615.271057 706.764221,615.068787 
	C701.922119,614.623535 696.977844,615.103760 695.270325,620.639343 
	C693.488647,626.415222 698.006714,628.407104 702.159607,630.508667 
	C703.306091,631.088806 703.989685,632.583862 704.885681,633.659119 
	C703.672791,634.620361 702.557617,636.191956 701.224976,636.405273 
	C699.015503,636.758972 696.648926,636.014709 694.383179,636.187134 
	C693.343506,636.266235 692.385864,637.423035 691.391052,638.091064 
	C692.104187,639.007385 692.878540,640.754517 693.520752,640.707275 
	C698.234619,640.360413 703.297546,640.566284 707.521301,638.827087 
	C712.612122,636.730835 712.191589,629.679016 707.388550,626.818176 
	C706.388855,626.222717 705.177979,625.902100 704.327332,625.155334 
	C703.174194,624.143066 702.274536,622.842102 701.266174,621.664978 
	C702.934875,620.836304 704.528320,619.675598 706.294128,619.275024 
	C707.960449,618.897156 709.808167,619.319031 711.975403,618.752991 
M696.221924,662.448486 
	C696.487061,663.260864 696.752197,664.073181 697.258972,665.625793 
	C698.447937,663.780273 699.179688,662.644409 700.176086,661.097778 
	C700.937012,662.595825 701.528442,663.760193 702.119812,664.924561 
	C702.555786,664.929993 702.991760,664.935486 703.427734,664.940918 
	C703.986755,662.188538 704.545837,659.436157 705.104858,656.683777 
	C704.691162,656.534058 704.277405,656.384399 703.863708,656.234680 
	C702.920410,657.368713 701.977173,658.502747 700.946289,659.742004 
	C700.108276,658.330627 699.438843,657.203064 698.182373,655.086792 
	C697.405762,657.998535 696.911255,659.852478 696.221924,662.448486 
M684.469543,656.258301 
	C683.609863,658.956238 682.750122,661.654236 681.890442,664.352173 
	C682.424194,664.549805 682.957947,664.747437 683.491699,664.945129 
	C684.332520,663.775818 685.173401,662.606506 686.123596,661.285156 
	C686.953369,662.683899 687.623962,663.814392 688.294556,664.944824 
	C688.705444,664.924316 689.116394,664.903809 689.527283,664.883301 
	C690.031799,662.129395 690.536316,659.375488 691.040833,656.621582 
	C690.605896,656.498657 690.170959,656.375793 689.735962,656.252869 
	C688.797913,657.403015 687.859802,658.553162 686.793457,659.860596 
	C686.118286,658.401001 685.644836,657.377625 684.469543,656.258301 
M707.454773,664.709351 
	C709.432922,664.459351 711.411133,664.209351 713.806763,663.906616 
	C713.516907,662.066467 713.304260,659.791748 712.723816,657.615112 
	C712.557800,656.992493 711.326538,656.653870 710.583740,656.185059 
	C709.336243,659.078979 708.088745,661.972961 707.454773,664.709351 
M719.442505,661.857117 
	C720.093079,659.935974 720.743652,658.014771 721.357361,656.202515 
	C719.733215,656.202515 717.981506,656.202515 716.687744,656.202515 
	C716.687744,659.209717 716.687744,661.944946 716.687744,664.680115 
	C717.007019,664.783569 717.326233,664.886963 717.645508,664.990356 
	C718.163879,664.185730 718.682251,663.381104 719.442505,661.857117 
z"/>
<path fill="#A1CDF4" opacity="1.000000" stroke="none" 
	d="
M855.000000,678.000000 
	C833.004822,677.999939 811.508850,677.909729 790.015076,678.081543 
	C786.070923,678.112976 784.891846,676.954529 784.918030,672.994507 
	C785.081116,648.334473 785.080200,623.672180 784.918762,599.012146 
	C784.892944,595.063721 786.054443,593.902832 790.008179,593.919556 
	C823.333435,594.060974 856.659790,594.060303 889.985107,593.920349 
	C893.927002,593.903809 895.108215,595.045105 895.082031,599.005371 
	C894.918884,623.665405 894.919800,648.327698 895.081177,672.987732 
	C895.106995,676.935913 893.952820,678.165527 889.990662,678.083740 
	C878.498108,677.846680 866.997437,677.999878 855.000000,678.000000 
M830.028503,633.364685 
	C829.618835,635.748901 829.209229,638.133057 828.716675,641.000000 
	C832.292236,641.000000 835.266541,641.111816 838.229797,640.978210 
	C845.979126,640.628784 852.112488,632.941528 851.788391,624.107239 
	C851.533020,617.144287 848.396362,614.942322 838.800110,614.988098 
	C838.133850,614.991272 837.273682,614.724060 836.837219,615.041382 
	C835.472107,616.033813 833.523865,617.036316 833.135315,618.411682 
	C831.829529,623.033691 831.101562,627.818970 830.028503,633.364685 
M847.928223,664.502014 
	C849.120422,663.963013 850.312683,663.424072 851.521729,662.877502 
	C852.517090,663.529663 853.725769,664.321655 854.769409,665.005432 
	C855.001099,661.642029 855.190979,658.885559 855.378113,656.168823 
	C848.779480,656.235413 848.779480,656.235413 847.928223,664.502014 
M829.677979,656.852417 
	C828.392395,656.683044 827.106812,656.513672 825.378357,656.286011 
	C824.896118,659.138000 824.453918,661.753113 823.780029,665.738464 
	C825.942993,664.042969 826.882324,663.306641 827.184631,663.069702 
	C829.606567,663.851746 831.490234,664.460022 833.373962,665.068298 
	C833.877686,664.663086 834.381409,664.257812 834.885132,663.852539 
	C827.979370,662.159607 830.069275,659.178223 833.847351,655.624023 
	C831.749939,656.114319 830.969849,656.296692 829.677979,656.852417 
M841.335022,659.224976 
	C842.836426,658.456482 844.337769,657.687927 845.916809,656.879639 
	C843.208069,655.071472 840.481506,655.690186 839.045532,658.730347 
	C838.344299,660.214966 838.736450,663.340454 839.840454,664.236206 
	C840.937134,665.126221 843.547607,664.150757 845.494263,663.993408 
	C845.413391,663.397400 845.332520,662.801453 845.251709,662.205505 
	C844.019409,662.633667 842.787109,663.061829 841.115234,663.642700 
	C841.115234,662.175659 841.115234,661.052429 841.335022,659.224976 
z"/>
<path fill="#A1CDF4" opacity="1.000000" stroke="none" 
	d="
M923.000000,670.897766 
	C923.000000,646.914001 923.092590,623.417053 922.916443,599.922058 
	C922.883972,595.594910 923.706360,593.848450 928.599121,593.881958 
	C961.592346,594.108337 994.588440,594.090149 1027.582031,593.895508 
	C1032.134888,593.868713 1033.123657,595.334167 1033.090820,599.603149 
	C1032.903564,623.931213 1032.880127,648.262573 1033.106567,672.589966 
	C1033.149048,677.156494 1031.644043,678.109619 1027.388672,678.088623 
	C994.728027,677.927246 962.066162,678.001526 929.404663,677.998718 
	C923.031982,677.998169 923.031982,677.990356 923.000000,670.897766 
M956.364258,660.880371 
	C956.595703,662.201111 956.827148,663.521851 957.247925,665.923340 
	C958.574768,664.073792 959.116516,662.880188 960.031555,662.162842 
	C961.004944,661.399719 962.519592,661.305847 963.445496,660.509888 
	C964.189087,659.870728 964.906494,658.498840 964.707947,657.675842 
	C964.531860,656.945984 962.781921,655.847595 962.241333,656.084717 
	C960.031982,657.054077 958.019897,658.472839 955.481628,659.086731 
	C953.679016,658.103577 951.689209,656.126770 950.127258,656.421021 
	C948.612854,656.706238 946.956177,659.177185 946.498718,660.977112 
	C946.243530,661.981201 948.600342,664.826538 949.263855,664.668945 
	C951.360168,664.171021 953.232422,662.679260 955.143311,661.494690 
	C955.518677,661.262085 955.679932,660.684143 956.364258,660.880371 
M985.255493,619.008606 
	C986.437378,618.228210 987.619263,617.447815 988.801147,616.667358 
	C987.600342,616.108582 986.431763,615.173523 985.192139,615.067139 
	C982.380005,614.826050 979.522583,614.852600 976.705139,615.061707 
	C975.553650,615.147156 973.622864,615.801331 973.465149,616.511780 
	C971.687500,624.517029 970.185974,632.583679 968.568848,640.845825 
	C978.064331,641.716064 973.509521,633.335083 975.535522,631.691711 
	C979.487244,628.391479 985.007629,632.724792 986.372986,626.262878 
	C983.192078,626.062805 980.426086,625.888916 977.172485,625.684265 
	C977.648254,623.331787 978.055420,621.318481 978.522034,619.011292 
	C980.750000,619.011292 982.561646,619.011292 985.255493,619.008606 
M977.344543,656.184387 
	C976.252502,658.862549 975.160461,661.540710 974.068359,664.218872 
	C974.516296,664.455566 974.964172,664.692322 975.412109,664.929016 
	C976.263245,664.191162 977.114441,663.453308 977.927734,662.748230 
	C978.894531,663.518005 979.832825,664.265015 981.120911,665.290527 
	C982.152832,662.635620 982.991882,660.476868 983.830933,658.318054 
	C984.113708,658.385986 984.396423,658.453918 984.679199,658.521790 
	C984.679199,660.587158 984.679199,662.652466 984.679199,666.143066 
	C986.357666,663.760376 987.188232,662.581299 988.118835,661.260254 
	C988.980286,662.696411 989.653015,663.818054 990.325745,664.939697 
	C990.733154,664.910950 991.140503,664.882263 991.547913,664.853516 
	C992.042358,662.105652 992.536865,659.357788 993.031372,656.609985 
	C992.585693,656.487793 992.140015,656.365662 991.694336,656.243530 
	C990.845032,657.341675 989.995728,658.439758 988.985046,659.746521 
	C987.023438,655.688171 984.547180,654.304810 980.842407,657.627136 
	C980.549500,657.889771 978.999634,656.750671 977.344543,656.184387 
M997.699341,663.330750 
	C998.821350,663.848572 999.943359,664.366455 1001.952148,665.293579 
	C1001.558472,662.627625 1001.411560,660.740051 1000.959778,658.928467 
	C1000.712585,657.937073 999.950195,657.074158 999.420105,656.153320 
	C998.528687,656.748413 997.325684,657.148682 996.807434,657.977234 
	C995.539978,660.003479 994.589050,662.227722 992.834045,665.717834 
	C995.181519,664.506653 996.119568,664.022705 997.699341,663.330750 
M969.597473,657.935791 
	C970.695435,657.431763 971.793457,656.927734 973.159790,656.300476 
	C966.614990,655.817078 965.727600,656.931458 966.213257,664.783813 
	C968.050476,664.783813 969.899475,664.783813 973.071106,664.783813 
	C970.719299,664.057495 969.612976,663.715820 967.474548,663.055359 
	C969.561890,661.776489 970.742432,661.053162 971.572998,660.544312 
	C970.838989,659.892334 970.081238,659.219299 969.597473,657.935791 
M1005.058350,658.284790 
	C1004.925476,660.419067 1004.792542,662.553284 1004.659668,664.687561 
	C1005.118530,664.798096 1005.577393,664.908691 1006.036255,665.019226 
	C1007.187988,662.071167 1008.339783,659.123047 1009.957764,654.981506 
	C1007.739685,656.127869 1006.272827,656.885986 1005.058350,658.284790 
z"/>
<path fill="#A1CDF4" opacity="1.000000" stroke="none" 
	d="
M1161.946045,678.000000 
	C1129.792358,678.000000 1098.131226,677.910767 1066.471558,678.101196 
	C1061.997681,678.128052 1060.868530,676.802734 1060.904175,672.450500 
	C1061.103271,648.123352 1061.114136,623.792725 1060.897095,599.465881 
	C1060.857056,594.981323 1062.213257,593.883728 1066.555054,593.906250 
	C1099.548096,594.077637 1132.542725,594.086487 1165.535522,593.898438 
	C1170.020142,593.872864 1171.132935,595.214844 1171.095459,599.556519 
	C1170.893677,622.883728 1171.035767,646.213623 1170.982910,669.542480 
	C1170.960938,679.205566 1172.190918,677.870056 1161.946045,678.000000 
M1106.833618,625.641357 
	C1106.593750,628.430969 1105.893188,631.275696 1106.219360,633.997498 
	C1106.735107,638.302979 1109.584229,640.963135 1113.985962,640.910950 
	C1117.842529,640.865356 1122.827026,642.675842 1124.535400,637.065247 
	C1125.567993,633.674194 1125.851440,630.055054 1126.561890,626.025146 
	C1122.643066,626.695374 1118.573242,623.969421 1115.933228,628.975586 
	C1117.546021,629.760193 1118.768188,630.354797 1121.413208,631.641602 
	C1119.107666,633.751038 1117.472534,636.497803 1115.790405,636.526978 
	C1112.242188,636.588440 1111.731689,633.466187 1111.885864,630.343628 
	C1112.263794,622.694153 1116.634155,619.121826 1124.628052,619.700317 
	C1125.807495,619.785706 1127.096069,618.361084 1128.334229,617.635132 
	C1127.229858,616.765259 1126.205933,615.280029 1125.008179,615.123291 
	C1115.820435,613.921021 1111.175781,616.538757 1106.833618,625.641357 
M1126.438599,663.387024 
	C1129.096069,663.772644 1132.656250,665.365723 1134.175903,664.229553 
	C1135.959106,662.896301 1135.968506,659.190735 1136.747314,656.514099 
	C1136.286377,656.252197 1135.825439,655.990295 1135.364502,655.728394 
	C1134.025024,656.814392 1132.685669,657.900330 1131.663696,658.728943 
	C1130.831909,657.858398 1130.028076,657.017029 1129.224121,656.175659 
	C1128.566650,657.026001 1127.686401,657.788513 1127.307983,658.748840 
	C1126.831177,659.959045 1126.764282,661.330688 1126.438599,663.387024 
M1124.774292,661.953796 
	C1125.151733,659.045532 1125.556519,655.758911 1121.253174,656.177856 
	C1119.562378,656.342529 1117.507202,658.131409 1116.667358,659.731445 
	C1116.130005,660.755127 1117.509399,664.129883 1118.036255,664.131348 
	C1120.171387,664.137512 1122.309204,663.245667 1124.774292,661.953796 
M1099.589111,655.974121 
	C1096.341919,658.104797 1094.783203,663.884216 1097.278076,664.658936 
	C1098.980713,665.187622 1101.897339,665.149353 1102.802612,664.098999 
	C1104.077881,662.619019 1104.347656,659.956543 1104.281616,657.823425 
	C1104.260986,657.159851 1101.756836,656.573303 1099.589111,655.974121 
M1106.100220,662.219727 
	C1107.949707,663.028076 1110.356689,664.953125 1111.514282,664.375305 
	C1113.131104,663.568359 1114.176636,660.985779 1114.696045,658.964844 
	C1114.869751,658.288757 1112.266846,655.950562 1111.649658,656.193359 
	C1109.623413,656.990417 1107.897095,658.586670 1106.134888,659.976685 
	C1105.878906,660.178589 1106.056641,660.930542 1106.100220,662.219727 
z"/>
<path fill="#A1CDF4" opacity="1.000000" stroke="none" 
	d="
M1433.987793,594.000000 
	C1447.000000,594.000000 1447.000000,594.000000 1447.000000,606.501953 
	C1446.999878,628.663879 1446.911865,650.826538 1447.081543,672.987183 
	C1447.111694,676.934692 1445.947388,678.097290 1441.992310,678.080444 
	C1408.666626,677.938843 1375.339966,677.939575 1342.014282,678.079712 
	C1338.070801,678.096252 1336.892090,676.952393 1336.918213,672.993835 
	C1337.081055,648.333496 1337.080444,623.671021 1336.918701,599.010681 
	C1336.892822,595.059937 1338.058228,593.900330 1342.009766,593.919373 
	C1372.502563,594.066101 1402.996460,594.000122 1433.987793,594.000000 
M1396.441284,637.935486 
	C1398.541016,630.615723 1400.640747,623.295898 1403.012085,615.028992 
	C1397.458252,615.028992 1393.512573,614.917847 1389.583008,615.120239 
	C1388.771362,615.162109 1388.019775,616.370544 1387.240479,617.041199 
	C1388.002319,617.687683 1388.699585,618.767883 1389.538940,618.892578 
	C1391.428833,619.173218 1393.388916,618.980652 1395.830688,618.980652 
	C1394.816650,623.932556 1394.148682,628.191101 1393.030640,632.327881 
	C1392.181763,635.468323 1390.550293,637.634705 1386.482056,636.077942 
	C1385.316895,635.632080 1383.406860,637.132935 1381.111694,638.022888 
	C1386.782104,642.028015 1390.886475,641.901306 1396.441284,637.935486 
M1386.167603,660.830627 
	C1386.370483,659.351318 1386.573242,657.871948 1386.639038,657.392578 
	C1383.856934,657.004150 1382.013184,656.746765 1379.604370,656.410461 
	C1379.139893,658.959778 1378.644897,661.676270 1378.167480,664.296814 
	C1380.017334,664.070190 1381.541748,663.391174 1382.229126,663.882629 
	C1385.567993,666.270081 1385.693237,663.859802 1386.167603,660.830627 
M1403.135132,655.953308 
	C1397.597900,655.260803 1398.407593,659.839722 1397.479370,662.890015 
	C1397.307739,663.453979 1397.863892,664.239502 1398.266235,665.487915 
	C1399.497803,664.105469 1400.302734,663.201965 1401.060059,662.351807 
	C1402.306396,663.378540 1403.386841,664.268677 1404.419067,665.119080 
	C1405.045776,663.010498 1405.956299,661.289246 1405.928955,659.582947 
	C1405.909546,658.373169 1404.623047,657.183777 1403.135132,655.953308 
M1395.165527,660.150330 
	C1394.509644,658.813354 1393.853882,657.476318 1393.198120,656.139282 
	C1392.190796,657.089355 1390.951416,657.891785 1390.230347,659.024109 
	C1389.147827,660.724121 1388.428589,662.655334 1387.745605,664.088013 
	C1390.523315,664.088013 1392.862793,664.088013 1395.684692,664.088013 
	C1395.608154,663.321106 1395.487793,662.115295 1395.165527,660.150330 
M1376.354370,661.156860 
	C1375.281982,660.197388 1374.209717,659.237854 1372.647217,657.839905 
	C1374.345825,657.709717 1375.310425,657.635803 1376.274902,657.561890 
	C1376.201416,657.047913 1376.127930,656.533875 1376.054321,656.019897 
	C1374.268433,656.398254 1372.482422,656.776672 1370.696533,657.155029 
	C1371.443970,659.197021 1372.191528,661.238953 1373.010254,663.475464 
	C1372.287964,663.475464 1371.068359,663.475464 1369.848633,663.475464 
	C1372.733398,665.228699 1375.379150,665.849121 1376.354370,661.156860 
M1409.807617,656.094055 
	C1408.757568,658.762451 1407.707642,661.430847 1406.406494,664.737427 
	C1409.727295,664.737427 1411.674805,664.737427 1414.297974,664.737427 
	C1412.419312,663.970215 1411.208496,663.475708 1408.670288,662.439148 
	C1411.303711,661.488403 1412.567749,661.032043 1413.794434,660.589172 
	C1412.891113,659.997925 1411.931519,659.369751 1410.367798,658.346191 
	C1412.238770,657.532471 1413.451294,657.005127 1415.768311,655.997437 
	C1413.201050,655.997437 1411.892090,655.997437 1409.807617,656.094055 
z"/>
<path fill="#A1CDF4" opacity="1.000000" stroke="none" 
	d="
M1492.001709,594.000000 
	C1521.494995,594.000000 1550.489136,594.091675 1579.481445,593.902344 
	C1583.881104,593.873596 1585.138062,595.075439 1585.099854,599.502136 
	C1584.890259,623.828308 1584.892090,648.158020 1585.098633,672.484192 
	C1585.135986,676.889343 1583.915771,678.122375 1579.495239,678.098145 
	C1546.503540,677.917358 1513.510010,677.918762 1480.518311,678.097046 
	C1476.119141,678.120789 1474.862061,676.924194 1474.900146,672.497742 
	C1475.109619,648.171631 1475.107910,623.841858 1474.901367,599.515747 
	C1474.863892,595.110413 1476.065430,593.492737 1480.511475,593.927795 
	C1484.142578,594.283142 1487.836060,594.000061 1492.001709,594.000000 
M1542.819092,615.339233 
	C1535.371216,612.715210 1533.811279,620.336548 1528.936890,623.525696 
	C1529.224487,620.535339 1529.461792,618.067627 1529.856201,613.965759 
	C1527.222900,615.403748 1524.557983,615.987061 1524.267456,617.158997 
	C1522.368408,624.820435 1520.983521,632.609253 1519.406860,640.474487 
	C1528.168335,642.742737 1524.449829,634.088013 1527.701904,631.745544 
	C1533.313965,641.506958 1533.313965,641.506958 1538.298828,640.153259 
	C1537.455811,638.328674 1536.838623,636.402527 1535.763916,634.779297 
	C1532.812988,630.322632 1532.622559,626.418701 1537.002808,622.638062 
	C1539.237793,620.709106 1540.977905,618.206909 1542.819092,615.339233 
M1538.080933,664.948853 
	C1544.970703,665.644836 1543.744873,660.508240 1544.761108,655.000488 
	C1542.258667,656.813599 1540.892090,657.803772 1539.564941,658.765320 
	C1539.024780,658.042480 1538.325928,657.107117 1537.627075,656.171753 
	C1536.463745,657.439026 1535.300415,658.706299 1534.080566,660.035034 
	C1533.496704,659.033997 1533.107056,657.427856 1532.306152,657.186584 
	C1530.603271,656.673462 1528.115234,656.119080 1527.001953,656.965759 
	C1525.611572,658.023499 1524.536377,660.572021 1524.763306,662.286621 
	C1524.905396,663.360840 1528.627319,665.208069 1529.140747,664.781067 
	C1532.117920,662.305847 1534.652832,665.021973 1538.080933,664.948853 
M1521.801880,655.977783 
	C1520.534058,656.041504 1519.266357,656.105164 1518.450195,656.146179 
	C1518.311646,659.222534 1518.187256,661.985596 1518.062744,664.748596 
	C1518.559692,664.875671 1519.056519,665.002686 1519.553467,665.129761 
	C1520.516235,662.101746 1521.479004,659.073730 1521.801880,655.977783 
z"/>
<path fill="#A1CDF4" opacity="1.000000" stroke="none" 
	d="
M1723.000000,631.000000 
	C1722.999634,645.496887 1722.905151,659.494812 1723.065186,673.489868 
	C1723.105103,676.984253 1721.979858,678.073425 1718.489502,678.062500 
	C1684.830811,677.956604 1651.171387,677.956787 1617.512695,678.062378 
	C1614.025269,678.073303 1612.919678,676.986938 1612.936646,673.492432 
	C1613.057495,648.498596 1613.057129,623.503662 1612.936646,598.509827 
	C1612.919800,595.018433 1614.019897,593.926575 1617.510376,593.937561 
	C1651.169067,594.043396 1684.828491,594.043213 1718.487183,593.937622 
	C1721.974365,593.926636 1723.126099,595.008484 1723.065796,598.508301 
	C1722.882202,609.169434 1722.999634,619.835693 1723.000000,631.000000 
M1667.629517,625.167786 
	C1668.170532,621.949158 1668.711426,618.730591 1669.525757,613.885254 
	C1666.685791,615.355835 1663.865967,615.928711 1663.587036,617.104431 
	C1661.769653,624.764709 1660.503662,632.555725 1659.060181,640.287964 
	C1669.275757,642.273071 1674.577637,641.328308 1675.408569,637.222351 
	C1672.142334,637.066772 1668.931030,636.913818 1665.404663,636.745850 
	C1666.121704,632.803467 1666.743408,629.386108 1667.629517,625.167786 
M1672.289551,664.561401 
	C1673.027588,661.872314 1673.765625,659.183167 1674.402466,656.862488 
	C1671.541016,656.720703 1669.621704,656.625610 1667.073730,656.499329 
	C1666.512939,659.028381 1665.901489,661.786011 1665.289917,664.543701 
	C1665.768066,664.680847 1666.246094,664.817993 1666.724121,664.955139 
	C1667.343628,663.981384 1667.963135,663.007629 1668.408325,662.307861 
	C1669.465088,663.132446 1670.547729,663.977234 1672.289551,664.561401 
M1680.677734,656.852539 
	C1679.400635,656.682678 1678.123535,656.512817 1676.406616,656.284485 
	C1675.903076,659.108459 1675.437988,661.717651 1674.730469,665.686096 
	C1676.880859,664.072388 1677.828491,663.361206 1678.618164,662.768616 
	C1680.000977,663.567566 1681.334961,664.338318 1681.893921,664.661316 
	C1682.255859,661.481201 1682.567505,658.742920 1682.870483,656.080872 
	C1682.740356,656.111694 1681.964722,656.295593 1680.677734,656.852539 
M1659.020264,657.213379 
	C1659.272095,657.022705 1659.537354,656.846191 1659.766602,656.631409 
	C1659.823120,656.578369 1659.771362,656.296753 1659.755859,656.295593 
	C1657.999512,656.160950 1656.241821,656.042969 1654.786011,655.944397 
	C1654.786011,659.147156 1654.786011,661.950256 1654.786011,664.753357 
	C1655.259277,664.851196 1655.732422,664.949036 1656.205688,665.046875 
	C1656.955688,662.563049 1657.705688,660.079224 1659.020264,657.213379 
z"/>
<path fill="#FBFCFE" opacity="1.000000" stroke="none" 
	d="
M1257.303223,635.155762 
	C1257.606934,633.485901 1257.808350,632.211182 1258.002563,630.982666 
	C1251.456421,629.017456 1250.821167,629.363037 1249.458496,635.655273 
	C1248.795166,638.718140 1248.815796,642.435364 1242.907104,640.231384 
	C1244.246094,633.391052 1245.827271,626.388062 1246.916138,619.309326 
	C1247.482178,615.629761 1249.020264,614.311951 1253.136719,615.393127 
	C1252.726562,618.598206 1252.302856,621.908630 1251.886719,625.160522 
	C1258.678467,626.742188 1259.123291,626.460693 1260.162964,620.341492 
	C1260.752563,616.872070 1261.454834,613.555908 1266.821289,615.756836 
	C1265.285034,623.332336 1263.935547,630.952881 1262.041138,638.435486 
	C1261.700439,639.781250 1259.113892,640.558350 1257.564209,641.598022 
	C1257.192383,641.171143 1256.820557,640.744263 1256.448853,640.317383 
	C1256.699463,638.728577 1256.950195,637.139771 1257.303223,635.155762 
z"/>
<path fill="#F2F6FC" opacity="1.000000" stroke="none" 
	d="
M1260.827881,658.339966 
	C1260.590820,664.786194 1259.023804,665.847351 1251.858276,664.098145 
	C1252.976685,661.401550 1253.765259,658.601868 1255.351440,656.368713 
	C1255.705200,655.870667 1258.861816,657.363586 1260.827881,658.339966 
z"/>
<path fill="#E8F2FC" opacity="1.000000" stroke="none" 
	d="
M1246.968018,657.256287 
	C1246.893555,659.854492 1246.652954,662.143677 1246.356567,664.964844 
	C1245.498047,664.525574 1243.751709,663.632019 1241.795776,662.631226 
	C1241.234985,663.239990 1240.428833,664.115051 1239.622803,664.990112 
	C1239.259888,664.895752 1238.896973,664.801331 1238.534180,664.706970 
	C1238.791382,662.784424 1238.807617,660.790344 1239.353394,658.953552 
	C1240.694946,654.439575 1243.777954,655.634460 1246.968018,657.256287 
z"/>
<path fill="#F2F6FC" opacity="1.000000" stroke="none" 
	d="
M1265.522217,663.385498 
	C1266.386841,663.806946 1267.020508,663.981689 1267.654297,664.156433 
	C1267.643311,664.459534 1267.632446,664.762695 1267.621460,665.065796 
	C1265.891357,664.769043 1262.868774,664.815552 1262.681152,664.109070 
	C1262.180542,662.223755 1262.213867,659.473450 1263.315918,658.080017 
	C1264.523315,656.553162 1267.164185,656.159851 1269.665649,656.308167 
	C1268.233643,657.076111 1266.801514,657.844055 1264.355591,659.155701 
	C1266.699097,659.769287 1267.743042,660.042603 1268.481323,660.235901 
	C1267.445679,661.178345 1266.368530,662.158569 1265.522217,663.385498 
z"/>
<path fill="#FBFCFE" opacity="1.000000" stroke="none" 
	d="
M572.958252,634.746582 
	C573.089722,636.833374 573.211060,638.479553 573.351562,640.386902 
	C570.907654,641.152039 568.877258,641.851135 567.442688,638.470215 
	C566.001404,635.073181 560.492004,635.086243 558.071655,637.875671 
	C556.666870,639.494690 554.511414,640.462219 552.693787,641.722900 
	C552.184387,641.197449 551.674927,640.671997 551.165466,640.146545 
	C555.065796,632.309021 558.792053,624.374756 563.042725,616.732056 
	C563.728088,615.499756 566.782166,615.090210 568.676147,615.223694 
	C569.693604,615.295410 571.221558,617.238037 571.401001,618.495972 
	C572.147949,623.732971 572.470093,629.030579 572.958252,634.746582 
M566.164856,621.442810 
	C564.446655,624.695251 562.728516,627.947754 560.771973,631.651428 
	C563.289612,631.651428 564.856018,631.651428 566.724548,631.651428 
	C566.724548,628.096741 566.724548,624.847778 566.164856,621.442810 
z"/>
<path fill="#F2F6FC" opacity="1.000000" stroke="none" 
	d="
M565.177490,661.972778 
	C566.526245,659.670349 567.712585,657.683655 568.898926,655.696960 
	C569.490601,655.779541 570.082336,655.862183 570.674011,655.944824 
	C571.281677,658.765503 571.889282,661.586182 572.471008,664.286621 
	C569.746155,664.160339 567.515564,664.057007 564.836670,663.932800 
	C564.839661,663.905334 564.927429,663.096863 565.177490,661.972778 
z"/>
<path fill="#E8F2FC" opacity="1.000000" stroke="none" 
	d="
M575.801270,656.626953 
	C577.380615,656.224670 578.731995,655.831299 579.956177,656.075439 
	C580.878418,656.259399 581.990112,657.112915 582.340515,657.951294 
	C582.559143,658.474365 581.703674,659.771484 581.008484,660.289246 
	C579.066772,661.735107 576.957642,662.956238 573.859497,664.942505 
	C574.485168,661.913086 575.001892,659.411499 575.801270,656.626953 
z"/>
<path fill="#F2F6FC" opacity="1.000000" stroke="none" 
	d="
M553.782715,656.558472 
	C552.314880,658.701782 547.145447,658.323914 549.990356,663.497925 
	C551.234802,663.012695 552.491516,662.522705 554.078735,661.903809 
	C553.998413,662.666565 554.015625,663.423157 553.902222,663.443298 
	C551.975037,663.785217 549.870789,664.572693 548.165222,664.061646 
	C547.405518,663.834045 546.855103,660.800598 547.238403,659.304138 
	C548.038391,656.181152 550.540283,655.445862 553.782715,656.558472 
z"/>
<path fill="#F2F6FC" opacity="1.000000" stroke="none" 
	d="
M559.474365,656.743530 
	C560.479675,659.554871 556.428406,663.427795 561.605225,665.424927 
	C559.808228,664.814514 558.011230,664.204102 556.214233,663.593628 
	C557.226440,661.210815 558.238647,658.828064 559.474365,656.743530 
z"/>
<path fill="#FBFCFE" opacity="1.000000" stroke="none" 
	d="
M711.775757,619.071045 
	C709.808167,619.319031 707.960449,618.897156 706.294128,619.275024 
	C704.528320,619.675598 702.934875,620.836304 701.266174,621.664978 
	C702.274536,622.842102 703.174194,624.143066 704.327332,625.155334 
	C705.177979,625.902100 706.388855,626.222717 707.388550,626.818176 
	C712.191589,629.679016 712.612122,636.730835 707.521301,638.827087 
	C703.297546,640.566284 698.234619,640.360413 693.520752,640.707275 
	C692.878540,640.754517 692.104187,639.007385 691.391052,638.091064 
	C692.385864,637.423035 693.343506,636.266235 694.383179,636.187134 
	C696.648926,636.014709 699.015503,636.758972 701.224976,636.405273 
	C702.557617,636.191956 703.672791,634.620361 704.885681,633.659119 
	C703.989685,632.583862 703.306091,631.088806 702.159607,630.508667 
	C698.006714,628.407104 693.488647,626.415222 695.270325,620.639343 
	C696.977844,615.103760 701.922119,614.623535 706.764221,615.068787 
	C708.964600,615.271057 713.287476,613.285889 711.775757,619.071045 
z"/>
<path fill="#F2F6FC" opacity="1.000000" stroke="none" 
	d="
M696.319336,662.077393 
	C696.911255,659.852478 697.405762,657.998535 698.182373,655.086792 
	C699.438843,657.203064 700.108276,658.330627 700.946289,659.742004 
	C701.977173,658.502747 702.920410,657.368713 703.863708,656.234680 
	C704.277405,656.384399 704.691162,656.534058 705.104858,656.683777 
	C704.545837,659.436157 703.986755,662.188538 703.427734,664.940918 
	C702.991760,664.935486 702.555786,664.929993 702.119812,664.924561 
	C701.528442,663.760193 700.937012,662.595825 700.176086,661.097778 
	C699.179688,662.644409 698.447937,663.780273 697.258972,665.625793 
	C696.752197,664.073181 696.487061,663.260864 696.319336,662.077393 
z"/>
<path fill="#F2F6FC" opacity="1.000000" stroke="none" 
	d="
M684.820496,656.306274 
	C685.644836,657.377625 686.118286,658.401001 686.793457,659.860596 
	C687.859802,658.553162 688.797913,657.403015 689.735962,656.252869 
	C690.170959,656.375793 690.605896,656.498657 691.040833,656.621582 
	C690.536316,659.375488 690.031799,662.129395 689.527283,664.883301 
	C689.116394,664.903809 688.705444,664.924316 688.294556,664.944824 
	C687.623962,663.814392 686.953369,662.683899 686.123596,661.285156 
	C685.173401,662.606506 684.332520,663.775818 683.491699,664.945129 
	C682.957947,664.747437 682.424194,664.549805 681.890442,664.352173 
	C682.750122,661.654236 683.609863,658.956238 684.820496,656.306274 
z"/>
<path fill="#F2F6FC" opacity="1.000000" stroke="none" 
	d="
M707.147949,664.788086 
	C708.088745,661.972961 709.336243,659.078979 710.583740,656.185059 
	C711.326538,656.653870 712.557800,656.992493 712.723816,657.615112 
	C713.304260,659.791748 713.516907,662.066467 713.806763,663.906616 
	C711.411133,664.209351 709.432922,664.459351 707.147949,664.788086 
z"/>
<path fill="#F2F6FC" opacity="1.000000" stroke="none" 
	d="
M719.321594,662.216797 
	C718.682251,663.381104 718.163879,664.185730 717.645508,664.990356 
	C717.326233,664.886963 717.007019,664.783569 716.687744,664.680115 
	C716.687744,661.944946 716.687744,659.209717 716.687744,656.202515 
	C717.981506,656.202515 719.733215,656.202515 721.357361,656.202515 
	C720.743652,658.014771 720.093079,659.935974 719.321594,662.216797 
z"/>
<path fill="#FBFCFE" opacity="1.000000" stroke="none" 
	d="
M830.090454,632.953247 
	C831.101562,627.818970 831.829529,623.033691 833.135315,618.411682 
	C833.523865,617.036316 835.472107,616.033813 836.837219,615.041382 
	C837.273682,614.724060 838.133850,614.991272 838.800110,614.988098 
	C848.396362,614.942322 851.533020,617.144287 851.788391,624.107239 
	C852.112488,632.941528 845.979126,640.628784 838.229797,640.978210 
	C835.266541,641.111816 832.292236,641.000000 828.716675,641.000000 
	C829.209229,638.133057 829.618835,635.748901 830.090454,632.953247 
M844.734619,620.852478 
	C842.571716,619.317383 839.586060,617.148254 838.277588,620.667786 
	C836.435669,625.622009 835.981689,631.092163 834.915649,636.434692 
	C842.984253,636.776550 847.324890,629.964783 844.734619,620.852478 
z"/>
<path fill="#F2F6FC" opacity="1.000000" stroke="none" 
	d="
M847.781555,664.204102 
	C848.779480,656.235413 848.779480,656.235413 855.378113,656.168823 
	C855.190979,658.885559 855.001099,661.642029 854.769409,665.005432 
	C853.725769,664.321655 852.517090,663.529663 851.521729,662.877502 
	C850.312683,663.424072 849.120422,663.963013 847.781555,664.204102 
z"/>
<path fill="#F2F6FC" opacity="1.000000" stroke="none" 
	d="
M829.933838,656.665771 
	C830.969849,656.296692 831.749939,656.114319 833.847351,655.624023 
	C830.069275,659.178223 827.979370,662.159607 834.885132,663.852539 
	C834.381409,664.257812 833.877686,664.663086 833.373962,665.068298 
	C831.490234,664.460022 829.606567,663.851746 827.184631,663.069702 
	C826.882324,663.306641 825.942993,664.042969 823.780029,665.738464 
	C824.453918,661.753113 824.896118,659.138000 825.378357,656.286011 
	C827.106812,656.513672 828.392395,656.683044 829.933838,656.665771 
z"/>
<path fill="#F2F6FC" opacity="1.000000" stroke="none" 
	d="
M841.225098,659.577087 
	C841.115234,661.052429 841.115234,662.175659 841.115234,663.642700 
	C842.787109,663.061829 844.019409,662.633667 845.251709,662.205505 
	C845.332520,662.801453 845.413391,663.397400 845.494263,663.993408 
	C843.547607,664.150757 840.937134,665.126221 839.840454,664.236206 
	C838.736450,663.340454 838.344299,660.214966 839.045532,658.730347 
	C840.481506,655.690186 843.208069,655.071472 845.916809,656.879639 
	C844.337769,657.687927 842.836426,658.456482 841.225098,659.577087 
z"/>
<path fill="#FBFCFE" opacity="1.000000" stroke="none" 
	d="
M984.814392,619.009949 
	C982.561646,619.011292 980.750000,619.011292 978.522034,619.011292 
	C978.055420,621.318481 977.648254,623.331787 977.172485,625.684265 
	C980.426086,625.888916 983.192078,626.062805 986.372986,626.262878 
	C985.007629,632.724792 979.487244,628.391479 975.535522,631.691711 
	C973.509521,633.335083 978.064331,641.716064 968.568848,640.845825 
	C970.185974,632.583679 971.687500,624.517029 973.465149,616.511780 
	C973.622864,615.801331 975.553650,615.147156 976.705139,615.061707 
	C979.522583,614.852600 982.380005,614.826050 985.192139,615.067139 
	C986.431763,615.173523 987.600342,616.108582 988.801147,616.667358 
	C987.619263,617.447815 986.437378,618.228210 984.814392,619.009949 
z"/>
<path fill="#F2F6FC" opacity="1.000000" stroke="none" 
	d="
M977.689209,656.223694 
	C978.999634,656.750671 980.549500,657.889771 980.842407,657.627136 
	C984.547180,654.304810 987.023438,655.688171 988.985046,659.746521 
	C989.995728,658.439758 990.845032,657.341675 991.694336,656.243530 
	C992.140015,656.365662 992.585693,656.487793 993.031372,656.609985 
	C992.536865,659.357788 992.042358,662.105652 991.547913,664.853516 
	C991.140503,664.882263 990.733154,664.910950 990.325745,664.939697 
	C989.653015,663.818054 988.980286,662.696411 988.118835,661.260254 
	C987.188232,662.581299 986.357666,663.760376 984.679199,666.143066 
	C984.679199,662.652466 984.679199,660.587158 984.679199,658.521790 
	C984.396423,658.453918 984.113708,658.385986 983.830933,658.318054 
	C982.991882,660.476868 982.152832,662.635620 981.120911,665.290527 
	C979.832825,664.265015 978.894531,663.518005 977.927734,662.748230 
	C977.114441,663.453308 976.263245,664.191162 975.412109,664.929016 
	C974.964172,664.692322 974.516296,664.455566 974.068359,664.218872 
	C975.160461,661.540710 976.252502,658.862549 977.689209,656.223694 
z"/>
<path fill="#F2F6FC" opacity="1.000000" stroke="none" 
	d="
M955.939941,660.265503 
	C955.679932,660.684143 955.518677,661.262085 955.143311,661.494690 
	C953.232422,662.679260 951.360168,664.171021 949.263855,664.668945 
	C948.600342,664.826538 946.243530,661.981201 946.498718,660.977112 
	C946.956177,659.177185 948.612854,656.706238 950.127258,656.421021 
	C951.689209,656.126770 953.679016,658.103577 955.712097,659.491699 
	C955.942566,659.896667 955.940002,660.265503 955.939941,660.265503 
z"/>
<path fill="#F2F6FC" opacity="1.000000" stroke="none" 
	d="
M997.378479,663.434753 
	C996.119568,664.022705 995.181519,664.506653 992.834045,665.717834 
	C994.589050,662.227722 995.539978,660.003479 996.807434,657.977234 
	C997.325684,657.148682 998.528687,656.748413 999.420105,656.153320 
	C999.950195,657.074158 1000.712585,657.937073 1000.959778,658.928467 
	C1001.411560,660.740051 1001.558472,662.627625 1001.952148,665.293579 
	C999.943359,664.366455 998.821350,663.848572 997.378479,663.434753 
z"/>
<path fill="#E8F2FC" opacity="1.000000" stroke="none" 
	d="
M956.152100,660.572937 
	C955.940002,660.265503 955.942566,659.896667 955.938843,659.811401 
	C958.019897,658.472839 960.031982,657.054077 962.241333,656.084717 
	C962.781921,655.847595 964.531860,656.945984 964.707947,657.675842 
	C964.906494,658.498840 964.189087,659.870728 963.445496,660.509888 
	C962.519592,661.305847 961.004944,661.399719 960.031555,662.162842 
	C959.116516,662.880188 958.574768,664.073792 957.247925,665.923340 
	C956.827148,663.521851 956.595703,662.201111 956.152100,660.572937 
z"/>
<path fill="#FBFCFE" opacity="1.000000" stroke="none" 
	d="
M969.460449,658.240967 
	C970.081238,659.219299 970.838989,659.892334 971.572998,660.544312 
	C970.742432,661.053162 969.561890,661.776489 967.474548,663.055359 
	C969.612976,663.715820 970.719299,664.057495 973.071106,664.783813 
	C969.899475,664.783813 968.050476,664.783813 966.213257,664.783813 
	C965.727600,656.931458 966.614990,655.817078 973.159790,656.300476 
	C971.793457,656.927734 970.695435,657.431763 969.460449,658.240967 
z"/>
<path fill="#F2F6FC" opacity="1.000000" stroke="none" 
	d="
M1004.932129,657.964478 
	C1006.272827,656.885986 1007.739685,656.127869 1009.957764,654.981506 
	C1008.339783,659.123047 1007.187988,662.071167 1006.036255,665.019226 
	C1005.577393,664.908691 1005.118530,664.798096 1004.659668,664.687561 
	C1004.792542,662.553284 1004.925476,660.419067 1004.932129,657.964478 
z"/>
<path fill="#FBFCFE" opacity="1.000000" stroke="none" 
	d="
M1106.938965,625.255249 
	C1111.175781,616.538757 1115.820435,613.921021 1125.008179,615.123291 
	C1126.205933,615.280029 1127.229858,616.765259 1128.334229,617.635132 
	C1127.096069,618.361084 1125.807495,619.785706 1124.628052,619.700317 
	C1116.634155,619.121826 1112.263794,622.694153 1111.885864,630.343628 
	C1111.731689,633.466187 1112.242188,636.588440 1115.790405,636.526978 
	C1117.472534,636.497803 1119.107666,633.751038 1121.413208,631.641602 
	C1118.768188,630.354797 1117.546021,629.760193 1115.933228,628.975586 
	C1118.573242,623.969421 1122.643066,626.695374 1126.561890,626.025146 
	C1125.851440,630.055054 1125.567993,633.674194 1124.535400,637.065247 
	C1122.827026,642.675842 1117.842529,640.865356 1113.985962,640.910950 
	C1109.584229,640.963135 1106.735107,638.302979 1106.219360,633.997498 
	C1105.893188,631.275696 1106.593750,628.430969 1106.938965,625.255249 
z"/>
<path fill="#F2F6FC" opacity="1.000000" stroke="none" 
	d="
M1126.479492,663.009888 
	C1126.764282,661.330688 1126.831177,659.959045 1127.307983,658.748840 
	C1127.686401,657.788513 1128.566650,657.026001 1129.224121,656.175659 
	C1130.028076,657.017029 1130.831909,657.858398 1131.663696,658.728943 
	C1132.685669,657.900330 1134.025024,656.814392 1135.364502,655.728394 
	C1135.825439,655.990295 1136.286377,656.252197 1136.747314,656.514099 
	C1135.968506,659.190735 1135.959106,662.896301 1134.175903,664.229553 
	C1132.656250,665.365723 1129.096069,663.772644 1126.479492,663.009888 
z"/>
<path fill="#F2F6FC" opacity="1.000000" stroke="none" 
	d="
M1124.610107,662.319458 
	C1122.309204,663.245667 1120.171387,664.137512 1118.036255,664.131348 
	C1117.509399,664.129883 1116.130005,660.755127 1116.667358,659.731445 
	C1117.507202,658.131409 1119.562378,656.342529 1121.253174,656.177856 
	C1125.556519,655.758911 1125.151733,659.045532 1124.610107,662.319458 
z"/>
<path fill="#E8F2FC" opacity="1.000000" stroke="none" 
	d="
M1099.989380,655.962769 
	C1101.756836,656.573303 1104.260986,657.159851 1104.281616,657.823425 
	C1104.347656,659.956543 1104.077881,662.619019 1102.802612,664.098999 
	C1101.897339,665.149353 1098.980713,665.187622 1097.278076,664.658936 
	C1094.783203,663.884216 1096.341919,658.104797 1099.989380,655.962769 
z"/>
<path fill="#F2F6FC" opacity="1.000000" stroke="none" 
	d="
M1106.066895,661.823853 
	C1106.056641,660.930542 1105.878906,660.178589 1106.134888,659.976685 
	C1107.897095,658.586670 1109.623413,656.990417 1111.649658,656.193359 
	C1112.266846,655.950562 1114.869751,658.288757 1114.696045,658.964844 
	C1114.176636,660.985779 1113.131104,663.568359 1111.514282,664.375305 
	C1110.356689,664.953125 1107.949707,663.028076 1106.066895,661.823853 
M1108.209106,660.648315 
	C1108.620972,661.729553 1109.032837,662.810852 1109.444702,663.892090 
	C1110.034424,663.865723 1110.624023,663.839294 1111.213623,663.812927 
	C1111.573120,661.747375 1111.932617,659.681885 1112.291992,657.616333 
	C1111.745117,657.433899 1111.198120,657.251526 1110.651245,657.069092 
	C1109.879150,658.027161 1109.107178,658.985291 1108.209106,660.648315 
z"/>
<path fill="#FBFCFE" opacity="1.000000" stroke="none" 
	d="
M1396.168945,638.213013 
	C1390.886475,641.901306 1386.782104,642.028015 1381.111694,638.022888 
	C1383.406860,637.132935 1385.316895,635.632080 1386.482056,636.077942 
	C1390.550293,637.634705 1392.181763,635.468323 1393.030640,632.327881 
	C1394.148682,628.191101 1394.816650,623.932556 1395.830688,618.980652 
	C1393.388916,618.980652 1391.428833,619.173218 1389.538940,618.892578 
	C1388.699585,618.767883 1388.002319,617.687683 1387.240479,617.041260 
	C1388.019775,616.370544 1388.771362,615.162109 1389.583008,615.120239 
	C1393.512573,614.917847 1397.458252,615.028992 1403.012085,615.028992 
	C1400.640747,623.295898 1398.541016,630.615723 1396.168945,638.213013 
z"/>
<path fill="#F2F6FC" opacity="1.000000" stroke="none" 
	d="
M1386.107910,661.213196 
	C1385.693237,663.859802 1385.567993,666.270081 1382.229126,663.882629 
	C1381.541748,663.391174 1380.017334,664.070190 1378.167480,664.296814 
	C1378.644897,661.676270 1379.139893,658.959778 1379.604370,656.410461 
	C1382.013184,656.746765 1383.856934,657.004150 1386.639038,657.392578 
	C1386.573242,657.871948 1386.370483,659.351318 1386.107910,661.213196 
z"/>
<path fill="#E8F2FC" opacity="1.000000" stroke="none" 
	d="
M1403.518555,655.969299 
	C1404.623047,657.183777 1405.909546,658.373169 1405.928955,659.582947 
	C1405.956299,661.289246 1405.045776,663.010498 1404.419067,665.119080 
	C1403.386841,664.268677 1402.306396,663.378540 1401.060059,662.351807 
	C1400.302734,663.201965 1399.497803,664.105469 1398.266235,665.487915 
	C1397.863892,664.239502 1397.307739,663.453979 1397.479370,662.890015 
	C1398.407593,659.839722 1397.597900,655.260803 1403.518555,655.969299 
z"/>
<path fill="#F2F6FC" opacity="1.000000" stroke="none" 
	d="
M1395.266479,660.529907 
	C1395.487793,662.115295 1395.608154,663.321106 1395.684692,664.088013 
	C1392.862793,664.088013 1390.523315,664.088013 1387.745605,664.088013 
	C1388.428589,662.655334 1389.147827,660.724121 1390.230347,659.024109 
	C1390.951416,657.891785 1392.190796,657.089355 1393.198120,656.139282 
	C1393.853882,657.476318 1394.509644,658.813354 1395.266479,660.529907 
z"/>
<path fill="#F2F6FC" opacity="1.000000" stroke="none" 
	d="
M1376.465576,661.473938 
	C1375.379150,665.849121 1372.733398,665.228699 1369.848633,663.475464 
	C1371.068359,663.475464 1372.287964,663.475464 1373.010254,663.475464 
	C1372.191528,661.238953 1371.443970,659.197021 1370.696533,657.155029 
	C1372.482422,656.776672 1374.268433,656.398254 1376.054321,656.019897 
	C1376.127930,656.533875 1376.201416,657.047913 1376.274902,657.561890 
	C1375.310425,657.635803 1374.345825,657.709717 1372.647217,657.839905 
	C1374.209717,659.237854 1375.281982,660.197388 1376.465576,661.473938 
z"/>
<path fill="#F2F6FC" opacity="1.000000" stroke="none" 
	d="
M1410.195312,656.045776 
	C1411.892090,655.997437 1413.201050,655.997437 1415.768311,655.997437 
	C1413.451294,657.005127 1412.238770,657.532471 1410.367798,658.346191 
	C1411.931519,659.369751 1412.891113,659.997925 1413.794434,660.589172 
	C1412.567749,661.032043 1411.303711,661.488403 1408.670288,662.439148 
	C1411.208496,663.475708 1412.419312,663.970215 1414.297974,664.737427 
	C1411.674805,664.737427 1409.727295,664.737427 1406.406494,664.737427 
	C1407.707642,661.430847 1408.757568,658.762451 1410.195312,656.045776 
z"/>
<path fill="#FBFCFE" opacity="1.000000" stroke="none" 
	d="
M1542.880371,615.651489 
	C1540.977905,618.206909 1539.237793,620.709106 1537.002808,622.638062 
	C1532.622559,626.418701 1532.812988,630.322632 1535.763916,634.779297 
	C1536.838623,636.402527 1537.455811,638.328674 1538.298828,640.153259 
	C1533.313965,641.506958 1533.313965,641.506958 1527.701904,631.745544 
	C1524.449829,634.088013 1528.168335,642.742737 1519.406860,640.474487 
	C1520.983521,632.609253 1522.368408,624.820435 1524.267456,617.158997 
	C1524.557983,615.987061 1527.222900,615.403748 1529.856201,613.965759 
	C1529.461792,618.067627 1529.224487,620.535339 1528.936890,623.525696 
	C1533.811279,620.336548 1535.371216,612.715210 1542.880371,615.651489 
z"/>
<path fill="#F2F6FC" opacity="1.000000" stroke="none" 
	d="
M1537.706055,664.933960 
	C1534.652832,665.021973 1532.117920,662.305847 1529.140747,664.781067 
	C1528.627319,665.208069 1524.905396,663.360840 1524.763306,662.286621 
	C1524.536377,660.572021 1525.611572,658.023499 1527.001953,656.965759 
	C1528.115234,656.119080 1530.603271,656.673462 1532.306152,657.186584 
	C1533.107056,657.427856 1533.496704,659.033997 1534.080566,660.035034 
	C1535.300415,658.706299 1536.463745,657.439026 1537.627075,656.171753 
	C1538.325928,657.107117 1539.024780,658.042480 1539.564941,658.765320 
	C1540.892090,657.803772 1542.258667,656.813599 1544.761108,655.000488 
	C1543.744873,660.508240 1544.970703,665.644836 1537.706055,664.933960 
z"/>
<path fill="#F2F6FC" opacity="1.000000" stroke="none" 
	d="
M1522.121826,656.011719 
	C1521.479004,659.073730 1520.516235,662.101746 1519.553467,665.129761 
	C1519.056519,665.002686 1518.559692,664.875671 1518.062744,664.748596 
	C1518.187256,661.985596 1518.311646,659.222534 1518.450195,656.146179 
	C1519.266357,656.105164 1520.534058,656.041504 1522.121826,656.011719 
z"/>
<path fill="#FBFCFE" opacity="1.000000" stroke="none" 
	d="
M1667.497314,625.568237 
	C1666.743408,629.386108 1666.121704,632.803467 1665.404663,636.745850 
	C1668.931030,636.913818 1672.142334,637.066772 1675.408569,637.222351 
	C1674.577637,641.328308 1669.275757,642.273071 1659.060181,640.287964 
	C1660.503662,632.555725 1661.769653,624.764709 1663.587036,617.104431 
	C1663.865967,615.928711 1666.685791,615.355835 1669.525757,613.885254 
	C1668.711426,618.730591 1668.170532,621.949158 1667.497314,625.568237 
z"/>
<path fill="#F2F6FC" opacity="1.000000" stroke="none" 
	d="
M1671.959961,664.691711 
	C1670.547729,663.977234 1669.465088,663.132446 1668.408325,662.307861 
	C1667.963135,663.007629 1667.343628,663.981384 1666.724121,664.955139 
	C1666.246094,664.817993 1665.768066,664.680847 1665.289917,664.543701 
	C1665.901489,661.786011 1666.512939,659.028381 1667.073730,656.499329 
	C1669.621704,656.625610 1671.541016,656.720703 1674.402466,656.862488 
	C1673.765625,659.183167 1673.027588,661.872314 1671.959961,664.691711 
z"/>
<path fill="#F2F6FC" opacity="1.000000" stroke="none" 
	d="
M1680.933350,656.666016 
	C1681.964722,656.295593 1682.740356,656.111694 1682.870483,656.080872 
	C1682.567505,658.742920 1682.255859,661.481201 1681.893921,664.661316 
	C1681.334961,664.338318 1680.000977,663.567566 1678.618164,662.768616 
	C1677.828491,663.361206 1676.880859,664.072388 1674.730469,665.686096 
	C1675.437988,661.717651 1675.903076,659.108459 1676.406616,656.284485 
	C1678.123535,656.512817 1679.400635,656.682678 1680.933350,656.666016 
z"/>
<path fill="#F2F6FC" opacity="1.000000" stroke="none" 
	d="
M1658.738037,657.404358 
	C1657.705688,660.079224 1656.955688,662.563049 1656.205688,665.046875 
	C1655.732422,664.949036 1655.259277,664.851196 1654.786011,664.753357 
	C1654.786011,661.950256 1654.786011,659.147156 1654.786011,655.944397 
	C1656.241821,656.042969 1657.999512,656.160950 1659.755859,656.295593 
	C1659.771362,656.296753 1659.823120,656.578369 1659.766602,656.631409 
	C1659.537354,656.846191 1659.272095,657.022705 1658.738037,657.404358 
z"/>
<path fill="#A1CDF4" opacity="1.000000" stroke="none" 
	d="
M566.444702,621.520752 
	C566.724548,624.847778 566.724548,628.096741 566.724548,631.651428 
	C564.856018,631.651428 563.289612,631.651428 560.771973,631.651428 
	C562.728516,627.947754 564.446655,624.695251 566.444702,621.520752 
z"/>
<path fill="#A1CDF4" opacity="1.000000" stroke="none" 
	d="
M844.947388,621.194031 
	C847.324890,629.964783 842.984253,636.776550 834.915649,636.434692 
	C835.981689,631.092163 836.435669,625.622009 838.277588,620.667786 
	C839.586060,617.148254 842.571716,619.317383 844.947388,621.194031 
z"/>
<path fill="#A1CDF4" opacity="1.000000" stroke="none" 
	d="
M1108.272217,660.295837 
	C1109.107178,658.985291 1109.879150,658.027161 1110.651245,657.069092 
	C1111.198120,657.251526 1111.745117,657.433899 1112.291992,657.616333 
	C1111.932617,659.681885 1111.573120,661.747375 1111.213623,663.812927 
	C1110.624023,663.839294 1110.034424,663.865723 1109.444702,663.892090 
	C1109.032837,662.810852 1108.620972,661.729553 1108.272217,660.295837 
z"/>
</svg>