<svg version="1.1" id="Layer_1" xmlns="http://www.w3.org/2000/svg" xmlns:xlink="http://www.w3.org/1999/xlink" x="0px" y="0px"
	 width="100%" viewBox="0 0 982 1081" enable-background="new 0 0 982 1081" xml:space="preserve">
<path fill="#F5F5F5" opacity="1.000000" stroke="none" 
	d="
M983.000000,115.000000 
	C983.000000,437.288330 983.000000,759.576660 983.000000,1081.932495 
	C655.757385,1081.932495 328.514801,1081.932495 1.000000,1081.932495 
	C1.000000,759.969116 1.000000,437.938202 1.465012,115.454117 
	C328.953339,115.000641 655.976685,115.000320 983.000000,115.000000 
M87.999298,737.500000 
	C87.999321,818.993896 87.996696,900.487854 88.000961,981.981750 
	C88.002274,1006.880798 104.073509,1022.998413 128.904099,1022.998718 
	C357.555206,1023.001526 586.206299,1023.001160 814.857422,1022.999268 
	C840.031128,1022.999084 855.999329,1006.976624 855.999451,981.720825 
	C856.001038,753.236389 856.001038,524.751953 855.999451,296.267487 
	C855.999329,271.015350 840.030579,255.000809 814.845703,255.000580 
	C586.361267,254.998520 357.876801,254.998764 129.392334,255.000259 
	C103.865860,255.000427 88.000374,270.919678 88.000099,296.529938 
	C87.998528,443.186615 87.999313,589.843323 87.999298,737.500000 
z"/>
<path fill="#1BBC9C" opacity="1.000000" stroke="none" 
	d="
M983.000000,114.534988 
	C655.976685,115.000320 328.953339,115.000641 1.465012,115.000488 
	C1.000000,77.976677 1.000000,40.953350 1.463552,3.444979 
	C327.952148,2.956782 653.977173,2.953586 980.002197,2.952520 
	C981.001465,2.952517 982.000732,2.983493 983.000000,3.000000 
	C983.000000,40.023327 983.000000,77.046654 983.000000,114.534988 
M628.998901,71.883781 
	C628.900452,71.418480 628.802063,70.953186 628.922241,69.751251 
	C631.180359,63.086967 630.114990,58.792259 625.559326,56.194649 
	C619.489990,52.733971 613.684021,55.429047 604.690002,66.069160 
	C603.857178,64.366234 603.156250,62.765057 602.313538,61.242340 
	C600.036682,57.128147 596.651001,54.966995 591.803467,54.954723 
	C582.397095,54.930912 575.748291,62.587341 575.970642,73.408859 
	C576.112488,80.310760 579.702515,85.388634 585.567322,86.982681 
	C591.696472,88.648575 598.411560,85.803566 601.742554,80.084785 
	C602.524414,78.742592 603.175354,77.324188 604.280212,75.174950 
	C604.997864,77.117050 605.336609,78.033936 605.675537,78.950745 
	C607.881470,84.917282 612.699585,87.116699 618.523621,87.531273 
	C623.826904,87.908783 628.363159,86.090530 631.526367,81.653549 
	C634.532471,77.436867 633.516235,73.935493 628.998901,71.883781 
M362.822784,51.782089 
	C366.529022,53.774799 370.396057,54.057301 373.359772,50.921661 
	C376.326782,47.782570 375.918793,44.326687 372.450684,41.368168 
	C372.048126,41.024776 372.372742,39.630680 372.595947,38.786007 
	C373.624115,34.895302 372.102722,32.476528 368.245148,31.955378 
	C363.158875,31.268234 357.979462,30.331404 352.911743,30.648102 
	C343.347778,31.245779 333.604095,31.725021 324.365967,34.001770 
	C315.144989,36.274288 311.403809,47.315559 316.821838,53.755459 
	C318.083588,55.255184 321.459869,55.893234 323.607178,55.506413 
	C326.515747,54.982441 327.124481,52.443016 325.837463,49.588436 
	C324.492920,46.606220 324.781677,43.797302 328.283752,42.696163 
	C331.317047,41.742424 334.550140,41.424068 338.033905,40.760277 
	C337.833252,42.320873 337.769440,42.979454 337.661774,43.630791 
	C335.652435,55.785927 333.636169,67.939919 331.625458,80.094833 
	C330.936493,84.259682 332.464630,86.978226 336.804413,87.602997 
	C340.805695,88.179031 343.196320,85.810333 343.915527,81.132973 
	C345.787445,68.958702 347.699493,56.789619 349.770752,44.648369 
	C349.995239,43.332554 351.247040,41.295151 352.226746,41.168003 
	C355.577393,40.733150 359.019287,41.001320 361.458221,41.001320 
	C361.768951,45.070156 362.003021,48.135395 362.822784,51.782089 
M462.265717,64.855682 
	C461.424500,67.017487 460.269012,69.114113 459.804504,71.354050 
	C458.678528,76.783432 458.666290,82.281197 463.832214,85.765755 
	C468.524292,88.930641 473.295258,87.685509 477.597260,84.173897 
	C481.574463,88.305077 485.772400,87.979881 490.431732,85.638916 
	C491.786041,84.958481 494.097900,85.155876 495.539246,85.848717 
	C503.116974,89.491318 512.268494,87.557304 515.671143,80.795105 
	C516.666626,78.816719 516.781616,75.084557 515.554382,73.587440 
	C513.392334,70.950058 511.476837,73.965218 509.437531,75.307503 
	C507.420288,76.635223 504.817047,77.072701 502.470917,77.900688 
	C501.743286,75.490486 500.452148,73.079651 500.454834,70.670258 
	C500.457275,68.488602 501.871155,66.308517 502.662720,64.127739 
	C503.077301,64.173042 503.491852,64.218353 503.906433,64.263657 
	C503.918365,67.662720 503.337555,71.500153 508.524261,70.999451 
	C511.837250,70.679642 514.085205,66.979820 513.602722,62.599232 
	C513.108093,58.108089 510.287018,55.411083 505.744171,55.086327 
	C497.208374,54.476128 490.144623,61.510899 489.078247,71.476120 
	C488.866547,73.454140 488.008240,75.362968 487.448090,77.303696 
	C486.756805,77.146240 486.065521,76.988777 485.374237,76.831322 
	C486.082764,72.495270 486.950073,68.176483 487.424255,63.814953 
	C487.623230,61.984692 487.570068,58.832249 486.636688,58.392502 
	C482.012115,56.213676 477.064301,52.939133 471.853851,56.158909 
	C468.432587,58.273075 465.698273,61.498928 462.265717,64.855682 
M557.095337,60.419395 
	C556.083374,67.501320 554.990295,74.573006 554.094299,81.669556 
	C553.656982,85.132599 555.755554,86.970016 558.915161,87.514816 
	C562.259521,88.091454 564.894226,86.900253 565.968323,83.490288 
	C566.460449,81.927925 566.441101,80.208412 566.695679,78.566673 
	C568.626587,66.112373 570.567871,53.659679 572.576660,40.751694 
	C578.777771,41.080414 584.250488,41.786751 589.656067,41.441322 
	C591.668579,41.312721 594.552734,39.081348 595.214661,37.175156 
	C596.260071,34.165043 593.669800,32.270248 590.715576,31.915777 
	C585.452209,31.284239 580.113953,30.288099 574.880188,30.615484 
	C565.486633,31.203075 555.917786,31.740137 546.849792,34.007904 
	C537.769531,36.278721 534.285828,46.518120 538.883484,53.510201 
	C540.714600,56.294849 543.063538,57.198910 546.137390,55.714180 
	C548.868774,54.394878 549.541809,52.400051 548.341797,49.550259 
	C546.529419,45.246170 548.490295,42.847996 552.689880,41.980782 
	C555.063477,41.490646 557.500183,41.306030 560.552734,40.897598 
	C559.361145,47.553638 558.286804,53.554745 557.095337,60.419395 
M429.520966,55.878128 
	C432.483643,54.588264 433.421143,52.631306 432.075531,49.479950 
	C430.816956,46.532406 431.126923,43.691475 434.667084,42.610218 
	C437.595917,41.715687 440.690674,41.364517 444.355957,40.646408 
	C443.933533,43.109200 443.651398,44.698730 443.389221,46.291546 
	C441.631653,56.969711 439.756958,67.630562 438.168732,78.333900 
	C437.203186,84.840729 438.698303,87.207916 443.271454,87.615723 
	C447.476196,87.990677 449.523315,85.738220 450.254517,79.914864 
	C450.462006,78.262489 450.579681,76.596550 450.845795,74.954208 
	C452.674408,63.670013 454.531494,52.390430 456.441101,40.732750 
	C462.536835,41.073349 467.852539,41.779682 473.105743,41.459702 
	C475.167725,41.334106 478.169403,39.300537 478.837830,37.448273 
	C480.020203,34.172035 477.360535,32.198204 474.187439,31.838806 
	C468.584900,31.204237 462.909637,30.215448 457.335785,30.551617 
	C448.428833,31.088814 439.412231,31.871300 430.756836,33.896030 
	C423.118958,35.682732 419.522461,42.565105 421.148773,49.675125 
	C422.027252,53.515804 423.548981,57.223755 429.520966,55.878128 
M380.369385,86.417740 
	C386.969849,88.219307 393.246307,88.507851 398.108185,82.497108 
	C400.338348,79.739983 402.134247,76.373131 399.202148,73.561028 
	C396.212494,70.693748 394.382385,74.298386 392.339325,76.072021 
	C389.951599,78.144852 387.237885,79.819839 384.671661,76.456688 
	C382.491058,73.598930 383.786621,67.745209 387.429962,64.689949 
	C386.878082,68.442146 387.437164,71.252319 391.717499,71.011757 
	C395.960632,70.773293 396.730865,67.639755 397.003998,64.386230 
	C397.606964,57.202965 391.427826,53.010864 384.084961,55.705162 
	C376.689545,58.418751 373.440094,64.230949 372.485229,71.765236 
	C372.221252,73.848106 371.116364,75.824394 370.397308,77.849586 
	C369.670990,77.647354 368.944702,77.445114 368.218414,77.242882 
	C369.081329,72.069229 370.006866,66.904915 370.780731,61.717976 
	C371.166046,59.134876 372.027710,56.071938 368.227600,55.235134 
	C364.529236,54.420742 361.327148,55.461758 360.541321,59.554707 
	C359.417572,65.407898 358.077484,71.353111 358.081055,77.258263 
	C358.086578,86.398216 364.664551,90.086632 372.688690,85.755409 
	C375.423065,84.279465 377.420563,84.074654 380.369385,86.417740 
M400.378204,68.003403 
	C401.825317,69.182732 403.286072,71.376701 404.717072,71.357445 
	C409.665924,71.290878 414.692108,70.823624 419.493866,69.685959 
	C420.949280,69.341133 422.821411,66.177933 422.589111,64.584633 
	C422.360321,63.015594 419.737366,60.690189 418.108887,60.643295 
	C413.678070,60.515709 409.218719,61.427952 404.768555,61.908100 
	C401.544434,62.255962 400.048828,64.037407 400.378204,68.003403 
M518.788574,70.851669 
	C524.523743,70.527977 530.308105,70.519814 535.956482,69.639458 
	C537.230408,69.440903 539.061218,66.005501 538.757324,64.420197 
	C538.456909,62.853085 535.826355,60.711506 534.135864,60.634949 
	C530.043884,60.449638 525.871033,61.124435 521.791443,61.812191 
	C516.060242,62.778381 515.089661,65.295349 518.788574,70.851669 
z"/>
<path fill="#424242" opacity="1.000000" stroke="none" 
	d="
M983.000000,2.499995 
	C982.000732,2.983493 981.001465,2.952517 980.002197,2.952520 
	C653.977173,2.953586 327.952148,2.956782 1.463552,2.979967 
	C1.333333,2.333333 1.548027,1.216341 2.023962,1.090954 
	C3.114909,0.803541 4.333333,1.000000 5.500000,1.000000 
	C329.833344,1.000000 654.166687,0.998650 978.500000,1.041237 
	C980.000061,1.041434 981.500000,1.666656 983.000000,2.499995 
z"/>
<path fill="#1ABC9C" opacity="1.000000" stroke="none" 
	d="
M87.999298,737.000000 
	C87.999313,589.843323 87.998528,443.186615 88.000099,296.529938 
	C88.000374,270.919678 103.865860,255.000427 129.392334,255.000259 
	C357.876801,254.998764 586.361267,254.998520 814.845703,255.000580 
	C840.030579,255.000809 855.999329,271.015350 855.999451,296.267487 
	C856.001038,524.751953 856.001038,753.236389 855.999451,981.720825 
	C855.999329,1006.976624 840.031128,1022.999084 814.857422,1022.999268 
	C586.206299,1023.001160 357.555206,1023.001526 128.904099,1022.998718 
	C104.073509,1022.998413 88.002274,1006.880798 88.000961,981.981750 
	C87.996696,900.487854 87.999321,818.993896 87.999298,737.000000 
M570.704102,1005.632385 
	C583.572937,1002.211731 589.992004,993.953064 589.994446,980.693359 
	C590.005737,919.207886 590.008789,857.722473 589.992981,796.237000 
	C589.989014,780.759460 580.195740,771.009644 564.662537,771.006226 
	C502.843842,770.992432 441.025116,770.990906 379.206421,771.007324 
	C363.752502,771.011414 354.009460,780.824829 354.006104,796.368286 
	C353.992920,857.687134 353.995087,919.005920 354.004425,980.324768 
	C354.006866,996.443665 363.646973,1005.995056 379.899261,1005.996887 
	C441.218079,1006.003784 502.536896,1006.001404 563.855713,1005.991699 
	C565.852722,1005.991394 567.849670,1005.874268 570.704102,1005.632385 
M604.000244,686.500000 
	C604.000244,700.994568 603.993530,715.489075 604.002136,729.983643 
	C604.011963,746.513123 613.501282,755.995789 630.053589,755.997314 
	C691.363708,756.003052 752.673767,756.003296 813.983887,755.997253 
	C830.512939,755.995667 839.995789,746.498779 839.997375,729.947327 
	C840.003113,668.970398 840.003296,607.993530 839.997253,547.016602 
	C839.995667,530.487000 830.499207,521.004211 813.947815,521.002625 
	C752.637695,520.996887 691.327576,520.996765 630.017456,521.002747 
	C613.487793,521.004395 604.005066,530.501343 604.002686,547.052429 
	C603.996033,593.201599 604.000305,639.350830 604.000244,686.500000 
M129.654083,755.999573 
	C191.467468,755.999512 253.280853,756.012207 315.094238,755.990051 
	C329.978241,755.984680 339.979889,746.095764 339.986847,731.333740 
	C340.015930,669.520264 340.012054,607.706787 339.989807,545.893311 
	C339.984436,531.015320 330.090607,521.019775 315.321289,521.012939 
	C253.174606,520.984131 191.027893,520.987549 128.881195,521.010193 
	C114.011543,521.015625 104.019524,530.918762 104.012810,545.691101 
	C103.984711,607.504578 103.987694,669.318054 104.010498,731.131531 
	C104.015991,746.024719 113.681725,755.699646 129.654083,755.999573 
M589.999756,304.507416 
	C589.999695,302.174927 590.000610,299.842468 589.999512,297.509979 
	C589.991211,280.288879 580.693420,271.002289 563.441406,271.001526 
	C502.297607,270.998810 441.153778,270.996857 380.009979,271.002869 
	C363.485779,271.004517 354.004272,280.504761 354.002747,297.059265 
	C353.997101,358.036469 353.996887,419.013641 354.002899,479.990845 
	C354.004517,496.514374 363.505310,505.995758 380.060089,505.997253 
	C441.370483,506.002838 502.680878,506.003052 563.991272,505.997070 
	C580.514343,505.995453 589.995667,496.494568 589.997375,479.939728 
	C590.003235,421.794800 589.999756,363.649872 589.999756,304.507416 
M354.000000,616.500000 
	C354.000092,654.652405 353.983887,692.804810 354.008301,730.957214 
	C354.018005,746.127136 363.865540,755.986938 379.026245,755.991699 
	C441.003204,756.011292 502.980133,756.010986 564.957092,755.991821 
	C580.126587,755.987122 589.986938,746.134338 589.991760,730.974060 
	C590.011353,669.330322 590.011047,607.686584 589.991821,546.042847 
	C589.987061,530.873291 580.134521,521.013123 564.974060,521.008301 
	C502.997101,520.988770 441.020142,520.989014 379.043182,521.008179 
	C363.873474,521.012878 354.027130,530.865112 354.007965,546.025818 
	C353.978638,569.183899 354.000092,592.341919 354.000000,616.500000 
M647.500000,271.000000 
	C641.669006,271.000031 635.838074,270.995636 630.007080,271.000854 
	C613.485901,271.015656 604.003601,280.507782 604.002136,297.062378 
	C603.996765,358.039551 603.996460,419.016724 604.002319,479.993896 
	C604.003845,496.514709 613.506958,505.996277 630.063049,505.997772 
	C691.373413,506.003235 752.683838,506.003510 813.994202,505.997589 
	C830.515198,505.995972 839.996460,496.492828 839.997864,479.937683 
	C840.003235,418.960510 840.003418,357.983337 839.997620,297.006165 
	C839.996094,280.485748 830.493103,271.003998 813.938049,271.002258 
	C758.792053,270.996429 703.645996,271.000031 647.500000,271.000000 
M339.999969,926.500000 
	C339.999847,883.016418 340.014526,839.532776 339.991577,796.049194 
	C339.983582,780.877930 330.135254,771.013306 314.980103,771.008484 
	C253.003235,770.988708 191.026352,770.989075 129.049484,771.008240 
	C113.879341,771.012939 104.013542,780.866150 104.008698,796.019897 
	C103.988983,857.663574 103.989334,919.307190 104.008430,980.950867 
	C104.013130,996.121765 113.864769,1005.986633 129.020248,1005.991516 
	C190.997116,1006.011292 252.973999,1006.010986 314.950867,1005.991760 
	C330.122070,1005.987061 339.966614,996.135620 339.992493,980.980042 
	C340.022949,963.153442 339.999847,945.326660 339.999969,926.500000 
M309.471619,271.000061 
	C249.493332,271.000122 189.515030,270.993561 129.536743,271.004669 
	C113.679245,271.007629 104.007591,280.677887 104.004768,296.532837 
	C103.993874,357.844177 103.993881,419.155518 104.004768,480.466858 
	C104.007584,496.322052 113.679016,505.992554 129.536453,505.995361 
	C191.181015,506.006317 252.825562,506.006317 314.470123,505.995270 
	C330.322754,505.992432 339.988708,496.318756 339.995422,480.460571 
	C340.009766,446.472748 340.000092,412.484955 339.999939,378.497131 
	C339.999817,350.673798 340.041656,322.850342 339.979095,295.027130 
	C339.951904,282.930542 332.125061,273.427887 320.422729,271.379791 
	C317.178619,270.811981 313.784149,271.103027 309.471619,271.000061 
M750.500000,771.000000 
	C710.015198,771.000122 669.530457,770.984558 629.045654,771.008301 
	C613.874939,771.017212 604.013306,780.865295 604.008484,796.024414 
	C603.988708,857.667908 603.988953,919.311462 604.008240,980.954956 
	C604.013000,996.125732 613.865112,1005.986816 629.025024,1005.991577 
	C691.001770,1006.011292 752.978455,1006.011047 814.955200,1005.991760 
	C830.125305,1005.987061 839.986755,996.134644 839.991638,980.975769 
	C840.011353,919.332214 840.011108,857.688721 839.991760,796.045166 
	C839.987000,780.875000 830.134766,771.029175 814.976196,771.007751 
	C793.817505,770.977905 772.658752,771.000122 750.500000,771.000000 
z"/>
<path fill="#F7FDFB" opacity="1.000000" stroke="none" 
	d="
M362.529968,51.491364 
	C362.003021,48.135395 361.768951,45.070156 361.458221,41.001320 
	C359.019287,41.001320 355.577393,40.733150 352.226746,41.168003 
	C351.247040,41.295151 349.995239,43.332554 349.770752,44.648369 
	C347.699493,56.789619 345.787445,68.958702 343.915527,81.132973 
	C343.196320,85.810333 340.805695,88.179031 336.804413,87.602997 
	C332.464630,86.978226 330.936493,84.259682 331.625458,80.094833 
	C333.636169,67.939919 335.652435,55.785927 337.661774,43.630791 
	C337.769440,42.979454 337.833252,42.320873 338.033905,40.760277 
	C334.550140,41.424068 331.317047,41.742424 328.283752,42.696163 
	C324.781677,43.797302 324.492920,46.606220 325.837463,49.588436 
	C327.124481,52.443016 326.515747,54.982441 323.607178,55.506413 
	C321.459869,55.893234 318.083588,55.255184 316.821838,53.755459 
	C311.403809,47.315559 315.144989,36.274288 324.365967,34.001770 
	C333.604095,31.725021 343.347778,31.245779 352.911743,30.648102 
	C357.979462,30.331404 363.158875,31.268234 368.245148,31.955378 
	C372.102722,32.476528 373.624115,34.895302 372.595947,38.786007 
	C372.372742,39.630680 372.048126,41.024776 372.450684,41.368168 
	C375.918793,44.326687 376.326782,47.782570 373.359772,50.921661 
	C370.396057,54.057301 366.529022,53.774799 362.529968,51.491364 
z"/>
<path fill="#F7FDFB" opacity="1.000000" stroke="none" 
	d="
M629.061768,72.593323 
	C633.516235,73.935493 634.532471,77.436867 631.526367,81.653549 
	C628.363159,86.090530 623.826904,87.908783 618.523621,87.531273 
	C612.699585,87.116699 607.881470,84.917282 605.675537,78.950745 
	C605.336609,78.033936 604.997864,77.117050 604.280212,75.174950 
	C603.175354,77.324188 602.524414,78.742592 601.742554,80.084785 
	C598.411560,85.803566 591.696472,88.648575 585.567322,86.982681 
	C579.702515,85.388634 576.112488,80.310760 575.970642,73.408859 
	C575.748291,62.587341 582.397095,54.930912 591.803467,54.954723 
	C596.651001,54.966995 600.036682,57.128147 602.313538,61.242340 
	C603.156250,62.765057 603.857178,64.366234 604.690002,66.069160 
	C613.684021,55.429047 619.489990,52.733971 625.559326,56.194649 
	C630.114990,58.792259 631.180359,63.086967 628.546082,70.287766 
	C627.766113,71.536224 627.362305,72.248177 626.618164,73.036743 
	C623.662476,74.657883 621.046997,76.202400 618.370422,77.782997 
	C622.397278,79.365952 623.955200,78.521889 627.491333,73.148132 
	C628.242126,72.974487 628.651978,72.783905 629.061768,72.593323 
M588.223145,66.214294 
	C587.924316,69.423347 587.373779,72.643684 587.516846,75.832916 
	C587.549561,76.562263 590.324524,78.021484 591.211853,77.650101 
	C592.400940,77.152412 593.987427,74.781067 593.640564,73.947365 
	C592.425659,71.026474 590.454285,68.420219 588.223145,66.214294 
z"/>
<path fill="#F6FCFB" opacity="1.000000" stroke="none" 
	d="
M462.460999,64.541306 
	C465.698273,61.498928 468.432587,58.273075 471.853851,56.158909 
	C477.064301,52.939133 482.012115,56.213676 486.636688,58.392502 
	C487.570068,58.832249 487.623230,61.984692 487.424255,63.814953 
	C486.950073,68.176483 486.082764,72.495270 485.374237,76.831322 
	C486.065521,76.988777 486.756805,77.146240 487.448090,77.303696 
	C488.008240,75.362968 488.866547,73.454140 489.078247,71.476120 
	C490.144623,61.510899 497.208374,54.476128 505.744171,55.086327 
	C510.287018,55.411083 513.108093,58.108089 513.602722,62.599232 
	C514.085205,66.979820 511.837250,70.679642 508.524261,70.999451 
	C503.337555,71.500153 503.918365,67.662720 503.906433,64.263657 
	C503.491852,64.218353 503.077301,64.173042 502.662720,64.127739 
	C501.871155,66.308517 500.457275,68.488602 500.454834,70.670258 
	C500.452148,73.079651 501.743286,75.490486 502.470886,77.900696 
	C504.817047,77.072701 507.420288,76.635223 509.437531,75.307503 
	C511.476837,73.965218 513.392334,70.950058 515.554382,73.587440 
	C516.781616,75.084557 516.666626,78.816719 515.671143,80.795105 
	C512.268494,87.557304 503.116974,89.491318 495.539246,85.848717 
	C494.097900,85.155876 491.786041,84.958481 490.431732,85.638916 
	C485.772400,87.979881 481.574463,88.305077 477.597260,84.173897 
	C473.295258,87.685509 468.524292,88.930641 463.832214,85.765755 
	C458.666290,82.281197 458.678528,76.783432 459.804504,71.354050 
	C460.269012,69.114113 461.424500,67.017487 462.460999,64.541306 
M476.252747,67.298309 
	C476.371246,66.366829 476.489777,65.435356 476.632233,64.315773 
	C470.858215,67.305130 468.750366,73.131348 471.572937,78.447617 
	C475.738007,76.053391 475.050598,71.641563 476.252747,67.298309 
z"/>
<path fill="#F6FCFB" opacity="1.000000" stroke="none" 
	d="
M557.153931,59.987625 
	C558.286804,53.554745 559.361145,47.553638 560.552734,40.897598 
	C557.500183,41.306030 555.063477,41.490646 552.689880,41.980782 
	C548.490295,42.847996 546.529419,45.246170 548.341797,49.550259 
	C549.541809,52.400051 548.868774,54.394878 546.137390,55.714180 
	C543.063538,57.198910 540.714600,56.294849 538.883484,53.510201 
	C534.285828,46.518120 537.769531,36.278721 546.849792,34.007904 
	C555.917786,31.740137 565.486633,31.203075 574.880188,30.615484 
	C580.113953,30.288099 585.452209,31.284239 590.715576,31.915777 
	C593.669800,32.270248 596.260071,34.165043 595.214661,37.175156 
	C594.552734,39.081348 591.668579,41.312721 589.656067,41.441322 
	C584.250488,41.786751 578.777771,41.080414 572.576660,40.751694 
	C570.567871,53.659679 568.626587,66.112373 566.695679,78.566673 
	C566.441101,80.208412 566.460449,81.927925 565.968323,83.490288 
	C564.894226,86.900253 562.259521,88.091454 558.915161,87.514816 
	C555.755554,86.970016 553.656982,85.132599 554.094299,81.669556 
	C554.990295,74.573006 556.083374,67.501320 557.153931,59.987625 
z"/>
<path fill="#F7FDFB" opacity="1.000000" stroke="none" 
	d="
M429.175903,55.982651 
	C423.548981,57.223755 422.027252,53.515804 421.148773,49.675125 
	C419.522461,42.565105 423.118958,35.682732 430.756836,33.896030 
	C439.412231,31.871300 448.428833,31.088814 457.335785,30.551617 
	C462.909637,30.215448 468.584900,31.204237 474.187439,31.838806 
	C477.360535,32.198204 480.020203,34.172035 478.837830,37.448273 
	C478.169403,39.300537 475.167725,41.334106 473.105743,41.459702 
	C467.852539,41.779682 462.536835,41.073349 456.441101,40.732750 
	C454.531494,52.390430 452.674408,63.670013 450.845795,74.954208 
	C450.579681,76.596550 450.462006,78.262489 450.254517,79.914864 
	C449.523315,85.738220 447.476196,87.990677 443.271454,87.615723 
	C438.698303,87.207916 437.203186,84.840729 438.168732,78.333900 
	C439.756958,67.630562 441.631653,56.969711 443.389221,46.291546 
	C443.651398,44.698730 443.933533,43.109200 444.355957,40.646408 
	C440.690674,41.364517 437.595917,41.715687 434.667084,42.610218 
	C431.126923,43.691475 430.816956,46.532406 432.075531,49.479950 
	C433.421143,52.631306 432.483643,54.588264 429.175903,55.982651 
z"/>
<path fill="#F5FCFB" opacity="1.000000" stroke="none" 
	d="
M380.021606,86.240585 
	C377.420563,84.074654 375.423065,84.279465 372.688690,85.755409 
	C364.664551,90.086632 358.086578,86.398216 358.081055,77.258263 
	C358.077484,71.353111 359.417572,65.407898 360.541321,59.554707 
	C361.327148,55.461758 364.529236,54.420742 368.227600,55.235134 
	C372.027710,56.071938 371.166046,59.134876 370.780731,61.717976 
	C370.006866,66.904915 369.081329,72.069229 368.218414,77.242882 
	C368.944702,77.445114 369.670990,77.647354 370.397308,77.849586 
	C371.116364,75.824394 372.221252,73.848106 372.485229,71.765236 
	C373.440094,64.230949 376.689545,58.418751 384.084961,55.705162 
	C391.427826,53.010864 397.606964,57.202965 397.003998,64.386230 
	C396.730865,67.639755 395.960632,70.773293 391.717499,71.011757 
	C387.437164,71.252319 386.878082,68.442146 387.429962,64.689949 
	C383.786621,67.745209 382.491058,73.598930 384.671661,76.456688 
	C387.237885,79.819839 389.951599,78.144852 392.339325,76.072021 
	C394.382385,74.298386 396.212494,70.693748 399.202148,73.561028 
	C402.134247,76.373131 400.338348,79.739983 398.108185,82.497108 
	C393.246307,88.507851 386.969849,88.219307 380.021606,86.240585 
z"/>
<path fill="#F5FCFB" opacity="1.000000" stroke="none" 
	d="
M400.310303,67.632233 
	C400.048828,64.037407 401.544434,62.255962 404.768555,61.908100 
	C409.218719,61.427952 413.678070,60.515709 418.108887,60.643295 
	C419.737366,60.690189 422.360321,63.015594 422.589111,64.584633 
	C422.821411,66.177933 420.949280,69.341133 419.493866,69.685959 
	C414.692108,70.823624 409.665924,71.290878 404.717072,71.357445 
	C403.286072,71.376701 401.825317,69.182732 400.310303,67.632233 
z"/>
<path fill="#F5FCFB" opacity="1.000000" stroke="none" 
	d="
M518.473877,70.642761 
	C515.089661,65.295349 516.060242,62.778381 521.791443,61.812191 
	C525.871033,61.124435 530.043884,60.449638 534.135864,60.634949 
	C535.826355,60.711506 538.456909,62.853085 538.757324,64.420197 
	C539.061218,66.005501 537.230408,69.440903 535.956482,69.639458 
	C530.308105,70.519814 524.523743,70.527977 518.473877,70.642761 
z"/>
<path fill="#3CC6AB" opacity="1.000000" stroke="none" 
	d="
M629.030334,72.238556 
	C628.651978,72.783905 628.242126,72.974487 627.442871,73.105988 
	C627.053345,73.046906 626.958435,72.960121 626.958435,72.960129 
	C627.362305,72.248177 627.766113,71.536224 628.436768,70.656082 
	C628.802063,70.953186 628.900452,71.418480 629.030334,72.238556 
z"/>
<path fill="#E5E5E5" opacity="1.000000" stroke="none" 
	d="
M570.275391,1005.721985 
	C567.849670,1005.874268 565.852722,1005.991394 563.855713,1005.991699 
	C502.536896,1006.001404 441.218079,1006.003784 379.899261,1005.996887 
	C363.646973,1005.995056 354.006866,996.443665 354.004425,980.324768 
	C353.995087,919.005920 353.992920,857.687134 354.006104,796.368286 
	C354.009460,780.824829 363.752502,771.011414 379.206421,771.007324 
	C441.025116,770.990906 502.843842,770.992432 564.662537,771.006226 
	C580.195740,771.009644 589.989014,780.759460 589.992981,796.237000 
	C590.008789,857.722473 590.005737,919.207886 589.994446,980.693359 
	C589.992004,993.953064 583.572937,1002.211731 570.275391,1005.721985 
z"/>
<path fill="#F0F0F0" opacity="1.000000" stroke="none" 
	d="
M604.000244,686.000000 
	C604.000305,639.350830 603.996033,593.201599 604.002686,547.052429 
	C604.005066,530.501343 613.487793,521.004395 630.017456,521.002747 
	C691.327576,520.996765 752.637695,520.996887 813.947815,521.002625 
	C830.499207,521.004211 839.995667,530.487000 839.997253,547.016602 
	C840.003296,607.993530 840.003113,668.970398 839.997375,729.947327 
	C839.995789,746.498779 830.512939,755.995667 813.983887,755.997253 
	C752.673767,756.003296 691.363708,756.003052 630.053589,755.997314 
	C613.501282,755.995789 604.011963,746.513123 604.002136,729.983643 
	C603.993530,715.489075 604.000244,700.994568 604.000244,686.000000 
z"/>
<path fill="#F0F0F0" opacity="1.000000" stroke="none" 
	d="
M129.178986,755.999451 
	C113.681725,755.699646 104.015991,746.024719 104.010498,731.131531 
	C103.987694,669.318054 103.984711,607.504578 104.012810,545.691101 
	C104.019524,530.918762 114.011543,521.015625 128.881195,521.010193 
	C191.027893,520.987549 253.174606,520.984131 315.321289,521.012939 
	C330.090607,521.019775 339.984436,531.015320 339.989807,545.893311 
	C340.012054,607.706787 340.015930,669.520264 339.986847,731.333740 
	C339.979889,746.095764 329.978241,755.984680 315.094238,755.990051 
	C253.280853,756.012207 191.467468,755.999512 129.178986,755.999451 
z"/>
<path fill="#F0F0F0" opacity="1.000000" stroke="none" 
	d="
M589.999756,305.006165 
	C589.999756,363.649872 590.003235,421.794800 589.997375,479.939728 
	C589.995667,496.494568 580.514343,505.995453 563.991272,505.997070 
	C502.680878,506.003052 441.370483,506.002838 380.060089,505.997253 
	C363.505310,505.995758 354.004517,496.514374 354.002899,479.990845 
	C353.996887,419.013641 353.997101,358.036469 354.002747,297.059265 
	C354.004272,280.504761 363.485779,271.004517 380.009979,271.002869 
	C441.153778,270.996857 502.297607,270.998810 563.441406,271.001526 
	C580.693420,271.002289 589.991211,280.288879 589.999512,297.509979 
	C590.000610,299.842468 589.999695,302.174927 589.999756,305.006165 
z"/>
<path fill="#F0F0F0" opacity="1.000000" stroke="none" 
	d="
M354.000000,616.000000 
	C354.000092,592.341919 353.978638,569.183899 354.007965,546.025818 
	C354.027130,530.865112 363.873474,521.012878 379.043182,521.008179 
	C441.020142,520.989014 502.997101,520.988770 564.974060,521.008301 
	C580.134521,521.013123 589.987061,530.873291 589.991821,546.042847 
	C590.011047,607.686584 590.011353,669.330322 589.991760,730.974060 
	C589.986938,746.134338 580.126587,755.987122 564.957092,755.991821 
	C502.980133,756.010986 441.003204,756.011292 379.026245,755.991699 
	C363.865540,755.986938 354.018005,746.127136 354.008301,730.957214 
	C353.983887,692.804810 354.000092,654.652405 354.000000,616.000000 
M484.735596,614.943848 
	C481.612244,614.342041 479.942444,615.657654 478.844421,618.649658 
	C477.117950,623.354248 474.949249,627.896484 472.642334,633.264832 
	C470.923676,629.619507 469.649200,626.920837 468.378510,624.220398 
	C463.802094,614.494690 463.802429,614.492432 453.066681,614.972656 
	C452.763031,614.986206 452.466370,615.155945 451.650696,615.419495 
	C455.179749,622.062012 458.365753,628.810669 462.265198,635.118286 
	C464.628662,638.941345 464.302155,641.809082 462.119049,645.474304 
	C458.062378,652.285095 454.511536,659.397156 450.410614,667.014465 
	C452.940063,667.014465 454.747681,666.788452 456.478058,667.058044 
	C461.105408,667.779175 463.753967,666.069031 465.299011,661.529907 
	C466.861786,656.938721 469.207367,652.614014 471.496185,647.537903 
	C474.361542,653.521667 476.772522,658.813049 479.450989,663.965332 
	C480.101227,665.216125 481.546539,666.726074 482.775696,666.873779 
	C486.118256,667.275696 489.540833,667.011902 493.641266,667.011902 
	C489.287262,659.105530 485.484283,651.925720 481.397430,644.911255 
	C479.727875,642.045776 479.522522,639.728943 481.229370,636.718750 
	C485.144531,629.813965 488.641541,622.672180 492.663666,614.943848 
	C489.840790,614.943848 487.741058,614.943848 484.735596,614.943848 
z"/>
<path fill="#F0F0F0" opacity="1.000000" stroke="none" 
	d="
M648.000000,271.000000 
	C703.645996,271.000031 758.792053,270.996429 813.938049,271.002258 
	C830.493103,271.003998 839.996094,280.485748 839.997620,297.006165 
	C840.003418,357.983337 840.003235,418.960510 839.997864,479.937683 
	C839.996460,496.492828 830.515198,505.995972 813.994202,505.997589 
	C752.683838,506.003510 691.373413,506.003235 630.063049,505.997772 
	C613.506958,505.996277 604.003845,496.514709 604.002319,479.993896 
	C603.996460,419.016724 603.996765,358.039551 604.002136,297.062378 
	C604.003601,280.507782 613.485901,271.015656 630.007080,271.000854 
	C635.838074,270.995636 641.669006,271.000031 648.000000,271.000000 
M706.897156,405.263855 
	C704.879761,409.008148 702.862366,412.752411 700.565430,417.015381 
	C703.514771,417.015381 705.703796,416.736420 707.792725,417.074890 
	C711.834045,417.729675 713.752197,415.945312 715.106018,412.304199 
	C716.862122,407.581177 719.182739,403.068054 721.643188,397.616150 
	C724.572021,403.672668 727.012207,408.900635 729.646606,414.028839 
	C730.247131,415.197693 731.443481,416.761200 732.495972,416.868927 
	C735.993103,417.226837 739.549622,417.004242 743.796631,417.004242 
	C739.328918,408.870880 735.457886,401.545532 731.294373,394.390381 
	C729.772949,391.775940 729.772644,389.705780 731.222778,387.080963 
	C735.130676,380.007477 738.767334,372.784088 742.865723,364.942810 
	C740.375671,364.942810 738.726501,365.173004 737.165222,364.900055 
	C732.291931,364.048096 729.520508,365.828125 728.090637,370.689575 
	C726.896729,374.748718 724.862244,378.560638 722.817871,383.383575 
	C721.185852,379.839355 719.984741,377.191895 718.751587,374.559418 
	C713.940369,364.288788 713.936523,364.289948 702.672363,365.080475 
	C702.538025,365.089905 702.411743,365.212219 701.831238,365.522949 
	C703.678223,368.981293 705.057983,372.830750 707.472778,375.853363 
	C715.297180,385.647003 715.158875,395.086090 706.897156,405.263855 
z"/>
<path fill="#F0F0F0" opacity="1.000000" stroke="none" 
	d="
M339.999969,927.000000 
	C339.999847,945.326660 340.022949,963.153442 339.992493,980.980042 
	C339.966614,996.135620 330.122070,1005.987061 314.950867,1005.991760 
	C252.973999,1006.010986 190.997116,1006.011292 129.020248,1005.991516 
	C113.864769,1005.986633 104.013130,996.121765 104.008430,980.950867 
	C103.989334,919.307190 103.988983,857.663574 104.008698,796.019897 
	C104.013542,780.866150 113.879341,771.012939 129.049484,771.008240 
	C191.026352,770.989075 253.003235,770.988708 314.980103,771.008484 
	C330.135254,771.013306 339.983582,780.877930 339.991577,796.049194 
	C340.014526,839.532776 339.999847,883.016418 339.999969,927.000000 
M199.527527,881.074829 
	C197.713928,888.358948 197.820816,895.606689 200.293625,902.706787 
	C203.557343,912.077759 211.726395,917.880554 221.520584,918.007935 
	C231.223450,918.134155 239.854889,913.033691 242.801117,903.747009 
	C244.653931,897.906799 245.260101,891.314026 244.811600,885.176880 
	C243.945709,873.328186 235.918564,865.356812 225.093994,864.056885 
	C213.109177,862.617554 204.017319,868.448303 199.527527,881.074829 
z"/>
<path fill="#F0F0F0" opacity="1.000000" stroke="none" 
	d="
M309.965149,271.000061 
	C313.784149,271.103027 317.178619,270.811981 320.422729,271.379791 
	C332.125061,273.427887 339.951904,282.930542 339.979095,295.027130 
	C340.041656,322.850342 339.999817,350.673798 339.999939,378.497131 
	C340.000092,412.484955 340.009766,446.472748 339.995422,480.460571 
	C339.988708,496.318756 330.322754,505.992432 314.470123,505.995270 
	C252.825562,506.006317 191.181015,506.006317 129.536453,505.995361 
	C113.679016,505.992554 104.007584,496.322052 104.004768,480.466858 
	C103.993881,419.155518 103.993874,357.844177 104.004768,296.532837 
	C104.007591,280.677887 113.679245,271.007629 129.536743,271.004669 
	C189.515030,270.993561 249.493332,271.000122 309.965149,271.000061 
M203.358444,372.895081 
	C197.087280,382.636719 196.913574,393.025482 200.675461,403.536591 
	C203.894638,412.531311 211.957733,418.021118 221.447296,417.955780 
	C231.071793,417.889557 238.398071,413.736359 242.579605,404.776581 
	C245.730515,398.025055 246.004272,390.871521 244.755219,383.737885 
	C243.151581,374.579102 238.418060,367.562683 228.998383,365.002777 
	C219.245209,362.352203 210.554901,364.224579 203.358444,372.895081 
z"/>
<path fill="#F0F0F0" opacity="1.000000" stroke="none" 
	d="
M751.000000,771.000000 
	C772.658752,771.000122 793.817505,770.977905 814.976196,771.007751 
	C830.134766,771.029175 839.987000,780.875000 839.991760,796.045166 
	C840.011108,857.688721 840.011353,919.332214 839.991638,980.975769 
	C839.986755,996.134644 830.125305,1005.987061 814.955200,1005.991760 
	C752.978455,1006.011047 691.001770,1006.011292 629.025024,1005.991577 
	C613.865112,1005.986816 604.013000,996.125732 604.008240,980.954956 
	C603.988953,919.311462 603.988708,857.667908 604.008484,796.024414 
	C604.013306,780.865295 613.874939,771.017212 629.045654,771.008301 
	C669.530457,770.984558 710.015198,771.000122 751.000000,771.000000 
M702.375061,874.932739 
	C697.588867,884.235718 697.491577,893.860229 700.964111,903.483521 
	C704.189697,912.422546 712.234192,917.995056 721.712830,917.954163 
	C731.326599,917.912659 739.443909,914.058472 742.624512,904.752991 
	C744.800598,898.386780 745.479431,891.074524 744.971924,884.324768 
	C744.163818,873.576843 737.375427,866.762817 727.497009,864.488953 
	C717.711670,862.236511 708.891663,865.735168 702.375061,874.932739 
z"/>
<path fill="#3CC6AB" opacity="1.000000" stroke="none" 
	d="
M588.496643,65.954391 
	C590.454285,68.420219 592.425659,71.026474 593.640564,73.947365 
	C593.987427,74.781067 592.400940,77.152412 591.211853,77.650101 
	C590.324524,78.021484 587.549561,76.562263 587.516846,75.832916 
	C587.373779,72.643684 587.924316,69.423347 588.496643,65.954391 
z"/>
<path fill="#3CC6AB" opacity="1.000000" stroke="none" 
	d="
M627.101868,73.089050 
	C623.955200,78.521889 622.397278,79.365952 618.370422,77.782997 
	C621.046997,76.202400 623.662476,74.657883 626.618164,73.036743 
	C626.958435,72.960121 627.053345,73.046906 627.101868,73.089050 
z"/>
<path fill="#3CC6AB" opacity="1.000000" stroke="none" 
	d="
M476.177704,67.670212 
	C475.050598,71.641563 475.738007,76.053391 471.572937,78.447617 
	C468.750366,73.131348 470.858215,67.305130 476.632233,64.315773 
	C476.489777,65.435356 476.371246,66.366829 476.177704,67.670212 
z"/>
<path fill="#070707" opacity="1.000000" stroke="none" 
	d="
M485.188477,614.943848 
	C487.741058,614.943848 489.840790,614.943848 492.663666,614.943848 
	C488.641541,622.672180 485.144531,629.813965 481.229370,636.718750 
	C479.522522,639.728943 479.727875,642.045776 481.397430,644.911255 
	C485.484283,651.925720 489.287262,659.105530 493.641266,667.011902 
	C489.540833,667.011902 486.118256,667.275696 482.775696,666.873779 
	C481.546539,666.726074 480.101227,665.216125 479.450989,663.965332 
	C476.772522,658.813049 474.361542,653.521667 471.496185,647.537903 
	C469.207367,652.614014 466.861786,656.938721 465.299011,661.529907 
	C463.753967,666.069031 461.105408,667.779175 456.478058,667.058044 
	C454.747681,666.788452 452.940063,667.014465 450.410614,667.014465 
	C454.511536,659.397156 458.062378,652.285095 462.119049,645.474304 
	C464.302155,641.809082 464.628662,638.941345 462.265198,635.118286 
	C458.365753,628.810669 455.179749,622.062012 451.650696,615.419495 
	C452.466370,615.155945 452.763031,614.986206 453.066681,614.972656 
	C463.802429,614.492432 463.802094,614.494690 468.378510,624.220398 
	C469.649200,626.920837 470.923676,629.619507 472.642334,633.264832 
	C474.949249,627.896484 477.117950,623.354248 478.844421,618.649658 
	C479.942444,615.657654 481.612244,614.342041 485.188477,614.943848 
z"/>
<path fill="#080808" opacity="1.000000" stroke="none" 
	d="
M707.053345,404.929382 
	C715.158875,395.086090 715.297180,385.647003 707.472778,375.853363 
	C705.057983,372.830750 703.678223,368.981293 701.831238,365.522949 
	C702.411743,365.212219 702.538025,365.089905 702.672363,365.080475 
	C713.936523,364.289948 713.940369,364.288788 718.751587,374.559418 
	C719.984741,377.191895 721.185852,379.839355 722.817871,383.383575 
	C724.862244,378.560638 726.896729,374.748718 728.090637,370.689575 
	C729.520508,365.828125 732.291931,364.048096 737.165222,364.900055 
	C738.726501,365.173004 740.375671,364.942810 742.865723,364.942810 
	C738.767334,372.784088 735.130676,380.007477 731.222778,387.080963 
	C729.772644,389.705780 729.772949,391.775940 731.294373,394.390381 
	C735.457886,401.545532 739.328918,408.870880 743.796631,417.004242 
	C739.549622,417.004242 735.993103,417.226837 732.495972,416.868927 
	C731.443481,416.761200 730.247131,415.197693 729.646606,414.028839 
	C727.012207,408.900635 724.572021,403.672668 721.643188,397.616150 
	C719.182739,403.068054 716.862122,407.581177 715.106018,412.304199 
	C713.752197,415.945312 711.834045,417.729675 707.792725,417.074890 
	C705.703796,416.736420 703.514771,417.015381 700.565430,417.015381 
	C702.862366,412.752411 704.879761,409.008148 707.053345,404.929382 
z"/>
<path fill="#060606" opacity="1.000000" stroke="none" 
	d="
M199.641571,880.690796 
	C204.017319,868.448303 213.109177,862.617554 225.093994,864.056885 
	C235.918564,865.356812 243.945709,873.328186 244.811600,885.176880 
	C245.260101,891.314026 244.653931,897.906799 242.801117,903.747009 
	C239.854889,913.033691 231.223450,918.134155 221.520584,918.007935 
	C211.726395,917.880554 203.557343,912.077759 200.293625,902.706787 
	C197.820816,895.606689 197.713928,888.358948 199.641571,880.690796 
M210.152557,888.769165 
	C210.770508,892.848450 210.887314,897.089539 212.138474,900.964355 
	C213.571884,905.403870 217.117371,908.005615 222.042725,907.933044 
	C226.740753,907.863953 229.902649,905.230713 231.631668,901.113098 
	C234.460983,894.375000 234.605774,887.410889 231.741882,880.679260 
	C228.618240,873.337158 219.434265,871.253662 214.611557,877.079773 
	C212.239014,879.945984 211.598587,884.246033 210.152557,888.769165 
z"/>
<path fill="#060606" opacity="1.000000" stroke="none" 
	d="
M203.582581,372.613495 
	C210.554901,364.224579 219.245209,362.352203 228.998383,365.002777 
	C238.418060,367.562683 243.151581,374.579102 244.755219,383.737885 
	C246.004272,390.871521 245.730515,398.025055 242.579605,404.776581 
	C238.398071,413.736359 231.071793,417.889557 221.447296,417.955780 
	C211.957733,418.021118 203.894638,412.531311 200.675461,403.536591 
	C196.913574,393.025482 197.087280,382.636719 203.582581,372.613495 
M213.211517,403.169403 
	C219.765182,410.703674 229.332657,409.328461 231.923187,399.785004 
	C233.412674,394.297791 233.099411,387.990845 232.190414,382.276764 
	C231.299332,376.675354 226.964111,374.018524 221.882446,374.001007 
	C216.872253,373.983734 212.970413,376.769531 211.353149,382.215027 
	C209.310669,389.092194 209.362106,395.963623 213.211517,403.169403 
z"/>
<path fill="#060606" opacity="1.000000" stroke="none" 
	d="
M702.565552,874.617798 
	C708.891663,865.735168 717.711670,862.236511 727.497009,864.488953 
	C737.375427,866.762817 744.163818,873.576843 744.971924,884.324768 
	C745.479431,891.074524 744.800598,898.386780 742.624512,904.752991 
	C739.443909,914.058472 731.326599,917.912659 721.712830,917.954163 
	C712.234192,917.995056 704.189697,912.422546 700.964111,903.483521 
	C697.491577,893.860229 697.588867,884.235718 702.565552,874.617798 
M710.627991,894.221924 
	C710.955139,895.850464 711.135254,897.525757 711.635803,899.099121 
	C713.466797,904.853882 717.357849,908.019226 722.330383,907.955383 
	C727.080200,907.894409 730.979309,904.788513 732.690369,899.311646 
	C734.633301,893.092590 734.674255,886.809570 732.108276,880.739868 
	C730.270508,876.392822 726.994202,873.930542 722.033020,873.980774 
	C717.274231,874.028992 713.813293,876.405579 712.463318,880.625366 
	C711.175903,884.649536 711.110168,889.064514 710.627991,894.221924 
z"/>
<path fill="#EAEAEA" opacity="1.000000" stroke="none" 
	d="
M210.163437,888.333252 
	C211.598587,884.246033 212.239014,879.945984 214.611557,877.079773 
	C219.434265,871.253662 228.618240,873.337158 231.741882,880.679260 
	C234.605774,887.410889 234.460983,894.375000 231.631668,901.113098 
	C229.902649,905.230713 226.740753,907.863953 222.042725,907.933044 
	C217.117371,908.005615 213.571884,905.403870 212.138474,900.964355 
	C210.887314,897.089539 210.770508,892.848450 210.163437,888.333252 
z"/>
<path fill="#EAEAEA" opacity="1.000000" stroke="none" 
	d="
M213.011505,402.843201 
	C209.362106,395.963623 209.310669,389.092194 211.353149,382.215027 
	C212.970413,376.769531 216.872253,373.983734 221.882446,374.001007 
	C226.964111,374.018524 231.299332,376.675354 232.190414,382.276764 
	C233.099411,387.990845 233.412674,394.297791 231.923187,399.785004 
	C229.332657,409.328461 219.765182,410.703674 213.011505,402.843201 
z"/>
<path fill="#EAEAEA" opacity="1.000000" stroke="none" 
	d="
M710.567688,893.764771 
	C711.110168,889.064514 711.175903,884.649536 712.463318,880.625366 
	C713.813293,876.405579 717.274231,874.028992 722.033020,873.980774 
	C726.994202,873.930542 730.270508,876.392822 732.108276,880.739868 
	C734.674255,886.809570 734.633301,893.092590 732.690369,899.311646 
	C730.979309,904.788513 727.080200,907.894409 722.330383,907.955383 
	C717.357849,908.019226 713.466797,904.853882 711.635803,899.099121 
	C711.135254,897.525757 710.955139,895.850464 710.567688,893.764771 
z"/>
</svg>