<?xml version="1.0" encoding="UTF-8"?>
<svg id="Layer_2" data-name="Layer 2" xmlns="http://www.w3.org/2000/svg" viewBox="0 0 350 250">
  <defs>
    <style>
      .cls-1, .cls-2 {
        stroke: #000;
        stroke-miterlimit: 10;
        stroke-width: 3px;
      }

      .cls-1, .cls-3 {
        fill: #919191;
      }

      .cls-2, .cls-4 {
        fill: #fff;
      }

      .cls-5, .cls-3, .cls-4 {
        stroke-width: 0px;
      }
    </style>
  </defs>
  <path class="cls-5" d="m141.8,105.21c-.33-.75-.36-.83-.7-1.68-.39-.98-.76-1.97-1.1-2.96-.99-2.84-1.8-5.74-2.43-8.69-1.7-7.94-2.04-16.29-.22-24.23,3.72-16.25,16.82-29.33,32.19-35.14,6.43-2.43,13.26-3.83,20.02-5.01,7.36-1.28,14.87-1.68,22.33-1.07,4.94.41,9.77,1.35,14.58,2.55,4.02,1.01,8.04,2.07,11.9,3.59,8.31,3.27,15.15,9.19,19.19,17.21,3.49,6.94,4.63,14.89,5.42,22.53.8,7.76.43,15.64-1.07,23.29-.49,2.5-1.11,4.97-1.82,7.42-.54,1.86,2.36,2.65,2.89.8,2.56-8.83,3.76-18.08,3.32-27.27-.17-3.4-.6-6.77-1.07-10.14-.58-4.17-1.34-8.32-2.68-12.32-2.96-8.85-8.77-16.51-16.86-21.27-3.72-2.19-7.8-3.74-11.92-4.97-4.55-1.36-9.21-2.56-13.88-3.38-15.28-2.69-31.06-.87-45.89,3.42-16.31,4.71-31.04,16.16-37.43,32.2-5.64,14.16-3.86,30.57,1.74,44.47.29.73.6,1.45.91,2.17.77,1.76,3.36.24,2.59-1.51h0Z"/>
  <g>
    <path class="cls-4" d="m152.45,103.2c-.85-.2-6.36-1.38-9.97,1.96-1.86,1.72-2.35,3.83-2.89,6.18-.5,2.15-1.8,7.73,1.13,13.86,3,6.29,8.38,8.87,9.82,9.5"/>
    <path class="cls-5" d="m152.85,101.75c-2.5-.57-5.27-.63-7.72.19-1.82.61-3.46,1.68-4.64,3.2s-1.8,3.48-2.25,5.41c-.74,3.13-1.09,6.27-.63,9.47.6,4.19,2.55,8.12,5.46,11.19,1.89,2,4.21,3.66,6.72,4.78,1.75.78,3.28-1.81,1.51-2.59-4.86-2.16-8.73-6.32-10.22-11.47-.86-2.94-.89-6.05-.29-9.04s1.23-6.05,4.08-7.6c2.14-1.16,4.86-1.18,7.19-.65,1.88.43,2.68-2.46.8-2.89h0Z"/>
  </g>
  <g>
    <path class="cls-4" d="m252.81,110.42c4.77-1.88,10.01-.53,12.71,3.04,4.01,5.31-.05,12.31-.44,12.95-.68,1.1-1.47,2.15-2.49,2.95-.45.35-1.75,1.33-4.26,2.01-3.85,1.03-7.45.52-9.57.04"/>
    <path class="cls-5" d="m253.21,111.86c2.74-1.04,5.83-1.14,8.47.27s4.14,3.97,4.1,6.94c-.03,2.09-.7,4.18-1.68,6.02-.48.9-1.06,1.76-1.78,2.49-.17.17-.34.32-.51.48-.05.04-.51.4-.13.11-.11.08-.23.17-.34.24-.49.33-1.01.62-1.55.86-3.3,1.45-7.15,1.43-10.62.67-1.88-.41-2.69,2.48-.8,2.89,3.85.84,8,.91,11.73-.47,2.81-1.04,4.94-2.85,6.43-5.47,1.27-2.23,2.1-4.82,2.23-7.39.19-3.75-1.5-7.2-4.57-9.35-3.4-2.37-7.97-2.63-11.78-1.19-1.79.68-1.01,3.58.8,2.89h0Z"/>
  </g>
  <path class="cls-2" d="m154.68,90.84c-3.54,15.85-3.4,26.6-3.28,30.43.3,9.26.44,13.89,2.81,18.73,5.43,11.09,17.24,15.32,24.26,17.83,0,0,21.25,7.61,47.97-2.51,4.6-1.74,7.35-3.9,8.26-4.64,3.24-2.66,5.16-5.61,7.07-8.81,11.25-18.84,11.24-39.47,11.24-41.67,0-13.54.02-32.26-14.05-44.48-12.94-11.24-29.79-9.95-36.48-9.42-3.55.28-28.97,2.64-40.78,21.6-2.96,4.74-4.31,10.81-7.02,22.94Z"/>
  <path class="cls-5" d="m185.75,40.11c-4.1-4.64-19.39.98-29.03,8.9-19.8,16.27-24.31,49.31-14.98,55.72,7.22,4.96,26.53-3.42,31.84-15.92,3.04-7.15.48-13.24,6.09-21.07,3.11-4.33,5.79-4.52,10.77-8.9,9.45-8.31,21.79-23.42,18.26-29.03-2.61-4.15-13.36-2.25-19.2,0-2.58,1-7.54,3.35-11.71,8.43-5.49,6.7-5.25,12.83-7.49,22.47-4.29,18.46-12.6,28.03-11.71,28.56,1.84,1.09,34.75-40.55,27.16-49.16Z"/>
  <path class="cls-5" d="m183.04,55.84c.82,4.22,8.99,3.1,13.95,10.95,2.01,3.18,1.33,4.42,3.28,9.83.89,2.48,3.58,10.32,9.83,16.39,3.29,3.2,11.48,11.15,22.94,10.3,2.03-.15,8.73-.65,13.58-5.62,7.89-8.1,6.66-23.76-.47-32.31-7.55-9.05-19.04-.45-30.9-10.3-7.04-5.85-7.11-10.94-13.11-12.17-8.95-1.85-20.12,7.67-19.1,12.92Z"/>
  <path class="cls-5" d="m236.32,88.33c4.78,1.14,1.08,16.54,9.83,22.94,4.18,3.06,10.69,3.69,14.05.94,2.16-1.78,2.42-4.47,2.81-10.3.98-14.75,1.48-22.12.94-25.75-.87-5.83-1.87-12.56-6.09-19.67-6.37-10.73-16.03-15.49-25.75-20.13-12.02-5.73-25.24-12.04-30.9-7.02-5.17,4.58-.8,16.95,7.96,41.67,7.84,22.13,12.14,25.75,15.45,25.75,5.3,0,7.97-9.32,11.71-8.43Z"/>
  <path class="cls-5" d="m190.07,55.75c-2.76,10.48-2.43,22.66,2.67,32.41,2.06,3.94,5.11,7.64,9.15,9.68,4.84,2.44,10.23,1.99,15.21.23s11-4.34,13.5-9.41c.85-1.73-1.74-3.25-2.59-1.51-1.96,3.99-6.48,6-10.42,7.55-4.41,1.73-9.4,2.82-13.88.71-7.71-3.64-10.98-13.09-11.96-20.95-.75-5.99-.32-12.06,1.22-17.89.49-1.87-2.4-2.67-2.89-.8h0Z"/>
  <path class="cls-5" d="m144.21,114.2c-.06,3.7,1.49,7.38,4.2,9.91.57.53,1.56.61,2.12,0s.61-1.55,0-2.12c-.29-.27-.58-.56-.84-.86-.12-.14-.25-.29-.36-.43-.15-.19.12.16-.02-.03-.06-.08-.11-.15-.16-.23-.23-.33-.44-.67-.64-1.02-.09-.16-.18-.33-.26-.5-.04-.08-.08-.17-.12-.25-.01-.03-.17-.37-.1-.21.06.13-.05-.12-.06-.15-.03-.09-.07-.18-.1-.26-.06-.18-.12-.36-.18-.54-.12-.38-.22-.77-.3-1.16-.04-.18-.07-.37-.1-.56.03.15.01.1,0-.02-.01-.09-.02-.19-.03-.28-.04-.42-.05-.85-.04-1.27.01-.78-.7-1.54-1.5-1.5s-1.49.66-1.5,1.5h0Z"/>
  <path class="cls-5" d="m249.41,127.42c1.97-.2,3.76-.99,5.24-2.31,1.36-1.21,2.38-2.9,2.75-4.69.16-.77-.22-1.66-1.05-1.85-.75-.17-1.68.23-1.85,1.05-.08.37-.18.72-.31,1.07-.02.06-.04.12-.07.17l.08-.19c-.05.08-.08.17-.12.25-.08.17-.17.33-.26.49s-.19.32-.3.47c-.05.07-.12.15-.16.23.2-.33.08-.1,0-.01-.24.29-.49.56-.77.81-.09.08-.39.26-.43.36l.16-.12s-.1.07-.15.11c-.08.05-.15.11-.23.16-.31.21-.64.39-.97.55l-.08.04c-.15.06-.11.05.1-.04-.08,0-.19.07-.26.1-.16.06-.32.11-.49.16-.18.05-.36.1-.54.13-.09.02-.18.03-.27.05-.12.02-.06.01.17-.02-.06,0-.12.01-.19.02-.41.04-.76.14-1.06.44-.26.26-.46.69-.44,1.06.03.74.66,1.58,1.5,1.5h0Z"/>
  <path class="cls-4" d="m205.12,57.03c2.87,17.76,14.6,33.67,30.29,42.32,4.4,2.43,9.11,4.28,13.99,5.47,1.88.46,2.68-2.44.8-2.89-16.74-4.07-30.88-16.29-38.02-31.89-2.01-4.39-3.39-9.05-4.16-13.81-.31-1.9-3.2-1.09-2.89.8h0Z"/>
  <path class="cls-4" d="m221.93,66.84c3.35,8.76,10.45,15.02,17.44,20.93,1.3,1.1,3.13-.25,2.36-1.82-2.39-4.83-4.89-9.61-7.5-14.33l-2.59,1.51c3.78,5.72,8.73,10.53,14.58,14.12,1.65,1.01,3.16-1.58,1.51-2.59-5.4-3.32-10.01-7.76-13.5-13.05-1.06-1.6-3.53-.19-2.59,1.51,2.61,4.72,5.11,9.49,7.5,14.33l2.36-1.82c-6.52-5.51-13.53-11.4-16.67-19.61-.68-1.79-3.58-1.01-2.89.8h0Z"/>
  <path class="cls-4" d="m147.03,102.17c1.93,0,1.93-3,0-3s-1.93,3,0,3h0Z"/>
  <path class="cls-4" d="m154.28,99.21c5.08-1.77,9.41-5.55,11.68-10.45.34-.73.21-1.62-.54-2.05-.65-.38-1.71-.2-2.05.54-1.03,2.23-2.31,3.98-4.11,5.61-1.62,1.48-3.73,2.74-5.78,3.45-.76.27-1.27,1.03-1.05,1.85.2.74,1.08,1.31,1.85,1.05h0Z"/>
  <path class="cls-5" d="m140.02,140.7c1.34-.53,3.32-1.4,5.55-2.78,3.37-2.08,4.48-3.56,4.97-3.22.83.58-.19,6.27-4.18,7.58-3.18,1.04-6.13-1.4-6.34-1.59Z"/>
  <path class="cls-5" d="m148.31,147.04c-.57-.59.67-1.94,1.48-5.18.96-3.85.21-5.98.73-6.1.91-.21,4.8,5.82,2.47,9.31-1.23,1.85-4.01,2.68-4.69,1.97Z"/>
  <path class="cls-5" d="m243.3,140.91c.61,2.72,1.19,4.97,1.64,6.63.6,2.23.97,3.4,1.44,3.4.49,0,.85-1.3,1.19-2.51.51-1.81.68-3.35.74-4.37.27,1.39,1.09,4.62,3.48,5.9.34.18,1.05.57,1.5.28.45-.29.48-1.15,0-3.6-.7-3.57-1.52-5.62-1.01-5.92.37-.22.99.77,2.23.76.72,0,1.32-.34,1.72-.65-.43-.41-1.08-1.09-1.71-2.05-.39-.58-.85-1.39-1.99-4.29-1.02-2.6-1.12-3.06-1.75-3.44-1.01-.61-2.39-.29-3.29.49-1.4,1.21-1.75,2.76-1.78,3.03"/>
  <path class="cls-2" d="m29.6,177.87l65.25-15.64,51.8,5.53c3.75.4,4.76,5.39,1.45,7.21-14.28,7.88-28.56,15.77-42.84,23.65-25.18-4.14-50.36-8.28-75.54-12.42-.04-2.78-.09-5.56-.13-8.33Z"/>
  <rect class="cls-2" x="8.04" y="120.71" width="105.54" height="75.76" rx="9.71" ry="9.71" transform="translate(17.19 -5.56) rotate(6.1)"/>
  <g>
    <path class="cls-5" d="m165.61,126.08c3.22,0,3.22-5,0-5s-3.22,5,0,5h0Z"/>
    <path class="cls-5" d="m224.14,129.36c3.22,0,3.22-5,0-5s-3.22,5,0,5h0Z"/>
    <path class="cls-5" d="m197.83,149.91c2.98,2.47,7.13,3.48,10.85,2.18s6.3-4.18,7.26-7.8c.28-1.04-.35-2.17-1.4-2.46s-2.18.35-2.46,1.4c-.59,2.24-2.36,4.27-4.47,5.01-2.36.82-5.09.4-6.96-1.16-.83-.69-2.01-.81-2.83,0-.71.71-.84,2.14,0,2.83h0Z"/>
    <path class="cls-5" d="m162.34,108.73l6.08-.56c.54-.05,1.02-.19,1.41-.59.35-.35.61-.92.59-1.41-.04-1-.88-2.1-2-2l-6.08.56c-.54.05-1.02.19-1.41.59-.35.35-.61.92-.59,1.41.04,1,.88,2.1,2,2h0Z"/>
    <path class="cls-5" d="m220.37,112.3l7.03-.9c.55-.07,1.01-.18,1.41-.59.35-.35.61-.92.59-1.41s-.19-1.05-.59-1.41c-.36-.33-.9-.65-1.41-.59l-7.03.9c-.55.07-1.01.18-1.41.59-.35.35-.61.92-.59,1.41s.19,1.05.59,1.41c.36.33.9.65,1.41.59h0Z"/>
    <path class="cls-5" d="m182.77,134.97c.58-.18,1.18-.3,1.78-.39l-.53.07c1.02-.13,2.05-.13,3.07,0l-.53-.07c.45.06.9.15,1.34.27,1.01.26,2.22-.33,2.46-1.4s-.31-2.18-1.4-2.46c-2.37-.61-4.91-.59-7.26.12-1,.3-1.73,1.42-1.4,2.46s1.39,1.72,2.46,1.4h0Z"/>
  </g>
  <path class="cls-2" d="m106.55,80.1l.64-.23c1.99-.73,3.11-2.84,2.6-4.89l-7.34-30c-.59-2.41-3.15-3.77-5.48-2.91l-6.24,2.3c-2.28.84-3.36,3.45-2.34,5.65l12.95,27.93c.91,1.97,3.18,2.9,5.21,2.15Z"/>
  <circle class="cls-2" cx="112.56" cy="93.76" r="4.82"/>
  <ellipse class="cls-1" cx="141.79" cy="119.57" rx="11.94" ry="16.19"/>
  <ellipse class="cls-1" cx="258.03" cy="119.57" rx="11.94" ry="16.19"/>
  <g>
    <path class="cls-3" d="m246.16,178.63c-.23-6.79,2.44-11.96,3.7-14.07,8.66-14.5,29.07-15.47,35.13-15.77,8-.38,17.32-.83,25.82,5.6,6.51,4.93,13.33,14.49,11.83,23.33-3.48,20.52-51.33,34.9-67.98,19.42-3.01-2.8-8.2-9.55-8.5-18.52Z"/>
    <path class="cls-5" d="m247.66,178.63c-.18-7.43,3.01-14.54,8.65-19.36,4.97-4.26,11.4-6.53,17.75-7.77,5.02-.98,10.17-1.26,15.28-1.38,4.33-.1,8.68.15,12.83,1.46,4.4,1.39,8.22,3.98,11.4,7.29,5.22,5.42,9.69,13.54,6.9,21.17-1.7,4.63-5.58,8.33-9.51,11.12-9.97,7.08-22.85,10.89-35.04,10.99-5.44.05-11.17-.67-16.06-3.21-5.37-2.79-9.18-8.12-11.03-13.8-.69-2.12-1.08-4.3-1.18-6.52-.08-1.92-3.08-1.93-3,0,.32,7.61,3.94,15.59,9.93,20.44,4.59,3.72,10.45,5.32,16.24,5.88,6.66.64,13.46-.14,19.94-1.71,6.59-1.59,13.06-4.09,18.85-7.62,4.85-2.95,9.54-6.78,12.36-11.8,1.44-2.56,2.3-5.41,2.36-8.35.08-4.69-1.75-9.29-4.26-13.18s-5.81-7.39-9.66-10.01c-4.09-2.79-8.81-4.29-13.69-4.88-4.07-.49-8.18-.3-12.26-.09-2.29.11-4.57.29-6.84.59-6.76.88-13.56,2.67-19.41,6.28-6.25,3.86-10.9,9.83-12.74,16.98-.63,2.43-.9,4.95-.84,7.46.05,1.93,3.05,1.93,3,0Z"/>
  </g>
  <path class="cls-3" d="m81.65,161.35c-1.89.14-3.78.27-5.67.18s-3.61-.59-5.41-1.22c-1.66-.58-3.14-.48-4.83-.1-1.96.44-3.92.9-5.88,1.34l1.9,1.45c-.25-3.73,2.72-7.25,6.52-7.38.73-.02,1.6-.67,1.5-1.5-.34-2.66-4.04-4.14-6.48-4-3.24.19-6.04,2.2-8.47,4.19-1.12.92-2.15,2-3.36,2.79-1.53.99-3.07.96-4.81.85-3.09-.2-5.92.76-8.96.98-3.46.24-6.55-1.13-9.33-3.1-1.58-1.12-3.08,1.48-1.51,2.59,3.03,2.14,6.59,3.67,10.36,3.54,1.59-.06,3.14-.41,4.69-.7,1.95-.36,3.81-.33,5.78-.23,2.13.12,4.17-.5,5.88-1.76,1.37-1.01,2.58-2.22,3.92-3.28,1.51-1.18,3.24-2.39,5.15-2.78,1.79-.37,3.23.35,4.52,1.57l-.44-1.06.05.39,1.5-1.5c-5.34.18-9.88,4.99-9.52,10.38.07,1,.9,1.67,1.9,1.45,1.81-.41,3.62-.83,5.42-1.24.8-.18,1.64-.45,2.47-.35s1.62.52,2.4.79c3.43,1.19,7.13.97,10.7.7,1.91-.14,1.93-3.14,0-3h0Z"/>
  <g>
    <path class="cls-3" d="m249.74,177.57c-4.02,1.11-8.22,2.32-11.16,5.27-1.97,1.98-3.2,4.6-4,7.28-2.08,6.95-1.16,15.26,4.08,20.28,1.3,1.24,3.13,2.29,4.82,1.68,1.52-.55,2.32-2.3,2.28-3.92-.05-1.61-.76-3.12-1.45-4.58-1.49-3.11-1.67-3.21-2.02-4.21-1.16-3.39.34-6.8.8-7.87,2.4-5.48,7.93-7.28,8.85-7.56"/>
    <path class="cls-5" d="m249.34,176.12c-3.21.89-6.54,1.82-9.35,3.67s-4.81,4.58-6.09,7.74c-2.31,5.71-2.6,12.52-.16,18.24,1.13,2.66,2.93,5.3,5.4,6.9,2.8,1.82,6.37,1.19,7.67-2.07s-.52-6.44-1.92-9.26c-.35-.71-.75-1.4-1.06-2.12.14.34-.02-.08-.04-.12-.11-.34-.22-.67-.29-1.02-.19-.96-.17-1.97,0-2.94.83-4.7,4.41-8.39,8.85-9.76,1.84-.57,1.05-3.46-.8-2.89-7.79,2.41-13.88,11.27-9.84,19.19,1.09,2.14,3.31,5.31,2.34,7.79-1.32,3.35-5.06-.7-6.09-2.21-3.11-4.53-3.53-10.47-2.22-15.69.83-3.32,2.32-6.64,5.12-8.75s6.08-2.94,9.29-3.82c1.86-.51,1.07-3.41-.8-2.89h0Z"/>
  </g>
  <g>
    <path class="cls-4" d="m296.9,163.42c-3.65.68-7.3-2.53-10.47-2.77-.4-.03-1.04-.03-1.59.35-.48.33-.72.9-.93,1.44-3.64,9.63-3.65,20.58-.03,30.21.84,2.24,1.95,4.51,3.89,5.92,2.05,1.49,4.7,1.79,7.23,1.93,9.79.56,20.1-.64,28.24-6.11s13.36-16.07,10.28-25.38c-.61-1.85-1.52-3.59-2.43-5.32-1.47-2.81-2.94-5.62-4.41-8.43-.72-1.38-1.47-2.8-2.67-3.79-2.16-1.8-5.66-1.73-7.75.15-1.32,1.19-1.28,1.84-2.64,3.65-2.15,2.86-6.56,4.5-15.29,7.68-1.15.42-1.28.45-1.43.48Z"/>
    <path class="cls-5" d="m296.5,161.97c-2.78.42-5.5-1.64-8.05-2.43-1.17-.36-2.49-.59-3.68-.17-1.57.55-2.11,2.07-2.62,3.5-2.25,6.35-2.98,13.27-2.17,19.95.4,3.35,1.14,6.64,2.29,9.81,1.04,2.87,2.42,5.74,5.06,7.45s5.9,1.85,8.9,1.97c3.2.13,6.41.07,9.59-.28,6.2-.68,12.36-2.36,17.64-5.76,4.72-3.04,8.47-7.47,10.62-12.66,2.19-5.28,2.44-11.13.22-16.44-1.36-3.26-3.17-6.35-4.8-9.48-1.4-2.68-2.64-6.01-5.32-7.7s-6.18-1.42-8.58.45c-1.9,1.48-2.58,3.91-4.44,5.43-1.76,1.44-4.01,2.34-6.1,3.18-1.62.65-3.27,1.26-4.91,1.86-1.19.44-2.42,1.05-3.67,1.29-1.89.37-1.09,3.27.8,2.89.8-.16,1.58-.53,2.35-.81,1.5-.55,3-1.09,4.49-1.66,2.09-.8,4.2-1.62,6.19-2.67,1.4-.74,2.78-1.63,3.86-2.8,1.35-1.46,2.02-3.74,3.83-4.72,2.3-1.24,4.83-.3,6.21,1.77,1.74,2.6,3.02,5.6,4.46,8.37,1.37,2.62,2.93,5.23,3.69,8.11.63,2.37.7,4.9.27,7.31-.88,4.91-3.48,9.39-7.07,12.82-3.96,3.79-9.13,6.06-14.42,7.3-5.52,1.29-11.32,1.5-16.96,1.07-2.87-.22-5.6-.91-7.28-3.44-1.54-2.33-2.37-5.19-3.03-7.88-1.65-6.66-1.63-13.73.08-20.37.2-.78.42-1.56.67-2.33.22-.69.42-1.77.85-2.37.68-.95,2.49-.04,3.35.31,2.81,1.13,5.35,2.47,8.47,2.01,1.9-.29,1.09-3.18-.8-2.89Z"/>
  </g>
  <path class="cls-3" d="m297.48,194.27c3.87-1.52,5.92-4.59,6.83-5.9.6-.86,1.6-2.31,2.24-4.38,1.64-5.3-.52-10.01.16-10.23.61-.2,1.68,3.8,5.96,7.34.52.43.98.7,1.57,1.16,3.29,2.65,8.14,2.4,12.03.76,1.63-.69,3.2-1.61,4.39-2.91,2.36-2.56,3.03-6.33,2.6-9.78-.43-3.46-1.84-6.71-3.2-9.91-1.2-2.84-2.45-5.79-4.78-7.81-2.33-2.02-6.09-2.75-8.46-.78-1.27,1.05-1.93,2.67-3.07,3.86-1.19,1.25-2.82,1.96-4.41,2.63-1.94.82-3.89,1.62-5.84,2.41-3.24,1.31-6.68,2.59-10.13,2.07-2.32-.35-4.52-1.51-6.87-1.51-.78,0-1.62.16-2.18.71-.43.43-.63.91-.71,1.16-4.31,13.23-2.23,22.36-2.23,22.36.97,4.25,1.45,6.38,3.45,8.05,4.54,3.78,11.7,1.08,12.64.71Z"/>
  <path class="cls-5" d="m296.5,161.97c-2.78.42-5.5-1.64-8.05-2.43-1.17-.36-2.49-.59-3.68-.17-1.57.55-2.11,2.07-2.62,3.5-2.25,6.35-2.98,13.27-2.17,19.95.4,3.35,1.14,6.64,2.29,9.81,1.04,2.87,2.42,5.74,5.06,7.45s5.9,1.85,8.9,1.97c3.2.13,6.41.07,9.59-.28,6.2-.68,12.36-2.36,17.64-5.76,4.72-3.04,8.47-7.47,10.62-12.66,2.19-5.28,2.44-11.13.22-16.44-1.36-3.26-3.17-6.35-4.8-9.48-1.4-2.68-2.64-6.01-5.32-7.7s-6.18-1.42-8.58.45c-1.9,1.48-2.58,3.91-4.44,5.43-1.76,1.44-4.01,2.34-6.1,3.18-1.62.65-3.27,1.26-4.91,1.86-1.19.44-2.42,1.05-3.67,1.29-1.89.37-1.09,3.27.8,2.89.8-.16,1.58-.53,2.35-.81,1.5-.55,3-1.09,4.49-1.66,2.09-.8,4.2-1.62,6.19-2.67,1.4-.74,2.78-1.63,3.86-2.8,1.35-1.46,2.02-3.74,3.83-4.72,2.3-1.24,4.83-.3,6.21,1.77,1.74,2.6,3.02,5.6,4.46,8.37,1.37,2.62,2.93,5.23,3.69,8.11.63,2.37.7,4.9.27,7.31-.88,4.91-3.48,9.39-7.07,12.82-3.96,3.79-9.13,6.06-14.42,7.3-5.52,1.29-11.32,1.5-16.96,1.07-2.87-.22-5.6-.91-7.28-3.44-1.54-2.33-2.37-5.19-3.03-7.88-1.65-6.66-1.63-13.73.08-20.37.2-.78.42-1.56.67-2.33.22-.69.42-1.77.85-2.37.68-.95,2.49-.04,3.35.31,2.81,1.13,5.35,2.47,8.47,2.01,1.9-.29,1.09-3.18-.8-2.89Z"/>
  <g>
    <path class="cls-4" d="m290.01,201.63c-.3.41-1.82,2.57-1.13,4.64,1.38,4.13,10.25,3.95,13.93,3.51,2.35-.28,4.79-.6,5.77-2.42.94-1.74.12-4.09-.85-5.46-3.4-4.82-14.1-5.19-17.72-.28Z"/>
    <path class="cls-5" d="m288.72,200.87c-1.21,1.66-1.95,3.95-1.22,5.96.63,1.75,2.15,2.83,3.82,3.51,3.29,1.33,7.21,1.34,10.7,1.02,2.11-.19,4.55-.36,6.34-1.6,2.25-1.56,2.55-4.39,1.61-6.8-1.51-3.9-5.43-5.72-9.36-6.22-4.3-.54-9.16.54-11.89,4.13-.49.65-.1,1.67.54,2.05.77.46,1.56.1,2.05-.54,1.65-2.16,4.86-2.79,7.41-2.77s5.91.75,7.65,2.96c.85,1.09,1.74,3.23.63,4.43-1.04,1.11-3.16,1.17-4.57,1.32-2.79.29-5.75.34-8.49-.3-1.16-.27-2.65-.76-3.29-1.6-.93-1.2-.19-2.86.66-4.03.48-.66.11-1.67-.54-2.05-.75-.45-1.58-.11-2.05.54Z"/>
  </g>
  <g>
    <path class="cls-4" d="m319.76,200c.4,2.1,3.37,3.37,5.45,3.65,3.33.45,5.8-1.57,7.38-2.87,3.55-2.91,6.6-8.28,5.06-10.2-1.76-2.19-8.74,1.02-9.55,1.39-.95.44-9.07,4.25-8.34,8.03Z"/>
    <path class="cls-5" d="m318.31,200.4c.54,2.3,2.79,3.64,4.88,4.32,2.44.79,4.96.55,7.23-.61,1.99-1.02,3.84-2.63,5.3-4.31s2.93-3.81,3.56-6.07c.49-1.75.37-3.85-1.37-4.86-1.54-.89-3.58-.55-5.22-.15-2.46.6-4.86,1.63-7.09,2.83-3.18,1.71-7.98,4.61-7.29,8.85.13.8,1.12,1.25,1.85,1.05.85-.23,1.18-1.04,1.05-1.85.05.29,0-.17,0-.2.06-.48-.07.29.04-.2.07-.31.05-.25.2-.52.34-.61.71-1.03,1.22-1.51,1.04-.99,2.25-1.78,3.49-2.5.85-.49,1.72-.95,2.61-1.36.25-.12.5-.23.75-.34.04-.02.41-.17.12-.05.09-.04.18-.08.27-.11.36-.15.73-.29,1.09-.42,1.29-.47,2.77-.96,4.05-1.04.28-.02.57-.03.85,0,.51.04-.27-.05.21.03.02,0,.49.12.17.03.03,0,.19.13.23.13-.1,0-.08,0-.08-.08,0,.29-.02-.15.08.15.06.17.05.03.04.37-.01,1.35-.94,2.93-1.73,4.11-1.06,1.59-2.41,2.96-3.91,4.14s-3.44,2.23-5.51,1.96c-1.46-.19-3.82-.94-4.2-2.57-.44-1.88-3.33-1.08-2.89.8Z"/>
  </g>
  <path class="cls-5" d="m298.4,191.05c.09-.19.19-.37.32-.54l-.23.3c.15-.19.32-.36.51-.51l-.3.23c.22-.17.45-.3.7-.41l-.36.15c.24-.1.48-.16.74-.2l-.4.05c.24-.03.48-.03.72,0l-.4-.05c.1.01.21.03.31.06.38.1.81.05,1.16-.15.31-.18.61-.54.69-.9.09-.38.07-.81-.15-1.16s-.51-.59-.9-.69c-.44-.11-.92-.17-1.38-.12-.62.07-1.12.21-1.68.48-.41.19-.79.48-1.11.8s-.62.71-.81,1.13c-.11.17-.17.36-.18.56-.04.2-.04.4.03.6.1.35.36.73.69.9.35.18.77.28,1.16.15.35-.11.74-.34.9-.69h0Z"/>
  <path class="cls-5" d="m320.25,181.71c.09-.19.19-.37.32-.54l-.23.3c.15-.19.32-.36.51-.51l-.3.23c.22-.17.45-.3.7-.41l-.36.15c.24-.1.48-.16.74-.2l-.4.05c.24-.03.48-.03.72,0l-.4-.05c.1.01.21.03.31.06.38.1.81.05,1.16-.15.31-.18.61-.54.69-.9.09-.38.07-.81-.15-1.16s-.51-.59-.9-.69c-.44-.11-.92-.17-1.38-.12-.62.07-1.12.21-1.68.48-.41.19-.79.48-1.11.8s-.62.71-.81,1.13c-.11.17-.17.36-.18.56-.04.2-.04.4.03.6.1.35.36.73.69.9.35.18.77.28,1.16.15.35-.11.74-.34.9-.69h0Z"/>
  <path class="cls-5" d="m288.74,188.14c-2.71-.07-5.41-.15-8.12-.22-.78-.02-1.54.71-1.5,1.5s.66,1.48,1.5,1.5c2.71.07,5.41.15,8.12.22.78.02,1.54-.71,1.5-1.5s-.66-1.48-1.5-1.5h0Z"/>
  <path class="cls-5" d="m290.43,191.99c-2.41.84-4.82,1.69-7.23,2.53-.74.26-1.31,1.04-1.05,1.85.24.73,1.05,1.32,1.85,1.05,2.41-.84,4.82-1.69,7.23-2.53.74-.26,1.31-1.04,1.05-1.85-.24-.73-1.05-1.32-1.85-1.05h0Z"/>
  <path class="cls-5" d="m337.21,170.57c-2.83.67-5.56,1.65-8.18,2.91-.71.34-.95,1.41-.54,2.05.47.73,1.29.9,2.05.54.31-.15.62-.29.93-.43.18-.08.36-.16.53-.23.29-.12-.14.05.18-.07.63-.25,1.26-.5,1.91-.73,1.28-.45,2.59-.83,3.92-1.14.76-.18,1.29-1.09,1.05-1.85-.26-.8-1.03-1.24-1.85-1.05h0Z"/>
  <path class="cls-5" d="m330.78,179.95c3.66.51,7.34.75,11.03.66.81-.02,1.5-.68,1.5-1.5s-.69-1.52-1.5-1.5c-3.42.08-6.85-.08-10.24-.55-.8-.11-1.61.19-1.85,1.05-.19.7.24,1.73,1.05,1.85h0Z"/>
  <path class="cls-5" d="m310.84,190.64c.07.03.13.07.18.11l-.2-.16c.1.08.19.17.28.27.14.15.3.28.47.39.47.29,1.12.35,1.6.04.2-.13.32-.26.45-.46.08-.12.13-.26.18-.38.05-.14.09-.28.13-.43.1-.38.16-.76.21-1.15.03-.24-.13-.55-.29-.71-.17-.17-.46-.3-.71-.29s-.53.1-.71.29l-.16.2c-.09.16-.14.32-.14.5,0,.03,0,.07-.01.1l.04-.27c-.06.42-.14.85-.3,1.24l.1-.24c-.02.05-.05.1-.08.14l.16-.2s-.05.05-.08.08l.2-.16s-.06.04-.09.05l.24-.1s-.06.02-.1.02l.27-.04s-.08,0-.13,0l.27.04c-.05,0-.1-.02-.15-.04l.24.1c-.08-.03-.15-.07-.21-.12l.2.16c-.29-.23-.5-.54-.84-.7-.11-.07-.24-.11-.37-.12-.13-.03-.27-.02-.4.02-.23.06-.48.24-.6.46-.12.23-.18.51-.1.77.08.23.23.49.46.6h0Z"/>
  <path class="cls-5" d="m236.32,202.48c.2,1.17.65,2.29,1.3,3.28.14.22.45.33.68.18.22-.14.33-.45.18-.68-.63-.94-1.01-1.92-1.2-3.04-.04-.26-.38-.43-.62-.35-.28.09-.4.34-.35.62h0Z"/>
  <path class="cls-5" d="m238.06,202.04l.81,2.53c.08.25.35.43.62.35.25-.08.43-.35.35-.62l-.81-2.53c-.08-.25-.35-.43-.62-.35-.25.08-.43.35-.35.62h0Z"/>
  <path class="cls-5" d="m240.09,201.64l.44,1.89c.06.26.37.43.62.35.27-.09.41-.34.35-.62l-.44-1.89c-.06-.26-.37-.43-.62-.35-.27.09-.41.34-.35.62h0Z"/>
  <path class="cls-5" d="m236.41,194.87c-.27-.03-.5.17-.6.4-.08.17-.08.37-.1.55-.03.34-.06.68-.05,1.02.01.71.15,1.43.53,2.04.14.23.45.32.68.18s.32-.46.18-.68c-.25-.4-.36-.87-.39-1.32-.01-.26,0-.52,0-.78,0-.13.02-.25.03-.38,0-.07.01-.14.02-.21,0-.07,0-.07,0-.01.05-.17-.05-.1-.31.19.26.03.51-.25.5-.5-.01-.3-.22-.46-.5-.5h0Z"/>
  <path class="cls-5" d="m237.52,195.56c-.15.96-.08,1.93.25,2.84.09.24.34.44.62.35.24-.08.45-.35.35-.62-.08-.21-.14-.41-.19-.63-.02-.09-.04-.18-.06-.28,0-.02-.03-.21-.02-.1,0-.05-.01-.09-.02-.14-.02-.2-.03-.4-.02-.61,0-.11,0-.22.02-.33,0-.05,0-.09.01-.14,0-.06,0-.06,0,0,0-.03,0-.06.01-.09.04-.26-.07-.55-.35-.62-.24-.05-.57.07-.62.35h0Z"/>
  <path class="cls-5" d="m239.36,195.2c-.28.79-.03,1.75.58,2.32.19.18.52.2.71,0,.18-.19.2-.52,0-.71-.06-.05-.11-.11-.16-.17-.04-.05.07.1.02.03-.01-.01-.02-.03-.03-.04-.02-.03-.04-.07-.06-.1s-.04-.07-.06-.11c0-.02-.02-.03-.02-.05-.03-.07.01.04.02.04-.02-.01-.03-.09-.04-.11-.01-.04-.02-.08-.03-.12,0-.04-.02-.07-.02-.11,0-.02-.02-.1,0-.01.01.09,0,.02,0,0,0-.08,0-.15,0-.23,0-.04,0-.08,0-.12,0-.06-.02.11,0,.05,0-.02,0-.04.01-.07.02-.08.04-.16.07-.23.09-.25-.1-.56-.35-.62-.28-.06-.52.08-.62.35h0Z"/>
  <path class="cls-5" d="m237.05,188.72c-.52,1.04-.79,2.18-.78,3.34,0,.26.23.51.5.5s.5-.22.5-.5c0-.98.22-1.97.65-2.84.12-.23.07-.55-.18-.68-.23-.12-.56-.07-.68.18h0Z"/>
  <path class="cls-5" d="m238.47,189.54c-.43.99-.65,2.04-.62,3.12,0,.26.22.51.5.5s.51-.22.5-.5c0-.25,0-.49.02-.74,0-.1.02-.21.03-.31-.01.08.02-.11.02-.13,0-.05.02-.1.03-.16.04-.22.1-.45.16-.66.04-.12.07-.23.12-.35.02-.05.04-.1.06-.15.01-.03.03-.07.04-.1.02-.06.03-.06.01-.03.1-.24.08-.55-.18-.68-.22-.11-.57-.08-.68.18h0Z"/>
  <path class="cls-5" d="m240.61,192.17c.04-.15.08-.31.14-.46.02-.07.05-.13.07-.2,0-.02.01-.04.02-.06.02-.05.02-.04-.02.04.02-.03.03-.07.05-.11.13-.28.28-.55.46-.8.15-.22.05-.56-.18-.68-.26-.14-.52-.05-.68.18-.38.55-.66,1.17-.83,1.82-.06.25.08.55.35.62s.55-.08.62-.35h0Z"/>
  <path class="cls-5" d="m240.26,185.1c.09-.2.21-.4.35-.57l-.08.1c.16-.2.34-.38.54-.54l-.1.08c.19-.15.4-.27.62-.37.11-.05.2-.19.23-.3.03-.12.02-.28-.05-.39s-.17-.2-.3-.23c-.14-.03-.26,0-.39.05-.73.32-1.35.94-1.69,1.66-.06.12-.09.25-.05.39.03.12.12.24.23.3.22.12.57.07.68-.18h0Z"/>
  <path class="cls-5" d="m241.26,186.21c.09-.17.18-.33.29-.48.03-.04.05-.07.08-.11.01-.02.06-.08,0-.01s0,0,.01-.01c.06-.07.12-.14.18-.21.12-.13.25-.26.39-.38.03-.03.07-.06.1-.08.08-.06-.07.06-.03.02.02-.01.04-.03.05-.04.08-.06.16-.11.24-.16.22-.14.33-.45.18-.68s-.45-.33-.68-.18c-.71.45-1.31,1.08-1.69,1.83-.12.23-.07.55.18.68.23.12.56.07.68-.18h0Z"/>
  <path class="cls-5" d="m242.6,186.81c.04-.07.08-.14.13-.2.06-.08-.06.07-.02.03.01-.02.03-.03.04-.05.03-.03.05-.06.08-.09.06-.06.11-.11.17-.16.02-.01.03-.03.05-.04-.01,0-.09.07-.04.03.04-.03.07-.05.11-.08.07-.04.14-.08.21-.12.04-.02.07-.04.11-.05.03-.01.1-.04-.03.01.02,0,.03-.01.05-.02.16-.06.32-.1.49-.13l-.13.02s.09-.01.13-.01c.26-.02.51-.22.5-.5-.01-.25-.22-.52-.5-.5-.91.07-1.75.57-2.21,1.36-.13.23-.06.56.18.68s.54.06.68-.18h0Z"/>
  <path class="cls-5" d="m245.31,181.86c1.01-.55,2.1-.92,3.25-1.12.27-.05.42-.37.35-.62-.08-.28-.35-.39-.62-.35-1.22.21-2.4.63-3.49,1.22-.24.13-.31.46-.18.68s.45.31.68.18h0Z"/>
  <path class="cls-5" d="m246.28,182.9c.54-.22,1.1-.4,1.66-.53.25-.06.43-.37.35-.62-.09-.27-.34-.41-.62-.35-.57.13-1.12.31-1.66.53-.13.05-.23.11-.3.23-.06.11-.09.27-.05.39s.11.24.23.3.26.1.39.05h0Z"/>
  <path class="cls-5" d="m246.69,184.3c.13-.07.26-.13.4-.19.05-.02.04-.02-.03.01.02,0,.04-.02.06-.02.03-.01.06-.02.09-.03.07-.03.15-.05.22-.08.28-.09.58-.16.87-.2l-.13.02h.03c.14-.02.25-.05.35-.15.09-.09.15-.23.15-.35s-.05-.26-.15-.35c-.09-.08-.23-.16-.35-.15-.71.09-1.38.3-2.01.64-.23.12-.32.46-.18.68.15.23.44.31.68.18h0Z"/>
  <path class="cls-5" d="m302.59,165.95c.66,1.02,1.26,2.08,1.78,3.17.11.24.47.32.68.18.24-.16.3-.43.18-.68-.52-1.1-1.12-2.16-1.78-3.17-.14-.22-.45-.33-.68-.18-.22.14-.33.45-.18.68h0Z"/>
  <path class="cls-5" d="m304.6,165.09c.19.18.36.38.53.59-.04-.05,0,0,.02.03s.04.05.06.07c.04.05.07.1.11.15.08.12.15.23.22.35.07.11.13.23.19.35.03.06.05.11.08.17.01.03.03.06.04.08,0,0,.05.12.03.07-.02-.05.02.04.02.05.01.03.02.06.03.09.02.07.05.13.07.2.05.13.09.27.12.4.07.25.36.43.62.35s.42-.34.35-.62c-.31-1.15-.93-2.2-1.78-3.04-.19-.18-.52-.2-.71,0s-.2.51,0,.71h0Z"/>
  <path class="cls-5" d="m307.24,163.61c1,.87,1.7,1.98,2.05,3.24.17.62,1.14.36.96-.27-.4-1.42-1.2-2.71-2.31-3.68-.2-.18-.51-.2-.71,0-.18.18-.2.53,0,.71h0Z"/>
  <path class="cls-5" d="m286.72,165.69c-.73,1.27-.68,2.96.19,4.15.16.22.43.33.68.18.22-.13.34-.46.18-.68-.18-.24-.31-.49-.39-.73-.05-.14-.09-.28-.12-.43,0-.04-.01-.07-.02-.11,0-.01-.02-.1-.01-.07s0-.06,0-.07c0-.05,0-.09,0-.14-.03-.58.09-1.11.37-1.6.14-.23.05-.55-.18-.68s-.55-.06-.68.18h0Z"/>
  <path class="cls-5" d="m320.41,154.89c.43,1.02.62,2.12.59,3.22,0,.27.24.5.5.5s.49-.23.5-.5c.04-1.29-.22-2.55-.72-3.73-.11-.25-.47-.3-.68-.18-.26.15-.29.43-.18.68h0Z"/>
</svg>