<?xml version="1.0" standalone="no"?>
<!DOCTYPE svg PUBLIC "-//W3C//DTD SVG 20010904//EN"
 "http://www.w3.org/TR/2001/REC-SVG-20010904/DTD/svg10.dtd">
<svg version="1.0" xmlns="http://www.w3.org/2000/svg"
 width="700.000000pt" height="700.000000pt" viewBox="0 0 700.000000 700.000000"
 preserveAspectRatio="xMidYMid meet">
<metadata>
Created by potrace 1.14, written by Peter Selinger 2001-2017
</metadata>
<g transform="translate(0.000000,700.000000) scale(0.100000,-0.100000)"
fill="#000000" stroke="none">
<path d="M3940 5529 c-235 -19 -530 -97 -692 -181 -258 -134 -457 -360 -536
-608 -36 -114 -46 -182 -45 -325 0 -145 19 -266 63 -406 18 -58 18 -64 3 -73
-43 -24 -96 -85 -125 -144 -31 -63 -33 -72 -33 -182 0 -105 2 -120 28 -175 32
-69 85 -128 141 -157 47 -24 133 -26 178 -4 17 9 36 16 42 16 19 -1 -36 -41
-98 -72 -53 -27 -57 -31 -43 -45 8 -8 35 -17 59 -20 40 -5 49 -2 81 27 34 29
37 30 37 11 0 -11 -9 -44 -20 -73 -14 -38 -17 -54 -8 -59 21 -13 72 16 88 49
18 39 23 39 41 6 7 -15 46 -57 86 -94 127 -119 345 -214 563 -246 308 -45 721
27 920 160 67 46 137 121 187 202 13 22 10 27 43 -85 24 -84 35 -84 55 1 l12
53 15 -36 c19 -44 67 -84 82 -69 10 10 -4 122 -20 164 -6 16 -3 17 24 11 48
-10 55 1 27 43 -14 20 -25 40 -25 43 0 4 29 4 65 1 47 -3 77 0 108 12 126 48
208 236 179 408 -15 87 -62 178 -115 223 l-40 34 22 103 c45 219 49 391 15
628 -29 198 -69 319 -144 433 -50 76 -139 169 -203 213 -218 147 -671 242
-1017 213z m305 -59 c198 -19 468 -90 596 -157 192 -99 317 -263 374 -488 31
-120 31 -160 2 -80 -61 164 -169 292 -336 400 -90 58 -381 199 -511 248 -136
51 -200 61 -343 54 -187 -8 -318 -60 -429 -168 -44 -43 -69 -59 -105 -68 -81
-20 -263 -116 -348 -184 -200 -161 -364 -462 -392 -719 -3 -32 -9 -58 -13 -58
-15 0 -22 204 -10 295 47 376 323 692 720 825 164 54 453 104 630 109 30 0
105 -4 165 -9z m-75 -645 c33 -144 91 -278 173 -400 57 -84 207 -236 294 -296
87 -60 234 -131 320 -155 66 -18 79 -32 59 -60 -13 -17 -18 -16 -107 14 -51
17 -94 30 -95 29 -8 -9 43 -112 72 -145 35 -41 35 -43 23 -79 -19 -52 -16
-207 4 -262 16 -44 16 -44 -23 -132 -85 -198 -181 -321 -298 -382 -77 -40
-227 -88 -357 -114 -127 -25 -426 -25 -545 0 -103 22 -262 83 -349 134 -201
117 -309 329 -257 502 20 68 21 192 1 257 -8 27 -15 73 -15 102 l0 52 83 39
c150 70 259 170 313 287 14 30 31 101 43 177 29 190 74 271 203 358 31 21 58
39 60 39 2 0 3 -73 3 -162 0 -188 12 -245 76 -376 92 -187 237 -269 418 -233
58 11 62 11 113 -18 87 -48 154 -65 248 -65 47 0 105 6 129 13 l44 13 -74 40
c-314 170 -539 463 -616 801 -12 55 -13 70 -3 83 26 30 44 11 60 -61z m-256
-127 c22 -26 43 -64 52 -98 56 -205 120 -332 221 -440 40 -43 70 -80 66 -84
-16 -16 -130 -5 -178 18 -142 66 -231 247 -242 493 -7 144 -1 178 26 163 11
-5 36 -29 55 -52z m611 -77 c23 -43 69 -105 108 -145 l68 -71 -37 72 c-20 40
-34 79 -30 88 10 28 43 16 70 -26 39 -58 144 -161 211 -205 56 -38 65 -57 33
-77 -13 -9 -28 -2 -72 31 -30 23 -58 42 -61 42 -3 0 2 -14 10 -31 19 -36 14
-59 -13 -59 -25 0 -176 132 -240 209 -88 105 -144 213 -127 241 15 24 42 1 80
-69z m-1208 -368 c23 -59 -166 -242 -240 -231 -38 5 -27 39 22 65 70 37 106
68 145 128 38 56 61 69 73 38z m-357 -248 c17 -20 5 -45 -20 -45 -11 0 -23 7
-26 15 -6 15 11 45 26 45 4 0 13 -7 20 -15z m-64 -124 c163 -74 193 -378 49
-510 -77 -71 -163 -66 -234 15 -54 61 -76 129 -75 229 1 126 53 227 139 266
50 23 70 23 121 0z m2331 -2 c89 -43 137 -152 131 -293 -2 -68 -8 -93 -33
-141 -57 -110 -146 -151 -233 -106 -151 77 -180 372 -48 503 59 59 114 71 183
37z"/>
<path d="M3293 3911 c-69 -7 -86 -18 -81 -52 3 -23 6 -24 84 -24 82 1 114 12
114 41 0 17 -28 44 -43 42 -7 0 -40 -4 -74 -7z"/>
<path d="M4444 3840 c-65 -9 -74 -15 -74 -45 0 -38 25 -44 118 -30 79 11 101
23 102 51 0 33 -40 40 -146 24z"/>
<path d="M3274 3555 c-15 -23 -15 -27 0 -50 20 -30 61 -33 76 -6 14 27 13 47
-6 65 -23 23 -51 20 -70 -9z"/>
<path d="M4447 3490 c-27 -39 8 -89 53 -75 24 7 37 51 23 74 -16 25 -59 26
-76 1z"/>
<path d="M3653 3383 c-31 -6 -55 -41 -43 -63 8 -15 23 -17 96 -15 88 3 107 11
101 45 -5 32 -79 48 -154 33z"/>
<path d="M4232 3115 c-39 -81 -125 -108 -205 -65 -49 26 -77 19 -77 -20 0 -24
8 -32 52 -54 115 -57 241 -16 300 98 26 51 18 86 -20 86 -23 0 -32 -8 -50 -45z"/>
<path d="M1865 5164 c-33 -13 -71 -29 -83 -36 -28 -15 -52 -57 -52 -93 0 -14
64 -162 141 -330 153 -330 160 -340 235 -339 55 1 100 34 114 82 10 33 2 73
-69 362 -75 305 -82 327 -110 352 -40 35 -92 36 -176 2z m143 -46 c5 -7 44
-157 87 -332 l78 -320 -27 -23 c-32 -28 -47 -29 -74 -5 -22 19 -282 574 -282
602 0 24 18 37 87 65 65 26 116 31 131 13z"/>
<path d="M2188 4234 c-55 -29 -76 -111 -44 -172 48 -93 190 -77 225 25 13 35
13 46 0 79 -27 72 -114 105 -181 68z m111 -70 c12 -15 21 -32 21 -39 0 -7 -9
-24 -21 -39 -38 -48 -111 -23 -111 39 0 62 73 87 111 39z"/>
<path d="M325 3681 c-49 -23 -89 -64 -110 -113 -16 -39 -135 -1101 -135 -1206
0 -90 43 -162 122 -203 29 -15 206 -37 929 -114 496 -53 907 -93 924 -89 41 9
79 29 118 64 18 16 206 124 418 240 211 117 396 225 412 241 58 63 21 159 -69
173 -21 3 -172 20 -334 37 -162 17 -296 32 -298 34 -2 1 10 128 27 281 31 286
31 317 -2 381 -22 41 -83 91 -127 103 -47 12 -1715 190 -1782 190 -30 0 -70
-8 -93 -19z m891 -121 c412 -44 796 -85 854 -91 144 -15 196 -46 220 -130 9
-31 -100 -1115 -120 -1199 -14 -55 -61 -107 -111 -120 -28 -8 -230 11 -925 85
-838 90 -891 97 -925 119 -45 30 -69 80 -69 143 0 26 27 297 60 600 42 396 64
563 76 588 15 33 50 65 84 78 34 13 140 3 856 -73z m1404 -911 c327 -34 354
-41 348 -86 -3 -23 -44 -49 -362 -225 -197 -109 -362 -198 -365 -198 -4 0 5
114 21 253 15 138 27 260 28 270 0 9 6 17 13 17 6 0 149 -14 317 -31z"/>
<path d="M5615 3048 c-254 -22 -461 -108 -581 -241 -61 -68 -120 -192 -134
-282 -6 -38 -16 -74 -23 -78 -7 -4 -36 -21 -65 -38 -108 -61 -167 -187 -166
-354 0 -117 22 -186 80 -254 43 -50 81 -71 126 -71 92 1 115 100 53 229 -40
83 -44 135 -16 196 33 73 45 74 82 8 49 -85 126 -158 212 -198 112 -54 195
-68 372 -62 83 2 158 8 167 12 13 5 18 -1 23 -29 16 -82 116 -123 276 -113 91
6 144 22 169 52 16 19 19 84 7 125 -7 24 -5 26 60 42 37 9 78 20 91 24 18 5
22 3 22 -18 0 -79 147 -126 241 -77 86 43 179 168 179 239 0 17 -9 39 -21 51
-19 19 -30 21 -83 17 l-61 -6 40 84 40 83 70 1 c77 0 100 11 84 42 -8 15 -22
18 -74 18 l-65 0 0 34 c0 29 5 36 31 45 24 8 30 15 27 33 -2 19 -9 23 -34 22
-29 -2 -33 2 -44 40 -19 67 -170 344 -202 371 -63 53 -153 42 -212 -26 l-35
-41 -58 36 c-141 87 -295 109 -578 84z m376 -72 c67 -15 130 -41 183 -79 26
-19 27 -21 10 -30 -51 -29 -243 -97 -272 -97 -18 0 -59 11 -92 25 -62 26 -109
31 -139 15 -64 -34 -114 -344 -81 -510 6 -35 5 -49 -7 -62 -20 -22 -13 -52 14
-56 24 -4 42 -47 39 -97 -1 -23 4 -31 20 -33 12 -2 36 -18 54 -37 l32 -33 -78
-9 c-112 -12 -279 -9 -344 7 -85 19 -171 64 -224 116 -45 45 -106 136 -106
160 0 6 16 18 35 27 57 27 39 89 -19 67 -38 -14 -43 -13 -49 10 -3 11 -1 20 4
20 5 0 9 6 9 13 0 8 11 19 25 25 14 6 25 16 25 21 0 27 -14 41 -42 41 -29 0
-30 0 -23 43 19 112 95 236 188 307 99 74 256 130 420 149 119 14 345 12 418
-3z m472 -40 c23 -21 169 -304 181 -351 5 -16 -3 -23 -34 -37 -46 -19 -60 -43
-37 -65 12 -13 21 -13 46 -5 25 9 31 8 31 -3 0 -7 -12 -15 -27 -17 -22 -2 -28
-8 -28 -28 0 -18 6 -26 23 -28 12 -2 22 -6 22 -9 0 -3 -14 -35 -32 -70 -66
-135 -216 -242 -392 -280 -74 -16 -79 -16 -129 3 -66 24 -179 25 -224 1 -40
-21 -41 -21 -83 5 l-35 21 50 16 c37 12 51 22 53 37 5 36 -19 46 -68 29 -53
-19 -70 -19 -70 -1 0 10 13 16 41 18 87 6 75 68 -12 68 -45 0 -51 3 -60 28
-42 105 -3 482 50 482 10 0 45 -11 79 -25 82 -33 129 -32 237 9 139 52 210 91
247 137 63 79 75 89 111 89 22 0 43 -8 60 -24z m-1548 -607 c-3 -4 -1 -11 5
-14 7 -4 -7 -26 -34 -55 -26 -27 -46 -55 -46 -62 0 -9 -3 -9 -10 2 -9 13 -12
12 -25 -4 -17 -23 -20 -46 -5 -46 16 0 12 -37 -5 -44 -19 -7 -19 -34 -1 -55
18 -21 29 -71 16 -71 -5 0 -10 -10 -11 -22 l0 -23 -10 23 c-10 25 -29 21 -29
-6 0 -15 -2 -15 -10 -2 -5 8 -15 15 -22 15 -8 0 -14 15 -16 35 -3 26 0 32 8
24 12 -12 60 -7 60 6 0 34 -15 70 -26 66 -8 -3 -14 -1 -14 5 0 6 -7 9 -15 5
-11 -4 -15 1 -15 19 0 25 19 30 47 12 15 -9 19 -2 28 47 6 30 5 38 -6 34 -26
-9 -38 15 -23 45 13 24 44 38 44 20 0 -5 11 -13 24 -19 19 -9 28 -8 46 6 13
10 20 22 16 29 -4 6 -10 9 -14 7 -4 -2 -15 7 -25 20 -17 23 -17 23 10 38 25
13 29 12 45 -6 10 -11 15 -24 13 -29z m1815 -177 c0 -24 -49 -100 -86 -133
-53 -48 -77 -59 -127 -59 -38 0 -53 5 -73 25 -29 29 -23 48 28 87 100 76 258
125 258 80z m-651 -167 c38 -19 71 -62 71 -90 0 -41 -31 -56 -127 -62 -155
-10 -234 23 -211 87 12 36 37 58 85 76 45 17 140 11 182 -11z m-1219 -77 c49
-108 -7 -158 -79 -71 -25 30 -27 38 -16 49 7 8 18 14 24 14 6 0 11 7 11 15 0
9 6 12 15 9 9 -4 15 0 15 10 0 27 10 18 30 -26z"/>
<path d="M6404 2904 c3 -9 6 -25 6 -37 0 -12 5 -29 10 -37 9 -13 11 -13 19 -1
5 8 8 19 6 25 -2 6 -6 23 -9 39 -4 15 -13 27 -22 27 -11 0 -14 -5 -10 -16z"/>
<path d="M6140 2741 c0 -20 54 -91 63 -82 9 9 -5 44 -31 74 -16 18 -32 23 -32
8z"/>
<path d="M6087 2713 c-3 -4 6 -25 20 -47 17 -27 28 -35 35 -28 7 7 5 20 -8 43
-20 33 -39 46 -47 32z"/>
<path d="M5732 2688 c-17 -17 -15 -60 3 -84 17 -22 16 -23 19 39 2 52 -4 63
-22 45z"/>
<path d="M6050 2690 c0 -21 35 -80 47 -80 19 0 16 18 -8 56 -20 33 -39 44 -39
24z"/>
<path d="M6376 2429 c-20 -15 -26 -29 -24 -48 4 -31 38 -41 58 -16 7 8 23 15
36 15 14 0 25 8 29 20 15 48 -51 67 -99 29z"/>
<path d="M5936 2239 c-19 -15 -26 -29 -24 -48 4 -30 32 -40 56 -18 9 8 30 17
45 21 24 6 28 11 25 34 -3 23 -8 27 -39 30 -24 2 -44 -4 -63 -19z"/>
<path d="M6232 2226 c-25 -12 -25 -34 0 -49 22 -14 48 7 48 39 0 26 -12 28
-48 10z"/>
</g>
</svg>
