<svg version="1.1" id="Layer_1" xmlns="http://www.w3.org/2000/svg" xmlns:xlink="http://www.w3.org/1999/xlink" x="0px" y="0px"
	 width="100%" viewBox="0 0 840 830" enable-background="new 0 0 840 830" xml:space="preserve">
<path fill="#2A9D8F" opacity="1.000000" stroke="none" 
	d="
M481.000000,831.000000 
	C320.666718,831.000000 160.833435,831.000000 1.000107,831.000000 
	C1.000072,554.333435 1.000072,277.666931 1.000036,1.000293 
	C280.999786,1.000195 560.999573,1.000195 840.999512,1.000098 
	C840.999695,277.666351 840.999695,554.332703 840.999878,830.999512 
	C721.166687,831.000000 601.333313,831.000000 481.000000,831.000000 
M186.999634,382.500000 
	C186.999664,486.330505 186.995361,590.161011 187.002411,693.991516 
	C187.004486,724.415527 208.528183,745.995117 238.877975,745.997131 
	C350.875305,746.004578 462.872650,746.003113 574.869995,745.998169 
	C605.570068,745.996765 626.997986,724.515930 626.998535,693.744080 
	C627.001709,499.915344 627.001648,306.086639 626.998474,112.257919 
	C626.997986,81.484566 605.573242,60.003571 574.871948,60.001987 
	C463.041260,59.996212 351.210602,59.997093 239.379913,60.001343 
	C208.328430,60.002522 187.002380,81.382217 187.001038,112.506401 
	C186.997177,202.170929 186.999649,291.835480 186.999634,382.500000 
z"/>
<path fill="#FFFFFF" opacity="1.000000" stroke="none" 
	d="
M186.999634,382.000000 
	C186.999649,291.835480 186.997177,202.170929 187.001038,112.506401 
	C187.002380,81.382217 208.328430,60.002522 239.379913,60.001343 
	C351.210602,59.997093 463.041260,59.996212 574.871948,60.001987 
	C605.573242,60.003571 626.997986,81.484566 626.998474,112.257919 
	C627.001648,306.086639 627.001709,499.915344 626.998535,693.744080 
	C626.997986,724.515930 605.570068,745.996765 574.869995,745.998169 
	C462.872650,746.003113 350.875305,746.004578 238.877975,745.997131 
	C208.528183,745.995117 187.004486,724.415527 187.002411,693.991516 
	C186.995361,590.161011 186.999664,486.330505 186.999634,382.000000 
M295.500000,223.000427 
	C388.805511,223.000381 482.111053,223.008118 575.416565,222.992874 
	C591.530701,222.990250 601.969788,212.522888 601.994934,196.400803 
	C602.021973,179.072678 602.026306,161.744431 601.993530,144.416321 
	C601.963623,128.601044 591.471130,118.012749 575.733459,118.010056 
	C463.266968,117.990784 350.800507,117.991440 238.334030,118.009262 
	C222.567978,118.011765 212.039993,128.575134 212.007812,144.349167 
	C211.972488,161.677261 211.980377,179.005508 212.005325,196.333633 
	C212.028580,212.486816 222.444794,222.967545 238.516693,222.993301 
	C257.177765,223.023209 275.838898,223.000366 295.500000,223.000427 
M510.500000,729.000000 
	C526.655701,728.999451 542.811829,729.076050 558.966919,728.979675 
	C580.995605,728.848328 601.675903,708.452820 603.081726,686.501221 
	C604.834106,659.136841 581.846863,636.307678 555.461853,636.841919 
	C522.830750,637.502563 490.175781,637.073730 457.531616,636.969360 
	C440.804138,636.915894 427.873352,644.258179 418.754303,657.692139 
	C408.543762,672.734070 407.827026,689.143005 416.686157,704.918152 
	C425.209991,720.096191 438.567993,728.830139 456.536224,728.969910 
	C474.189819,729.107239 491.845337,728.999939 510.500000,729.000000 
M316.500000,328.998779 
	C330.655426,328.998474 344.811340,329.071167 358.966187,328.981079 
	C381.143402,328.839905 401.924622,308.785187 402.987701,286.614777 
	C404.341339,258.384430 383.965454,237.002899 355.704346,237.001526 
	C322.896973,236.999924 290.089600,236.980148 257.282257,237.010162 
	C241.138916,237.024933 228.206070,243.750214 219.173645,256.931946 
	C208.797470,272.074677 207.817947,288.461914 216.473602,304.614349 
	C224.889374,320.319153 238.562622,328.692627 256.547485,328.937836 
	C276.194977,329.205688 295.848877,328.998779 316.500000,328.998779 
M277.584167,641.810547 
	C256.685303,631.841003 233.623856,636.963379 219.141296,656.935791 
	C204.210007,677.527161 209.995911,706.648132 231.371445,721.211365 
	C252.316971,735.481628 280.792572,729.848572 295.245758,708.575623 
	C310.573334,686.015686 302.846039,655.790161 277.584167,641.810547 
M576.909790,624.534607 
	C591.965149,616.352722 601.418396,604.103271 602.913269,586.791443 
	C605.540161,556.370605 577.340637,531.409058 546.838013,537.969971 
	C524.969055,542.673889 507.740143,567.016663 511.126709,588.817444 
	C515.780579,618.776245 546.928345,638.029541 576.909790,624.534607 
M533.763550,322.842987 
	C553.630798,332.992096 573.411011,331.141296 589.101074,316.022308 
	C608.952698,296.893311 607.244324,265.671295 586.748596,247.962769 
	C566.807922,230.733749 534.399597,233.975967 518.641846,257.542053 
	C505.462158,277.252594 508.614227,306.800812 533.763550,322.842987 
M535.737671,442.133331 
	C512.552612,455.016510 503.925659,482.417725 516.659119,505.039490 
	C529.378967,527.637024 555.493347,535.335144 578.138306,523.899414 
	C600.487671,512.612915 609.435791,484.893768 598.161621,462.358643 
	C586.807678,439.664124 559.766724,430.665619 535.737671,442.133331 
M215.810654,403.583496 
	C220.920212,409.414795 225.236862,416.293243 231.290848,420.877258 
	C248.155807,433.647003 274.994720,431.443298 290.250671,414.486542 
	C303.342987,399.934601 306.665009,383.658264 299.618347,366.010040 
	C292.817749,348.978088 279.444855,338.731567 260.907227,337.124634 
	C226.365997,334.130402 199.935608,369.885986 215.810654,403.583496 
M525.686462,349.188782 
	C524.384827,350.680817 523.052979,352.147675 521.786194,353.668762 
	C504.213196,374.769440 508.449738,405.359955 531.073181,421.046417 
	C549.313782,433.693878 576.707886,431.763519 592.877136,411.724823 
	C607.319031,393.826904 606.917908,367.126038 589.180908,350.040955 
	C570.985535,332.514465 545.681763,332.501801 525.686462,349.188782 
M215.811295,562.415771 
	C201.019775,592.718628 221.594406,625.648804 252.527390,628.900574 
	C273.028961,631.055847 293.163818,618.352295 299.965759,599.600891 
	C307.479187,578.888245 300.723541,557.259949 282.892975,544.941650 
	C260.341309,529.361816 229.855026,537.033081 215.811295,562.415771 
M431.958344,421.594360 
	C450.914764,434.172699 477.145844,430.311890 492.291138,412.488220 
	C507.959900,394.048492 506.366302,363.964264 486.463501,347.824127 
	C464.848236,330.295288 434.412537,334.480957 418.761169,357.388672 
	C405.756287,376.423004 408.383850,405.435852 431.958344,421.594360 
M402.993744,379.753876 
	C402.644257,377.460968 402.370789,375.153473 401.933350,372.877472 
	C398.318298,354.068085 379.374756,337.741760 360.353058,337.007965 
	C328.601807,335.783112 306.177002,361.729767 312.036133,392.912994 
	C316.232788,415.248260 340.854889,432.416016 362.922668,428.861023 
	C387.027283,424.977905 404.175995,404.635376 402.993744,379.753876 
M401.037201,496.363037 
	C406.127563,476.992432 401.309692,460.727112 386.080170,447.504791 
	C368.105530,431.899139 338.101624,433.518402 321.888123,453.492096 
	C304.294342,475.166260 308.421112,505.538055 331.315491,521.177429 
	C356.506592,538.385742 390.515442,526.621704 401.037201,496.363037 
M213.969727,499.384857 
	C224.008789,523.868958 250.001968,535.508545 274.228607,525.655396 
	C296.384125,516.644592 309.709412,491.654968 299.859863,466.301453 
	C291.335297,444.358582 266.304047,430.395905 240.831390,439.933075 
	C219.041977,448.091187 204.484222,473.140594 213.969727,499.384857 
M500.538635,597.896851 
	C506.695953,580.489685 501.377136,559.828430 485.827728,547.201721 
	C468.128021,532.828735 441.424347,532.886475 424.137054,550.708740 
	C404.113983,571.351379 407.829681,601.990417 427.707520,618.348999 
	C452.377960,638.651733 489.326294,628.760803 500.538635,597.896851 
M437.090240,441.465790 
	C421.813141,449.677246 412.450684,462.125275 411.078522,479.611237 
	C408.693665,510.002655 436.797729,534.413208 466.926910,528.060242 
	C488.864410,523.434570 506.060059,499.711304 502.894318,477.541138 
	C498.586212,447.371063 467.334808,427.934052 437.090240,441.465790 
M318.799438,557.355408 
	C304.600372,578.599670 310.132782,606.636719 331.298462,621.186340 
	C348.899841,633.285950 375.859985,632.049194 391.999786,612.589661 
	C404.014587,598.103638 406.499451,581.934998 399.245453,565.059509 
	C391.928101,548.036560 378.299072,538.250916 359.479126,537.076294 
	C342.492706,536.016052 329.335663,543.483337 318.799438,557.355408 
M311.020966,687.160706 
	C311.282104,688.461487 311.540985,689.762695 311.804688,691.062988 
	C315.731781,710.429321 327.419678,723.020813 346.351959,727.673157 
	C366.137665,732.535217 382.466156,725.480713 394.619263,709.455627 
	C406.007629,694.438965 405.779297,671.906860 394.739349,656.572144 
	C382.985718,640.246094 362.648956,633.340820 343.994263,638.787415 
	C326.248199,643.968750 309.294189,662.614929 311.020966,687.160706 
M422.577148,252.114807 
	C421.788788,253.184753 421.005524,254.258514 420.211334,255.324112 
	C406.398804,273.856506 407.764038,299.133942 424.681732,315.956696 
	C444.841766,336.003540 478.238342,332.756317 494.597565,309.548096 
	C508.030670,290.491119 505.556305,265.790314 489.024261,249.786667 
	C470.296539,231.657501 441.729492,232.820114 422.577148,252.114807 
z"/>
<path fill="#404040" opacity="1.000000" stroke="none" 
	d="
M295.000000,223.000427 
	C275.838898,223.000366 257.177765,223.023209 238.516693,222.993301 
	C222.444794,222.967545 212.028580,212.486816 212.005325,196.333633 
	C211.980377,179.005508 211.972488,161.677261 212.007812,144.349167 
	C212.039993,128.575134 222.567978,118.011765 238.334030,118.009262 
	C350.800507,117.991440 463.266968,117.990784 575.733459,118.010056 
	C591.471130,118.012749 601.963623,128.601044 601.993530,144.416321 
	C602.026306,161.744431 602.021973,179.072678 601.994934,196.400803 
	C601.969788,212.522888 591.530701,222.990250 575.416565,222.992874 
	C482.111053,223.008118 388.805511,223.000381 295.000000,223.000427 
M536.283508,184.031464 
	C538.072021,183.482513 539.860535,182.933548 541.649048,182.384583 
	C542.046021,182.676926 542.442993,182.969269 542.839966,183.261612 
	C540.995789,185.673874 539.508667,188.605453 537.130310,190.240692 
	C536.189819,190.887268 533.303040,188.553162 531.231079,187.763199 
	C530.091492,187.328705 528.803833,187.282669 527.259949,187.003006 
	C528.314941,191.715134 530.580872,193.821915 534.676208,194.064728 
	C539.152527,194.330170 543.211365,192.861511 544.148926,188.561234 
	C545.314758,183.213928 545.729919,177.445770 545.069092,172.030243 
	C544.416748,166.683777 539.679749,164.254562 534.250244,164.994843 
	C529.606262,165.628021 526.654846,169.695877 526.855530,175.186707 
	C527.054321,180.625671 529.721558,183.363815 536.283508,184.031464 
M555.194458,165.156433 
	C549.274719,168.552261 547.125549,173.942093 549.984436,179.242828 
	C550.940369,181.015320 552.778503,183.166977 554.510742,183.475464 
	C557.482117,184.004608 560.687378,183.220474 565.164001,182.885101 
	C563.194519,185.613312 561.901978,188.506714 559.688904,190.189316 
	C556.944702,192.275757 554.969421,190.000595 553.235474,187.672882 
	C552.724548,186.987015 551.002563,187.203339 549.565491,186.960571 
	C550.200439,191.432510 552.358032,193.567551 556.157104,194.009781 
	C560.510376,194.516510 564.585449,193.426437 566.076599,189.143707 
	C567.456482,185.180862 568.002014,180.751755 568.013428,176.525543 
	C568.035950,168.196350 564.330994,164.925613 555.194458,165.156433 
M583.379700,179.181274 
	C585.901001,174.709198 588.422302,170.237106 591.262817,165.198746 
	C584.045715,165.198746 577.961121,165.198746 571.584656,165.198746 
	C571.636169,166.221207 571.570862,167.651337 571.729675,167.676682 
	C575.784058,168.323639 579.861816,168.823685 584.367981,169.405167 
	C579.565063,176.956482 575.841309,184.610260 576.330505,194.027832 
	C577.856079,193.436966 579.387390,192.579269 579.823120,191.337280 
	C581.134338,187.599762 582.018799,183.712540 583.379700,179.181274 
M514.069702,187.390381 
	C514.072998,193.903580 514.072998,193.903580 517.778809,193.363083 
	C517.778809,183.982605 517.778809,174.602127 517.778809,165.145096 
	C513.760681,166.257523 507.459015,173.060486 507.739288,176.010284 
	C509.780457,174.981812 511.742218,173.993347 514.069702,172.820618 
	C514.069702,177.779587 514.069702,182.099564 514.069702,187.390381 
z"/>
<path fill="#EAEAEA" opacity="1.000000" stroke="none" 
	d="
M510.000000,729.000000 
	C491.845337,728.999939 474.189819,729.107239 456.536224,728.969910 
	C438.567993,728.830139 425.209991,720.096191 416.686157,704.918152 
	C407.827026,689.143005 408.543762,672.734070 418.754303,657.692139 
	C427.873352,644.258179 440.804138,636.915894 457.531616,636.969360 
	C490.175781,637.073730 522.830750,637.502563 555.461853,636.841919 
	C581.846863,636.307678 604.834106,659.136841 603.081726,686.501221 
	C601.675903,708.452820 580.995605,728.848328 558.966919,728.979675 
	C542.811829,729.076050 526.655701,728.999451 510.000000,729.000000 
M510.343811,680.224365 
	C511.593353,680.039429 512.842896,679.854492 514.092407,679.669495 
	C514.040771,679.281128 513.989197,678.892761 513.937561,678.504395 
	C509.342133,678.504395 504.746704,678.504395 500.151276,678.504395 
	C500.129089,679.077759 500.106934,679.651123 500.084747,680.224487 
	C503.189850,680.224487 506.294983,680.224487 510.343811,680.224365 
M512.241394,687.211365 
	C512.875183,686.786987 513.508972,686.362610 514.484558,685.709351 
	C509.243134,685.709351 504.663422,685.709351 500.083710,685.709351 
	C500.104309,686.213867 500.124908,686.718445 500.145477,687.222961 
	C503.863159,687.222961 507.580811,687.222961 512.241394,687.211365 
z"/>
<path fill="#EAEAEA" opacity="1.000000" stroke="none" 
	d="
M316.000000,328.998779 
	C295.848877,328.998779 276.194977,329.205688 256.547485,328.937836 
	C238.562622,328.692627 224.889374,320.319153 216.473602,304.614349 
	C207.817947,288.461914 208.797470,272.074677 219.173645,256.931946 
	C228.206070,243.750214 241.138916,237.024933 257.282257,237.010162 
	C290.089600,236.980148 322.896973,236.999924 355.704346,237.001526 
	C383.965454,237.002899 404.341339,258.384430 402.987701,286.614777 
	C401.924622,308.785187 381.143402,328.839905 358.966187,328.981079 
	C344.811340,329.071167 330.655426,328.998474 316.000000,328.998779 
M305.609955,291.093445 
	C303.209839,285.104858 300.793335,279.122803 298.417542,273.124573 
	C297.457153,270.699860 295.450684,269.597015 294.302460,272.172150 
	C291.333191,278.831329 289.072174,285.806305 286.528351,292.655182 
	C286.972534,292.911743 287.416748,293.168304 287.860931,293.424896 
	C288.584534,292.586090 289.705231,291.852173 289.959412,290.889404 
	C290.820831,287.626617 292.234589,286.030121 296.102264,286.086548 
	C299.794525,286.140411 301.393646,287.372986 302.382111,290.727844 
	C303.166046,293.388519 303.490936,293.292786 305.609955,291.093445 
M322.816223,291.666229 
	C326.830475,287.808319 326.923309,287.445435 324.454285,285.263947 
	C321.308624,290.549164 318.880432,291.865875 315.196930,290.283752 
	C311.413177,288.658539 309.325745,283.888855 311.236389,278.640350 
	C314.807556,268.830231 320.468018,273.823456 326.033386,278.326141 
	C324.425751,272.464386 320.431427,270.064270 315.761078,271.164154 
	C309.587463,272.618042 306.381958,278.944153 308.367950,285.754486 
	C310.210632,292.073334 315.152863,294.321167 322.816223,291.666229 
z"/>
<path fill="#EAEAEA" opacity="1.000000" stroke="none" 
	d="
M277.921631,641.971191 
	C302.846039,655.790161 310.573334,686.015686 295.245758,708.575623 
	C280.792572,729.848572 252.316971,735.481628 231.371445,721.211365 
	C209.995911,706.648132 204.210007,677.527161 219.141296,656.935791 
	C233.623856,636.963379 256.685303,631.841003 277.921631,641.971191 
z"/>
<path fill="#EAEAEA" opacity="1.000000" stroke="none" 
	d="
M576.570312,624.705994 
	C546.928345,638.029541 515.780579,618.776245 511.126709,588.817444 
	C507.740143,567.016663 524.969055,542.673889 546.838013,537.969971 
	C577.340637,531.409058 605.540161,556.370605 602.913269,586.791443 
	C601.418396,604.103271 591.965149,616.352722 576.570312,624.705994 
z"/>
<path fill="#EAEAEA" opacity="1.000000" stroke="none" 
	d="
M533.451538,322.650787 
	C508.614227,306.800812 505.462158,277.252594 518.641846,257.542053 
	C534.399597,233.975967 566.807922,230.733749 586.748596,247.962769 
	C607.244324,265.671295 608.952698,296.893311 589.101074,316.022308 
	C573.411011,331.141296 553.630798,332.992096 533.451538,322.650787 
M561.301880,283.222321 
	C562.239075,282.926178 563.176331,282.630005 564.113525,282.333862 
	C564.001587,282.133179 563.889648,281.932526 563.777710,281.731873 
	C559.209839,281.731873 554.641968,281.731873 550.074158,281.731873 
	C550.095032,282.229156 550.115906,282.726440 550.136780,283.223724 
	C553.538940,283.223724 556.941101,283.223724 561.301880,283.222321 
z"/>
<path fill="#EAEAEA" opacity="1.000000" stroke="none" 
	d="
M536.076416,441.972168 
	C559.766724,430.665619 586.807678,439.664124 598.161621,462.358643 
	C609.435791,484.893768 600.487671,512.612915 578.138306,523.899414 
	C555.493347,535.335144 529.378967,527.637024 516.659119,505.039490 
	C503.925659,482.417725 512.552612,455.016510 536.076416,441.972168 
M553.357422,483.226074 
	C554.697083,485.095673 556.036743,486.965271 557.718262,489.312012 
	C558.023560,487.230438 558.288452,485.423859 558.546448,483.664581 
	C560.577881,483.249054 562.380432,482.880341 564.182983,482.511627 
	C564.117798,482.121368 564.052612,481.731110 563.987427,481.340851 
	C562.114624,481.091003 560.241760,480.841125 558.457581,480.603119 
	C558.226501,478.502289 558.031128,476.725708 557.835693,474.949158 
	C557.355591,474.953461 556.875549,474.957794 556.395447,474.962097 
	C556.128479,476.879913 555.861511,478.797760 555.602295,480.660065 
	C553.579834,480.943146 551.786377,481.194183 549.992859,481.445221 
	C549.988892,481.789185 549.984985,482.133179 549.981079,482.477142 
	C550.813660,482.725525 551.646240,482.973877 553.357422,483.226074 
z"/>
<path fill="#EAEAEA" opacity="1.000000" stroke="none" 
	d="
M215.638535,403.247986 
	C199.935608,369.885986 226.365997,334.130402 260.907227,337.124634 
	C279.444855,338.731567 292.817749,348.978088 299.618347,366.010040 
	C306.665009,383.658264 303.342987,399.934601 290.250671,414.486542 
	C274.994720,431.443298 248.155807,433.647003 231.290848,420.877258 
	C225.236862,416.293243 220.920212,409.414795 215.638535,403.247986 
M257.261230,379.907623 
	C257.262665,391.442566 257.262665,391.442566 259.628021,393.160858 
	C259.628021,385.654541 259.628021,378.417694 259.628021,370.287903 
	C256.550476,373.035553 254.151428,375.177429 252.183395,376.934509 
	C253.476151,380.639526 256.749298,373.526611 257.261230,379.907623 
z"/>
<path fill="#EAEAEA" opacity="1.000000" stroke="none" 
	d="
M525.995728,349.006775 
	C545.681763,332.501801 570.985535,332.514465 589.180908,350.040955 
	C606.917908,367.126038 607.319031,393.826904 592.877136,411.724823 
	C576.707886,431.763519 549.313782,433.693878 531.073181,421.046417 
	C508.449738,405.359955 504.213196,374.769440 521.786194,353.668762 
	C523.052979,352.147675 524.384827,350.680817 525.995728,349.006775 
M560.618713,387.695587 
	C556.060059,383.044891 562.903687,380.871185 563.118530,375.583069 
	C560.408875,378.262756 558.612061,380.039673 557.057861,381.576721 
	C555.147583,379.807281 553.400452,378.188995 551.653381,376.570709 
	C551.107361,376.886749 550.561401,377.202789 550.015381,377.518799 
	C556.948730,382.737152 554.665833,387.755493 549.755310,392.716766 
	C550.307617,393.014587 550.859985,393.312439 551.412292,393.610260 
	C553.302551,391.549438 555.192749,389.488617 556.918884,387.606628 
	C558.928711,389.612335 560.840942,391.520630 562.753174,393.428894 
	C563.093933,393.100037 563.434692,392.771179 563.775452,392.442322 
	C562.861206,391.060883 561.947021,389.679443 560.618713,387.695587 
z"/>
<path fill="#EAEAEA" opacity="1.000000" stroke="none" 
	d="
M215.971741,562.078247 
	C229.855026,537.033081 260.341309,529.361816 282.892975,544.941650 
	C300.723541,557.259949 307.479187,578.888245 299.965759,599.600891 
	C293.163818,618.352295 273.028961,631.055847 252.527390,628.900574 
	C221.594406,625.648804 201.019775,592.718628 215.971741,562.078247 
M255.295776,592.940369 
	C258.052307,585.702087 260.808868,578.463867 263.493896,571.413391 
	C259.343018,571.413391 254.878693,571.413391 250.414368,571.413391 
	C250.358078,571.864990 250.301804,572.316589 250.245514,572.768188 
	C253.413971,573.061096 256.582428,573.353943 259.582550,573.631287 
	C257.648987,578.405090 255.640213,582.755005 254.180557,587.281982 
	C253.631424,588.985107 254.355652,591.098877 255.295776,592.940369 
z"/>
<path fill="#EAEAEA" opacity="1.000000" stroke="none" 
	d="
M431.652710,421.396057 
	C408.383850,405.435852 405.756287,376.423004 418.761169,357.388672 
	C434.412537,334.480957 464.848236,330.295288 486.463501,347.824127 
	C506.366302,363.964264 507.959900,394.048492 492.291138,412.488220 
	C477.145844,430.311890 450.914764,434.172699 431.652710,421.396057 
M461.801514,381.665558 
	C462.074890,380.631409 462.699341,379.542969 462.549530,378.574249 
	C462.223053,376.463135 462.072601,373.195404 460.816711,372.607269 
	C458.627136,371.581940 455.574036,371.826965 453.055023,372.357147 
	C452.026306,372.573700 451.445984,374.920532 450.419128,376.724243 
	C453.777893,375.244720 455.899384,374.137970 458.151581,373.475525 
	C458.561554,373.354919 460.275513,375.463531 460.074615,375.837250 
	C458.988586,377.857452 457.489319,379.655548 455.992096,381.724182 
	C458.940826,382.295135 462.985321,383.624847 460.814362,388.046600 
	C457.533173,394.729858 454.160919,388.419800 450.370789,387.727753 
	C451.645020,389.895142 453.317780,392.441528 455.189972,392.597778 
	C457.631622,392.801605 460.796448,391.735474 462.623657,390.081726 
	C465.045990,387.889343 464.804108,384.685242 461.801514,381.665558 
z"/>
<path fill="#EAEAEA" opacity="1.000000" stroke="none" 
	d="
M402.995605,380.216187 
	C404.175995,404.635376 387.027283,424.977905 362.922668,428.861023 
	C340.854889,432.416016 316.232788,415.248260 312.036133,392.912994 
	C306.177002,361.729767 328.601807,335.783112 360.353058,337.007965 
	C379.374756,337.741760 398.318298,354.068085 401.933350,372.877472 
	C402.370789,375.153473 402.644257,377.460968 402.995605,380.216187 
M359.173706,390.736847 
	C357.603149,390.656342 356.032593,390.575867 354.462036,390.495361 
	C354.173553,390.074829 353.885071,389.654266 353.596588,389.233734 
	C356.594208,386.506714 360.079254,384.129211 362.388733,380.908661 
	C363.586090,379.238983 363.582214,375.546631 362.497131,373.747284 
	C361.526306,372.137360 358.097961,370.852814 356.172913,371.286133 
	C354.067322,371.760101 352.395142,374.324738 350.678253,376.116394 
	C350.497223,376.305298 351.286255,377.423798 352.011200,378.893463 
	C352.643829,377.488403 352.895935,376.967682 353.115814,376.433655 
	C354.330719,373.483002 356.413818,372.006104 359.324829,373.873138 
	C362.308685,375.786926 361.460510,378.528381 359.602509,380.738983 
	C357.907654,382.755493 355.666351,384.304932 353.894104,386.266449 
	C352.235077,388.102570 350.875458,390.209198 349.163025,392.491394 
	C354.800385,392.491394 359.388092,392.491394 363.975800,392.491394 
	C363.989380,392.046967 364.002960,391.602570 364.016541,391.158142 
	C362.706146,391.017761 361.395782,390.877350 359.173706,390.736847 
z"/>
<path fill="#EAEAEA" opacity="1.000000" stroke="none" 
	d="
M400.926880,496.749634 
	C390.515442,526.621704 356.506592,538.385742 331.315491,521.177429 
	C308.421112,505.538055 304.294342,475.166260 321.888123,453.492096 
	C338.101624,433.518402 368.105530,431.899139 386.080170,447.504791 
	C401.309692,460.727112 406.127563,476.992432 400.926880,496.749634 
M354.019806,477.642487 
	C353.828979,474.251404 355.296478,472.816742 358.786011,473.197754 
	C360.254517,473.358093 361.801697,472.797699 363.313110,472.564911 
	C363.248383,472.140411 363.183655,471.715881 363.118927,471.291382 
	C359.759705,471.291382 356.400482,471.291382 352.569031,471.291382 
	C351.979706,474.668793 351.374756,478.135712 350.627075,482.420624 
	C352.565765,481.630890 353.649811,480.756042 354.577698,480.898438 
	C356.733643,481.229401 360.246735,481.605072 360.610168,482.772125 
	C361.253265,484.837341 360.694855,488.121155 359.305420,489.773102 
	C357.317993,492.136078 354.893280,490.828674 353.200806,488.349426 
	C352.711060,487.631927 351.543518,487.377106 349.710571,486.378296 
	C352.566010,492.870361 356.806427,494.587616 360.849426,491.849335 
	C364.203217,489.577850 365.054321,486.132263 363.805420,482.587952 
	C362.272827,478.238708 358.745911,477.210480 354.019806,477.642487 
z"/>
<path fill="#EAEAEA" opacity="1.000000" stroke="none" 
	d="
M213.856110,499.008118 
	C204.484222,473.140594 219.041977,448.091187 240.831390,439.933075 
	C266.304047,430.395905 291.335297,444.358582 299.859863,466.301453 
	C309.709412,491.654968 296.384125,516.644592 274.228607,525.655396 
	C250.001968,535.508545 224.008789,523.868958 213.856110,499.008118 
M251.128784,487.067352 
	C253.544739,487.067352 255.960693,487.067352 258.089844,487.067352 
	C258.625244,489.544495 259.016357,491.353973 259.695038,494.493988 
	C261.131470,490.575806 262.013489,488.169952 263.002777,485.471497 
	C257.837463,482.278381 263.283966,475.574219 259.692017,470.118256 
	C256.064240,475.415283 252.711700,480.254456 249.476074,485.170593 
	C249.277039,485.472992 250.000916,486.382812 251.128784,487.067352 
z"/>
<path fill="#EAEAEA" opacity="1.000000" stroke="none" 
	d="
M500.397522,598.266357 
	C489.326294,628.760803 452.377960,638.651733 427.707520,618.348999 
	C407.829681,601.990417 404.113983,571.351379 424.137054,550.708740 
	C441.424347,532.886475 468.128021,532.828735 485.827728,547.201721 
	C501.377136,559.828430 506.695953,580.489685 500.397522,598.266357 
M461.307251,585.252563 
	C460.227356,586.999939 459.146454,590.194458 458.067780,590.193726 
	C455.818420,590.192139 453.570251,588.501587 451.321594,587.505005 
	C451.793427,589.573669 453.196320,592.426880 454.587402,592.421204 
	C457.187775,592.410461 461.665955,591.192200 462.028564,589.677979 
	C463.170837,584.907837 463.650970,579.585571 462.671204,574.830627 
	C461.941650,571.289917 457.948669,569.903870 454.046326,571.672546 
	C450.622833,573.224182 449.029724,577.445129 450.695068,580.973999 
	C452.319885,584.417053 454.975616,585.898926 458.849396,584.446716 
	C459.605133,584.163391 460.544861,584.370911 461.307251,585.252563 
z"/>
<path fill="#EAEAEA" opacity="1.000000" stroke="none" 
	d="
M437.429749,441.294434 
	C467.334808,427.934052 498.586212,447.371063 502.894318,477.541138 
	C506.060059,499.711304 488.864410,523.434570 466.926910,528.060242 
	C436.797729,534.413208 408.693665,510.002655 411.078522,479.611237 
	C412.450684,462.125275 421.813141,449.677246 437.429749,441.294434 
M459.749756,479.298279 
	C457.563660,479.514008 455.377563,479.729736 452.283081,480.035126 
	C453.314484,477.927979 453.842560,475.584869 455.280151,474.158081 
	C459.036285,470.430023 460.045776,476.963531 463.570862,476.102081 
	C462.289337,474.035278 460.466614,471.252808 458.820557,471.353729 
	C456.279694,471.509399 452.652100,473.050568 451.670197,475.067627 
	C450.179382,478.130157 450.144348,482.117859 450.261536,485.687286 
	C450.385162,489.452393 452.535065,492.900146 456.534607,492.747467 
	C458.946075,492.655365 462.194214,490.616760 463.406250,488.501556 
	C465.275177,485.240051 464.198486,481.706451 459.749756,479.298279 
z"/>
<path fill="#EAEAEA" opacity="1.000000" stroke="none" 
	d="
M318.978455,557.043274 
	C329.335663,543.483337 342.492706,536.016052 359.479126,537.076294 
	C378.299072,538.250916 391.928101,548.036560 399.245453,565.059509 
	C406.499451,581.934998 404.014587,598.103638 391.999786,612.589661 
	C375.859985,632.049194 348.899841,633.285950 331.298462,621.186340 
	C310.132782,606.636719 304.600372,578.599670 318.978455,557.043274 
M359.616058,571.494690 
	C357.078033,572.129639 353.477997,571.987488 352.290314,573.610596 
	C351.013855,575.354980 352.001984,578.756531 352.001984,582.124939 
	C349.356812,584.334778 348.999146,587.568420 352.010559,590.906250 
	C354.667938,593.851685 359.615295,593.883789 362.285156,590.933777 
	C365.517853,587.361938 364.490265,584.018066 361.074768,581.025391 
	C363.977203,577.643433 364.285553,574.517761 359.616058,571.494690 
z"/>
<path fill="#EAEAEA" opacity="1.000000" stroke="none" 
	d="
M311.013458,686.701111 
	C309.294189,662.614929 326.248199,643.968750 343.994263,638.787415 
	C362.648956,633.340820 382.985718,640.246094 394.739349,656.572144 
	C405.779297,671.906860 406.007629,694.438965 394.619263,709.455627 
	C382.466156,725.480713 366.137665,732.535217 346.351959,727.673157 
	C327.419678,723.020813 315.731781,710.429321 311.804688,691.062988 
	C311.540985,689.762695 311.282104,688.461487 311.013458,686.701111 
M360.984375,691.657043 
	C365.304993,686.582642 364.777863,680.765869 362.757294,675.195984 
	C362.089783,673.355896 359.087036,671.160889 357.264465,671.257202 
	C355.155731,671.368591 351.925720,673.475281 351.396576,675.343018 
	C350.353302,679.025330 350.240265,683.232849 350.832916,687.054077 
	C351.675018,692.483398 354.887604,693.868530 360.984375,691.657043 
z"/>
<path fill="#E9E9E9" opacity="1.000000" stroke="none" 
	d="
M422.803894,251.837204 
	C441.729492,232.820114 470.296539,231.657501 489.024261,249.786667 
	C505.556305,265.790314 508.030670,290.491119 494.597565,309.548096 
	C478.238342,332.756317 444.841766,336.003540 424.681732,315.956696 
	C407.764038,299.133942 406.398804,273.856506 420.211334,255.324112 
	C421.005524,254.258514 421.788788,253.184753 422.803894,251.837204 
M445.522644,273.990814 
	C441.032990,269.344574 435.574249,271.268066 430.479523,271.060516 
	C430.479523,278.789642 430.479523,285.824982 430.479523,293.062988 
	C432.972076,293.062988 435.118103,293.096497 437.262787,293.056824 
	C444.245056,292.927734 447.731384,289.714630 447.760559,282.714813 
	C447.771790,280.017578 446.618652,277.315491 445.522644,273.990814 
M451.925018,287.405609 
	C451.925018,289.173096 451.925018,290.940582 451.925018,292.447083 
	C457.583252,292.447083 462.657593,292.447083 467.731934,292.447083 
	C467.744507,292.000214 467.757050,291.553345 467.769592,291.106476 
	C463.498108,290.907135 459.226624,290.707764 454.921967,290.506866 
	C454.921967,287.623474 454.921967,285.174530 454.921967,281.731506 
	C458.969757,281.731506 462.797607,281.731506 466.625488,281.731506 
	C466.604034,281.193359 466.582581,280.655212 466.561127,280.117065 
	C462.689484,280.117065 458.817810,280.117065 454.943237,280.117065 
	C454.943237,277.558716 454.943237,275.628784 454.943237,272.762604 
	C459.187988,272.762604 463.199951,272.762604 467.211945,272.762604 
	C467.182678,272.306274 467.153412,271.849945 467.124146,271.393616 
	C462.164703,271.393616 457.205292,271.393616 451.925018,271.393616 
	C451.925018,276.494629 451.925018,281.462036 451.925018,287.405609 
M476.624664,290.771179 
	C475.871124,289.614288 474.533661,288.489746 474.467468,287.294769 
	C474.211578,282.673889 474.409485,278.029541 474.316040,273.396423 
	C474.298706,272.536011 473.716217,271.686951 473.394562,270.832672 
	C473.020508,270.912415 472.646454,270.992188 472.272400,271.071960 
	C472.272400,278.288574 472.272400,285.505188 472.272400,292.443054 
	C476.593109,292.443054 480.787018,292.443054 484.980896,292.443054 
	C484.994324,291.999451 485.007751,291.555817 485.021179,291.112213 
	C482.540649,291.000702 480.060150,290.889160 476.624664,290.771179 
z"/>
<path fill="#F1F3EF" opacity="1.000000" stroke="none" 
	d="
M535.879150,184.033142 
	C529.721558,183.363815 527.054321,180.625671 526.855530,175.186707 
	C526.654846,169.695877 529.606262,165.628021 534.250244,164.994843 
	C539.679749,164.254562 544.416748,166.683777 545.069092,172.030243 
	C545.729919,177.445770 545.314758,183.213928 544.148926,188.561234 
	C543.211365,192.861511 539.152527,194.330170 534.676208,194.064728 
	C530.580872,193.821915 528.314941,191.715134 527.259949,187.003006 
	C528.803833,187.282669 530.091492,187.328705 531.231079,187.763199 
	C533.303040,188.553162 536.189819,190.887268 537.130310,190.240692 
	C539.508667,188.605453 540.995789,185.673874 542.839966,183.261612 
	C542.442993,182.969269 542.046021,182.676926 541.649048,182.384583 
	C539.860535,182.933548 538.072021,183.482513 535.879150,184.033142 
M530.972717,173.743164 
	C530.638672,177.623550 532.268616,180.713867 536.151489,180.634109 
	C537.978760,180.596558 540.623291,177.953598 541.338135,175.938187 
	C542.455078,172.789154 541.203125,169.443161 537.558289,168.426315 
	C533.992676,167.431564 532.154480,169.879044 530.972717,173.743164 
z"/>
<path fill="#F1F3EF" opacity="1.000000" stroke="none" 
	d="
M555.592163,165.086487 
	C564.330994,164.925613 568.035950,168.196350 568.013428,176.525543 
	C568.002014,180.751755 567.456482,185.180862 566.076599,189.143707 
	C564.585449,193.426437 560.510376,194.516510 556.157104,194.009781 
	C552.358032,193.567551 550.200439,191.432510 549.565491,186.960571 
	C551.002563,187.203339 552.724548,186.987015 553.235474,187.672882 
	C554.969421,190.000595 556.944702,192.275757 559.688904,190.189316 
	C561.901978,188.506714 563.194519,185.613312 565.164001,182.885101 
	C560.687378,183.220474 557.482117,184.004608 554.510742,183.475464 
	C552.778503,183.166977 550.940369,181.015320 549.984436,179.242828 
	C547.125549,173.942093 549.274719,168.552261 555.592163,165.086487 
M563.846924,174.507782 
	C563.607544,170.973862 562.092590,168.058365 558.296936,168.247818 
	C554.961914,168.414276 552.653992,171.186676 553.286560,174.432281 
	C553.737000,176.743820 555.687195,179.904694 557.654236,180.530701 
	C561.251404,181.675491 563.285461,178.870560 563.846924,174.507782 
z"/>
<path fill="#F1F3EF" opacity="1.000000" stroke="none" 
	d="
M583.224731,179.532501 
	C582.018799,183.712540 581.134338,187.599762 579.823120,191.337280 
	C579.387390,192.579269 577.856079,193.436966 576.330505,194.027832 
	C575.841309,184.610260 579.565063,176.956482 584.367981,169.405167 
	C579.861816,168.823685 575.784058,168.323639 571.729675,167.676682 
	C571.570862,167.651337 571.636169,166.221207 571.584656,165.198746 
	C577.961121,165.198746 584.045715,165.198746 591.262817,165.198746 
	C588.422302,170.237106 585.901001,174.709198 583.224731,179.532501 
z"/>
<path fill="#F1F3EF" opacity="1.000000" stroke="none" 
	d="
M514.069702,186.904968 
	C514.069702,182.099564 514.069702,177.779587 514.069702,172.820618 
	C511.742218,173.993347 509.780457,174.981812 507.739288,176.010284 
	C507.459015,173.060486 513.760681,166.257523 517.778809,165.145096 
	C517.778809,174.602127 517.778809,183.982605 517.783936,193.364563 
	C514.072998,193.903580 514.072998,193.903580 514.069702,186.904968 
z"/>
<path fill="#0C1019" opacity="1.000000" stroke="none" 
	d="
M509.871948,680.224426 
	C506.294983,680.224487 503.189850,680.224487 500.084747,680.224487 
	C500.106934,679.651123 500.129089,679.077759 500.151276,678.504395 
	C504.746704,678.504395 509.342133,678.504395 513.937561,678.504395 
	C513.989197,678.892761 514.040771,679.281128 514.092407,679.669495 
	C512.842896,679.854492 511.593353,680.039429 509.871948,680.224426 
z"/>
<path fill="#0C1019" opacity="1.000000" stroke="none" 
	d="
M511.769958,687.217163 
	C507.580811,687.222961 503.863159,687.222961 500.145477,687.222961 
	C500.124908,686.718445 500.104309,686.213867 500.083710,685.709351 
	C504.663422,685.709351 509.243134,685.709351 514.484558,685.709351 
	C513.508972,686.362610 512.875183,686.786987 511.769958,687.217163 
z"/>
<path fill="#211B21" opacity="1.000000" stroke="none" 
	d="
M305.749420,291.406799 
	C303.490936,293.292786 303.166046,293.388519 302.382111,290.727844 
	C301.393646,287.372986 299.794525,286.140411 296.102264,286.086548 
	C292.234589,286.030121 290.820831,287.626617 289.959412,290.889404 
	C289.705231,291.852173 288.584534,292.586090 287.860931,293.424896 
	C287.416748,293.168304 286.972534,292.911743 286.528351,292.655182 
	C289.072174,285.806305 291.333191,278.831329 294.302460,272.172150 
	C295.450684,269.597015 297.457153,270.699860 298.417542,273.124573 
	C300.793335,279.122803 303.209839,285.104858 305.749420,291.406799 
M293.763916,283.918549 
	C295.629730,283.918549 297.495514,283.918549 299.802429,283.918549 
	C298.623718,280.793915 297.693756,278.328583 296.763763,275.863281 
	C296.282532,275.889740 295.801300,275.916199 295.320068,275.942657 
	C294.547302,278.497955 293.774506,281.053284 293.763916,283.918549 
z"/>
<path fill="#211B21" opacity="1.000000" stroke="none" 
	d="
M322.474426,291.840607 
	C315.152863,294.321167 310.210632,292.073334 308.367950,285.754486 
	C306.381958,278.944153 309.587463,272.618042 315.761078,271.164154 
	C320.431427,270.064270 324.425751,272.464386 326.033386,278.326141 
	C320.468018,273.823456 314.807556,268.830231 311.236389,278.640350 
	C309.325745,283.888855 311.413177,288.658539 315.196930,290.283752 
	C318.880432,291.865875 321.308624,290.549164 324.454285,285.263947 
	C326.923309,287.445435 326.830475,287.808319 322.474426,291.840607 
z"/>
<path fill="#0C1019" opacity="1.000000" stroke="none" 
	d="
M560.822571,283.223022 
	C556.941101,283.223724 553.538940,283.223724 550.136780,283.223724 
	C550.115906,282.726440 550.095032,282.229156 550.074158,281.731873 
	C554.641968,281.731873 559.209839,281.731873 563.777710,281.731873 
	C563.889648,281.932526 564.001587,282.133179 564.113525,282.333862 
	C563.176331,282.630005 562.239075,282.926178 560.822571,283.223022 
z"/>
<path fill="#0C1019" opacity="1.000000" stroke="none" 
	d="
M552.918091,483.224182 
	C551.646240,482.973877 550.813660,482.725525 549.981079,482.477142 
	C549.984985,482.133179 549.988892,481.789185 549.992859,481.445221 
	C551.786377,481.194183 553.579834,480.943146 555.602295,480.660065 
	C555.861511,478.797760 556.128479,476.879913 556.395447,474.962097 
	C556.875549,474.957794 557.355591,474.953461 557.835693,474.949158 
	C558.031128,476.725708 558.226501,478.502289 558.457581,480.603119 
	C560.241760,480.841125 562.114624,481.091003 563.987427,481.340851 
	C564.052612,481.731110 564.117798,482.121368 564.182983,482.511627 
	C562.380432,482.880341 560.577881,483.249054 558.546448,483.664581 
	C558.288452,485.423859 558.023560,487.230438 557.718262,489.312012 
	C556.036743,486.965271 554.697083,485.095673 552.918091,483.224182 
z"/>
<path fill="#211B21" opacity="1.000000" stroke="none" 
	d="
M257.259827,379.468109 
	C256.749298,373.526611 253.476151,380.639526 252.183395,376.934509 
	C254.151428,375.177429 256.550476,373.035553 259.628021,370.287903 
	C259.628021,378.417694 259.628021,385.654541 259.628021,393.160858 
	C257.262665,391.442566 257.262665,391.442566 257.259827,379.468109 
z"/>
<path fill="#211B21" opacity="1.000000" stroke="none" 
	d="
M560.825745,387.996796 
	C561.947021,389.679443 562.861206,391.060883 563.775452,392.442322 
	C563.434692,392.771179 563.093933,393.100037 562.753174,393.428894 
	C560.840942,391.520630 558.928711,389.612335 556.918884,387.606628 
	C555.192749,389.488617 553.302551,391.549438 551.412292,393.610260 
	C550.859985,393.312439 550.307617,393.014587 549.755310,392.716766 
	C554.665833,387.755493 556.948730,382.737152 550.015381,377.518799 
	C550.561401,377.202789 551.107361,376.886749 551.653381,376.570709 
	C553.400452,378.188995 555.147583,379.807281 557.057861,381.576721 
	C558.612061,380.039673 560.408875,378.262756 563.118530,375.583069 
	C562.903687,380.871185 556.060059,383.044891 560.825745,387.996796 
z"/>
<path fill="#211B21" opacity="1.000000" stroke="none" 
	d="
M254.897583,592.982910 
	C254.355652,591.098877 253.631424,588.985107 254.180557,587.281982 
	C255.640213,582.755005 257.648987,578.405090 259.582550,573.631287 
	C256.582428,573.353943 253.413971,573.061096 250.245514,572.768188 
	C250.301804,572.316589 250.358078,571.864990 250.414368,571.413391 
	C254.878693,571.413391 259.343018,571.413391 263.493896,571.413391 
	C260.808868,578.463867 258.052307,585.702087 254.897583,592.982910 
z"/>
<path fill="#211B21" opacity="1.000000" stroke="none" 
	d="
M462.077026,381.875183 
	C464.804108,384.685242 465.045990,387.889343 462.623657,390.081726 
	C460.796448,391.735474 457.631622,392.801605 455.189972,392.597778 
	C453.317780,392.441528 451.645020,389.895142 450.370789,387.727753 
	C454.160919,388.419800 457.533173,394.729858 460.814362,388.046600 
	C462.985321,383.624847 458.940826,382.295135 455.992096,381.724182 
	C457.489319,379.655548 458.988586,377.857452 460.074615,375.837250 
	C460.275513,375.463531 458.561554,373.354919 458.151581,373.475525 
	C455.899384,374.137970 453.777893,375.244720 450.419128,376.724243 
	C451.445984,374.920532 452.026306,372.573700 453.055023,372.357147 
	C455.574036,371.826965 458.627136,371.581940 460.816711,372.607269 
	C462.072601,373.195404 462.223053,376.463135 462.549530,378.574249 
	C462.699341,379.542969 462.074890,380.631409 462.077026,381.875183 
z"/>
<path fill="#211B21" opacity="1.000000" stroke="none" 
	d="
M359.629547,390.736877 
	C361.395782,390.877350 362.706146,391.017761 364.016541,391.158142 
	C364.002960,391.602570 363.989380,392.046967 363.975800,392.491394 
	C359.388092,392.491394 354.800385,392.491394 349.163025,392.491394 
	C350.875458,390.209198 352.235077,388.102570 353.894104,386.266449 
	C355.666351,384.304932 357.907654,382.755493 359.602509,380.738983 
	C361.460510,378.528381 362.308685,375.786926 359.324829,373.873138 
	C356.413818,372.006104 354.330719,373.483002 353.115814,376.433655 
	C352.895935,376.967682 352.643829,377.488403 352.011200,378.893463 
	C351.286255,377.423798 350.497223,376.305298 350.678253,376.116394 
	C352.395142,374.324738 354.067322,371.760101 356.172913,371.286133 
	C358.097961,370.852814 361.526306,372.137360 362.497131,373.747284 
	C363.582214,375.546631 363.586090,379.238983 362.388733,380.908661 
	C360.079254,384.129211 356.594208,386.506714 353.596588,389.233734 
	C353.885071,389.654266 354.173553,390.074829 354.462036,390.495361 
	C356.032593,390.575867 357.603149,390.656342 359.629547,390.736877 
z"/>
<path fill="#211B21" opacity="1.000000" stroke="none" 
	d="
M354.243439,478.055115 
	C358.745911,477.210480 362.272827,478.238708 363.805420,482.587952 
	C365.054321,486.132263 364.203217,489.577850 360.849426,491.849335 
	C356.806427,494.587616 352.566010,492.870361 349.710571,486.378296 
	C351.543518,487.377106 352.711060,487.631927 353.200806,488.349426 
	C354.893280,490.828674 357.317993,492.136078 359.305420,489.773102 
	C360.694855,488.121155 361.253265,484.837341 360.610168,482.772125 
	C360.246735,481.605072 356.733643,481.229401 354.577698,480.898438 
	C353.649811,480.756042 352.565765,481.630890 350.627075,482.420624 
	C351.374756,478.135712 351.979706,474.668793 352.569031,471.291382 
	C356.400482,471.291382 359.759705,471.291382 363.118927,471.291382 
	C363.183655,471.715881 363.248383,472.140411 363.313110,472.564911 
	C361.801697,472.797699 360.254517,473.358093 358.786011,473.197754 
	C355.296478,472.816742 353.828979,474.251404 354.243439,478.055115 
z"/>
<path fill="#0C1019" opacity="1.000000" stroke="none" 
	d="
M250.712097,487.038696 
	C250.000916,486.382812 249.277039,485.472992 249.476074,485.170593 
	C252.711700,480.254456 256.064240,475.415283 259.692017,470.118256 
	C263.283966,475.574219 257.837463,482.278381 263.002777,485.471497 
	C262.013489,488.169952 261.131470,490.575806 259.695038,494.493988 
	C259.016357,491.353973 258.625244,489.544495 258.089844,487.067352 
	C255.960693,487.067352 253.544739,487.067352 250.712097,487.038696 
M254.049255,481.577087 
	C253.482178,482.589111 252.915100,483.601135 252.091293,485.071350 
	C254.694977,484.941895 256.579712,484.848175 258.421204,484.756622 
	C258.421204,481.761505 258.421204,479.236816 258.421204,475.588440 
	C256.679688,477.954773 255.565735,479.468384 254.049255,481.577087 
z"/>
<path fill="#211B21" opacity="1.000000" stroke="none" 
	d="
M461.353485,584.802307 
	C460.544861,584.370911 459.605133,584.163391 458.849396,584.446716 
	C454.975616,585.898926 452.319885,584.417053 450.695068,580.973999 
	C449.029724,577.445129 450.622833,573.224182 454.046326,571.672546 
	C457.948669,569.903870 461.941650,571.289917 462.671204,574.830627 
	C463.650970,579.585571 463.170837,584.907837 462.028564,589.677979 
	C461.665955,591.192200 457.187775,592.410461 454.587402,592.421204 
	C453.196320,592.426880 451.793427,589.573669 451.321594,587.505005 
	C453.570251,588.501587 455.818420,590.192139 458.067780,590.193726 
	C459.146454,590.194458 460.227356,586.999939 461.353485,584.802307 
M458.920380,582.395020 
	C461.893524,580.411011 462.064758,577.550415 460.229736,575.087952 
	C459.414581,573.994080 455.910370,573.302307 455.352478,573.939392 
	C454.037964,575.440491 452.945953,578.027588 453.340546,579.830261 
	C453.617493,581.095398 456.492371,581.791809 458.920380,582.395020 
z"/>
<path fill="#211B21" opacity="1.000000" stroke="none" 
	d="
M460.090454,479.497345 
	C464.198486,481.706451 465.275177,485.240051 463.406250,488.501556 
	C462.194214,490.616760 458.946075,492.655365 456.534607,492.747467 
	C452.535065,492.900146 450.385162,489.452393 450.261536,485.687286 
	C450.144348,482.117859 450.179382,478.130157 451.670197,475.067627 
	C452.652100,473.050568 456.279694,471.509399 458.820557,471.353729 
	C460.466614,471.252808 462.289337,474.035278 463.570862,476.102081 
	C460.045776,476.963531 459.036285,470.430023 455.280151,474.158081 
	C453.842560,475.584869 453.314484,477.927979 452.283081,480.035126 
	C455.377563,479.729736 457.563660,479.514008 460.090454,479.497345 
M456.756622,490.837646 
	C460.246094,490.861542 461.673431,488.520050 461.375427,485.676025 
	C461.209564,484.092896 459.536926,482.008057 458.050568,481.441040 
	C456.950592,481.021423 453.741455,482.712402 453.755615,483.417206 
	C453.802307,485.738251 454.883179,488.039825 455.588287,490.342316 
	C455.624573,490.460846 455.860107,490.518372 456.756622,490.837646 
z"/>
<path fill="#211B21" opacity="1.000000" stroke="none" 
	d="
M359.955933,571.663147 
	C364.285553,574.517761 363.977203,577.643433 361.074768,581.025391 
	C364.490265,584.018066 365.517853,587.361938 362.285156,590.933777 
	C359.615295,593.883789 354.667938,593.851685 352.010559,590.906250 
	C348.999146,587.568420 349.356812,584.334778 352.001984,582.124939 
	C352.001984,578.756531 351.013855,575.354980 352.290314,573.610596 
	C353.477997,571.987488 357.078033,572.129639 359.955933,571.663147 
M352.876953,585.711243 
	C352.649078,588.956604 354.259796,591.138916 357.375549,590.685364 
	C358.925873,590.459656 360.790924,588.282898 361.309692,586.614441 
	C361.624695,585.601196 359.651276,582.720276 358.687866,582.711731 
	C356.810974,582.695068 354.921417,584.107544 352.876953,585.711243 
M354.011139,578.118164 
	C355.711884,578.544495 357.433624,579.304199 359.100922,579.199280 
	C359.618652,579.166687 360.623505,576.555298 360.253113,575.548340 
	C359.859924,574.479248 357.447601,573.008240 357.051117,573.292786 
	C355.691711,574.268494 354.829559,575.937012 354.011139,578.118164 
z"/>
<path fill="#211B21" opacity="1.000000" stroke="none" 
	d="
M360.653412,691.868164 
	C354.887604,693.868530 351.675018,692.483398 350.832916,687.054077 
	C350.240265,683.232849 350.353302,679.025330 351.396576,675.343018 
	C351.925720,673.475281 355.155731,671.368591 357.264465,671.257202 
	C359.087036,671.160889 362.089783,673.355896 362.757294,675.195984 
	C364.777863,680.765869 365.304993,686.582642 360.653412,691.868164 
M354.022675,674.929565 
	C353.738251,678.983459 353.060883,683.069519 353.388611,687.073303 
	C353.499084,688.422974 356.573792,690.892029 357.585907,690.576721 
	C362.746307,688.969666 361.067749,684.207275 361.214966,680.500610 
	C361.337006,677.426147 361.401794,673.904175 357.137909,673.210571 
	C356.331329,673.079346 355.372101,673.886414 354.022675,674.929565 
z"/>
<path fill="#211B21" opacity="1.000000" stroke="none" 
	d="
M445.759338,274.303223 
	C446.618652,277.315491 447.771790,280.017578 447.760559,282.714813 
	C447.731384,289.714630 444.245056,292.927734 437.262787,293.056824 
	C435.118103,293.096497 432.972076,293.062988 430.479523,293.062988 
	C430.479523,285.824982 430.479523,278.789642 430.479523,271.060516 
	C435.574249,271.268066 441.032990,269.344574 445.759338,274.303223 
M432.999695,275.901855 
	C432.999695,280.815125 432.999695,285.728394 432.999695,290.761536 
	C434.777100,290.761536 435.909698,291.072601 436.739899,290.703461 
	C439.270142,289.578278 443.337677,288.609619 443.791595,286.816681 
	C444.681000,283.303406 444.343384,278.950409 442.990112,275.551575 
	C441.712524,272.342773 435.659607,272.450775 432.999695,275.901855 
z"/>
<path fill="#0C1019" opacity="1.000000" stroke="none" 
	d="
M451.925018,286.917542 
	C451.925018,281.462036 451.925018,276.494629 451.925018,271.393616 
	C457.205292,271.393616 462.164703,271.393616 467.124146,271.393616 
	C467.153412,271.849945 467.182678,272.306274 467.211945,272.762604 
	C463.199951,272.762604 459.187988,272.762604 454.943237,272.762604 
	C454.943237,275.628784 454.943237,277.558716 454.943237,280.117065 
	C458.817810,280.117065 462.689484,280.117065 466.561127,280.117065 
	C466.582581,280.655212 466.604034,281.193359 466.625488,281.731506 
	C462.797607,281.731506 458.969757,281.731506 454.921967,281.731506 
	C454.921967,285.174530 454.921967,287.623474 454.921967,290.506866 
	C459.226624,290.707764 463.498108,290.907135 467.769592,291.106476 
	C467.757050,291.553345 467.744507,292.000214 467.731934,292.447083 
	C462.657593,292.447083 457.583252,292.447083 451.925018,292.447083 
	C451.925018,290.940582 451.925018,289.173096 451.925018,286.917542 
z"/>
<path fill="#0C1019" opacity="1.000000" stroke="none" 
	d="
M477.102142,290.774414 
	C480.060150,290.889160 482.540649,291.000702 485.021179,291.112213 
	C485.007751,291.555817 484.994324,291.999451 484.980896,292.443054 
	C480.787018,292.443054 476.593109,292.443054 472.272400,292.443054 
	C472.272400,285.505188 472.272400,278.288574 472.272400,271.071960 
	C472.646454,270.992188 473.020508,270.912415 473.394562,270.832672 
	C473.716217,271.686951 474.298706,272.536011 474.316040,273.396423 
	C474.409485,278.029541 474.211578,282.673889 474.467468,287.294769 
	C474.533661,288.489746 475.871124,289.614288 477.102142,290.774414 
z"/>
<path fill="#404040" opacity="1.000000" stroke="none" 
	d="
M531.023071,173.348114 
	C532.154480,169.879044 533.992676,167.431564 537.558289,168.426315 
	C541.203125,169.443161 542.455078,172.789154 541.338135,175.938187 
	C540.623291,177.953598 537.978760,180.596558 536.151489,180.634109 
	C532.268616,180.713867 530.638672,177.623550 531.023071,173.348114 
z"/>
<path fill="#404040" opacity="1.000000" stroke="none" 
	d="
M563.840698,174.895844 
	C563.285461,178.870560 561.251404,181.675491 557.654236,180.530701 
	C555.687195,179.904694 553.737000,176.743820 553.286560,174.432281 
	C552.653992,171.186676 554.961914,168.414276 558.296936,168.247818 
	C562.092590,168.058365 563.607544,170.973862 563.840698,174.895844 
z"/>
<path fill="#E0E3E0" opacity="1.000000" stroke="none" 
	d="
M293.382812,283.763550 
	C293.774506,281.053284 294.547302,278.497955 295.320068,275.942657 
	C295.801300,275.916199 296.282532,275.889740 296.763763,275.863281 
	C297.693756,278.328583 298.623718,280.793915 299.802429,283.918549 
	C297.495514,283.918549 295.629730,283.918549 293.382812,283.763550 
z"/>
<path fill="#E0E3E0" opacity="1.000000" stroke="none" 
	d="
M254.250519,481.279541 
	C255.565735,479.468384 256.679688,477.954773 258.421204,475.588440 
	C258.421204,479.236816 258.421204,481.761505 258.421204,484.756622 
	C256.579712,484.848175 254.694977,484.941895 252.091293,485.071350 
	C252.915100,483.601135 253.482178,482.589111 254.250519,481.279541 
z"/>
<path fill="#E0E3E0" opacity="1.000000" stroke="none" 
	d="
M458.563721,582.568604 
	C456.492371,581.791809 453.617493,581.095398 453.340546,579.830261 
	C452.945953,578.027588 454.037964,575.440491 455.352478,573.939392 
	C455.910370,573.302307 459.414581,573.994080 460.229736,575.087952 
	C462.064758,577.550415 461.893524,580.411011 458.563721,582.568604 
z"/>
<path fill="#E0E3E0" opacity="1.000000" stroke="none" 
	d="
M456.379761,490.720978 
	C455.860107,490.518372 455.624573,490.460846 455.588287,490.342316 
	C454.883179,488.039825 453.802307,485.738251 453.755615,483.417206 
	C453.741455,482.712402 456.950592,481.021423 458.050568,481.441040 
	C459.536926,482.008057 461.209564,484.092896 461.375427,485.676025 
	C461.673431,488.520050 460.246094,490.861542 456.379761,490.720978 
z"/>
<path fill="#E0E3E0" opacity="1.000000" stroke="none" 
	d="
M352.957031,585.319702 
	C354.921417,584.107544 356.810974,582.695068 358.687866,582.711731 
	C359.651276,582.720276 361.624695,585.601196 361.309692,586.614441 
	C360.790924,588.282898 358.925873,590.459656 357.375549,590.685364 
	C354.259796,591.138916 352.649078,588.956604 352.957031,585.319702 
z"/>
<path fill="#E0E3E0" opacity="1.000000" stroke="none" 
	d="
M353.894470,577.729736 
	C354.829559,575.937012 355.691711,574.268494 357.051117,573.292786 
	C357.447601,573.008240 359.859924,574.479248 360.253113,575.548340 
	C360.623505,576.555298 359.618652,579.166687 359.100922,579.199280 
	C357.433624,579.304199 355.711884,578.544495 353.894470,577.729736 
z"/>
<path fill="#E0E3E0" opacity="1.000000" stroke="none" 
	d="
M354.252991,674.595093 
	C355.372101,673.886414 356.331329,673.079346 357.137909,673.210571 
	C361.401794,673.904175 361.337006,677.426147 361.214966,680.500610 
	C361.067749,684.207275 362.746307,688.969666 357.585907,690.576721 
	C356.573792,690.892029 353.499084,688.422974 353.388611,687.073303 
	C353.060883,683.069519 353.738251,678.983459 354.252991,674.595093 
z"/>
<path fill="#E0E3E0" opacity="1.000000" stroke="none" 
	d="
M433.007568,275.449280 
	C435.659607,272.450775 441.712524,272.342773 442.990112,275.551575 
	C444.343384,278.950409 444.681000,283.303406 443.791595,286.816681 
	C443.337677,288.609619 439.270142,289.578278 436.739899,290.703461 
	C435.909698,291.072601 434.777100,290.761536 432.999695,290.761536 
	C432.999695,285.728394 432.999695,280.815125 433.007568,275.449280 
z"/>
</svg>