<svg version="1.1" id="Layer_1" xmlns="http://www.w3.org/2000/svg" xmlns:xlink="http://www.w3.org/1999/xlink" x="0px" y="0px"
	 width="100%" viewBox="0 0 1349 443" enable-background="new 0 0 1349 443" xml:space="preserve">
<path fill="#FFC0CB" opacity="1.000000" stroke="none" 
	d="
M1270.000000,444.000000 
	C846.666687,444.000000 423.833374,444.000000 1.000057,444.000000 
	C1.000038,296.333374 1.000038,148.666733 1.000019,1.000077 
	C450.666626,1.000051 900.333252,1.000051 1350.000000,1.000026 
	C1350.000000,148.666595 1350.000000,296.333191 1350.000000,443.999878 
	C1323.500000,444.000000 1297.000000,444.000000 1270.000000,444.000000 
M867.000000,195.500061 
	C867.000000,189.836792 867.009338,184.173492 866.997742,178.510239 
	C866.982666,171.191086 865.848450,170.006638 858.708496,170.004395 
	C824.895020,169.993820 791.081604,169.993851 757.268127,170.004471 
	C750.268372,170.006668 749.010620,171.222534 749.006348,178.033951 
	C748.990479,203.352402 748.990173,228.670853 749.006592,253.989304 
	C749.010986,260.786957 750.268555,261.993378 757.291321,261.995453 
	C791.104797,262.005554 824.918213,262.005890 858.731689,261.995239 
	C865.845520,261.993011 866.993042,260.798035 866.996765,253.466537 
	C867.006531,234.477707 867.000000,215.488861 867.000000,195.500061 
M177.000534,200.500000 
	C177.000488,193.170944 177.010254,185.841888 176.997604,178.512848 
	C176.984970,171.192047 175.848007,170.006638 168.711121,170.004410 
	C134.897690,169.993820 101.084251,169.993896 67.270813,170.004471 
	C60.268406,170.006653 59.010529,171.221176 59.006195,178.031204 
	C58.990093,203.349640 58.989864,228.668076 59.006367,253.986511 
	C59.010799,260.786072 60.268673,261.993347 67.288536,261.995453 
	C101.101967,262.005615 134.915405,262.005829 168.728836,261.995209 
	C175.845703,261.992981 176.992569,260.799622 176.997009,253.469421 
	C177.007523,236.146286 177.000488,218.823135 177.000534,200.500000 
M315.000000,251.372314 
	C315.000000,226.883987 315.011108,202.395645 314.992584,177.907333 
	C314.987610,171.319046 313.683868,170.010361 307.103485,170.007233 
	C273.119629,169.991135 239.135788,169.993164 205.151932,170.005203 
	C198.263031,170.007645 197.009109,171.263000 197.005264,178.151672 
	C196.991211,203.306381 196.992966,228.461090 197.003891,253.615799 
	C197.007050,260.862701 198.143875,261.994202 205.419189,261.996124 
	C238.736679,262.004944 272.054169,262.000977 305.371674,261.999390 
	C314.321655,261.998962 314.980133,261.333801 315.000000,251.372314 
M453.000000,231.500000 
	C452.999878,213.510605 453.019165,195.521164 452.988708,177.531815 
	C452.978546,171.514832 451.561310,170.019791 445.728882,170.014877 
	C411.249176,169.985779 376.769440,169.986008 342.289734,170.014557 
	C336.444824,170.019409 335.017548,171.510162 335.011475,177.513214 
	C334.985413,203.164764 334.985748,228.816376 335.011200,254.467926 
	C335.017151,260.485321 336.438812,261.980133 342.270844,261.985046 
	C376.750580,262.014008 411.230286,262.013763 445.710022,261.985352 
	C451.554840,261.980560 452.956512,260.490265 452.989960,254.487000 
	C453.030792,247.158203 452.999847,239.829025 453.000000,231.500000 
M473.000000,235.499969 
	C473.000000,241.496429 472.990570,247.492920 473.002441,253.489365 
	C473.016907,260.808716 474.152130,261.993195 481.291107,261.995392 
	C515.104553,262.005737 548.917969,262.005737 582.731445,261.995361 
	C589.731140,261.993195 590.989380,260.777649 590.993652,253.966522 
	C591.009521,228.648087 591.009766,203.329636 590.993408,178.011200 
	C590.989014,171.213303 589.731873,170.006470 582.709167,170.004333 
	C548.895752,169.994034 515.082275,169.993683 481.268829,170.004547 
	C474.153931,170.006836 473.007111,171.201645 473.003265,178.532928 
	C472.993469,197.188614 473.000000,215.844315 473.000000,235.499969 
M728.961060,175.072754 
	C728.381409,170.369431 725.052979,169.974258 721.265198,169.978348 
	C687.110535,170.015167 652.955872,169.990326 618.801208,170.008163 
	C612.305908,170.011551 611.010620,171.353180 611.006409,178.004318 
	C610.990417,203.328751 610.990295,228.653168 611.006409,253.977600 
	C611.010742,260.783386 612.268127,261.993286 619.282959,261.995392 
	C653.104370,262.005615 686.925842,262.005981 720.747253,261.995148 
	C727.844666,261.992859 728.995117,260.790955 728.996765,253.447556 
	C729.002563,227.623306 728.994751,201.799072 728.961060,175.072754 
M921.500000,169.999466 
	C912.838440,169.999527 904.176941,169.989899 895.515381,170.002594 
	C888.193420,170.013321 887.008118,171.152863 887.004700,178.286377 
	C886.992615,203.438248 886.992371,228.590134 887.004883,253.742004 
	C887.008423,260.844635 888.206726,261.995239 895.543762,261.996796 
	C929.190613,262.004028 962.837524,262.004242 996.484375,261.996674 
	C1003.806274,261.995056 1004.991943,260.847351 1004.995361,253.713882 
	C1005.007446,228.562012 1005.007629,203.410126 1004.995117,178.258255 
	C1004.991577,171.155502 1003.793701,170.005539 996.456482,170.002945 
	C971.804321,169.994186 947.152161,169.999527 921.500000,169.999466 
M1026.845093,260.747101 
	C1028.753662,261.164642 1030.661499,261.942200 1032.570923,261.946259 
	C1066.896240,262.019653 1101.221558,262.011932 1135.546997,261.987793 
	C1141.509399,261.983582 1142.979126,260.538055 1142.986328,254.645676 
	C1143.017334,228.984985 1143.013062,203.324234 1142.990356,177.663544 
	C1142.984863,171.411743 1141.593872,170.013458 1135.356323,170.009720 
	C1101.197510,169.989243 1067.038818,169.991119 1032.880005,170.007416 
	C1026.313110,170.010544 1025.011719,171.324509 1025.007080,177.927109 
	C1024.989380,203.254562 1024.970947,228.582123 1025.053711,253.909317 
	C1025.060547,255.987167 1025.827881,258.062531 1026.845093,260.747101 
M1280.606445,173.368759 
	C1278.409790,172.246140 1276.218994,170.158371 1274.015747,170.145294 
	C1239.360474,169.939529 1204.703613,169.984650 1170.047119,170.017761 
	C1164.660889,170.022903 1163.034302,171.558823 1163.024536,176.759781 
	C1162.975220,202.918655 1163.028076,229.077713 1162.976929,255.236588 
	C1162.968018,259.779724 1164.888062,262.019867 1169.543701,262.015228 
	C1204.533447,261.980469 1239.523071,261.984985 1274.512817,262.010162 
	C1278.829468,262.013275 1281.012573,260.069336 1281.002563,255.680023 
	C1280.940796,228.523682 1280.901855,201.367294 1280.606445,173.368759 
z"/>
<path fill="#FFFFFF" opacity="1.000000" stroke="none" 
	d="
M867.000000,196.000046 
	C867.000000,215.488861 867.006531,234.477707 866.996765,253.466537 
	C866.993042,260.798035 865.845520,261.993011 858.731689,261.995239 
	C824.918213,262.005890 791.104797,262.005554 757.291321,261.995453 
	C750.268555,261.993378 749.010986,260.786957 749.006592,253.989304 
	C748.990173,228.670853 748.990479,203.352402 749.006348,178.033951 
	C749.010620,171.222534 750.268372,170.006668 757.268127,170.004471 
	C791.081604,169.993851 824.895020,169.993820 858.708496,170.004395 
	C865.848450,170.006638 866.982666,171.191086 866.997742,178.510239 
	C867.009338,184.173492 867.000000,189.836792 867.000000,196.000046 
M753.000000,207.500000 
	C753.000366,222.829910 753.087769,238.160706 752.935059,253.489090 
	C752.900208,256.981995 754.018311,258.073395 757.509583,258.062439 
	C791.168396,257.956482 824.827820,257.956696 858.486633,258.062195 
	C861.972778,258.073120 863.080505,256.989014 863.063599,253.493240 
	C862.942627,228.499420 862.942871,203.504456 863.063354,178.510635 
	C863.080200,175.019989 861.981812,173.926514 858.490540,173.937485 
	C824.831726,174.043365 791.172302,174.043137 757.513489,173.937714 
	C754.027649,173.926804 752.860840,175.005280 752.934326,178.507675 
	C753.130127,187.834793 753.000305,197.168762 753.000000,207.500000 
z"/>
<path fill="#FFFFFF" opacity="1.000000" stroke="none" 
	d="
M177.000534,201.000000 
	C177.000488,218.823135 177.007523,236.146286 176.997009,253.469421 
	C176.992569,260.799622 175.845703,261.992981 168.728836,261.995209 
	C134.915405,262.005829 101.101967,262.005615 67.288536,261.995453 
	C60.268673,261.993347 59.010799,260.786072 59.006367,253.986511 
	C58.989864,228.668076 58.990093,203.349640 59.006195,178.031204 
	C59.010529,171.221176 60.268406,170.006653 67.270813,170.004471 
	C101.084251,169.993896 134.897690,169.993820 168.711121,170.004410 
	C175.848007,170.006638 176.984970,171.192047 176.997604,178.512848 
	C177.010254,185.841888 177.000488,193.170944 177.000534,201.000000 
M135.500000,174.000000 
	C113.005096,174.000107 90.509933,174.052628 68.015549,173.944168 
	C64.616821,173.927780 62.889698,174.442139 62.916962,178.504944 
	C63.084690,203.498184 63.056999,228.493393 62.936794,253.487183 
	C62.920021,256.974945 64.013329,258.073517 67.507462,258.062500 
	C101.166206,257.956329 134.825562,257.956848 168.484314,258.062042 
	C171.967346,258.072906 173.080627,256.994293 173.063644,253.495377 
	C172.942322,228.501602 172.942947,203.506683 173.063156,178.512894 
	C173.079926,175.025177 171.991653,173.874023 168.491653,173.934341 
	C157.830566,174.118073 147.164261,174.000381 135.500000,174.000000 
z"/>
<path fill="#FFFFFF" opacity="1.000000" stroke="none" 
	d="
M315.000000,251.849182 
	C314.980133,261.333801 314.321655,261.998962 305.371674,261.999390 
	C272.054169,262.000977 238.736679,262.004944 205.419189,261.996124 
	C198.143875,261.994202 197.007050,260.862701 197.003891,253.615799 
	C196.992966,228.461090 196.991211,203.306381 197.005264,178.151672 
	C197.009109,171.263000 198.263031,170.007645 205.151932,170.005203 
	C239.135788,169.993164 273.119629,169.991135 307.103485,170.007233 
	C313.683868,170.010361 314.987610,171.319046 314.992584,177.907333 
	C315.011108,202.395645 315.000000,226.883987 315.000000,251.849182 
M311.000000,179.657349 
	C311.634064,175.475876 310.267181,173.864670 305.636414,173.892731 
	C272.475098,174.093597 239.311584,174.075180 206.149872,173.908340 
	C201.841843,173.886688 200.894897,175.368027 200.920975,179.371384 
	C201.079453,203.700653 201.136337,228.032913 200.883987,252.360596 
	C200.833954,257.184540 202.490936,258.108429 206.882401,258.086914 
	C239.544205,257.926727 272.208344,257.863068 304.868622,258.137146 
	C310.203766,258.181915 311.151581,256.443756 311.104492,251.609177 
	C310.873993,227.947693 311.000000,204.282745 311.000000,179.657349 
z"/>
<path fill="#FFFFFF" opacity="1.000000" stroke="none" 
	d="
M453.000000,232.000000 
	C452.999847,239.829025 453.030792,247.158203 452.989960,254.487000 
	C452.956512,260.490265 451.554840,261.980560 445.710022,261.985352 
	C411.230286,262.013763 376.750580,262.014008 342.270844,261.985046 
	C336.438812,261.980133 335.017151,260.485321 335.011200,254.467926 
	C334.985748,228.816376 334.985413,203.164764 335.011475,177.513214 
	C335.017548,171.510162 336.444824,170.019409 342.289734,170.014557 
	C376.769440,169.986008 411.249176,169.985779 445.728882,170.014877 
	C451.561310,170.019791 452.978546,171.514832 452.988708,177.531815 
	C453.019165,195.521164 452.999878,213.510605 453.000000,232.000000 
M399.500000,173.999847 
	C381.004120,173.999954 362.507233,174.103333 344.013214,173.917633 
	C340.064423,173.877975 338.892212,175.051147 338.918304,179.007568 
	C339.080902,203.667633 339.080536,228.329849 338.918579,252.989914 
	C338.892609,256.941895 340.060150,258.096802 344.010223,258.080109 
	C377.335510,257.939148 410.661865,257.939423 443.987152,258.079834 
	C447.932678,258.096436 449.107788,256.949097 449.081665,252.992538 
	C448.919067,228.332474 448.919403,203.670258 449.081360,179.010193 
	C449.107330,175.058334 447.944733,173.859039 443.989014,173.916595 
	C429.495361,174.127472 414.996735,173.999954 399.500000,173.999847 
z"/>
<path fill="#FFFFFF" opacity="1.000000" stroke="none" 
	d="
M473.000000,234.999985 
	C473.000000,215.844315 472.993469,197.188614 473.003265,178.532928 
	C473.007111,171.201645 474.153931,170.006836 481.268829,170.004547 
	C515.082275,169.993683 548.895752,169.994034 582.709167,170.004333 
	C589.731873,170.006470 590.989014,171.213303 590.993408,178.011200 
	C591.009766,203.329636 591.009521,228.648087 590.993652,253.966522 
	C590.989380,260.777649 589.731140,261.993195 582.731445,261.995361 
	C548.917969,262.005737 515.104553,262.005737 481.291107,261.995392 
	C474.152130,261.993195 473.016907,260.808716 473.002441,253.489365 
	C472.990570,247.492920 473.000000,241.496429 473.000000,234.999985 
M504.500000,258.000000 
	C530.327515,257.999908 556.155090,257.982391 581.982544,258.023987 
	C584.866455,258.028656 587.092468,258.100403 587.069275,253.997314 
	C586.925842,228.670471 586.961304,203.342300 587.044495,178.014923 
	C587.054443,174.988876 586.031799,173.949051 582.994751,173.955688 
	C549.002563,174.030136 515.010071,174.029663 481.017853,173.956238 
	C477.995911,173.949707 476.944794,174.961258 476.954926,178.002304 
	C477.039215,203.329681 477.038574,228.657562 476.955475,253.984940 
	C476.945557,257.010681 477.963593,258.107697 481.006042,258.046753 
	C488.501312,257.896576 496.001678,257.999084 504.500000,258.000000 
z"/>
<path fill="#FFFFFF" opacity="1.000000" stroke="none" 
	d="
M728.976562,175.523788 
	C728.994751,201.799072 729.002563,227.623306 728.996765,253.447556 
	C728.995117,260.790955 727.844666,261.992859 720.747253,261.995148 
	C686.925842,262.005981 653.104370,262.005615 619.282959,261.995392 
	C612.268127,261.993286 611.010742,260.783386 611.006409,253.977600 
	C610.990295,228.653168 610.990417,203.328751 611.006409,178.004318 
	C611.010620,171.353180 612.305908,170.011551 618.801208,170.008163 
	C652.955872,169.990326 687.110535,170.015167 721.265198,169.978348 
	C725.052979,169.974258 728.381409,170.369431 728.976562,175.523788 
M725.000000,250.410248 
	C724.999939,226.747040 724.923279,203.083359 725.075439,179.421127 
	C725.100769,175.483719 724.279724,173.882980 719.900146,173.905670 
	C686.572632,174.078171 653.243469,174.070633 619.915833,173.910126 
	C615.800781,173.890320 614.908203,175.315491 614.929504,179.105087 
	C615.067444,203.600708 615.119507,228.098572 614.893311,252.592880 
	C614.851135,257.164154 616.363831,258.109253 620.614258,258.088318 
	C653.275330,257.927643 685.937561,258.001556 718.599426,257.998688 
	C724.968140,257.998138 724.968140,257.990234 725.000000,250.410248 
z"/>
<path fill="#FFFFFF" opacity="1.000000" stroke="none" 
	d="
M922.000000,169.999466 
	C947.152161,169.999527 971.804321,169.994186 996.456482,170.002945 
	C1003.793701,170.005539 1004.991577,171.155502 1004.995117,178.258255 
	C1005.007629,203.410126 1005.007446,228.562012 1004.995361,253.713882 
	C1004.991943,260.847351 1003.806274,261.995056 996.484375,261.996674 
	C962.837524,262.004242 929.190613,262.004028 895.543762,261.996796 
	C888.206726,261.995239 887.008423,260.844635 887.004883,253.742004 
	C886.992371,228.590134 886.992615,203.438248 887.004700,178.286377 
	C887.008118,171.152863 888.193420,170.013321 895.515381,170.002594 
	C904.176941,169.989899 912.838440,169.999527 922.000000,169.999466 
M912.500122,174.000000 
	C907.167969,174.000015 901.815979,174.284286 896.509888,173.912415 
	C892.062927,173.600739 890.863892,175.111786 890.901245,179.516373 
	C891.107788,203.842484 891.109619,228.172211 890.899963,252.498260 
	C890.861816,256.926025 892.121155,258.120636 896.519043,258.096924 
	C929.510620,257.918854 962.504089,257.917389 995.495667,258.098175 
	C999.916626,258.122406 1001.136108,256.888153 1001.098694,252.483597 
	C1000.892151,228.157486 1000.890320,203.827759 1001.099976,179.501709 
	C1001.138123,175.073959 999.879883,173.870819 995.480896,173.902115 
	C968.155029,174.096619 940.827209,174.000015 912.500122,174.000000 
z"/>
<path fill="#FFFFFF" opacity="1.000000" stroke="none" 
	d="
M1026.543457,260.443054 
	C1025.827881,258.062531 1025.060547,255.987167 1025.053711,253.909317 
	C1024.970947,228.582123 1024.989380,203.254562 1025.007080,177.927109 
	C1025.011719,171.324509 1026.313110,170.010544 1032.880005,170.007416 
	C1067.038818,169.991119 1101.197510,169.989243 1135.356323,170.009720 
	C1141.593872,170.013458 1142.984863,171.411743 1142.990356,177.663544 
	C1143.013062,203.324234 1143.017334,228.984985 1142.986328,254.645676 
	C1142.979126,260.538055 1141.509399,261.983582 1135.546997,261.987793 
	C1101.221558,262.011932 1066.896240,262.019653 1032.570923,261.946259 
	C1030.661499,261.942200 1028.753662,261.164642 1026.543457,260.443054 
M1034.657471,173.999893 
	C1030.476318,173.366074 1028.847168,174.730408 1028.891113,179.363739 
	C1029.123535,203.858475 1029.099854,228.357391 1028.906982,252.852829 
	C1028.872925,257.166687 1030.375854,258.094147 1034.374268,258.077515 
	C1067.369507,257.940277 1100.366455,257.896515 1133.360840,258.114075 
	C1138.181519,258.145905 1139.122192,256.510864 1139.088257,252.117584 
	C1138.902832,228.121994 1138.819092,204.121826 1139.139404,180.129074 
	C1139.210815,174.783890 1137.432861,173.868118 1132.606445,173.897522 
	C1100.278320,174.094467 1067.948486,173.999893 1034.657471,173.999893 
z"/>
<path fill="#FFFFFF" opacity="1.000000" stroke="none" 
	d="
M1280.730957,173.789841 
	C1280.901855,201.367294 1280.940796,228.523682 1281.002563,255.680023 
	C1281.012573,260.069336 1278.829468,262.013275 1274.512817,262.010162 
	C1239.523071,261.984985 1204.533447,261.980469 1169.543701,262.015228 
	C1164.888062,262.019867 1162.968018,259.779724 1162.976929,255.236588 
	C1163.028076,229.077713 1162.975220,202.918655 1163.024536,176.759781 
	C1163.034302,171.558823 1164.660889,170.022903 1170.047119,170.017761 
	C1204.703613,169.984650 1239.360474,169.939529 1274.015747,170.145294 
	C1276.218994,170.158371 1278.409790,172.246140 1280.730957,173.789841 
M1265.477417,174.000000 
	C1234.317017,174.000122 1203.156372,174.066345 1171.996704,173.918137 
	C1168.022217,173.899246 1166.894653,175.096313 1166.920288,179.024033 
	C1167.078979,203.518036 1167.110352,228.014496 1166.899292,252.507706 
	C1166.861084,256.950470 1168.145874,258.119507 1172.528809,258.096100 
	C1205.521118,257.919769 1238.515381,257.916168 1271.507568,258.099213 
	C1275.947998,258.123810 1277.138916,256.857086 1277.097900,252.471161 
	C1276.886963,229.811066 1277.000000,207.147964 1277.000000,184.485901 
	C1277.000000,174.000000 1277.000000,174.000000 1265.477417,174.000000 
z"/>
<path fill="#A1CDF4" opacity="1.000000" stroke="none" 
	d="
M753.000000,207.000000 
	C753.000305,197.168762 753.130127,187.834793 752.934326,178.507675 
	C752.860840,175.005280 754.027649,173.926804 757.513489,173.937714 
	C791.172302,174.043137 824.831726,174.043365 858.490540,173.937485 
	C861.981812,173.926514 863.080200,175.019989 863.063354,178.510635 
	C862.942871,203.504456 862.942627,228.499420 863.063599,253.493240 
	C863.080505,256.989014 861.972778,258.073120 858.486633,258.062195 
	C824.827820,257.956696 791.168396,257.956482 757.509583,258.062439 
	C754.018311,258.073395 752.900208,256.981995 752.935059,253.489090 
	C753.087769,238.160706 753.000366,222.829910 753.000000,207.000000 
M820.633789,196.586960 
	C816.698914,193.739517 815.571594,194.332504 814.334351,199.900421 
	C812.823608,206.699142 812.730530,206.758972 805.664612,205.352280 
	C806.093384,202.139175 806.522339,198.924225 807.191162,193.911865 
	C804.476929,195.434097 802.038086,195.993210 801.774963,197.079346 
	C799.919250,204.739807 798.510864,212.508606 796.971680,220.182831 
	C802.812988,222.621704 802.808777,218.643646 803.507263,215.479630 
	C804.872009,209.298370 804.936157,209.266022 811.911682,210.767120 
	C811.528381,214.026535 811.136353,217.360199 810.766113,220.508484 
	C814.911377,221.971664 816.131775,219.934326 816.712646,216.915054 
	C817.966797,210.395538 819.257812,203.883102 820.633789,196.586960 
M806.624268,244.221970 
	C807.864502,244.488068 809.518311,245.383987 810.262695,244.895111 
	C812.062012,243.713425 813.945801,242.103287 814.752258,240.219284 
	C815.115417,239.370850 813.272156,236.668396 811.932434,236.184418 
	C808.865112,235.076309 807.525208,237.268494 807.078735,240.074524 
	C806.897644,241.213028 806.662476,242.342926 806.624268,244.221970 
M798.897583,236.004990 
	C793.580688,236.163773 792.111389,238.371292 793.216492,245.129654 
	C794.360229,244.073151 795.309937,243.195892 795.901917,242.649063 
	C797.818115,243.618164 799.475952,244.456604 800.398193,244.923004 
	C800.512512,243.041016 800.769897,241.605164 800.636658,240.206528 
	C800.505066,238.825226 799.978699,237.481537 798.897583,236.004990 
M819.568665,236.004379 
	C815.514221,237.918335 816.382385,241.342224 816.446838,244.842743 
	C818.546448,244.842743 820.180481,244.842743 821.954529,244.842743 
	C820.882629,243.976761 819.923401,243.201797 818.414001,241.982391 
	C820.374939,241.354294 821.581116,240.967941 823.207886,240.446854 
	C821.630920,240.005783 820.617554,239.722351 818.149292,239.031967 
	C820.833313,237.729172 822.274902,237.029465 824.437500,235.979752 
	C822.583191,235.979752 821.461121,235.979752 819.568665,236.004379 
z"/>
<path fill="#A1CDF4" opacity="1.000000" stroke="none" 
	d="
M136.000000,174.000000 
	C147.164261,174.000381 157.830566,174.118073 168.491653,173.934341 
	C171.991653,173.874023 173.079926,175.025177 173.063156,178.512894 
	C172.942947,203.506683 172.942322,228.501602 173.063644,253.495377 
	C173.080627,256.994293 171.967346,258.072906 168.484314,258.062042 
	C134.825562,257.956848 101.166206,257.956329 67.507462,258.062500 
	C64.013329,258.073517 62.920021,256.974945 62.936794,253.487183 
	C63.056999,228.493393 63.084690,203.498184 62.916962,178.504944 
	C62.889698,174.442139 64.616821,173.927780 68.015549,173.944168 
	C90.509933,174.052628 113.005096,174.000107 136.000000,174.000000 
M127.405457,219.368591 
	C126.820900,212.582916 126.380287,205.779251 125.535606,199.026108 
	C125.357376,197.601181 123.839287,195.423676 122.689713,195.251175 
	C120.861153,194.976776 117.717697,195.497971 117.054375,196.723801 
	C112.884567,204.429657 109.246773,212.423401 105.433083,220.321976 
	C105.891777,220.798904 106.350464,221.275818 106.809158,221.752747 
	C108.603065,220.444397 110.686974,219.392807 112.124680,217.769073 
	C114.429817,215.165680 120.729248,215.130173 121.722389,218.271225 
	C122.891785,221.969711 124.848412,221.319229 127.405457,219.368591 
M128.674515,240.001892 
	C128.516891,241.487534 128.359253,242.973175 128.167191,244.783401 
	C130.902176,243.003891 133.016663,241.761932 134.959488,240.292938 
	C135.658234,239.764603 136.519180,238.425522 136.288696,237.923981 
	C135.904037,237.086975 134.767349,236.245850 133.828857,236.081100 
	C131.376785,235.650650 129.042419,235.865585 128.674515,240.001892 
M125.837158,239.721146 
	C125.293968,238.454315 124.750786,237.187485 123.562630,234.416412 
	C121.263344,238.556274 119.697914,241.374817 118.243057,243.994293 
	C121.239914,243.994293 123.625786,243.994293 126.113266,243.994293 
	C126.062210,243.077103 125.989586,241.772354 125.837158,239.721146 
M103.827606,243.139847 
	C101.817253,238.631119 104.905975,237.892349 109.454605,237.511459 
	C105.391693,235.235535 102.732178,235.634384 101.510147,238.702866 
	C100.882248,240.279465 101.372322,243.462387 102.517715,244.266663 
	C103.730568,245.118301 106.320999,244.008057 108.309746,243.754715 
	C108.149406,243.183884 107.989067,242.613068 107.828728,242.042236 
	C106.688766,242.517761 105.548798,242.993271 103.827606,243.139847 
M110.889442,244.662491 
	C112.483833,244.803909 114.078217,244.945343 115.672607,245.086777 
	C109.303749,243.826248 115.981697,238.329666 111.785187,235.403336 
	C111.231476,238.752869 110.790779,241.418747 110.889442,244.662491 
z"/>
<path fill="#A1CDF4" opacity="1.000000" stroke="none" 
	d="
M311.000000,180.138184 
	C311.000000,204.282745 310.873993,227.947693 311.104492,251.609177 
	C311.151581,256.443756 310.203766,258.181915 304.868622,258.137146 
	C272.208344,257.863068 239.544205,257.926727 206.882401,258.086914 
	C202.490936,258.108429 200.833954,257.184540 200.883987,252.360596 
	C201.136337,228.032913 201.079453,203.700653 200.920975,179.371384 
	C200.894897,175.368027 201.841843,173.886688 206.149872,173.908340 
	C239.311584,174.075180 272.475098,174.093597 305.636414,173.892731 
	C310.267181,173.864670 311.634064,175.475876 311.000000,180.138184 
M255.470734,203.001678 
	C255.479538,202.368027 255.370193,201.211334 255.514786,201.178665 
	C257.928070,200.633499 260.425385,200.408951 262.790619,199.722382 
	C264.111450,199.338989 265.224609,198.240265 266.431366,197.463882 
	C265.423370,196.651093 264.402924,195.135315 263.409607,195.152878 
	C259.967041,195.213745 256.285339,195.153564 253.152512,196.344208 
	C247.765839,198.391418 247.382675,205.020554 252.139557,208.303925 
	C253.498444,209.241882 255.188919,209.709473 256.513763,210.683304 
	C257.488831,211.400040 258.940277,212.881332 258.719513,213.505386 
	C258.313934,214.651718 256.924255,216.042801 255.779846,216.211273 
	C253.403061,216.561172 250.901489,215.980560 248.485886,216.187424 
	C247.416901,216.278961 246.189758,217.177628 245.533035,218.074860 
	C245.283218,218.416183 246.348831,220.496826 246.956314,220.567383 
	C252.225174,221.179443 257.662964,222.116867 262.341919,218.555954 
	C266.338989,215.514008 265.829956,209.493973 261.494263,206.867722 
	C259.650879,205.751175 257.779541,204.680862 255.470734,203.001678 
M244.826340,239.458221 
	C244.706329,238.431702 244.586319,237.405167 244.359451,235.464798 
	C242.804962,237.384354 241.873978,238.533981 240.871689,239.771637 
	C240.057846,238.283997 239.446426,237.166367 238.835007,236.048752 
	C238.410034,236.127029 237.985062,236.205307 237.560104,236.283585 
	C237.090012,239.046265 236.619919,241.808960 236.149841,244.571640 
	C236.638260,244.692276 237.126694,244.812927 237.615112,244.933563 
	C238.450836,243.748810 239.286575,242.564056 240.217911,241.243744 
	C241.052948,242.730026 241.680557,243.847122 242.842545,245.915359 
	C243.690353,243.250000 244.173798,241.730148 244.826340,239.458221 
M251.837784,236.606827 
	C251.248718,239.247467 250.659653,241.888123 250.070602,244.528763 
	C250.586029,244.656754 251.101456,244.784729 251.616867,244.912704 
	C252.451508,243.735138 253.286148,242.557556 254.217178,241.243988 
	C255.052444,242.726624 255.682434,243.844894 256.312439,244.963165 
	C256.740417,244.894485 257.168365,244.825806 257.596344,244.757126 
	C258.060913,242.035019 258.525482,239.312927 258.990051,236.590820 
	C258.509979,236.481400 258.029907,236.371994 257.549835,236.262573 
	C256.760986,237.399460 255.972153,238.536346 255.115463,239.771027 
	C254.073471,238.392288 253.268631,237.327316 251.837784,236.606827 
M267.782959,242.393188 
	C267.248322,240.276016 266.713684,238.158844 266.179077,236.041672 
	C265.678833,235.912918 265.178589,235.784149 264.678375,235.655396 
	C262.954865,238.523682 261.231354,241.391968 259.721710,243.904312 
	C262.506195,244.236023 264.467621,244.575180 266.436462,244.625229 
	C266.891602,244.636795 267.371918,243.659805 267.782959,242.393188 
M273.955872,239.645264 
	C274.495819,238.492706 275.035736,237.340134 275.591064,236.154724 
	C273.887268,236.154724 272.134735,236.154724 270.855286,236.154724 
	C270.855286,239.209381 270.855286,241.994003 270.855286,244.778625 
	C271.303619,244.870224 271.751984,244.961807 272.200317,245.053406 
	C272.755859,243.500458 273.311432,241.947525 273.955872,239.645264 
z"/>
<path fill="#A1CDF4" opacity="1.000000" stroke="none" 
	d="
M400.000000,173.999847 
	C414.996735,173.999954 429.495361,174.127472 443.989014,173.916595 
	C447.944733,173.859039 449.107330,175.058334 449.081360,179.010193 
	C448.919403,203.670258 448.919067,228.332474 449.081665,252.992538 
	C449.107788,256.949097 447.932678,258.096436 443.987152,258.079834 
	C410.661865,257.939423 377.335510,257.939148 344.010223,258.080109 
	C340.060150,258.096802 338.892609,256.941895 338.918579,252.989914 
	C339.080536,228.329849 339.080902,203.667633 338.918304,179.007568 
	C338.892212,175.051147 340.064423,173.877975 344.013214,173.917633 
	C362.507233,174.103333 381.004120,173.999954 400.000000,173.999847 
M386.951813,199.389633 
	C385.571350,206.392273 384.190887,213.394913 382.804199,220.429138 
	C397.518646,222.441803 403.757660,218.343842 405.561157,206.076340 
	C406.144043,202.111572 405.494812,197.571945 401.448334,196.366043 
	C397.290283,195.126938 392.530182,195.843460 388.037201,195.919144 
	C387.689758,195.925003 387.370941,197.629303 386.951813,199.389633 
M380.241028,244.031296 
	C381.101166,243.812485 382.025665,243.280167 382.807861,243.440811 
	C384.388580,243.765442 385.892029,244.466293 387.427338,245.011993 
	C387.736053,244.598160 388.044769,244.184311 388.353485,243.770462 
	C382.438477,241.968475 383.708923,239.268433 386.868439,236.643738 
	C384.446625,236.643738 382.084747,236.643738 378.565674,236.643738 
	C378.967957,239.326401 379.355072,241.908142 380.241028,244.031296 
M406.568726,243.209900 
	C407.399658,243.774734 408.230591,244.339569 408.748413,244.691559 
	C409.020111,241.461136 409.240295,238.843506 409.447632,236.378403 
	C407.964111,236.467285 405.895447,236.591217 403.069794,236.760498 
	C402.623260,239.013153 402.079163,241.758118 401.375305,245.309021 
	C403.563354,244.125870 404.826691,243.442734 406.568726,243.209900 
M395.150970,242.803940 
	C394.336060,238.791779 396.042389,236.935440 400.369812,237.204514 
	C396.986450,235.336624 394.186554,235.702515 392.870605,239.067581 
	C392.297455,240.533142 392.756348,243.701080 393.700531,244.168427 
	C395.265991,244.943283 397.602631,244.160202 399.614380,244.033432 
	C399.514526,243.449142 399.414642,242.864868 399.314758,242.280579 
	C398.046997,242.652145 396.779236,243.023727 395.150970,242.803940 
z"/>
<path fill="#A1CDF4" opacity="1.000000" stroke="none" 
	d="
M504.000000,258.000000 
	C496.001678,257.999084 488.501312,257.896576 481.006042,258.046753 
	C477.963593,258.107697 476.945557,257.010681 476.955475,253.984940 
	C477.038574,228.657562 477.039215,203.329681 476.954926,178.002304 
	C476.944794,174.961258 477.995911,173.949707 481.017853,173.956238 
	C515.010071,174.029663 549.002563,174.030136 582.994751,173.955688 
	C586.031799,173.949051 587.054443,174.988876 587.044495,178.014923 
	C586.961304,203.342300 586.925842,228.670471 587.069275,253.997314 
	C587.092468,258.100403 584.866455,258.028656 581.982544,258.023987 
	C556.155090,257.982391 530.327515,257.999908 504.000000,258.000000 
M509.587280,239.212784 
	C507.811340,238.173981 505.712128,235.997192 504.341919,236.386459 
	C502.655334,236.865601 501.172180,239.329254 500.436066,241.254471 
	C500.146301,242.012283 502.479462,244.813553 502.986359,244.655670 
	C505.203918,243.964935 507.207520,242.559845 509.243561,241.338593 
	C509.621399,241.111984 509.790894,240.538010 510.459991,240.786270 
	C510.711914,242.128113 510.963867,243.469940 511.178375,244.612488 
	C513.435181,243.160431 515.574280,241.977386 517.459167,240.475357 
	C518.204407,239.881485 518.888794,238.441635 518.671814,237.637772 
	C518.475891,236.911957 516.699158,235.859787 516.163208,236.111069 
	C514.012634,237.119308 512.073425,238.578171 509.587280,239.212784 
M535.725281,199.012436 
	C537.546448,198.967453 539.400879,199.104843 541.171204,198.781448 
	C541.816223,198.663620 542.514221,197.505295 542.691589,196.710831 
	C542.782288,196.304565 541.790039,195.200150 541.264954,195.184982 
	C537.129333,195.065628 532.981628,195.019562 528.856018,195.262268 
	C528.215210,195.299957 527.338623,196.850128 527.130066,197.820953 
	C525.741760,204.284256 524.409607,210.764114 523.312988,217.281296 
	C523.127380,218.384583 524.168030,219.694229 524.642151,220.908539 
	C526.011475,220.087189 528.106934,219.567627 528.599670,218.381958 
	C529.640869,215.876724 529.844421,213.023315 530.227234,211.126755 
	C533.583557,208.452011 538.993103,212.620041 540.453674,206.213608 
	C537.145691,206.047089 534.390381,205.908386 529.686523,205.671600 
	C531.956482,202.749680 533.403687,200.886841 535.725281,199.012436 
M546.924194,238.698135 
	C546.671692,237.892899 546.419189,237.087662 545.969543,235.653870 
	C544.743408,237.398056 543.952087,238.523636 543.055542,239.799011 
	C540.282593,234.518066 537.396240,234.535294 534.226135,238.902252 
	C533.544983,237.664902 532.865601,236.430756 532.186157,235.196625 
	C531.578552,235.519180 530.970886,235.841736 530.363220,236.164291 
	C529.792419,238.971954 529.221619,241.779602 528.650818,244.587265 
	C529.037476,244.707031 529.424133,244.826797 529.810791,244.946564 
	C530.481506,244.163589 531.152222,243.380615 531.797913,242.626816 
	C532.874390,243.499664 533.807922,244.256592 535.101990,245.305801 
	C536.129883,242.648788 536.966675,240.485809 537.803467,238.322815 
	C538.087463,238.384155 538.371460,238.445496 538.655457,238.506836 
	C538.655457,240.569870 538.655457,242.632919 538.655457,246.139984 
	C540.336609,243.773819 541.170166,242.600677 542.119507,241.264481 
	C542.952393,242.679123 543.619080,243.811539 544.945801,246.065018 
	C545.788025,243.105438 546.306702,241.282608 546.924194,238.698135 
M555.619690,241.660263 
	C555.165283,239.831467 554.710876,238.002655 554.256470,236.173859 
	C553.789917,236.007568 553.323364,235.841293 552.856812,235.675003 
	C551.034363,238.523392 549.211975,241.371796 547.470398,244.093872 
	C550.227417,244.327454 552.223022,244.672943 554.190369,244.553116 
	C554.762695,244.518250 555.254089,243.153671 555.619690,241.660263 
M525.026611,244.025833 
	C524.334106,243.362350 523.641541,242.698868 522.949036,242.035385 
	C523.955017,241.506775 524.960999,240.978149 525.891907,240.488983 
	C524.925598,239.940842 524.038330,239.437531 522.567810,238.603333 
	C524.383301,237.657639 525.559082,237.045197 527.247437,236.165741 
	C520.641846,235.986557 519.994507,236.843262 520.224487,245.229065 
	C522.069763,244.866638 523.836182,244.519699 525.026611,244.025833 
M560.303040,244.564026 
	C561.362366,241.751892 562.421631,238.939758 563.451782,236.204956 
	C561.756836,236.204956 560.006226,236.204956 558.349121,236.204956 
	C558.793701,239.207504 559.205872,241.991486 560.303040,244.564026 
z"/>
<path fill="#A1CDF4" opacity="1.000000" stroke="none" 
	d="
M725.000000,250.895630 
	C724.968140,257.990234 724.968140,257.998138 718.599426,257.998688 
	C685.937561,258.001556 653.275330,257.927643 620.614258,258.088318 
	C616.363831,258.109253 614.851135,257.164154 614.893311,252.592880 
	C615.119507,228.098572 615.067444,203.600708 614.929504,179.105087 
	C614.908203,175.315491 615.800781,173.890320 619.915833,173.910126 
	C653.243469,174.070633 686.572632,174.078171 719.900146,173.905670 
	C724.279724,173.882980 725.100769,175.483719 725.075439,179.421127 
	C724.923279,203.083359 724.999939,226.747040 725.000000,250.895630 
M671.172363,200.408264 
	C673.408203,200.155212 675.702698,199.462402 677.866272,199.750946 
	C681.210388,200.196915 682.618530,199.348282 682.011414,195.929337 
	C668.885803,192.025574 658.703674,200.127579 660.073425,213.289719 
	C660.551880,217.887939 663.152954,220.845886 667.794556,220.881180 
	C671.638062,220.910400 676.665894,222.791504 678.476624,217.214493 
	C679.579102,213.819031 679.867615,210.159271 680.617798,206.098160 
	C676.729431,206.681412 672.640808,203.846725 670.979553,208.605148 
	C672.327271,210.656311 673.475220,212.509033 673.482300,214.366104 
	C673.485413,215.169006 671.082703,216.723328 669.860352,216.640671 
	C666.939880,216.443222 665.172791,214.188858 665.999512,211.409439 
	C667.083801,207.764313 668.994934,204.365158 671.172363,200.408264 
M688.657166,236.081345 
	C687.678467,237.114273 686.699768,238.147202 686.017212,238.867615 
	C684.915833,237.893402 683.969604,237.056442 683.023438,236.219498 
	C682.000488,238.909668 680.977539,241.599838 679.850220,244.564453 
	C689.359192,245.299393 691.920532,242.653259 688.657166,236.081345 
M672.586121,236.824829 
	C670.361450,238.732117 668.883911,241.118439 671.335083,243.491806 
	C672.409119,244.531754 675.625061,245.054169 676.440979,244.289215 
	C677.843994,242.973801 678.128662,240.465591 678.882812,238.458054 
	C677.004761,237.774307 675.126648,237.090576 672.586121,236.824829 
M655.031738,244.985580 
	C659.628784,244.621399 656.656250,240.350555 658.315979,238.413315 
	C658.492737,238.207016 657.516724,236.367111 656.994873,236.326721 
	C655.281738,236.194183 652.632874,235.915665 651.988892,236.839767 
	C650.776489,238.579529 650.437622,241.111343 650.372925,243.332428 
	C650.357666,243.856125 652.873657,244.453568 655.031738,244.985580 
M661.695557,237.107727 
	C661.557190,239.475311 661.418884,241.842896 661.280518,244.210480 
	C663.124329,244.120590 665.596191,244.722794 666.651978,243.764603 
	C667.955566,242.581528 668.081787,240.101196 668.716797,238.181412 
	C666.598328,237.671753 664.479858,237.162094 661.695557,237.107727 
z"/>
<path fill="#A1CDF4" opacity="1.000000" stroke="none" 
	d="
M913.000061,174.000000 
	C940.827209,174.000015 968.155029,174.096619 995.480896,173.902115 
	C999.879883,173.870819 1001.138123,175.073959 1001.099976,179.501709 
	C1000.890320,203.827759 1000.892151,228.157486 1001.098694,252.483597 
	C1001.136108,256.888153 999.916626,258.122406 995.495667,258.098175 
	C962.504089,257.917389 929.510620,257.918854 896.519043,258.096924 
	C892.121155,258.120636 890.861816,256.926025 890.899963,252.498260 
	C891.109619,228.172211 891.107788,203.842484 890.901245,179.516373 
	C890.863892,175.111786 892.062927,173.600739 896.509888,173.912415 
	C901.815979,174.284286 907.167969,174.000015 913.000061,174.000000 
M943.945435,195.002991 
	C943.041321,195.724533 942.137207,196.446075 941.233093,197.167572 
	C942.205139,197.779114 943.116821,198.743317 944.162903,198.922440 
	C945.881897,199.216797 947.687988,199.002197 949.867920,199.002197 
	C949.161438,202.803543 948.596619,205.877106 948.015259,208.947540 
	C947.861328,209.760452 947.695435,210.574844 947.468567,211.369583 
	C945.947388,216.697998 944.516602,217.395950 939.302856,215.429657 
	C939.040710,215.330780 938.673645,215.510315 937.923096,215.628021 
	C937.417908,216.670410 936.809509,217.925873 936.207458,219.168152 
	C942.469910,222.467728 949.330811,221.670807 951.296631,216.496063 
	C953.807922,209.885406 954.764282,202.684036 956.565796,194.989761 
	C951.760864,194.989761 948.303284,194.989761 943.945435,195.002991 
M935.031311,236.180466 
	C933.913391,238.814850 932.795471,241.449234 931.908142,243.540344 
	C934.379150,244.017715 935.643799,244.436996 936.912170,244.448715 
	C937.836304,244.457245 939.440308,244.111237 939.577026,243.607391 
	C940.214661,241.257233 940.447571,238.797226 940.634705,237.597992 
	C938.313110,237.037506 936.994446,236.719162 935.031311,236.180466 
M958.674377,242.158920 
	C958.958191,240.133987 962.508301,237.721619 958.466919,236.235245 
	C956.352844,235.457718 953.331665,235.058640 952.514160,238.572815 
	C952.047058,240.580353 951.869751,242.655289 951.562073,244.699890 
	C951.948547,244.795212 952.335022,244.890533 952.721558,244.985855 
	C953.498779,244.075272 954.276001,243.164673 954.789917,242.562561 
	C956.386230,243.319748 957.706421,243.945984 959.026611,244.572235 
	C958.975708,243.957245 958.924805,243.342255 958.674377,242.158920 
M946.961060,243.761520 
	C947.907959,243.647354 948.854797,243.533203 949.801697,243.419037 
	C949.049438,241.003326 948.297180,238.587616 947.544922,236.171860 
	C946.175354,237.606689 944.658508,238.932175 943.485046,240.512634 
	C942.623230,241.673386 942.211060,243.168091 941.250916,245.277618 
	C943.713867,244.372513 945.046936,243.882645 946.961060,243.761520 
M930.054626,237.689713 
	C928.385742,237.385071 926.716858,237.080444 925.047913,236.775818 
	C925.562317,238.945160 926.076660,241.114517 926.636780,243.476990 
	C926.292358,243.476990 925.071167,243.476990 923.849976,243.476990 
	C923.931641,244.000977 924.013306,244.524948 924.094971,245.048935 
	C926.023071,244.549500 927.951233,244.050064 929.879395,243.550629 
	C929.276855,241.569397 928.674377,239.588150 928.075867,237.620026 
	C928.264771,237.652893 928.879211,237.759796 930.054626,237.689713 
M964.331726,243.190674 
	C965.402222,242.180481 966.472656,241.170288 967.430847,240.266037 
	C966.853699,239.888672 965.898376,239.264084 964.231079,238.173965 
	C966.321533,237.387787 967.555847,236.923553 969.097351,236.343826 
	C962.147766,235.669556 961.013000,237.006943 961.812744,244.719238 
	C963.726440,244.719238 965.662292,244.719238 967.598206,244.719238 
	C967.607971,244.564651 967.617737,244.410049 967.627563,244.255463 
	C966.695190,244.059891 965.762756,243.864334 964.331726,243.190674 
z"/>
<path fill="#A1CDF4" opacity="1.000000" stroke="none" 
	d="
M1035.138306,173.999893 
	C1067.948486,173.999893 1100.278320,174.094467 1132.606445,173.897522 
	C1137.432861,173.868118 1139.210815,174.783890 1139.139404,180.129074 
	C1138.819092,204.121826 1138.902832,228.121994 1139.088257,252.117584 
	C1139.122192,256.510864 1138.181519,258.145905 1133.360840,258.114075 
	C1100.366455,257.896515 1067.369507,257.940277 1034.374268,258.077515 
	C1030.375854,258.094147 1028.872925,257.166687 1028.906982,252.852829 
	C1029.099854,228.357391 1029.123535,203.858475 1028.891113,179.363739 
	C1028.847168,174.730408 1030.476318,173.366074 1035.138306,173.999893 
M1087.559570,240.722626 
	C1086.380737,236.124832 1083.965576,234.593185 1080.955688,236.751328 
	C1078.679932,238.383163 1076.875000,240.759918 1079.169312,243.396774 
	C1081.952881,246.596024 1084.702759,245.073730 1087.614990,242.934586 
	C1090.436279,243.495789 1093.859497,245.268661 1095.898560,244.255554 
	C1097.705444,243.357788 1097.973389,239.362686 1098.920776,236.734924 
	C1098.477295,236.425034 1098.033813,236.115158 1097.590210,235.805267 
	C1096.232666,236.817947 1094.875000,237.830627 1093.584106,238.793533 
	C1093.010254,238.042130 1092.303589,237.117004 1091.596924,236.191849 
	C1090.794922,237.072937 1089.951294,237.920212 1089.203247,238.844955 
	C1088.513184,239.698044 1087.926025,240.634293 1087.559570,240.722626 
M1094.860962,198.474319 
	C1095.610596,197.505356 1096.360107,196.536377 1097.184814,195.470261 
	C1089.324341,192.817657 1087.806274,200.399841 1082.927246,203.757111 
	C1083.225220,200.609589 1083.460693,198.122910 1083.821411,194.313675 
	C1081.395996,195.298904 1078.647339,195.664352 1078.420044,196.626068 
	C1076.541870,204.567612 1075.131104,212.619659 1073.547241,220.800766 
	C1082.565674,221.809235 1078.446167,213.782913 1081.580933,211.139923 
	C1084.821045,214.509460 1083.199585,223.210831 1092.218140,220.563263 
	C1091.887695,219.596237 1091.654785,218.668655 1091.265381,217.812149 
	C1086.484863,207.297989 1086.478882,207.300690 1094.860962,198.474319 
M1072.161377,236.994461 
	C1072.284668,239.525558 1072.408081,242.056641 1072.531372,244.587723 
	C1072.886475,244.646164 1073.241577,244.704590 1073.596802,244.763016 
	C1074.654297,241.938705 1075.711914,239.114395 1076.918213,235.892990 
	C1075.189819,236.061295 1073.606445,236.215469 1072.161377,236.994461 
z"/>
<path fill="#A1CDF4" opacity="1.000000" stroke="none" 
	d="
M1265.972900,174.000000 
	C1277.000000,174.000000 1277.000000,174.000000 1277.000000,184.485901 
	C1277.000000,207.147964 1276.886963,229.811066 1277.097900,252.471161 
	C1277.138916,256.857086 1275.947998,258.123810 1271.507568,258.099213 
	C1238.515381,257.916168 1205.521118,257.919769 1172.528809,258.096100 
	C1168.145874,258.119507 1166.861084,256.950470 1166.899292,252.507706 
	C1167.110352,228.014496 1167.078979,203.518036 1166.920288,179.024033 
	C1166.894653,175.096313 1168.022217,173.899246 1171.996704,173.918137 
	C1203.156372,174.066345 1234.317017,174.000122 1265.972900,174.000000 
M1215.041626,220.953461 
	C1228.574585,221.193771 1228.574585,221.193771 1229.443237,217.217712 
	C1226.162109,217.066086 1222.946533,216.917496 1219.403809,216.753784 
	C1220.765015,209.347870 1222.038452,202.419098 1223.303589,195.535767 
	C1219.175781,194.168579 1217.624878,195.699020 1217.026733,199.204926 
	C1215.996582,205.241562 1214.638306,211.221909 1213.581055,217.254517 
	C1213.387207,218.360184 1213.968628,219.601685 1215.041626,220.953461 
M1228.139038,237.660614 
	C1226.047485,237.193314 1223.955933,236.725998 1221.237793,236.118713 
	C1220.567627,238.960648 1219.915405,241.726929 1219.263184,244.493210 
	C1219.729736,244.650360 1220.196289,244.807495 1220.662842,244.964645 
	C1221.287720,243.978165 1221.912720,242.991684 1222.537720,242.005142 
	C1223.183716,243.306229 1223.873413,244.695282 1224.563110,246.084320 
	C1225.210571,245.673615 1225.858154,245.262909 1226.505737,244.852219 
	C1227.016724,242.684830 1227.527832,240.517456 1228.139038,237.660614 
M1236.813477,237.726410 
	C1236.670166,237.168137 1236.487183,236.116745 1236.389282,236.124634 
	C1234.518555,236.275131 1232.657837,236.550247 1230.277466,236.868820 
	C1229.892090,239.154999 1229.453125,241.759216 1228.786865,245.711929 
	C1230.920654,244.045013 1231.855713,243.314484 1232.528442,242.788940 
	C1234.039551,243.609634 1235.358765,244.326187 1236.353394,244.866394 
	C1236.353394,242.244766 1236.353394,240.196732 1236.813477,237.726410 
M1208.439941,243.296265 
	C1209.984863,246.199829 1210.566162,244.559799 1211.152954,242.735321 
	C1211.869019,240.508759 1212.624390,238.294861 1213.310913,236.231476 
	C1211.677124,236.231476 1209.933350,236.231476 1208.971436,236.231476 
	C1208.815552,238.557770 1208.680908,240.567230 1208.439941,243.296265 
z"/>
<path fill="#FAFCFE" opacity="1.000000" stroke="none" 
	d="
M820.583801,196.977371 
	C819.257812,203.883102 817.966797,210.395538 816.712646,216.915054 
	C816.131775,219.934326 814.911377,221.971664 810.766113,220.508484 
	C811.136353,217.360199 811.528381,214.026535 811.911682,210.767120 
	C804.936157,209.266022 804.872009,209.298370 803.507263,215.479630 
	C802.808777,218.643646 802.812988,222.621704 796.971680,220.182831 
	C798.510864,212.508606 799.919250,204.739807 801.774963,197.079346 
	C802.038086,195.993210 804.476929,195.434097 807.191162,193.911865 
	C806.522339,198.924225 806.093384,202.139175 805.664612,205.352280 
	C812.730530,206.758972 812.823608,206.699142 814.334351,199.900421 
	C815.571594,194.332504 816.698914,193.739517 820.583801,196.977371 
z"/>
<path fill="#F2F7FC" opacity="1.000000" stroke="none" 
	d="
M806.538086,243.849350 
	C806.662476,242.342926 806.897644,241.213028 807.078735,240.074524 
	C807.525208,237.268494 808.865112,235.076309 811.932434,236.184418 
	C813.272156,236.668396 815.115417,239.370850 814.752258,240.219284 
	C813.945801,242.103287 812.062012,243.713425 810.262695,244.895111 
	C809.518311,245.383987 807.864502,244.488068 806.538086,243.849350 
z"/>
<path fill="#F2F7FC" opacity="1.000000" stroke="none" 
	d="
M799.261536,236.063171 
	C799.978699,237.481537 800.505066,238.825226 800.636658,240.206528 
	C800.769897,241.605164 800.512512,243.041016 800.398193,244.923004 
	C799.475952,244.456604 797.818115,243.618164 795.901917,242.649063 
	C795.309937,243.195892 794.360229,244.073151 793.216492,245.129654 
	C792.111389,238.371292 793.580688,236.163773 799.261536,236.063171 
z"/>
<path fill="#F5F9FC" opacity="1.000000" stroke="none" 
	d="
M819.953857,235.992065 
	C821.461121,235.979752 822.583191,235.979752 824.437500,235.979752 
	C822.274902,237.029465 820.833313,237.729172 818.149292,239.031967 
	C820.617554,239.722351 821.630920,240.005783 823.207886,240.446854 
	C821.581116,240.967941 820.374939,241.354294 818.414001,241.982391 
	C819.923401,243.201797 820.882629,243.976761 821.954529,244.842743 
	C820.180481,244.842743 818.546448,244.842743 816.446838,244.842743 
	C816.382385,241.342224 815.514221,237.918335 819.953857,235.992065 
z"/>
<path fill="#FCFDFE" opacity="1.000000" stroke="none" 
	d="
M127.354721,219.757507 
	C124.848412,221.319229 122.891785,221.969711 121.722389,218.271225 
	C120.729248,215.130173 114.429817,215.165680 112.124680,217.769073 
	C110.686974,219.392807 108.603065,220.444397 106.809158,221.752747 
	C106.350464,221.275818 105.891777,220.798904 105.433083,220.321976 
	C109.246773,212.423401 112.884567,204.429657 117.054375,196.723801 
	C117.717697,195.497971 120.861153,194.976776 122.689713,195.251175 
	C123.839287,195.423676 125.357376,197.601181 125.535606,199.026108 
	C126.380287,205.779251 126.820900,212.582916 127.354721,219.757507 
M118.673073,211.953491 
	C123.631264,209.380890 120.040771,205.850143 119.969856,202.641052 
	C118.190552,204.821930 116.875038,207.090271 116.001030,209.517593 
	C115.811440,210.044159 117.206276,211.141251 118.673073,211.953491 
z"/>
<path fill="#F5F9FC" opacity="1.000000" stroke="none" 
	d="
M128.773438,239.616623 
	C129.042419,235.865585 131.376785,235.650650 133.828857,236.081100 
	C134.767349,236.245850 135.904037,237.086975 136.288696,237.923981 
	C136.519180,238.425522 135.658234,239.764603 134.959488,240.292938 
	C133.016663,241.761932 130.902176,243.003891 128.167191,244.783401 
	C128.359253,242.973175 128.516891,241.487534 128.773438,239.616623 
z"/>
<path fill="#F5F9FC" opacity="1.000000" stroke="none" 
	d="
M125.877060,240.094360 
	C125.989586,241.772354 126.062210,243.077103 126.113266,243.994293 
	C123.625786,243.994293 121.239914,243.994293 118.243057,243.994293 
	C119.697914,241.374817 121.263344,238.556274 123.562630,234.416412 
	C124.750786,237.187485 125.293968,238.454315 125.877060,240.094360 
z"/>
<path fill="#F2F7FC" opacity="1.000000" stroke="none" 
	d="
M104.118225,243.304321 
	C105.548798,242.993271 106.688766,242.517761 107.828728,242.042236 
	C107.989067,242.613068 108.149406,243.183884 108.309746,243.754715 
	C106.320999,244.008057 103.730568,245.118301 102.517715,244.266663 
	C101.372322,243.462387 100.882248,240.279465 101.510147,238.702866 
	C102.732178,235.634384 105.391693,235.235535 109.454605,237.511459 
	C104.905975,237.892349 101.817253,238.631119 104.118225,243.304321 
z"/>
<path fill="#F2F7FC" opacity="1.000000" stroke="none" 
	d="
M110.619766,244.373566 
	C110.790779,241.418747 111.231476,238.752869 111.785187,235.403336 
	C115.981697,238.329666 109.303749,243.826248 115.672607,245.086777 
	C114.078217,244.945343 112.483833,244.803909 110.619766,244.373566 
z"/>
<path fill="#FAFCFE" opacity="1.000000" stroke="none" 
	d="
M255.695831,203.295609 
	C257.779541,204.680862 259.650879,205.751175 261.494263,206.867722 
	C265.829956,209.493973 266.338989,215.514008 262.341919,218.555954 
	C257.662964,222.116867 252.225174,221.179443 246.956314,220.567383 
	C246.348831,220.496826 245.283218,218.416183 245.533035,218.074860 
	C246.189758,217.177628 247.416901,216.278961 248.485886,216.187424 
	C250.901489,215.980560 253.403061,216.561172 255.779846,216.211273 
	C256.924255,216.042801 258.313934,214.651718 258.719513,213.505386 
	C258.940277,212.881332 257.488831,211.400040 256.513763,210.683304 
	C255.188919,209.709473 253.498444,209.241882 252.139557,208.303925 
	C247.382675,205.020554 247.765839,198.391418 253.152512,196.344208 
	C256.285339,195.153564 259.967041,195.213745 263.409607,195.152878 
	C264.402924,195.135315 265.423370,196.651093 266.431366,197.463882 
	C265.224609,198.240265 264.111450,199.338989 262.790619,199.722382 
	C260.425385,200.408951 257.928070,200.633499 255.514786,201.178665 
	C255.370193,201.211334 255.479538,202.368027 255.695831,203.295609 
z"/>
<path fill="#F2F7FC" opacity="1.000000" stroke="none" 
	d="
M244.741791,239.834259 
	C244.173798,241.730148 243.690353,243.250000 242.842545,245.915359 
	C241.680557,243.847122 241.052948,242.730026 240.217911,241.243744 
	C239.286575,242.564056 238.450836,243.748810 237.615112,244.933563 
	C237.126694,244.812927 236.638260,244.692276 236.149841,244.571640 
	C236.619919,241.808960 237.090012,239.046265 237.560104,236.283585 
	C237.985062,236.205307 238.410034,236.127029 238.835007,236.048752 
	C239.446426,237.166367 240.057846,238.283997 240.871689,239.771637 
	C241.873978,238.533981 242.804962,237.384354 244.359451,235.464798 
	C244.586319,237.405167 244.706329,238.431702 244.741791,239.834259 
z"/>
<path fill="#F2F7FC" opacity="1.000000" stroke="none" 
	d="
M252.150787,236.434601 
	C253.268631,237.327316 254.073471,238.392288 255.115463,239.771027 
	C255.972153,238.536346 256.760986,237.399460 257.549835,236.262573 
	C258.029907,236.371994 258.509979,236.481400 258.990051,236.590820 
	C258.525482,239.312927 258.060913,242.035019 257.596344,244.757126 
	C257.168365,244.825806 256.740417,244.894485 256.312439,244.963165 
	C255.682434,243.844894 255.052444,242.726624 254.217178,241.243988 
	C253.286148,242.557556 252.451508,243.735138 251.616867,244.912704 
	C251.101456,244.784729 250.586029,244.656754 250.070602,244.528763 
	C250.659653,241.888123 251.248718,239.247467 252.150787,236.434601 
z"/>
<path fill="#F2F7FC" opacity="1.000000" stroke="none" 
	d="
M267.811798,242.765442 
	C267.371918,243.659805 266.891602,244.636795 266.436462,244.625229 
	C264.467621,244.575180 262.506195,244.236023 259.721710,243.904312 
	C261.231354,241.391968 262.954865,238.523682 264.678375,235.655396 
	C265.178589,235.784149 265.678833,235.912918 266.179077,236.041672 
	C266.713684,238.158844 267.248322,240.276016 267.811798,242.765442 
z"/>
<path fill="#F5F9FC" opacity="1.000000" stroke="none" 
	d="
M273.911438,240.019928 
	C273.311432,241.947525 272.755859,243.500458 272.200317,245.053406 
	C271.751984,244.961807 271.303619,244.870224 270.855286,244.778625 
	C270.855286,241.994003 270.855286,239.209381 270.855286,236.154724 
	C272.134735,236.154724 273.887268,236.154724 275.591064,236.154724 
	C275.035736,237.340134 274.495819,238.492706 273.911438,240.019928 
z"/>
<path fill="#FCFDFE" opacity="1.000000" stroke="none" 
	d="
M386.995331,198.966919 
	C387.370941,197.629303 387.689758,195.925003 388.037201,195.919144 
	C392.530182,195.843460 397.290283,195.126938 401.448334,196.366043 
	C405.494812,197.571945 406.144043,202.111572 405.561157,206.076340 
	C403.757660,218.343842 397.518646,222.441803 382.804199,220.429138 
	C384.190887,213.394913 385.571350,206.392273 386.995331,198.966919 
M398.736176,200.850967 
	C396.572540,199.315399 393.584473,197.146805 392.276093,200.664474 
	C390.432892,205.620010 389.979370,211.092438 388.913147,216.436722 
	C396.984985,216.780029 401.327271,209.966980 398.736176,200.850967 
z"/>
<path fill="#F2F7FC" opacity="1.000000" stroke="none" 
	d="
M379.991608,244.260590 
	C379.355072,241.908142 378.967957,239.326401 378.565674,236.643738 
	C382.084747,236.643738 384.446625,236.643738 386.868439,236.643738 
	C383.708923,239.268433 382.438477,241.968475 388.353485,243.770462 
	C388.044769,244.184311 387.736053,244.598160 387.427338,245.011993 
	C385.892029,244.466293 384.388580,243.765442 382.807861,243.440811 
	C382.025665,243.280167 381.101166,243.812485 379.991608,244.260590 
z"/>
<path fill="#F5F9FC" opacity="1.000000" stroke="none" 
	d="
M406.329407,242.984741 
	C404.826691,243.442734 403.563354,244.125870 401.375305,245.309021 
	C402.079163,241.758118 402.623260,239.013153 403.069794,236.760498 
	C405.895447,236.591217 407.964111,236.467285 409.447632,236.378403 
	C409.240295,238.843506 409.020111,241.461136 408.748413,244.691559 
	C408.230591,244.339569 407.399658,243.774734 406.329407,242.984741 
z"/>
<path fill="#F2F7FC" opacity="1.000000" stroke="none" 
	d="
M395.331238,243.099609 
	C396.779236,243.023727 398.046997,242.652145 399.314758,242.280579 
	C399.414642,242.864868 399.514526,243.449142 399.614380,244.033432 
	C397.602631,244.160202 395.265991,244.943283 393.700531,244.168427 
	C392.756348,243.701080 392.297455,240.533142 392.870605,239.067581 
	C394.186554,235.702515 396.986450,235.336624 400.369812,237.204514 
	C396.042389,236.935440 394.336060,238.791779 395.331238,243.099609 
z"/>
<path fill="#FCFDFE" opacity="1.000000" stroke="none" 
	d="
M535.288086,199.018219 
	C533.403687,200.886841 531.956482,202.749680 529.686523,205.671600 
	C534.390381,205.908386 537.145691,206.047089 540.453674,206.213608 
	C538.993103,212.620041 533.583557,208.452011 530.227234,211.126755 
	C529.844421,213.023315 529.640869,215.876724 528.599670,218.381958 
	C528.106934,219.567627 526.011475,220.087189 524.642151,220.908539 
	C524.168030,219.694229 523.127380,218.384583 523.312988,217.281296 
	C524.409607,210.764114 525.741760,204.284256 527.130066,197.820953 
	C527.338623,196.850128 528.215210,195.299957 528.856018,195.262268 
	C532.981628,195.019562 537.129333,195.065628 541.264954,195.184982 
	C541.790039,195.200150 542.782288,196.304565 542.691589,196.710831 
	C542.514221,197.505295 541.816223,198.663620 541.171204,198.781448 
	C539.400879,199.104843 537.546448,198.967453 535.288086,199.018219 
z"/>
<path fill="#F2F7FC" opacity="1.000000" stroke="none" 
	d="
M546.874817,239.078949 
	C546.306702,241.282608 545.788025,243.105438 544.945801,246.065018 
	C543.619080,243.811539 542.952393,242.679123 542.119507,241.264481 
	C541.170166,242.600677 540.336609,243.773819 538.655457,246.139984 
	C538.655457,242.632919 538.655457,240.569870 538.655457,238.506836 
	C538.371460,238.445496 538.087463,238.384155 537.803467,238.322815 
	C536.966675,240.485809 536.129883,242.648788 535.101990,245.305801 
	C533.807922,244.256592 532.874390,243.499664 531.797913,242.626816 
	C531.152222,243.380615 530.481506,244.163589 529.810791,244.946564 
	C529.424133,244.826797 529.037476,244.707031 528.650818,244.587265 
	C529.221619,241.779602 529.792419,238.971954 530.363220,236.164291 
	C530.970886,235.841736 531.578552,235.519180 532.186157,235.196625 
	C532.865601,236.430756 533.544983,237.664902 534.226135,238.902252 
	C537.396240,234.535294 540.282593,234.518066 543.055542,239.799011 
	C543.952087,238.523636 544.743408,237.398056 545.969543,235.653870 
	C546.419189,237.087662 546.671692,237.892899 546.874817,239.078949 
z"/>
<path fill="#EDF4FB" opacity="1.000000" stroke="none" 
	d="
M510.056519,240.124329 
	C509.790894,240.538010 509.621399,241.111984 509.243561,241.338593 
	C507.207520,242.559845 505.203918,243.964935 502.986359,244.655670 
	C502.479462,244.813553 500.146301,242.012283 500.436066,241.254471 
	C501.172180,239.329254 502.655334,236.865601 504.341919,236.386459 
	C505.712128,235.997192 507.811340,238.173981 509.820679,239.578308 
	C510.054108,239.943817 510.056488,240.124313 510.056519,240.124329 
z"/>
<path fill="#F2F7FC" opacity="1.000000" stroke="none" 
	d="
M555.701172,242.029449 
	C555.254089,243.153671 554.762695,244.518250 554.190369,244.553116 
	C552.223022,244.672943 550.227417,244.327454 547.470398,244.093872 
	C549.211975,241.371796 551.034363,238.523392 552.856812,235.675003 
	C553.323364,235.841293 553.789917,236.007568 554.256470,236.173859 
	C554.710876,238.002655 555.165283,239.831467 555.701172,242.029449 
z"/>
<path fill="#F5F9FC" opacity="1.000000" stroke="none" 
	d="
M510.258240,240.455292 
	C510.056488,240.124313 510.054108,239.943817 510.055084,239.907104 
	C512.073425,238.578171 514.012634,237.119308 516.163208,236.111069 
	C516.699158,235.859787 518.475891,236.911957 518.671814,237.637772 
	C518.888794,238.441635 518.204407,239.881485 517.459167,240.475357 
	C515.574280,241.977386 513.435181,243.160431 511.178375,244.612488 
	C510.963867,243.469940 510.711914,242.128113 510.258240,240.455292 
z"/>
<path fill="#FAFCFE" opacity="1.000000" stroke="none" 
	d="
M525.314575,244.099304 
	C523.836182,244.519699 522.069763,244.866638 520.224487,245.229065 
	C519.994507,236.843262 520.641846,235.986557 527.247437,236.165741 
	C525.559082,237.045197 524.383301,237.657639 522.567810,238.603333 
	C524.038330,239.437531 524.925598,239.940842 525.891907,240.488983 
	C524.960999,240.978149 523.955017,241.506775 522.949036,242.035385 
	C523.641541,242.698868 524.334106,243.362350 525.314575,244.099304 
z"/>
<path fill="#F5F9FC" opacity="1.000000" stroke="none" 
	d="
M559.960571,244.669754 
	C559.205872,241.991486 558.793701,239.207504 558.349121,236.204956 
	C560.006226,236.204956 561.756836,236.204956 563.451782,236.204956 
	C562.421631,238.939758 561.362366,241.751892 559.960571,244.669754 
z"/>
<path fill="#FAFCFE" opacity="1.000000" stroke="none" 
	d="
M670.861450,200.634232 
	C668.994934,204.365158 667.083801,207.764313 665.999512,211.409439 
	C665.172791,214.188858 666.939880,216.443222 669.860352,216.640671 
	C671.082703,216.723328 673.485413,215.169006 673.482300,214.366104 
	C673.475220,212.509033 672.327271,210.656311 670.979553,208.605148 
	C672.640808,203.846725 676.729431,206.681412 680.617798,206.098160 
	C679.867615,210.159271 679.579102,213.819031 678.476624,217.214493 
	C676.665894,222.791504 671.638062,220.910400 667.794556,220.881180 
	C663.152954,220.845886 660.551880,217.887939 660.073425,213.289719 
	C658.703674,200.127579 668.885803,192.025574 682.011414,195.929337 
	C682.618530,199.348282 681.210388,200.196915 677.866272,199.750946 
	C675.702698,199.462402 673.408203,200.155212 670.861450,200.634232 
z"/>
<path fill="#F2F7FC" opacity="1.000000" stroke="none" 
	d="
M689.001465,236.087036 
	C691.920532,242.653259 689.359192,245.299393 679.850220,244.564453 
	C680.977539,241.599838 682.000488,238.909668 683.023438,236.219498 
	C683.969604,237.056442 684.915833,237.893402 686.017212,238.867615 
	C686.699768,238.147202 687.678467,237.114273 689.001465,236.087036 
z"/>
<path fill="#F2F7FC" opacity="1.000000" stroke="none" 
	d="
M672.917358,236.615845 
	C675.126648,237.090576 677.004761,237.774307 678.882812,238.458038 
	C678.128662,240.465591 677.843994,242.973801 676.440979,244.289215 
	C675.625061,245.054169 672.409119,244.531754 671.335083,243.491806 
	C668.883911,241.118439 670.361450,238.732117 672.917358,236.615845 
z"/>
<path fill="#F5F9FC" opacity="1.000000" stroke="none" 
	d="
M654.628479,245.001343 
	C652.873657,244.453568 650.357666,243.856125 650.372925,243.332428 
	C650.437622,241.111343 650.776489,238.579529 651.988892,236.839767 
	C652.632874,235.915665 655.281738,236.194183 656.994873,236.326721 
	C657.516724,236.367111 658.492737,238.207016 658.315979,238.413315 
	C656.656250,240.350555 659.628784,244.621399 654.628479,245.001343 
z"/>
<path fill="#F5F9FC" opacity="1.000000" stroke="none" 
	d="
M662.028442,236.880081 
	C664.479858,237.162094 666.598328,237.671753 668.716797,238.181412 
	C668.081787,240.101196 667.955566,242.581528 666.651978,243.764603 
	C665.596191,244.722794 663.124329,244.120590 661.280518,244.210480 
	C661.418884,241.842896 661.557190,239.475311 662.028442,236.880081 
M666.143188,241.665604 
	C666.022827,240.190659 665.902405,238.715714 665.781982,237.240768 
	C665.045471,237.215973 664.308899,237.191193 663.572327,237.166397 
	C663.303650,239.085724 663.034973,241.005051 662.766296,242.924377 
	C663.787415,242.717255 664.808594,242.510117 666.143188,241.665604 
z"/>
<path fill="#FAFCFE" opacity="1.000000" stroke="none" 
	d="
M944.395508,194.996368 
	C948.303284,194.989761 951.760864,194.989761 956.565796,194.989761 
	C954.764282,202.684036 953.807922,209.885406 951.296631,216.496063 
	C949.330811,221.670807 942.469910,222.467728 936.207458,219.168152 
	C936.809509,217.925873 937.417908,216.670410 937.923096,215.628021 
	C938.673645,215.510315 939.040710,215.330780 939.302856,215.429657 
	C944.516602,217.395950 945.947388,216.697998 947.468567,211.369583 
	C947.695435,210.574844 947.861328,209.760452 948.015259,208.947540 
	C948.596619,205.877106 949.161438,202.803543 949.867920,199.002197 
	C947.687988,199.002197 945.881897,199.216797 944.162903,198.922440 
	C943.116821,198.743317 942.205139,197.779114 941.233093,197.167587 
	C942.137207,196.446075 943.041321,195.724533 944.395508,194.996368 
z"/>
<path fill="#F2F7FC" opacity="1.000000" stroke="none" 
	d="
M935.353516,236.290649 
	C936.994446,236.719162 938.313110,237.037506 940.634705,237.597992 
	C940.447571,238.797226 940.214661,241.257233 939.577026,243.607391 
	C939.440308,244.111237 937.836304,244.457245 936.912170,244.448715 
	C935.643799,244.436996 934.379150,244.017715 931.908142,243.540344 
	C932.795471,241.449234 933.913391,238.814850 935.353516,236.290649 
z"/>
<path fill="#F2F7FC" opacity="1.000000" stroke="none" 
	d="
M958.774170,242.443085 
	C958.924805,243.342255 958.975708,243.957245 959.026611,244.572235 
	C957.706421,243.945984 956.386230,243.319748 954.789917,242.562561 
	C954.276001,243.164673 953.498779,244.075272 952.721558,244.985855 
	C952.335022,244.890533 951.948547,244.795212 951.562073,244.699890 
	C951.869751,242.655289 952.047058,240.580353 952.514160,238.572815 
	C953.331665,235.058640 956.352844,235.457718 958.466919,236.235245 
	C962.508301,237.721619 958.958191,240.133987 958.774170,242.443085 
z"/>
<path fill="#F2F7FC" opacity="1.000000" stroke="none" 
	d="
M946.670532,243.577148 
	C945.046936,243.882645 943.713867,244.372513 941.250916,245.277618 
	C942.211060,243.168091 942.623230,241.673386 943.485046,240.512634 
	C944.658508,238.932175 946.175354,237.606689 947.544922,236.171875 
	C948.297180,238.587616 949.049438,241.003326 949.801697,243.419037 
	C948.854797,243.533203 947.907959,243.647354 946.670532,243.577148 
z"/>
<path fill="#F2F7FC" opacity="1.000000" stroke="none" 
	d="
M929.774170,237.778198 
	C928.879211,237.759796 928.264771,237.652893 928.075867,237.620026 
	C928.674377,239.588150 929.276855,241.569397 929.879395,243.550629 
	C927.951233,244.050064 926.023071,244.549500 924.094971,245.048935 
	C924.013306,244.524948 923.931641,244.000977 923.849976,243.476990 
	C925.071167,243.476990 926.292358,243.476990 926.636780,243.476990 
	C926.076660,241.114517 925.562317,238.945160 925.047974,236.775818 
	C926.716858,237.080444 928.385742,237.385071 929.774170,237.778198 
z"/>
<path fill="#F5F9FC" opacity="1.000000" stroke="none" 
	d="
M964.581055,243.429718 
	C965.762756,243.864334 966.695190,244.059891 967.627563,244.255463 
	C967.617737,244.410049 967.607971,244.564651 967.598206,244.719238 
	C965.662292,244.719238 963.726440,244.719238 961.812744,244.719238 
	C961.013000,237.006943 962.147766,235.669556 969.097351,236.343826 
	C967.555847,236.923553 966.321533,237.387787 964.231079,238.173965 
	C965.898376,239.264084 966.853699,239.888672 967.430847,240.266037 
	C966.472656,241.170288 965.402222,242.180481 964.581055,243.429718 
z"/>
<path fill="#FAFCFE" opacity="1.000000" stroke="none" 
	d="
M1094.619019,198.723343 
	C1086.478882,207.300690 1086.484863,207.297989 1091.265381,217.812149 
	C1091.654785,218.668655 1091.887695,219.596237 1092.218140,220.563263 
	C1083.199585,223.210831 1084.821045,214.509460 1081.580933,211.139923 
	C1078.446167,213.782913 1082.565674,221.809235 1073.547241,220.800766 
	C1075.131104,212.619659 1076.541870,204.567612 1078.420044,196.626068 
	C1078.647339,195.664352 1081.395996,195.298904 1083.821411,194.313675 
	C1083.460693,198.122910 1083.225220,200.609589 1082.927246,203.757111 
	C1087.806274,200.399841 1089.324341,192.817657 1097.184814,195.470261 
	C1096.360107,196.536377 1095.610596,197.505356 1094.619019,198.723343 
z"/>
<path fill="#F2F7FC" opacity="1.000000" stroke="none" 
	d="
M1087.293457,241.533890 
	C1087.926025,240.634293 1088.513184,239.698044 1089.203247,238.844955 
	C1089.951294,237.920212 1090.794922,237.072937 1091.596924,236.191864 
	C1092.303589,237.117004 1093.010254,238.042130 1093.584106,238.793533 
	C1094.875000,237.830627 1096.232666,236.817947 1097.590210,235.805267 
	C1098.033813,236.115158 1098.477295,236.425034 1098.920776,236.734924 
	C1097.973389,239.362686 1097.705444,243.357788 1095.898560,244.255554 
	C1093.859497,245.268661 1090.436279,243.495789 1087.340332,242.556091 
	C1087.087769,241.942963 1087.163696,241.728394 1087.293457,241.533890 
z"/>
<path fill="#EDF4FB" opacity="1.000000" stroke="none" 
	d="
M1087.426514,241.128265 
	C1087.163696,241.728394 1087.087769,241.942963 1087.055176,242.291718 
	C1084.702759,245.073730 1081.952881,246.596024 1079.169312,243.396774 
	C1076.875000,240.759918 1078.679932,238.383163 1080.955688,236.751328 
	C1083.965576,234.593185 1086.380737,236.124832 1087.426514,241.128265 
z"/>
<path fill="#F5F9FC" opacity="1.000000" stroke="none" 
	d="
M1072.092285,236.682068 
	C1073.606445,236.215469 1075.189819,236.061295 1076.918213,235.892990 
	C1075.711914,239.114395 1074.654297,241.938705 1073.596802,244.763016 
	C1073.241577,244.704590 1072.886475,244.646164 1072.531372,244.587723 
	C1072.408081,242.056641 1072.284668,239.525558 1072.092285,236.682068 
z"/>
<path fill="#FCFDFE" opacity="1.000000" stroke="none" 
	d="
M1214.616943,220.866974 
	C1213.968628,219.601685 1213.387207,218.360184 1213.581055,217.254517 
	C1214.638306,211.221909 1215.996582,205.241562 1217.026733,199.204926 
	C1217.624878,195.699020 1219.175781,194.168579 1223.303589,195.535767 
	C1222.038452,202.419098 1220.765015,209.347870 1219.403809,216.753784 
	C1222.946533,216.917496 1226.162109,217.066086 1229.443237,217.217712 
	C1228.574585,221.193771 1228.574585,221.193771 1214.616943,220.866974 
z"/>
<path fill="#F2F7FC" opacity="1.000000" stroke="none" 
	d="
M1228.088867,238.005341 
	C1227.527832,240.517456 1227.016724,242.684830 1226.505737,244.852219 
	C1225.858154,245.262909 1225.210571,245.673615 1224.563110,246.084320 
	C1223.873413,244.695282 1223.183716,243.306229 1222.537720,242.005142 
	C1221.912720,242.991684 1221.287720,243.978165 1220.662842,244.964645 
	C1220.196289,244.807495 1219.729736,244.650360 1219.263184,244.493210 
	C1219.915405,241.726929 1220.567627,238.960648 1221.237793,236.118713 
	C1223.955933,236.725998 1226.047485,237.193314 1228.088867,238.005341 
z"/>
<path fill="#F2F7FC" opacity="1.000000" stroke="none" 
	d="
M1236.583496,237.937561 
	C1236.353394,240.196732 1236.353394,242.244766 1236.353394,244.866394 
	C1235.358765,244.326187 1234.039551,243.609634 1232.528442,242.788940 
	C1231.855713,243.314484 1230.920654,244.045013 1228.786865,245.711929 
	C1229.453125,241.759216 1229.892090,239.154999 1230.277466,236.868820 
	C1232.657837,236.550247 1234.518555,236.275131 1236.389282,236.124634 
	C1236.487183,236.116745 1236.670166,237.168137 1236.583496,237.937561 
z"/>
<path fill="#F5F9FC" opacity="1.000000" stroke="none" 
	d="
M1208.493164,242.936478 
	C1208.680908,240.567230 1208.815552,238.557770 1208.971436,236.231476 
	C1209.933350,236.231476 1211.677124,236.231476 1213.310913,236.231476 
	C1212.624390,238.294861 1211.869019,240.508759 1211.152954,242.735321 
	C1210.566162,244.559799 1209.984863,246.199829 1208.493164,242.936478 
z"/>
<path fill="#A1CDF4" opacity="1.000000" stroke="none" 
	d="
M118.272209,211.964523 
	C117.206276,211.141251 115.811440,210.044159 116.001030,209.517593 
	C116.875038,207.090271 118.190552,204.821930 119.969856,202.641052 
	C120.040771,205.850143 123.631264,209.380890 118.272209,211.964523 
z"/>
<path fill="#A1CDF4" opacity="1.000000" stroke="none" 
	d="
M398.949036,201.192627 
	C401.327271,209.966980 396.984985,216.780029 388.913147,216.436722 
	C389.979370,211.092438 390.432892,205.620010 392.276093,200.664474 
	C393.584473,197.146805 396.572540,199.315399 398.949036,201.192627 
z"/>
<path fill="#A1CDF4" opacity="1.000000" stroke="none" 
	d="
M665.986450,241.984283 
	C664.808594,242.510117 663.787415,242.717255 662.766296,242.924377 
	C663.034973,241.005051 663.303650,239.085724 663.572327,237.166397 
	C664.308899,237.191193 665.045471,237.215973 665.781982,237.240768 
	C665.902405,238.715714 666.022827,240.190659 665.986450,241.984283 
z"/>
</svg>