<svg version="1.1" id="Layer_1" xmlns="http://www.w3.org/2000/svg" xmlns:xlink="http://www.w3.org/1999/xlink" x="0px" y="0px"
	 width="100%" viewBox="0 0 1418 1274" enable-background="new 0 0 1418 1274" xml:space="preserve">
<path fill="#F5F5F5" opacity="1.000000" stroke="none" 
	d="
M1419.000000,115.000000 
	C1419.000000,501.625092 1419.000000,888.250183 1419.000000,1274.937622 
	C946.425720,1274.937622 473.851471,1274.937622 1.000000,1274.937622 
	C1.000000,888.633972 1.000000,502.267883 1.461255,115.451225 
	C474.281677,115.000427 946.640808,115.000214 1419.000000,115.000000 
M1070.000122,765.500000 
	C1070.000000,609.010864 1070.001221,452.521729 1069.998901,296.032593 
	C1069.998535,271.130035 1053.931030,255.001526 1029.110840,255.001190 
	C800.293152,254.998138 571.475525,254.997757 342.657837,255.001801 
	C318.180176,255.002243 302.001892,271.225311 302.001526,295.764587 
	C301.998108,524.582275 301.998108,753.399902 302.001465,982.217590 
	C302.001801,1006.761841 318.179138,1022.997559 342.640015,1022.997986 
	C571.624329,1023.001770 800.608704,1023.002441 1029.593018,1022.997070 
	C1053.717773,1022.996521 1069.994751,1006.669617 1069.997314,982.485229 
	C1070.004883,910.490173 1070.000122,838.495056 1070.000122,765.500000 
z"/>
<path fill="#1ABC9C" opacity="1.000000" stroke="none" 
	d="
M1419.000000,114.538742 
	C946.640808,115.000214 474.281677,115.000427 1.461255,115.000320 
	C1.000000,77.974167 1.000000,40.948341 1.447632,3.461255 
	C474.263519,3.000001 946.631775,3.000000 1419.000000,3.000000 
	C1419.000000,40.025829 1419.000000,77.051659 1419.000000,114.538742 
M842.972412,68.974541 
	C846.224976,60.080345 841.218079,53.395744 832.078003,55.420044 
	C828.274353,56.262459 824.976074,59.708923 821.658875,62.246830 
	C820.530762,63.109921 820.048950,64.817688 818.828674,66.893265 
	C816.266785,60.278072 813.606628,55.211586 806.486572,54.969143 
	C796.726074,54.636795 789.803955,62.224838 789.970032,73.264267 
	C790.077942,80.436760 793.748413,85.515953 799.943115,87.064919 
	C806.114197,88.607971 812.621460,85.621918 815.942566,79.720642 
	C816.632751,78.494202 817.315247,77.263451 818.324768,75.455315 
	C819.018982,77.250427 819.413452,78.305878 819.833618,79.351006 
	C822.124207,85.048813 826.854309,87.099190 832.481873,87.531319 
	C837.818359,87.941109 842.333557,86.086983 845.512451,81.670525 
	C848.540649,77.463448 847.519897,73.942017 843.035950,71.884109 
	C842.979980,71.177162 842.924011,70.470215 842.972412,68.974541 
M579.919312,31.178074 
	C575.264282,30.934816 570.565674,30.171362 565.963440,30.557310 
	C556.574707,31.344656 547.006592,31.846697 537.946716,34.164394 
	C529.407043,36.349041 526.010315,46.231304 530.068604,53.018711 
	C531.841919,55.984497 534.213440,57.290497 537.598450,55.745285 
	C540.674683,54.341007 541.046082,52.175560 539.724731,49.189442 
	C538.030823,45.361301 539.939026,43.055023 543.581116,42.147160 
	C546.236084,41.485355 549.012024,41.308353 551.820984,40.902664 
	C549.715332,54.213326 547.655701,66.859833 545.739868,79.528084 
	C544.971069,84.611839 546.638794,87.093956 550.724426,87.617653 
	C554.881226,88.150475 557.198486,85.751320 557.956543,80.733124 
	C559.771729,68.716408 561.716248,56.718540 563.731323,44.733711 
	C563.947754,43.446301 564.874451,41.323467 565.639954,41.245739 
	C569.280090,40.876114 572.978516,41.080402 577.139221,41.080402 
	C576.450562,42.728973 576.293396,43.203522 576.063477,43.639729 
	C574.411438,46.774494 574.065918,50.072094 577.358643,52.025280 
	C580.685852,53.998909 584.623779,53.947369 587.439270,50.875885 
	C589.983765,48.100037 590.013367,44.905308 587.112549,41.995541 
	C586.561951,41.443310 586.028931,40.229656 586.268005,39.634380 
	C588.491455,34.096138 585.042603,32.476730 579.919312,31.178074 
M721.314331,77.299866 
	C719.263977,77.050262 716.417969,77.553986 715.324158,76.398720 
	C712.829956,73.764328 714.380920,67.502792 717.613403,64.461464 
	C718.193542,70.271286 719.004944,71.342369 722.562500,70.994530 
	C725.869080,70.671227 728.103638,66.918480 727.595947,62.541466 
	C727.075012,58.050449 724.238831,55.383007 719.664612,55.082005 
	C711.115906,54.519466 704.083313,61.612526 703.061829,71.595825 
	C702.863586,73.533661 701.935913,75.396858 701.344666,77.294487 
	C700.690796,77.117126 700.036926,76.939766 699.383057,76.762413 
	C700.098267,72.397018 700.984802,68.049622 701.446350,63.657578 
	C701.636902,61.844608 701.414551,58.631783 700.523926,58.290691 
	C696.086243,56.591049 691.839172,53.568951 686.502625,55.675610 
	C677.596985,59.191177 671.434082,70.529915 673.742493,79.752327 
	C675.120605,85.257881 679.897400,88.434357 685.431152,87.181847 
	C687.608276,86.689079 689.613281,85.435814 691.747742,84.506653 
	C697.308350,88.526421 698.046814,88.519852 707.057861,84.307503 
	C716.019287,89.504425 724.779358,88.653442 729.147644,81.516876 
	C730.413574,79.448692 730.757446,75.075027 729.443665,73.547905 
	C727.048096,70.763237 724.919739,74.057251 723.078613,75.864960 
	C722.722595,76.214531 722.335327,76.532310 721.314331,77.299866 
M762.964355,52.134705 
	C760.685364,43.492615 764.651306,39.826401 774.444214,41.778500 
	C774.153015,43.401871 773.836060,45.026157 773.572693,46.659065 
	C771.743408,57.999630 769.891663,69.336761 768.121460,80.686577 
	C767.489075,84.741081 769.405334,87.164078 773.429199,87.574120 
	C777.398560,87.978607 779.728516,85.956306 780.328918,82.016914 
	C780.529419,80.701599 780.544128,79.357788 780.748657,78.043327 
	C782.660522,65.754669 784.595154,53.469551 786.590027,40.758194 
	C792.823364,41.085411 798.300537,41.790382 803.709351,41.439945 
	C805.716309,41.309914 807.562866,38.704472 809.482605,37.227882 
	C807.884949,35.439007 806.526917,32.466015 804.644226,32.084892 
	C799.152832,30.973211 793.410889,30.227076 787.842224,30.567043 
	C778.774353,31.120632 769.577515,31.869408 760.788025,33.995300 
	C752.710388,35.949036 748.903198,44.327682 751.867554,51.275963 
	C752.737305,53.314800 754.933044,55.780083 756.842529,56.093960 
	C758.622009,56.386459 760.828918,54.078045 762.964355,52.134705 
M636.149231,40.791786 
	C634.342285,45.005783 634.127808,49.200203 636.495544,53.272541 
	C638.135864,56.093708 640.495605,57.194759 643.665771,55.808784 
	C646.711853,54.477058 647.285889,52.396027 646.023560,49.324841 
	C644.371216,45.304977 646.247986,42.885925 650.223633,42.035625 
	C652.747559,41.495838 655.346313,41.305946 658.333313,40.902119 
	C657.953613,43.041206 657.675842,44.495369 657.439270,45.956203 
	C655.602234,57.302002 653.784790,68.650986 651.935242,79.994743 
	C651.265930,84.099678 652.507385,86.937843 656.946777,87.591537 
	C660.944336,88.180168 663.451355,85.928062 664.123779,81.230446 
	C664.407043,79.251892 664.500671,77.244873 664.816101,75.272484 
	C666.626282,63.952103 668.477295,52.638233 670.407166,40.750919 
	C676.125854,41.081360 681.223450,41.487965 686.328430,41.629143 
	C689.422485,41.714706 692.660706,41.296379 693.134033,37.357948 
	C693.603027,33.456234 690.706360,32.289001 687.586426,31.591757 
	C686.618652,31.375496 685.630920,31.107601 684.651733,31.105217 
	C675.338257,31.082527 665.996338,30.671104 656.719727,31.264034 
	C649.120056,31.749779 641.284912,32.748859 636.149231,40.791786 
M590.425354,84.050850 
	C598.753052,89.409683 607.364014,88.717606 612.373962,82.224228 
	C614.422913,79.568604 615.995544,76.299553 613.290771,73.641708 
	C610.284546,70.687576 608.463318,74.189445 606.411804,75.971153 
	C605.326843,76.913475 603.814148,78.064056 602.588257,77.964699 
	C601.085266,77.842888 598.813232,76.822639 598.392334,75.647049 
	C597.025330,71.829498 597.538025,68.050156 601.012695,64.611160 
	C600.621826,68.819260 601.735168,71.483025 606.117432,70.977341 
	C610.255249,70.499847 610.853821,67.229965 611.013489,63.983223 
	C611.354736,57.045464 605.317749,53.085842 598.169495,55.671478 
	C590.766418,58.349281 587.464966,64.135773 586.496155,71.679565 
	C586.223938,73.799278 585.142395,75.815048 584.432007,77.878494 
	C583.695801,77.685585 582.959595,77.492676 582.223328,77.299767 
	C583.103760,71.968040 584.028076,66.643028 584.845215,61.301613 
	C585.224792,58.820400 585.773438,56.011806 582.301697,55.257408 
	C579.158325,54.574356 575.697998,54.918282 574.950073,58.541725 
	C573.583130,65.163704 572.078918,71.966454 572.270874,78.646706 
	C572.496887,86.511803 578.464355,89.422134 585.743164,86.302124 
	C587.111267,85.715691 588.368591,84.870628 590.425354,84.050850 
M752.981323,66.838402 
	C753.737549,62.928757 752.203491,60.401234 748.170227,60.512741 
	C743.704407,60.636211 739.256653,61.436337 734.802673,61.955818 
	C731.519897,62.338699 729.626343,64.486267 730.716370,67.385063 
	C731.388184,69.171791 734.079407,71.241371 735.947510,71.325203 
	C740.207214,71.516380 744.548035,70.731758 748.791870,69.981117 
	C750.222046,69.728149 751.458740,68.381378 752.981323,66.838402 
M636.847229,66.204254 
	C637.259521,62.756401 635.763916,60.422054 632.293640,60.536549 
	C627.506714,60.694481 622.653137,61.135513 618.016052,62.242481 
	C616.459534,62.614056 614.197815,65.740692 614.536926,66.989174 
	C615.030151,68.805031 617.532288,71.242210 619.274658,71.322868 
	C623.688965,71.527237 628.197876,70.782265 632.581421,69.954269 
	C634.085510,69.670166 635.330078,68.011604 636.847229,66.204254 
z"/>
<path fill="#565656" opacity="1.000000" stroke="none" 
	d="
M1419.000000,2.500003 
	C946.631775,3.000000 474.263519,3.000001 1.447632,3.000000 
	C1.333333,2.333333 1.548027,1.216341 2.023962,1.090954 
	C3.114909,0.803541 4.333333,1.000000 5.500000,1.000000 
	C475.166656,1.000000 944.833313,0.999067 1414.500000,1.041195 
	C1416.000000,1.041330 1417.500000,1.666672 1419.000000,2.500003 
z"/>
<path fill="#1ABC9C" opacity="1.000000" stroke="none" 
	d="
M1070.000122,766.000000 
	C1070.000122,838.495056 1070.004883,910.490173 1069.997314,982.485229 
	C1069.994751,1006.669617 1053.717773,1022.996521 1029.593018,1022.997070 
	C800.608704,1023.002441 571.624329,1023.001770 342.640015,1022.997986 
	C318.179138,1022.997559 302.001801,1006.761841 302.001465,982.217590 
	C301.998108,753.399902 301.998108,524.582275 302.001526,295.764587 
	C302.001892,271.225311 318.180176,255.002243 342.657837,255.001801 
	C571.475525,254.997757 800.293152,254.998138 1029.110840,255.001190 
	C1053.931030,255.001526 1069.998535,271.130035 1069.998901,296.032593 
	C1070.001221,452.521729 1070.000000,609.010864 1070.000122,766.000000 
M591.760498,771.001648 
	C577.326721,771.675781 568.016296,781.337524 568.010742,795.812378 
	C567.986877,857.293091 567.995483,918.773804 568.003845,980.254517 
	C568.006042,996.416992 577.616089,1005.994568 593.826416,1005.996521 
	C655.307129,1006.003967 716.787781,1006.004761 778.268494,1005.996094 
	C794.426453,1005.993774 803.994690,996.382019 803.996643,980.159790 
	C804.003967,919.178955 804.002319,858.198059 803.997803,797.217224 
	C803.996521,780.373291 794.575195,771.002808 777.645813,771.001831 
	C715.998474,770.998291 654.351196,771.000549 591.760498,771.001648 
M866.500000,755.999756 
	C920.812805,755.999512 975.125671,756.019226 1029.438477,755.985718 
	C1043.733398,755.976929 1053.963135,746.035583 1053.975342,731.991455 
	C1054.029785,669.681763 1054.027710,607.372009 1053.977051,545.062317 
	C1053.965820,531.187256 1043.843140,521.036194 1029.991943,521.024536 
	C967.349060,520.971741 904.706116,520.973145 842.063232,521.023315 
	C828.192993,521.034424 818.036316,531.161743 818.024536,545.008423 
	C817.971619,607.318115 817.972900,669.627808 818.023315,731.937500 
	C818.034546,745.812744 828.156799,755.861877 842.009033,755.985962 
	C849.838806,756.056091 857.669617,755.999329 866.500000,755.999756 
M553.999756,570.500000 
	C553.999695,562.669617 554.005066,554.839172 553.998474,547.008789 
	C553.984558,530.485657 544.494446,521.004211 527.939880,521.002686 
	C466.629700,520.997009 405.319489,520.996704 344.009308,521.002808 
	C327.486420,521.004456 318.004272,530.506226 318.002747,547.060059 
	C317.997131,608.037048 317.996918,669.013977 318.002930,729.990967 
	C318.004547,746.510437 327.509247,755.995850 344.060333,755.997375 
	C405.370514,756.003052 466.680725,756.003235 527.990906,755.997192 
	C544.514221,755.995544 553.995422,746.494568 553.997314,729.940186 
	C554.003479,677.126770 553.999695,624.313416 553.999756,570.500000 
M568.000244,477.442383 
	C566.267761,495.530548 578.606873,506.421478 596.513062,506.237000 
	C656.984924,505.613831 717.467224,506.002991 777.945496,505.997253 
	C794.498169,505.995697 803.995605,496.513641 803.997253,479.984863 
	C804.003296,419.006744 804.003113,358.028656 803.997314,297.050537 
	C803.995728,280.499207 794.512817,271.004456 777.980896,271.002869 
	C716.669556,270.996948 655.358276,270.997070 594.046936,271.002777 
	C577.496948,271.004333 568.004456,280.487610 568.002747,297.023102 
	C567.996643,356.834961 568.000244,416.646820 568.000244,477.442383 
M646.500000,756.000000 
	C690.650269,755.999939 734.800537,756.014465 778.950806,755.991882 
	C794.121582,755.984070 803.986755,746.135071 803.991577,730.980347 
	C804.011292,669.336670 804.010986,607.692993 803.991882,546.049316 
	C803.987122,530.878601 794.135010,521.013245 778.980469,521.008423 
	C717.003601,520.988770 655.026672,520.989075 593.049805,521.008057 
	C577.878967,521.012756 568.013245,530.864990 568.008423,546.019348 
	C567.988708,607.663025 567.988953,669.306702 568.008118,730.950378 
	C568.012817,746.121338 577.864929,755.966614 593.019592,755.992798 
	C610.513000,756.023010 628.006531,755.999939 646.500000,756.000000 
M977.500000,271.000000 
	C932.683472,271.000092 887.867004,270.985779 843.050476,271.008301 
	C827.880127,271.015930 818.013245,280.866333 818.008362,296.019684 
	C817.988586,357.663208 817.989014,419.306763 818.008118,480.950287 
	C818.012878,496.122253 827.864136,505.986633 843.020447,505.991455 
	C904.997192,506.011230 966.973938,506.010834 1028.950684,505.991699 
	C1044.121094,505.987030 1053.987061,496.133698 1053.991943,480.980499 
	C1054.011475,419.336975 1054.010986,357.693420 1053.992065,296.049896 
	C1053.987427,280.879364 1044.135864,271.034607 1028.981079,271.007233 
	C1012.154114,270.976807 995.327026,271.000092 977.500000,271.000000 
M434.500000,1006.000000 
	C465.821686,1006.000000 497.143402,1006.010437 528.465088,1005.995605 
	C544.321411,1005.988098 553.992676,996.321899 553.995483,980.466187 
	C554.006470,919.155823 554.006409,857.845398 553.995483,796.535034 
	C553.992676,780.678833 544.321777,771.007263 528.466370,771.004456 
	C466.822754,770.993530 405.179169,770.993591 343.535553,771.004456 
	C327.683380,771.007263 318.007538,780.682251 318.004700,796.533569 
	C317.993683,857.843933 317.993683,919.154358 318.004700,980.464722 
	C318.007568,996.321533 327.678101,1005.987671 343.533661,1005.995605 
	C373.522430,1006.010620 403.511230,1005.999939 434.500000,1006.000000 
M554.000000,466.499695 
	C553.999878,409.521088 554.017639,352.542511 553.986694,295.563904 
	C553.979187,281.714508 544.250549,271.085541 530.993774,271.059967 
	C467.684326,270.937775 404.374451,270.945770 341.064941,271.054840 
	C328.363495,271.076721 318.080597,281.320557 318.057495,294.006317 
	C317.942841,356.982574 317.945465,419.959259 318.054810,482.935547 
	C318.076874,495.636719 328.320984,505.919678 341.006805,505.942566 
	C404.316284,506.056885 467.626190,506.054260 530.935730,505.945129 
	C543.636719,505.923248 553.653564,495.680023 553.973572,482.993103 
	C554.103760,477.831635 553.998230,472.664185 554.000000,466.499695 
M987.500000,1006.000000 
	C1000.994995,1005.999939 1014.489990,1006.006470 1027.984985,1005.998291 
	C1044.513062,1005.988281 1053.996582,996.497192 1053.997925,979.946777 
	C1054.003174,918.969666 1054.003296,857.992554 1053.997803,797.015442 
	C1053.996338,780.488342 1044.498169,771.003723 1027.947266,771.002258 
	C966.636963,770.996765 905.326660,770.996521 844.016357,771.002380 
	C827.487793,771.003906 818.003784,780.502014 818.002258,797.052979 
	C817.996765,858.030090 817.996521,919.007141 818.002319,979.984253 
	C818.003906,996.513000 827.501648,1005.995605 844.053528,1005.997742 
	C891.535706,1006.003967 939.017822,1006.000000 987.500000,1006.000000 
z"/>
<path fill="#F7FDFB" opacity="1.000000" stroke="none" 
	d="
M580.339355,31.266373 
	C585.042603,32.476730 588.491455,34.096138 586.268005,39.634380 
	C586.028931,40.229656 586.561951,41.443310 587.112549,41.995541 
	C590.013367,44.905308 589.983765,48.100037 587.439270,50.875885 
	C584.623779,53.947369 580.685852,53.998909 577.358643,52.025280 
	C574.065918,50.072094 574.411438,46.774494 576.063477,43.639729 
	C576.293396,43.203522 576.450562,42.728973 577.139221,41.080402 
	C572.978516,41.080402 569.280090,40.876114 565.639954,41.245739 
	C564.874451,41.323467 563.947754,43.446301 563.731323,44.733711 
	C561.716248,56.718540 559.771729,68.716408 557.956543,80.733124 
	C557.198486,85.751320 554.881226,88.150475 550.724426,87.617653 
	C546.638794,87.093956 544.971069,84.611839 545.739868,79.528084 
	C547.655701,66.859833 549.715332,54.213326 551.820984,40.902664 
	C549.012024,41.308353 546.236084,41.485355 543.581116,42.147160 
	C539.939026,43.055023 538.030823,45.361301 539.724731,49.189442 
	C541.046082,52.175560 540.674683,54.341007 537.598450,55.745285 
	C534.213440,57.290497 531.841919,55.984497 530.068604,53.018711 
	C526.010315,46.231304 529.407043,36.349041 537.946716,34.164394 
	C547.006592,31.846697 556.574707,31.344656 565.963440,30.557310 
	C570.565674,30.171362 575.264282,30.934816 580.339355,31.266373 
z"/>
<path fill="#F7FDFB" opacity="1.000000" stroke="none" 
	d="
M843.065063,72.591904 
	C847.519897,73.942017 848.540649,77.463448 845.512451,81.670525 
	C842.333557,86.086983 837.818359,87.941109 832.481873,87.531319 
	C826.854309,87.099190 822.124207,85.048813 819.833618,79.351006 
	C819.413452,78.305878 819.018982,77.250427 818.324768,75.455315 
	C817.315247,77.263451 816.632751,78.494202 815.942566,79.720642 
	C812.621460,85.621918 806.114197,88.607971 799.943115,87.064919 
	C793.748413,85.515953 790.077942,80.436760 789.970032,73.264267 
	C789.803955,62.224838 796.726074,54.636795 806.486572,54.969143 
	C813.606628,55.211586 816.266785,60.278072 818.828674,66.893265 
	C820.048950,64.817688 820.530762,63.109921 821.658875,62.246830 
	C824.976074,59.708923 828.274353,56.262459 832.078003,55.420044 
	C841.218079,53.395744 846.224976,60.080345 842.643433,69.533340 
	C841.862366,71.048126 841.410400,72.004120 840.618164,73.036728 
	C837.662476,74.657883 835.046997,76.202415 831.374023,78.371414 
	C837.140259,79.525391 839.303345,76.619896 841.491821,73.147568 
	C842.243958,72.973335 842.654480,72.782616 843.065063,72.591904 
M802.167358,77.124725 
	C803.731934,76.950096 805.482727,77.130363 806.781250,76.448830 
	C807.415955,76.115669 807.696899,73.971802 807.288513,73.006973 
	C806.180847,70.389618 804.619324,67.964340 803.123291,65.255600 
	C800.089966,68.769402 800.295166,72.542122 802.167358,77.124725 
z"/>
<path fill="#F6FCFB" opacity="1.000000" stroke="none" 
	d="
M721.638428,77.082321 
	C722.335327,76.532310 722.722595,76.214531 723.078613,75.864960 
	C724.919739,74.057251 727.048096,70.763237 729.443665,73.547905 
	C730.757446,75.075027 730.413574,79.448692 729.147644,81.516876 
	C724.779358,88.653442 716.019287,89.504425 707.057861,84.307503 
	C698.046814,88.519852 697.308350,88.526421 691.747742,84.506653 
	C689.613281,85.435814 687.608276,86.689079 685.431152,87.181847 
	C679.897400,88.434357 675.120605,85.257881 673.742493,79.752327 
	C671.434082,70.529915 677.596985,59.191177 686.502625,55.675610 
	C691.839172,53.568951 696.086243,56.591049 700.523926,58.290691 
	C701.414551,58.631783 701.636902,61.844608 701.446350,63.657578 
	C700.984802,68.049622 700.098267,72.397018 699.383057,76.762413 
	C700.036926,76.939766 700.690796,77.117126 701.344666,77.294487 
	C701.935913,75.396858 702.863586,73.533661 703.061829,71.595825 
	C704.083313,61.612526 711.115906,54.519466 719.664612,55.082005 
	C724.238831,55.383007 727.075012,58.050449 727.595947,62.541466 
	C728.103638,66.918480 725.869080,70.671227 722.562500,70.994530 
	C719.004944,71.342369 718.193542,70.271286 717.613403,64.461464 
	C714.380920,67.502792 712.829956,73.764328 715.324158,76.398720 
	C716.417969,77.553986 719.263977,77.050262 721.638428,77.082321 
M685.791382,68.530891 
	C685.177673,71.650276 684.563904,74.769661 683.950195,77.889046 
	C684.694946,78.055573 685.439758,78.222099 686.184570,78.388626 
	C690.173218,74.660492 689.385376,69.290207 690.840027,64.690887 
	C690.458374,64.476250 690.076721,64.261604 689.695068,64.046959 
	C688.505920,65.316536 687.316772,66.586113 685.791382,68.530891 
z"/>
<path fill="#F6FCFB" opacity="1.000000" stroke="none" 
	d="
M762.906006,52.524632 
	C760.828918,54.078045 758.622009,56.386459 756.842529,56.093960 
	C754.933044,55.780083 752.737305,53.314800 751.867554,51.275963 
	C748.903198,44.327682 752.710388,35.949036 760.788025,33.995300 
	C769.577515,31.869408 778.774353,31.120632 787.842224,30.567043 
	C793.410889,30.227076 799.152832,30.973211 804.644226,32.084892 
	C806.526917,32.466015 807.884949,35.439007 809.482605,37.227894 
	C807.562866,38.704472 805.716309,41.309914 803.709351,41.439945 
	C798.300537,41.790382 792.823364,41.085411 786.590027,40.758194 
	C784.595154,53.469551 782.660522,65.754669 780.748657,78.043327 
	C780.544128,79.357788 780.529419,80.701599 780.328918,82.016914 
	C779.728516,85.956306 777.398560,87.978607 773.429199,87.574120 
	C769.405334,87.164078 767.489075,84.741081 768.121460,80.686577 
	C769.891663,69.336761 771.743408,57.999630 773.572693,46.659065 
	C773.836060,45.026157 774.153015,43.401871 774.444214,41.778500 
	C764.651306,39.826401 760.685364,43.492615 762.906006,52.524632 
z"/>
<path fill="#F7FDFB" opacity="1.000000" stroke="none" 
	d="
M636.333374,40.471413 
	C641.284912,32.748859 649.120056,31.749779 656.719727,31.264034 
	C665.996338,30.671104 675.338257,31.082527 684.651733,31.105217 
	C685.630920,31.107601 686.618652,31.375496 687.586426,31.591757 
	C690.706360,32.289001 693.603027,33.456234 693.134033,37.357948 
	C692.660706,41.296379 689.422485,41.714706 686.328430,41.629143 
	C681.223450,41.487965 676.125854,41.081360 670.407166,40.750919 
	C668.477295,52.638233 666.626282,63.952103 664.816101,75.272484 
	C664.500671,77.244873 664.407043,79.251892 664.123779,81.230446 
	C663.451355,85.928062 660.944336,88.180168 656.946777,87.591537 
	C652.507385,86.937843 651.265930,84.099678 651.935242,79.994743 
	C653.784790,68.650986 655.602234,57.302002 657.439270,45.956203 
	C657.675842,44.495369 657.953613,43.041206 658.333313,40.902119 
	C655.346313,41.305946 652.747559,41.495838 650.223633,42.035625 
	C646.247986,42.885925 644.371216,45.304977 646.023560,49.324841 
	C647.285889,52.396027 646.711853,54.477058 643.665771,55.808784 
	C640.495605,57.194759 638.135864,56.093708 636.495544,53.272541 
	C634.127808,49.200203 634.342285,45.005783 636.333374,40.471413 
z"/>
<path fill="#F5FCFB" opacity="1.000000" stroke="none" 
	d="
M590.051147,84.097878 
	C588.368591,84.870628 587.111267,85.715691 585.743164,86.302124 
	C578.464355,89.422134 572.496887,86.511803 572.270874,78.646706 
	C572.078918,71.966454 573.583130,65.163704 574.950073,58.541725 
	C575.697998,54.918282 579.158325,54.574356 582.301697,55.257408 
	C585.773438,56.011806 585.224792,58.820400 584.845215,61.301613 
	C584.028076,66.643028 583.103760,71.968040 582.223328,77.299767 
	C582.959595,77.492676 583.695801,77.685585 584.432007,77.878494 
	C585.142395,75.815048 586.223938,73.799278 586.496155,71.679565 
	C587.464966,64.135773 590.766418,58.349281 598.169495,55.671478 
	C605.317749,53.085842 611.354736,57.045464 611.013489,63.983223 
	C610.853821,67.229965 610.255249,70.499847 606.117432,70.977341 
	C601.735168,71.483025 600.621826,68.819260 601.012695,64.611160 
	C597.538025,68.050156 597.025330,71.829498 598.392334,75.647049 
	C598.813232,76.822639 601.085266,77.842888 602.588257,77.964699 
	C603.814148,78.064056 605.326843,76.913475 606.411804,75.971153 
	C608.463318,74.189445 610.284546,70.687576 613.290771,73.641708 
	C615.995544,76.299553 614.422913,79.568604 612.373962,82.224228 
	C607.364014,88.717606 598.753052,89.409683 590.051147,84.097878 
z"/>
<path fill="#F5FCFB" opacity="1.000000" stroke="none" 
	d="
M752.882568,67.186455 
	C751.458740,68.381378 750.222046,69.728149 748.791870,69.981117 
	C744.548035,70.731758 740.207214,71.516380 735.947510,71.325203 
	C734.079407,71.241371 731.388184,69.171791 730.716370,67.385063 
	C729.626343,64.486267 731.519897,62.338699 734.802673,61.955818 
	C739.256653,61.436337 743.704407,60.636211 748.170227,60.512741 
	C752.203491,60.401234 753.737549,62.928757 752.882568,67.186455 
z"/>
<path fill="#F5FCFB" opacity="1.000000" stroke="none" 
	d="
M636.770203,66.592606 
	C635.330078,68.011604 634.085510,69.670166 632.581421,69.954269 
	C628.197876,70.782265 623.688965,71.527237 619.274658,71.322868 
	C617.532288,71.242210 615.030151,68.805031 614.536926,66.989174 
	C614.197815,65.740692 616.459534,62.614056 618.016052,62.242481 
	C622.653137,61.135513 627.506714,60.694481 632.293640,60.536549 
	C635.763916,60.422054 637.259521,62.756401 636.770203,66.592606 
z"/>
<path fill="#3CC6AB" opacity="1.000000" stroke="none" 
	d="
M840.958435,72.960114 
	C841.410400,72.004120 841.862366,71.048126 842.591187,69.927704 
	C842.924011,70.470215 842.979980,71.177162 843.050537,72.238007 
	C842.654480,72.782616 842.243958,72.973335 841.443298,73.105499 
	C841.053223,73.046944 840.958435,72.960121 840.958435,72.960114 
z"/>
<path fill="#F0F0F0" opacity="1.000000" stroke="none" 
	d="
M592.232178,771.001160 
	C654.351196,771.000549 715.998474,770.998291 777.645813,771.001831 
	C794.575195,771.002808 803.996521,780.373291 803.997803,797.217224 
	C804.002319,858.198059 804.003967,919.178955 803.996643,980.159790 
	C803.994690,996.382019 794.426453,1005.993774 778.268494,1005.996094 
	C716.787781,1006.004761 655.307129,1006.003967 593.826416,1005.996521 
	C577.616089,1005.994568 568.006042,996.416992 568.003845,980.254517 
	C567.995483,918.773804 567.986877,857.293091 568.010742,795.812378 
	C568.016296,781.337524 577.326721,771.675781 592.232178,771.001160 
z"/>
<path fill="#F0F0F0" opacity="1.000000" stroke="none" 
	d="
M866.000000,755.999756 
	C857.669617,755.999329 849.838806,756.056091 842.009033,755.985962 
	C828.156799,755.861877 818.034546,745.812744 818.023315,731.937500 
	C817.972900,669.627808 817.971619,607.318115 818.024536,545.008423 
	C818.036316,531.161743 828.192993,521.034424 842.063232,521.023315 
	C904.706116,520.973145 967.349060,520.971741 1029.991943,521.024536 
	C1043.843140,521.036194 1053.965820,531.187256 1053.977051,545.062317 
	C1054.027710,607.372009 1054.029785,669.681763 1053.975342,731.991455 
	C1053.963135,746.035583 1043.733398,755.976929 1029.438477,755.985718 
	C975.125671,756.019226 920.812805,755.999512 866.000000,755.999756 
z"/>
<path fill="#F0F0F0" opacity="1.000000" stroke="none" 
	d="
M553.999756,571.000000 
	C553.999695,624.313416 554.003479,677.126770 553.997314,729.940186 
	C553.995422,746.494568 544.514221,755.995544 527.990906,755.997192 
	C466.680725,756.003235 405.370514,756.003052 344.060333,755.997375 
	C327.509247,755.995850 318.004547,746.510437 318.002930,729.990967 
	C317.996918,669.013977 317.997131,608.037048 318.002747,547.060059 
	C318.004272,530.506226 327.486420,521.004456 344.009308,521.002808 
	C405.319489,520.996704 466.629700,520.997009 527.939880,521.002686 
	C544.494446,521.004211 553.984558,530.485657 553.998474,547.008789 
	C554.005066,554.839172 553.999695,562.669617 553.999756,571.000000 
z"/>
<path fill="#F0F0F0" opacity="1.000000" stroke="none" 
	d="
M568.000244,476.950531 
	C568.000244,416.646820 567.996643,356.834961 568.002747,297.023102 
	C568.004456,280.487610 577.496948,271.004333 594.046936,271.002777 
	C655.358276,270.997070 716.669556,270.996948 777.980896,271.002869 
	C794.512817,271.004456 803.995728,280.499207 803.997314,297.050537 
	C804.003113,358.028656 804.003296,419.006744 803.997253,479.984863 
	C803.995605,496.513641 794.498169,505.995697 777.945496,505.997253 
	C717.467224,506.002991 656.984924,505.613831 596.513062,506.237000 
	C578.606873,506.421478 566.267761,495.530548 568.000244,476.950531 
z"/>
<path fill="#F0F0F0" opacity="1.000000" stroke="none" 
	d="
M646.000000,756.000000 
	C628.006531,755.999939 610.513000,756.023010 593.019592,755.992798 
	C577.864929,755.966614 568.012817,746.121338 568.008118,730.950378 
	C567.988953,669.306702 567.988708,607.663025 568.008423,546.019348 
	C568.013245,530.864990 577.878967,521.012756 593.049805,521.008057 
	C655.026672,520.989075 717.003601,520.988770 778.980469,521.008423 
	C794.135010,521.013245 803.987122,530.878601 803.991882,546.049316 
	C804.010986,607.692993 804.011292,669.336670 803.991577,730.980347 
	C803.986755,746.135071 794.121582,755.984070 778.950806,755.991882 
	C734.800537,756.014465 690.650269,755.999939 646.000000,756.000000 
M666.200562,615.156982 
	C669.571716,621.938171 672.695007,628.859497 676.415833,635.443115 
	C678.353333,638.871460 678.470459,641.474182 676.447937,644.895447 
	C672.274170,651.955627 668.584167,659.301758 664.434204,667.015320 
	C667.114563,667.015320 668.979492,666.769409 670.755066,667.063538 
	C675.244629,667.807312 677.705872,666.080627 679.205200,661.754211 
	C680.796082,657.163635 683.127747,652.829773 685.489014,647.601929 
	C688.429016,653.706482 690.866577,658.961304 693.510925,664.109985 
	C694.105225,665.267151 695.349854,666.770325 696.419678,666.878235 
	C699.908508,667.229919 703.455017,667.010071 707.642822,667.010071 
	C703.169067,658.878967 699.278198,651.561340 695.127686,644.393921 
	C693.630798,641.809021 693.567688,639.760132 695.044189,637.105591 
	C698.976440,630.035828 702.582642,622.784790 706.663452,614.942871 
	C704.147400,614.942871 702.344849,615.181274 700.628845,614.897095 
	C695.911072,614.116028 693.399536,616.036255 691.986511,620.561523 
	C690.706909,624.659851 688.669739,628.521606 686.622437,633.289062 
	C684.961914,629.708862 683.351746,627.264526 682.673401,624.584290 
	C680.541016,616.158813 675.242554,613.314392 666.200562,615.156982 
z"/>
<path fill="#F0F0F0" opacity="1.000000" stroke="none" 
	d="
M978.000000,271.000000 
	C995.327026,271.000092 1012.154114,270.976807 1028.981079,271.007233 
	C1044.135864,271.034607 1053.987427,280.879364 1053.992065,296.049896 
	C1054.010986,357.693420 1054.011475,419.336975 1053.991943,480.980499 
	C1053.987061,496.133698 1044.121094,505.987030 1028.950684,505.991699 
	C966.973938,506.010834 904.997192,506.011230 843.020447,505.991455 
	C827.864136,505.986633 818.012878,496.122253 818.008118,480.950287 
	C817.989014,419.306763 817.988586,357.663208 818.008362,296.019684 
	C818.013245,280.866333 827.880127,271.015930 843.050476,271.008301 
	C887.867004,270.985779 932.683472,271.000092 978.000000,271.000000 
M930.483521,369.775269 
	C927.912781,364.205719 925.963196,363.632629 915.901550,365.640991 
	C919.368835,372.141907 922.526855,378.730530 926.319214,384.931213 
	C928.714600,388.847595 928.541870,391.857269 926.179993,395.723389 
	C922.066589,402.456268 918.593933,409.580566 914.597534,417.015381 
	C917.041748,417.015381 918.736511,416.789917 920.349426,417.057709 
	C925.166138,417.857422 927.994690,416.200195 929.555786,411.349731 
	C930.987427,406.901855 933.331482,402.747620 935.650635,397.632202 
	C938.590698,403.708954 941.031982,408.940704 943.672302,414.069977 
	C944.269958,415.230988 945.485107,416.764191 946.543396,416.871613 
	C950.032837,417.225891 953.580627,417.005066 957.801941,417.005066 
	C953.313599,408.838348 949.441772,401.509552 945.271912,394.354462 
	C943.739868,391.725555 943.807068,389.651093 945.244141,387.044067 
	C949.143066,379.970428 952.782959,372.753937 956.866028,364.942810 
	C954.195374,364.942810 952.366699,365.187195 950.628235,364.895142 
	C946.113159,364.136719 943.659912,365.874725 942.284973,370.267670 
	C940.970825,374.466339 938.914490,378.432709 936.834229,383.324890 
	C934.564392,378.465027 932.695251,374.463135 930.483521,369.775269 
z"/>
<path fill="#F0F0F0" opacity="1.000000" stroke="none" 
	d="
M434.000000,1006.000000 
	C403.511230,1005.999939 373.522430,1006.010620 343.533661,1005.995605 
	C327.678101,1005.987671 318.007568,996.321533 318.004700,980.464722 
	C317.993683,919.154358 317.993683,857.843933 318.004700,796.533569 
	C318.007538,780.682251 327.683380,771.007263 343.535553,771.004456 
	C405.179169,770.993591 466.822754,770.993530 528.466370,771.004456 
	C544.321777,771.007263 553.992676,780.678833 553.995483,796.535034 
	C554.006409,857.845398 554.006470,919.155823 553.995483,980.466187 
	C553.992676,996.321899 544.321411,1005.988098 528.465088,1005.995605 
	C497.143402,1006.010437 465.821686,1006.000000 434.000000,1006.000000 
M455.446503,906.933289 
	C460.144501,898.413940 460.437836,889.384644 457.909698,880.296387 
	C454.981293,869.769287 446.598724,863.872986 435.580292,863.951904 
	C424.730621,864.029602 415.950531,870.180725 413.833374,880.865967 
	C412.578979,887.196777 412.612671,894.174377 413.846161,900.515137 
	C415.725464,910.175903 422.349915,916.252563 432.309631,917.632263 
	C441.802551,918.947327 449.671844,915.851379 455.446503,906.933289 
z"/>
<path fill="#F0F0F0" opacity="1.000000" stroke="none" 
	d="
M554.000000,466.999573 
	C553.998230,472.664185 554.103760,477.831635 553.973572,482.993103 
	C553.653564,495.680023 543.636719,505.923248 530.935730,505.945129 
	C467.626190,506.054260 404.316284,506.056885 341.006805,505.942566 
	C328.320984,505.919678 318.076874,495.636719 318.054810,482.935547 
	C317.945465,419.959259 317.942841,356.982574 318.057495,294.006317 
	C318.080597,281.320557 328.363495,271.076721 341.064941,271.054840 
	C404.374451,270.945770 467.684326,270.937775 530.993774,271.059967 
	C544.250549,271.085541 553.979187,281.714508 553.986694,295.563904 
	C554.017639,352.542511 553.999878,409.521088 554.000000,466.999573 
M458.979462,396.622711 
	C459.063904,393.467957 459.443390,390.288147 459.178253,387.163055 
	C458.333588,377.207092 454.370300,369.134705 444.409973,365.406860 
	C431.410645,360.541626 418.015167,366.951294 413.898712,379.799011 
	C408.698090,396.030396 415.602692,413.249512 428.795624,416.945465 
	C428.954773,416.990021 429.126495,416.988678 429.287018,417.029633 
	C443.901764,420.761353 455.106445,413.346130 458.979462,396.622711 
z"/>
<path fill="#F0F0F0" opacity="1.000000" stroke="none" 
	d="
M987.000000,1006.000000 
	C939.017822,1006.000000 891.535706,1006.003967 844.053528,1005.997742 
	C827.501648,1005.995605 818.003906,996.513000 818.002319,979.984253 
	C817.996521,919.007141 817.996765,858.030090 818.002258,797.052979 
	C818.003784,780.502014 827.487793,771.003906 844.016357,771.002380 
	C905.326660,770.996521 966.636963,770.996765 1027.947266,771.002258 
	C1044.498169,771.003723 1053.996338,780.488342 1053.997803,797.015442 
	C1054.003296,857.992554 1054.003174,918.969666 1053.997925,979.946777 
	C1053.996582,996.497192 1044.513062,1005.988281 1027.984985,1005.998291 
	C1014.489990,1006.006470 1000.994995,1005.999939 987.000000,1006.000000 
M939.066406,917.803284 
	C952.046021,914.876099 958.426697,907.706299 959.498840,894.414490 
	C959.776733,890.969055 959.628723,887.410767 959.101562,883.992981 
	C957.212708,871.748596 948.568115,864.118469 936.757935,863.955750 
	C924.473389,863.786499 915.415100,871.009094 913.460388,883.393066 
	C912.672913,888.382080 912.715149,893.752441 913.643250,898.712891 
	C916.044556,911.547974 925.061340,918.265686 939.066406,917.803284 
z"/>
<path fill="#3CC6AB" opacity="1.000000" stroke="none" 
	d="
M801.907776,76.801796 
	C800.295166,72.542122 800.089966,68.769402 803.123291,65.255600 
	C804.619324,67.964340 806.180847,70.389618 807.288513,73.006973 
	C807.696899,73.971802 807.415955,76.115669 806.781250,76.448830 
	C805.482727,77.130363 803.731934,76.950096 801.907776,76.801796 
z"/>
<path fill="#3CC6AB" opacity="1.000000" stroke="none" 
	d="
M841.101807,73.089020 
	C839.303345,76.619896 837.140259,79.525391 831.374023,78.371414 
	C835.046997,76.202415 837.662476,74.657883 840.618164,73.036736 
	C840.958435,72.960121 841.053223,73.046944 841.101807,73.089020 
z"/>
<path fill="#3CC6AB" opacity="1.000000" stroke="none" 
	d="
M685.959473,68.193291 
	C687.316772,66.586113 688.505920,65.316536 689.695068,64.046959 
	C690.076721,64.261604 690.458374,64.476250 690.840027,64.690887 
	C689.385376,69.290207 690.173218,74.660492 686.184570,78.388626 
	C685.439758,78.222099 684.694946,78.055573 683.950195,77.889046 
	C684.563904,74.769661 685.177673,71.650276 685.959473,68.193291 
z"/>
<path fill="#080808" opacity="1.000000" stroke="none" 
	d="
M666.622681,615.058716 
	C675.242554,613.314392 680.541016,616.158813 682.673401,624.584290 
	C683.351746,627.264526 684.961914,629.708862 686.622437,633.289062 
	C688.669739,628.521606 690.706909,624.659851 691.986511,620.561523 
	C693.399536,616.036255 695.911072,614.116028 700.628845,614.897095 
	C702.344849,615.181274 704.147400,614.942871 706.663452,614.942871 
	C702.582642,622.784790 698.976440,630.035828 695.044189,637.105591 
	C693.567688,639.760132 693.630798,641.809021 695.127686,644.393921 
	C699.278198,651.561340 703.169067,658.878967 707.642822,667.010071 
	C703.455017,667.010071 699.908508,667.229919 696.419678,666.878235 
	C695.349854,666.770325 694.105225,665.267151 693.510925,664.109985 
	C690.866577,658.961304 688.429016,653.706482 685.489014,647.601929 
	C683.127747,652.829773 680.796082,657.163635 679.205200,661.754211 
	C677.705872,666.080627 675.244629,667.807312 670.755066,667.063538 
	C668.979492,666.769409 667.114563,667.015320 664.434204,667.015320 
	C668.584167,659.301758 672.274170,651.955627 676.447937,644.895447 
	C678.470459,641.474182 678.353333,638.871460 676.415833,635.443115 
	C672.695007,628.859497 669.571716,621.938171 666.622681,615.058716 
z"/>
<path fill="#080808" opacity="1.000000" stroke="none" 
	d="
M930.654846,370.118225 
	C932.695251,374.463135 934.564392,378.465027 936.834229,383.324890 
	C938.914490,378.432709 940.970825,374.466339 942.284973,370.267670 
	C943.659912,365.874725 946.113159,364.136719 950.628235,364.895142 
	C952.366699,365.187195 954.195374,364.942810 956.866028,364.942810 
	C952.782959,372.753937 949.143066,379.970428 945.244141,387.044067 
	C943.807068,389.651093 943.739868,391.725555 945.271912,394.354462 
	C949.441772,401.509552 953.313599,408.838348 957.801941,417.005066 
	C953.580627,417.005066 950.032837,417.225891 946.543396,416.871613 
	C945.485107,416.764191 944.269958,415.230988 943.672302,414.069977 
	C941.031982,408.940704 938.590698,403.708954 935.650635,397.632202 
	C933.331482,402.747620 930.987427,406.901855 929.555786,411.349731 
	C927.994690,416.200195 925.166138,417.857422 920.349426,417.057709 
	C918.736511,416.789917 917.041748,417.015381 914.597534,417.015381 
	C918.593933,409.580566 922.066589,402.456268 926.179993,395.723389 
	C928.541870,391.857269 928.714600,388.847595 926.319214,384.931213 
	C922.526855,378.730530 919.368835,372.141907 915.901550,365.640991 
	C925.963196,363.632629 927.912781,364.205719 930.654846,370.118225 
z"/>
<path fill="#060606" opacity="1.000000" stroke="none" 
	d="
M455.262024,907.246338 
	C449.671844,915.851379 441.802551,918.947327 432.309631,917.632263 
	C422.349915,916.252563 415.725464,910.175903 413.846161,900.515137 
	C412.612671,894.174377 412.578979,887.196777 413.833374,880.865967 
	C415.950531,870.180725 424.730621,864.029602 435.580292,863.951904 
	C446.598724,863.872986 454.981293,869.769287 457.909698,880.296387 
	C460.437836,889.384644 460.144501,898.413940 455.262024,907.246338 
M447.466705,893.902771 
	C447.210632,890.287964 447.402008,886.570129 446.598907,883.081238 
	C445.217224,877.078979 441.140198,873.976562 435.766052,874.000977 
	C430.623322,874.024292 426.691742,877.005188 425.221252,882.799744 
	C424.379547,886.116516 424.121246,889.683533 424.227051,893.118530 
	C424.493134,901.756470 429.029785,907.603027 435.291718,907.948181 
	C441.650391,908.298706 445.744049,903.823364 447.466705,893.902771 
z"/>
<path fill="#060606" opacity="1.000000" stroke="none" 
	d="
M458.920837,397.038910 
	C455.106445,413.346130 443.901764,420.761353 429.287018,417.029633 
	C429.126495,416.988678 428.954773,416.990021 428.795624,416.945465 
	C415.602692,413.249512 408.698090,396.030396 413.898712,379.799011 
	C418.015167,366.951294 431.410645,360.541626 444.409973,365.406860 
	C454.370300,369.134705 458.333588,377.207092 459.178253,387.163055 
	C459.443390,390.288147 459.063904,393.467957 458.920837,397.038910 
M426.631500,379.355499 
	C423.248810,385.959534 423.367340,392.830200 425.498169,399.673981 
	C427.190521,405.109619 431.255676,408.113983 436.049744,407.938202 
	C441.405853,407.741821 445.157104,404.614868 446.004059,399.751465 
	C446.973389,394.185516 446.985992,388.296997 446.372284,382.662140 
	C445.906677,378.386963 442.814728,375.114807 438.281036,374.193146 
	C433.666351,373.254974 429.756897,374.659210 426.631500,379.355499 
z"/>
<path fill="#060606" opacity="1.000000" stroke="none" 
	d="
M938.629761,917.838867 
	C925.061340,918.265686 916.044556,911.547974 913.643250,898.712891 
	C912.715149,893.752441 912.672913,888.382080 913.460388,883.393066 
	C915.415100,871.009094 924.473389,863.786499 936.757935,863.955750 
	C948.568115,864.118469 957.212708,871.748596 959.101562,883.992981 
	C959.628723,887.410767 959.776733,890.969055 959.498840,894.414490 
	C958.426697,907.706299 952.046021,914.876099 938.629761,917.838867 
M947.350891,884.505737 
	C945.059998,876.598389 941.380798,873.474304 935.003479,874.021301 
	C929.511292,874.492371 925.285522,879.059326 924.851746,886.380493 
	C924.572449,891.093079 925.105408,896.040344 926.324036,900.601929 
	C927.508179,905.034363 931.033936,907.860901 935.977417,907.928650 
	C941.130005,907.999329 944.899231,905.207153 946.061951,900.527344 
	C947.276672,895.638672 947.111572,890.407166 947.350891,884.505737 
z"/>
<path fill="#EAEAEA" opacity="1.000000" stroke="none" 
	d="
M447.420349,894.321167 
	C445.744049,903.823364 441.650391,908.298706 435.291718,907.948181 
	C429.029785,907.603027 424.493134,901.756470 424.227051,893.118530 
	C424.121246,889.683533 424.379547,886.116516 425.221252,882.799744 
	C426.691742,877.005188 430.623322,874.024292 435.766052,874.000977 
	C441.140198,873.976562 445.217224,877.078979 446.598907,883.081238 
	C447.402008,886.570129 447.210632,890.287964 447.420349,894.321167 
z"/>
<path fill="#EAEAEA" opacity="1.000000" stroke="none" 
	d="
M426.822998,379.025177 
	C429.756897,374.659210 433.666351,373.254974 438.281036,374.193146 
	C442.814728,375.114807 445.906677,378.386963 446.372284,382.662140 
	C446.985992,388.296997 446.973389,394.185516 446.004059,399.751465 
	C445.157104,404.614868 441.405853,407.741821 436.049744,407.938202 
	C431.255676,408.113983 427.190521,405.109619 425.498169,399.673981 
	C423.367340,392.830200 423.248810,385.959534 426.822998,379.025177 
z"/>
<path fill="#EAEAEA" opacity="1.000000" stroke="none" 
	d="
M947.450317,884.915649 
	C947.111572,890.407166 947.276672,895.638672 946.061951,900.527344 
	C944.899231,905.207153 941.130005,907.999329 935.977417,907.928650 
	C931.033936,907.860901 927.508179,905.034363 926.324036,900.601929 
	C925.105408,896.040344 924.572449,891.093079 924.851746,886.380493 
	C925.285522,879.059326 929.511292,874.492371 935.003479,874.021301 
	C941.380798,873.474304 945.059998,876.598389 947.450317,884.915649 
z"/>
</svg>